<svg width="1440" height="491" viewBox="0 0 1440 491" fill="none" xmlns="http://www.w3.org/2000/svg">
<rect width="1444" height="491" fill="#001B6C"/>
<g style="mix-blend-mode:hard-light">
<path d="M212.513 291.188C195.362 291.188 180.604 288.097 168.239 281.915C156.074 275.533 146.701 266.558 140.12 254.991C133.738 243.225 130.547 229.365 130.547 213.41V77.5983H170.034V214.607C170.034 227.37 173.624 237.442 180.803 244.821C188.182 252.199 198.752 255.889 212.513 255.889C226.274 255.889 236.744 252.199 243.923 244.821C251.302 237.442 254.991 227.37 254.991 214.607V77.5983H294.479V213.41C294.479 229.365 291.188 243.225 284.607 254.991C278.225 266.558 268.852 275.533 256.487 281.915C244.322 288.097 229.664 291.188 212.513 291.188ZM332.732 287V77.5983H418.886C432.048 77.5983 443.615 80.2906 453.587 85.6752C463.757 90.8604 471.635 98.2393 477.219 107.812C483.002 117.385 485.894 128.752 485.894 141.915V146.103C485.894 159.066 482.903 170.433 476.92 180.205C471.136 189.778 463.159 197.256 452.988 202.641C443.017 207.826 431.649 210.419 418.886 210.419H372.219V287H332.732ZM372.219 174.521H414.997C424.37 174.521 431.948 171.929 437.732 166.744C443.515 161.558 446.407 154.479 446.407 145.504V142.513C446.407 133.538 443.515 126.459 437.732 121.274C431.948 116.088 424.37 113.496 414.997 113.496H372.219V174.521ZM561.148 287V113.496H500.122V77.5983H661.661V113.496H600.635V287H561.148ZM688.551 287V77.5983H728.038V287H688.551ZM848.795 291.188C822.47 291.188 801.53 284.009 785.974 269.65C770.419 255.091 762.641 234.35 762.641 207.427V157.171C762.641 130.248 770.419 109.607 785.974 95.2479C801.53 80.6895 822.47 73.4103 848.795 73.4103C875.12 73.4103 896.06 80.6895 911.615 95.2479C927.171 109.607 934.949 130.248 934.949 157.171V207.427C934.949 234.35 927.171 255.091 911.615 269.65C896.06 284.009 875.12 291.188 848.795 291.188ZM848.795 255.889C863.553 255.889 875.02 251.601 883.197 243.026C891.373 234.45 895.461 222.983 895.461 208.624V155.974C895.461 141.615 891.373 130.148 883.197 121.573C875.02 112.997 863.553 108.709 848.795 108.709C834.236 108.709 822.769 112.997 814.393 121.573C806.216 130.148 802.128 141.615 802.128 155.974V208.624C802.128 222.983 806.216 234.45 814.393 243.026C822.769 251.601 834.236 255.889 848.795 255.889ZM969.584 287V77.5983H1044.67L1086.25 260.077H1091.64V77.5983H1130.52V287H1055.44L1013.86 104.521H1008.47V287H969.584ZM1242.68 291.188C1226.53 291.188 1212.27 288.296 1199.9 282.513C1187.54 276.729 1177.87 268.453 1170.89 257.684C1163.91 246.915 1160.42 233.952 1160.42 218.795V210.419H1199.3V218.795C1199.3 231.359 1203.19 240.832 1210.97 247.214C1218.75 253.396 1229.32 256.487 1242.68 256.487C1256.24 256.487 1266.31 253.795 1272.89 248.41C1279.67 243.026 1283.06 236.145 1283.06 227.769C1283.06 221.986 1281.37 217.299 1277.98 213.709C1274.79 210.12 1270 207.228 1263.62 205.034C1257.44 202.641 1249.86 200.447 1240.89 198.453L1234.01 196.957C1219.65 193.766 1207.28 189.778 1196.91 184.991C1186.74 180.006 1178.86 173.524 1173.28 165.547C1167.89 157.57 1165.2 147.199 1165.2 134.436C1165.2 121.672 1168.19 110.803 1174.18 101.829C1180.36 92.6553 1188.93 85.6752 1199.9 80.8889C1211.07 75.9031 1224.13 73.4103 1239.09 73.4103C1254.05 73.4103 1267.31 76.0029 1278.88 81.1881C1290.64 86.1738 1299.82 93.7521 1306.4 103.923C1313.18 113.895 1316.57 126.459 1316.57 141.615V150.59H1277.68V141.615C1277.68 133.638 1276.08 127.256 1272.89 122.47C1269.9 117.484 1265.52 113.895 1259.73 111.701C1253.95 109.308 1247.07 108.111 1239.09 108.111C1227.12 108.111 1218.25 110.405 1212.47 114.991C1206.88 119.379 1204.09 125.462 1204.09 133.239C1204.09 138.425 1205.39 142.812 1207.98 146.402C1210.77 149.991 1214.86 152.983 1220.24 155.376C1225.63 157.769 1232.51 159.863 1240.89 161.658L1247.77 163.154C1262.72 166.345 1275.69 170.433 1286.65 175.419C1297.82 180.405 1306.5 186.986 1312.68 195.162C1318.86 203.339 1321.95 213.809 1321.95 226.573C1321.95 239.336 1318.66 250.604 1312.08 260.376C1305.7 269.949 1296.53 277.527 1284.56 283.111C1272.79 288.496 1258.83 291.188 1242.68 291.188Z" fill="url(#paint0_linear_1349_1008)"/>
</g>
<defs>
<linearGradient id="paint0_linear_1349_1008" x1="661.332" y1="-279" x2="656.832" y2="507" gradientUnits="userSpaceOnUse">
<stop stop-color="white" stop-opacity="0.5"/>
<stop offset="0.73849" stop-color="#999999" stop-opacity="0"/>
</linearGradient>
</defs>
</svg>
