<svg width="24" height="25" viewBox="0 0 24 25" fill="none" xmlns="http://www.w3.org/2000/svg">
<path d="M2.5 12.9336C2.5 8.45525 2.5 6.21608 3.89124 4.82483C5.28249 3.43359 7.52166 3.43359 12 3.43359C16.4783 3.43359 18.7175 3.43359 20.1088 4.82483C21.5 6.21608 21.5 8.45525 21.5 12.9336C21.5 17.4119 21.5 19.6511 20.1088 21.0424C18.7175 22.4336 16.4783 22.4336 12 22.4336C7.52166 22.4336 5.28249 22.4336 3.89124 21.0424C2.5 19.6511 2.5 17.4119 2.5 12.9336Z" stroke="white" stroke-width="1.5" stroke-linejoin="round"/>
<path d="M16.5 12.9336C16.5 15.4189 14.4853 17.4336 12 17.4336C9.51472 17.4336 7.5 15.4189 7.5 12.9336C7.5 10.4483 9.51472 8.43359 12 8.43359C14.4853 8.43359 16.5 10.4483 16.5 12.9336Z" stroke="white" stroke-width="1.5"/>
<path d="M17.507 7.43359H17.498" stroke="white" stroke-width="2" stroke-linecap="round" stroke-linejoin="round"/>
</svg>
