<svg width="24" height="25" viewBox="0 0 24 25" fill="none" xmlns="http://www.w3.org/2000/svg">
<path d="M4.5 10.4336H4C3.05719 10.4336 2.58579 10.4336 2.29289 10.7265C2 11.0194 2 11.4908 2 12.4336V20.9336C2 21.8764 2 22.3478 2.29289 22.6407C2.58579 22.9336 3.05719 22.9336 4 22.9336H4.5C5.44281 22.9336 5.91421 22.9336 6.20711 22.6407C6.5 22.3478 6.5 21.8764 6.5 20.9336V12.4336C6.5 11.4908 6.5 11.0194 6.20711 10.7265C5.91421 10.4336 5.44281 10.4336 4.5 10.4336Z" stroke="white" stroke-width="1.5"/>
<path d="M6.5 5.18359C6.5 6.42623 5.49264 7.43359 4.25 7.43359C3.00736 7.43359 2 6.42623 2 5.18359C2 3.94095 3.00736 2.93359 4.25 2.93359C5.49264 2.93359 6.5 3.94095 6.5 5.18359Z" stroke="white" stroke-width="1.5"/>
<path d="M12.326 10.4336H11.5C10.5572 10.4336 10.0858 10.4336 9.79289 10.7265C9.5 11.0194 9.5 11.4908 9.5 12.4336V20.9336C9.5 21.8764 9.5 22.3478 9.79289 22.6407C10.0858 22.9336 10.5572 22.9336 11.5 22.9336H12C12.9428 22.9336 13.4142 22.9336 13.7071 22.6407C14 22.3478 14 21.8764 14 20.9336L14.0001 17.4337C14.0001 15.7769 14.5281 14.4337 16.0879 14.4337C16.8677 14.4337 17.5 15.1053 17.5 15.9337V20.4337C17.5 21.3765 17.5 21.8479 17.7929 22.1408C18.0857 22.4337 18.5572 22.4337 19.5 22.4337H19.9987C20.9413 22.4337 21.4126 22.4337 21.7055 22.1409C21.9984 21.8481 21.9985 21.3768 21.9987 20.4342L22.0001 14.9338C22.0001 12.4486 19.6364 10.4338 17.2968 10.4338C15.9649 10.4338 14.7767 11.0867 14.0001 12.1076C14 11.4775 14 11.1625 13.8632 10.9286C13.7765 10.7805 13.6531 10.6571 13.505 10.5705C13.2711 10.4336 12.9561 10.4336 12.326 10.4336Z" stroke="white" stroke-width="1.5" stroke-linejoin="round"/>
</svg>
