<svg width="168" height="47" viewBox="0 0 168 47" fill="none" xmlns="http://www.w3.org/2000/svg">
<g filter="url(#filter0_d_978_456)">
<rect x="4.67212" y="1.21509" width="158.174" height="37.5579" rx="7.3643" fill="white" fill-opacity="0.75" shape-rendering="crispEdges"/>
<path d="M19.0448 12.2617C14.7367 12.2617 11.3123 15.6861 11.3123 19.9942C11.3123 24.3024 14.7367 27.7268 19.0448 27.7268C23.3529 27.7268 26.7773 24.3024 26.7773 19.9942C26.7773 15.6861 23.3529 12.2617 19.0448 12.2617ZM22.0273 23.8605L19.0448 20.878L16.0622 23.8605L15.1785 22.9768L18.1611 19.9942L15.1785 17.0117L16.0622 16.128L19.0448 19.1105L22.0273 16.128L22.911 17.0117L19.9285 19.9942L22.911 22.9768L22.0273 23.8605Z" fill="#D40511"/>
<path d="M33.6359 26.4941V13.3489H41.976V14.4167H34.8878V19.1667H41.1843V20.2345H34.8878V26.4941H33.6359ZM44.353 19.9031H43.1931C43.2544 18.823 43.6227 18.0252 44.2977 17.5097C44.9851 16.9819 45.8995 16.718 47.0409 16.718C49.373 16.718 50.539 17.7368 50.539 19.7742V24.8188C50.539 25.2852 50.766 25.5184 51.2202 25.5184C51.3552 25.5184 51.4779 25.4938 51.5884 25.4447V26.4205C51.3429 26.4696 51.0913 26.4941 50.8335 26.4941C50.2935 26.4941 49.9314 26.3591 49.7473 26.0891C49.5632 25.8068 49.4711 25.3895 49.4711 24.8372H49.4343C48.9802 25.5122 48.5015 26.0032 47.9983 26.31C47.5073 26.6169 46.8323 26.7703 45.9731 26.7703C45.0403 26.7703 44.2732 26.5371 43.6718 26.0707C43.0826 25.6043 42.788 24.9108 42.788 23.9903C42.788 23.6466 42.8371 23.3398 42.9353 23.0697C43.0335 22.7874 43.144 22.5542 43.2667 22.3701C43.4017 22.1737 43.6043 22.0019 43.8743 21.8546C44.1566 21.6951 44.3959 21.5785 44.5923 21.5048C44.7887 21.4189 45.0832 21.3391 45.476 21.2655C45.881 21.1918 46.1879 21.1427 46.3965 21.1182C46.6052 21.0814 46.9427 21.0384 47.4091 20.9893C47.6178 20.9648 47.7774 20.9464 47.8878 20.9341C48.4279 20.885 48.8084 20.7807 49.0293 20.6211C49.2625 20.4493 49.3791 20.124 49.3791 19.6453C49.3791 18.9212 49.1582 18.418 48.7163 18.1357C48.2744 17.8411 47.6669 17.6938 46.8936 17.6938C46.1327 17.6938 45.5251 17.8779 45.071 18.2461C44.6168 18.6021 44.3775 19.1544 44.353 19.9031ZM49.3791 22.812V21.3023H49.3423C49.2441 21.4864 48.9188 21.6276 48.3665 21.7258C48.1578 21.7626 47.8265 21.8178 47.3723 21.8915C46.9182 21.9528 46.5684 22.0081 46.3229 22.0571C46.0774 22.094 45.7767 22.1676 45.4208 22.2781C45.0771 22.3763 44.8132 22.4867 44.6291 22.6095C44.4573 22.7322 44.2977 22.9102 44.1504 23.1434C44.0154 23.3643 43.9479 23.6221 43.9479 23.9166C43.9479 24.4812 44.1566 24.9354 44.5739 25.279C44.9912 25.6227 45.4883 25.7945 46.0652 25.7945C46.998 25.7945 47.7835 25.5245 48.4217 24.9845C49.06 24.4321 49.3791 23.708 49.3791 22.812ZM52.8689 15.2083V13.3489H54.0288V15.2083H52.8689ZM52.8689 26.4941V16.9942H54.0288V26.4941H52.8689ZM56.267 26.4941V13.3489H57.4269V26.4941H56.267ZM67.637 22.0571H60.3279C60.3279 23.0268 60.5918 23.8921 61.1195 24.6531C61.6596 25.414 62.439 25.7945 63.4577 25.7945C65.041 25.7945 66.0352 24.9845 66.4403 23.3643H67.6001C67.0724 25.635 65.6916 26.7703 63.4577 26.7703C62.0339 26.7703 60.96 26.2978 60.2358 25.3527C59.5239 24.4076 59.168 23.2048 59.168 21.7442C59.168 20.8604 59.3092 20.0565 59.5915 19.3324C59.8738 18.5959 60.3463 17.9761 61.0091 17.4729C61.6841 16.9696 62.5004 16.718 63.4577 16.718C64.4273 16.718 65.2374 16.9819 65.8879 17.5097C66.5507 18.0375 67.0171 18.6941 67.2872 19.4796C67.5572 20.2652 67.6738 21.1243 67.637 22.0571ZM60.3279 21.0814H66.4771C66.4525 20.1608 66.1641 19.3692 65.6118 18.7064C65.0595 18.0313 64.3414 17.6938 63.4577 17.6938C62.5617 17.6938 61.8437 18.0252 61.3037 18.688C60.7636 19.3385 60.4384 20.1363 60.3279 21.0814ZM77.5522 13.3489V26.4941H76.4843V24.6899H76.4475C76.202 25.3036 75.754 25.8068 75.1035 26.1996C74.453 26.5801 73.7718 26.7703 73.0599 26.7703C71.6853 26.7703 70.6297 26.2916 69.8933 25.3343C69.1569 24.3769 68.7886 23.1802 68.7886 21.7442C68.7886 20.3081 69.1569 19.1114 69.8933 18.1541C70.6297 17.1967 71.6853 16.718 73.0599 16.718C73.7964 16.718 74.4714 16.9021 75.0851 17.2703C75.6988 17.6386 76.1223 18.1479 76.3555 18.7984H76.3923V13.3489H77.5522ZM70.2431 19.811C70.0467 20.4002 69.9485 21.0446 69.9485 21.7442C69.9485 22.4438 70.0467 23.0881 70.2431 23.6773C70.4517 24.2664 70.7954 24.7697 71.2741 25.187C71.765 25.592 72.3603 25.7945 73.0599 25.7945C74.1891 25.7945 75.0237 25.4018 75.5638 24.6162C76.1161 23.8184 76.3923 22.8611 76.3923 21.7442C76.3923 20.6272 76.1161 19.676 75.5638 18.8905C75.0237 18.0927 74.1891 17.6938 73.0599 17.6938C72.3603 17.6938 71.765 17.9025 71.2741 18.3198C70.7954 18.7248 70.4517 19.2219 70.2431 19.811ZM93.2481 13.3489V26.4941H92.1802V24.6899H92.1434C91.8979 25.3036 91.4499 25.8068 90.7994 26.1996C90.1489 26.5801 89.4677 26.7703 88.7558 26.7703C87.3812 26.7703 86.3256 26.2916 85.5892 25.3343C84.8527 24.3769 84.4845 23.1802 84.4845 21.7442C84.4845 20.3081 84.8527 19.1114 85.5892 18.1541C86.3256 17.1967 87.3812 16.718 88.7558 16.718C89.4923 16.718 90.1673 16.9021 90.781 17.2703C91.3947 17.6386 91.8181 18.1479 92.0514 18.7984H92.0882V13.3489H93.2481ZM85.939 19.811C85.7426 20.4002 85.6444 21.0446 85.6444 21.7442C85.6444 22.4438 85.7426 23.0881 85.939 23.6773C86.1476 24.2664 86.4913 24.7697 86.97 25.187C87.4609 25.592 88.0562 25.7945 88.7558 25.7945C89.885 25.7945 90.7196 25.4018 91.2597 24.6162C91.812 23.8184 92.0882 22.8611 92.0882 21.7442C92.0882 20.6272 91.812 19.676 91.2597 18.8905C90.7196 18.0927 89.885 17.6938 88.7558 17.6938C88.0562 17.6938 87.4609 17.9025 86.97 18.3198C86.4913 18.7248 86.1476 19.2219 85.939 19.811ZM103.452 22.0571H96.1426C96.1426 23.0268 96.4065 23.8921 96.9342 24.6531C97.4743 25.414 98.2537 25.7945 99.2724 25.7945C100.856 25.7945 101.85 24.9845 102.255 23.3643H103.415C102.887 25.635 101.506 26.7703 99.2724 26.7703C97.8486 26.7703 96.7747 26.2978 96.0505 25.3527C95.3386 24.4076 94.9827 23.2048 94.9827 21.7442C94.9827 20.8604 95.1238 20.0565 95.4061 19.3324C95.6884 18.5959 96.161 17.9761 96.8238 17.4729C97.4988 16.9696 98.315 16.718 99.2724 16.718C100.242 16.718 101.052 16.9819 101.703 17.5097C102.365 18.0375 102.832 18.6941 103.102 19.4796C103.372 20.2652 103.488 21.1243 103.452 22.0571ZM96.1426 21.0814H102.292C102.267 20.1608 101.979 19.3692 101.426 18.7064C100.874 18.0313 100.156 17.6938 99.2724 17.6938C98.3764 17.6938 97.6584 18.0252 97.1183 18.688C96.5783 19.3385 96.253 20.1363 96.1426 21.0814ZM105.027 26.4941V13.3489H106.187V26.4941H105.027ZM108.425 15.2083V13.3489H109.585V15.2083H108.425ZM108.425 26.4941V16.9942H109.585V26.4941H108.425ZM114.4 26.4941L110.737 16.9942H112.025L115.008 25.3343H115.045L117.991 16.9942H119.187L115.634 26.4941H114.4ZM128.317 22.0571H121.008C121.008 23.0268 121.272 23.8921 121.8 24.6531C122.34 25.414 123.119 25.7945 124.138 25.7945C125.721 25.7945 126.715 24.9845 127.12 23.3643H128.28C127.752 25.635 126.372 26.7703 124.138 26.7703C122.714 26.7703 121.64 26.2978 120.916 25.3527C120.204 24.4076 119.848 23.2048 119.848 21.7442C119.848 20.8604 119.989 20.0565 120.271 19.3324C120.554 18.5959 121.026 17.9761 121.689 17.4729C122.364 16.9696 123.18 16.718 124.138 16.718C125.107 16.718 125.917 16.9819 126.568 17.5097C127.231 18.0375 127.697 18.6941 127.967 19.4796C128.237 20.2652 128.354 21.1243 128.317 22.0571ZM121.008 21.0814H127.157C127.133 20.1608 126.844 19.3692 126.292 18.7064C125.739 18.0313 125.021 17.6938 124.138 17.6938C123.242 17.6938 122.524 18.0252 121.984 18.688C121.444 19.3385 121.118 20.1363 121.008 21.0814ZM129.874 26.4941V16.9942H130.941V19.2219H130.978C131.273 18.4364 131.733 17.8411 132.359 17.436C132.985 17.0187 133.722 16.8285 134.568 16.8653V18.0252C133.537 17.9761 132.691 18.2829 132.028 18.9457C131.365 19.5962 131.034 20.4247 131.034 21.4312V26.4941H129.874ZM135.699 15.2083V13.3489H136.859V15.2083H135.699ZM135.699 26.4941V16.9942H136.859V26.4941H135.699ZM147.069 22.0571H139.76C139.76 23.0268 140.024 23.8921 140.552 24.6531C141.092 25.414 141.871 25.7945 142.89 25.7945C144.473 25.7945 145.468 24.9845 145.873 23.3643H147.032C146.505 25.635 145.124 26.7703 142.89 26.7703C141.466 26.7703 140.392 26.2978 139.668 25.3527C138.956 24.4076 138.6 23.2048 138.6 21.7442C138.6 20.8604 138.742 20.0565 139.024 19.3324C139.306 18.5959 139.779 17.9761 140.441 17.4729C141.117 16.9696 141.933 16.718 142.89 16.718C143.86 16.718 144.67 16.9819 145.32 17.5097C145.983 18.0375 146.449 18.6941 146.72 19.4796C146.99 20.2652 147.106 21.1243 147.069 22.0571ZM139.76 21.0814H145.909C145.885 20.1608 145.596 19.3692 145.044 18.7064C144.492 18.0313 143.774 17.6938 142.89 17.6938C141.994 17.6938 141.276 18.0252 140.736 18.688C140.196 19.3385 139.871 20.1363 139.76 21.0814ZM155.475 19.7742H154.315C154.29 19.0869 154.045 18.5714 153.579 18.2277C153.112 17.8718 152.529 17.6938 151.83 17.6938C151.228 17.6938 150.7 17.8288 150.246 18.0988C149.804 18.3566 149.583 18.7678 149.583 19.3324C149.583 20.0688 150.24 20.6027 151.553 20.9341L153.1 21.2839C153.861 21.3944 154.499 21.6705 155.015 22.1124C155.542 22.5542 155.806 23.1557 155.806 23.9166C155.806 24.8617 155.42 25.5736 154.646 26.0523C153.885 26.531 153.002 26.7703 151.995 26.7703C149.59 26.7703 148.289 25.6534 148.092 23.4195H149.252C149.301 24.1805 149.577 24.7697 150.08 25.187C150.596 25.592 151.253 25.7945 152.05 25.7945C152.713 25.7945 153.309 25.6472 153.836 25.3527C154.376 25.0458 154.646 24.5917 154.646 23.9903C154.646 23.487 154.462 23.1127 154.094 22.8672C153.726 22.6217 153.216 22.4192 152.566 22.2597L151.075 21.9283C150.203 21.7073 149.54 21.4128 149.086 21.0446C148.644 20.6763 148.424 20.124 148.424 19.3876C148.424 18.4916 148.779 17.8227 149.491 17.3808C150.203 16.939 151.038 16.718 151.995 16.718C152.989 16.718 153.806 16.9819 154.444 17.5097C155.082 18.0252 155.426 18.78 155.475 19.7742Z" fill="black"/>
</g>
<defs>
<filter id="filter0_d_978_456" x="0.253537" y="0.478658" width="167.011" height="46.395" filterUnits="userSpaceOnUse" color-interpolation-filters="sRGB">
<feFlood flood-opacity="0" result="BackgroundImageFix"/>
<feColorMatrix in="SourceAlpha" type="matrix" values="0 0 0 0 0 0 0 0 0 0 0 0 0 0 0 0 0 0 127 0" result="hardAlpha"/>
<feOffset dy="3.68215"/>
<feGaussianBlur stdDeviation="2.20929"/>
<feComposite in2="hardAlpha" operator="out"/>
<feColorMatrix type="matrix" values="0 0 0 0 0 0 0 0 0 0 0 0 0 0 0 0 0 0 0.25 0"/>
<feBlend mode="normal" in2="BackgroundImageFix" result="effect1_dropShadow_978_456"/>
<feBlend mode="normal" in="SourceGraphic" in2="effect1_dropShadow_978_456" result="shape"/>
</filter>
</defs>
</svg>
