<svg width="168" height="47" viewBox="0 0 168 47" fill="none" xmlns="http://www.w3.org/2000/svg">
<g filter="url(#filter0_d_978_471)">
<rect x="4.47949" y="1.22656" width="158.174" height="37.5579" rx="7.3643" fill="white" fill-opacity="0.75" shape-rendering="crispEdges"/>
<path d="M18.8519 12.2732C14.5438 12.2732 11.1194 15.6976 11.1194 20.0057C11.1194 24.3138 14.5438 27.7382 18.8519 27.7382C23.16 27.7382 26.5844 24.3138 26.5844 20.0057C26.5844 15.6976 23.16 12.2732 18.8519 12.2732ZM21.8344 23.872L18.8519 20.8894L15.8694 23.872L14.9856 22.9883L17.9682 20.0057L14.9856 17.0232L15.8694 16.1395L18.8519 19.122L21.8344 16.1395L22.7182 17.0232L19.7356 20.0057L22.7182 22.9883L21.8344 23.872Z" fill="#D40511"/>
<path d="M33.4433 26.5056V13.3603H34.6952V19.0677H42.5013V13.3603H43.7533V26.5056H42.5013V20.1355H34.6952V26.5056H33.4433ZM46.2038 15.2198V13.3603H47.3637V15.2198H46.2038ZM46.2038 26.5056V17.0057H47.3637V26.5056H46.2038ZM57.9419 13.3603V26.5056H56.8741V24.7014H56.8373C56.5918 25.3151 56.1438 25.8183 55.4933 26.211C54.8428 26.5915 54.1616 26.7818 53.4497 26.7818C52.075 26.7818 51.0195 26.3031 50.2831 25.3457C49.5466 24.3884 49.1784 23.1917 49.1784 21.7556C49.1784 20.3196 49.5466 19.1229 50.2831 18.1655C51.0195 17.2082 52.075 16.7295 53.4497 16.7295C54.1861 16.7295 54.8612 16.9136 55.4749 17.2818C56.0886 17.65 56.512 18.1594 56.7452 18.8099H56.7821V13.3603H57.9419ZM50.6329 19.8225C50.4365 20.4117 50.3383 21.056 50.3383 21.7556C50.3383 22.4552 50.4365 23.0996 50.6329 23.6888C50.8415 24.2779 51.1852 24.7811 51.6639 25.1985C52.1548 25.6035 52.7501 25.806 53.4497 25.806C54.5789 25.806 55.4135 25.4132 55.9536 24.6277C56.5059 23.8299 56.7821 22.8726 56.7821 21.7556C56.7821 20.6387 56.5059 19.6875 55.9536 18.902C55.4135 18.1042 54.5789 17.7053 53.4497 17.7053C52.7501 17.7053 52.1548 17.9139 51.6639 18.3312C51.1852 18.7363 50.8415 19.2334 50.6329 19.8225ZM68.5137 13.3603V26.5056H67.4459V24.7014H67.4091C67.1636 25.3151 66.7156 25.8183 66.0651 26.211C65.4146 26.5915 64.7334 26.7818 64.0215 26.7818C62.6468 26.7818 61.5913 26.3031 60.8549 25.3457C60.1184 24.3884 59.7502 23.1917 59.7502 21.7556C59.7502 20.3196 60.1184 19.1229 60.8549 18.1655C61.5913 17.2082 62.6468 16.7295 64.0215 16.7295C64.7579 16.7295 65.433 16.9136 66.0467 17.2818C66.6604 17.65 67.0838 18.1594 67.317 18.8099H67.3539V13.3603H68.5137ZM61.2047 19.8225C61.0083 20.4117 60.9101 21.056 60.9101 21.7556C60.9101 22.4552 61.0083 23.0996 61.2047 23.6888C61.4133 24.2779 61.757 24.7811 62.2357 25.1985C62.7266 25.6035 63.3219 25.806 64.0215 25.806C65.1507 25.806 65.9853 25.4132 66.5254 24.6277C67.0777 23.8299 67.3539 22.8726 67.3539 21.7556C67.3539 20.6387 67.0777 19.6875 66.5254 18.902C65.9853 18.1042 65.1507 17.7053 64.0215 17.7053C63.3219 17.7053 62.7266 17.9139 62.2357 18.3312C61.757 18.7363 61.4133 19.2334 61.2047 19.8225ZM78.7173 22.0686H71.4083C71.4083 23.0383 71.6721 23.9036 72.1999 24.6645C72.74 25.4255 73.5194 25.806 74.5381 25.806C76.1214 25.806 77.1156 24.9959 77.5206 23.3758H78.6805C78.1527 25.6464 76.7719 26.7818 74.5381 26.7818C73.1143 26.7818 72.0404 26.3092 71.3162 25.3641C70.6043 24.4191 70.2484 23.2162 70.2484 21.7556C70.2484 20.8719 70.3895 20.068 70.6718 19.3438C70.9541 18.6074 71.4267 17.9876 72.0895 17.4843C72.7645 16.9811 73.5807 16.7295 74.5381 16.7295C75.5077 16.7295 76.3178 16.9934 76.9683 17.5212C77.6311 18.0489 78.0975 18.7056 78.3675 19.4911C78.6375 20.2766 78.7541 21.1358 78.7173 22.0686ZM71.4083 21.0929H77.5574C77.5329 20.1723 77.2445 19.3807 76.6921 18.7179C76.1398 18.0428 75.4218 17.7053 74.5381 17.7053C73.6421 17.7053 72.9241 18.0367 72.384 18.6995C71.844 19.35 71.5187 20.1478 71.4083 21.0929ZM80.2556 26.5056V17.0057H81.4155V18.6442H81.4523C81.6733 18.0796 82.066 17.6194 82.6306 17.2634C83.1952 16.9075 83.815 16.7295 84.4901 16.7295C85.7666 16.7295 86.6626 17.0425 87.1781 17.6684C87.7059 18.2821 87.9697 19.1904 87.9697 20.3932V26.5056H86.8099V20.5773C86.8099 18.6626 86.0059 17.7053 84.3981 17.7053C83.4898 17.7053 82.7718 18.0121 82.244 18.6258C81.7162 19.2272 81.4401 20.0066 81.4155 20.964V26.5056H80.2556ZM103.148 19.9882H101.988C101.657 18.4662 100.761 17.7053 99.3003 17.7053C98.257 17.7053 97.4408 18.1103 96.8516 18.9204C96.2625 19.7182 95.9679 20.6633 95.9679 21.7556C95.9679 22.848 96.2625 23.7992 96.8516 24.6093C97.4408 25.4071 98.257 25.806 99.3003 25.806C100.012 25.806 100.632 25.5483 101.16 25.0328C101.688 24.5173 101.988 23.8729 102.062 23.0996H103.222C103.062 24.2534 102.633 25.1555 101.933 25.806C101.246 26.4565 100.368 26.7818 99.3003 26.7818C97.901 26.7818 96.8025 26.3031 96.0047 25.3457C95.2069 24.3761 94.808 23.1794 94.808 21.7556C94.808 20.3319 95.2069 19.1413 96.0047 18.184C96.8025 17.2143 97.901 16.7295 99.3003 16.7295C100.356 16.7295 101.227 17.0057 101.915 17.558C102.602 18.1103 103.013 18.9204 103.148 19.9882ZM104.815 26.5056V13.3603H105.975V18.6442H106.012C106.233 18.0796 106.626 17.6194 107.19 17.2634C107.755 16.9075 108.375 16.7295 109.05 16.7295C110.326 16.7295 111.222 17.0425 111.738 17.6684C112.266 18.2821 112.529 19.1904 112.529 20.3932V26.5056H111.37V20.5773C111.37 18.6626 110.566 17.7053 108.958 17.7053C108.049 17.7053 107.331 18.0121 106.804 18.6258C106.276 19.2272 106 20.0066 105.975 20.964V26.5056H104.815ZM115.772 19.9146H114.612C114.673 18.8345 115.041 18.0367 115.716 17.5212C116.404 16.9934 117.318 16.7295 118.46 16.7295C120.792 16.7295 121.958 17.7482 121.958 19.7857V24.8302C121.958 25.2966 122.185 25.5298 122.639 25.5298C122.774 25.5298 122.897 25.5053 123.007 25.4562V26.432C122.762 26.4811 122.51 26.5056 122.252 26.5056C121.712 26.5056 121.35 26.3706 121.166 26.1006C120.982 25.8183 120.89 25.401 120.89 24.8486H120.853C120.399 25.5237 119.92 26.0147 119.417 26.3215C118.926 26.6284 118.251 26.7818 117.392 26.7818C116.459 26.7818 115.692 26.5486 115.091 26.0822C114.501 25.6158 114.207 24.9223 114.207 24.0018C114.207 23.6581 114.256 23.3512 114.354 23.0812C114.452 22.7989 114.563 22.5657 114.685 22.3816C114.82 22.1852 115.023 22.0134 115.293 21.8661C115.575 21.7065 115.815 21.5899 116.011 21.5163C116.207 21.4304 116.502 21.3506 116.895 21.277C117.3 21.2033 117.607 21.1542 117.815 21.1297C118.024 21.0929 118.361 21.0499 118.828 21.0008C119.037 20.9762 119.196 20.9578 119.307 20.9456C119.847 20.8965 120.227 20.7921 120.448 20.6326C120.681 20.4607 120.798 20.1355 120.798 19.6568C120.798 18.9327 120.577 18.4294 120.135 18.1471C119.693 17.8526 119.086 17.7053 118.312 17.7053C117.551 17.7053 116.944 17.8894 116.49 18.2576C116.036 18.6135 115.796 19.1659 115.772 19.9146ZM120.798 22.8235V21.3138H120.761C120.663 21.4979 120.338 21.639 119.785 21.7372C119.577 21.774 119.245 21.8293 118.791 21.9029C118.337 21.9643 117.987 22.0195 117.742 22.0686C117.496 22.1054 117.195 22.1791 116.84 22.2896C116.496 22.3877 116.232 22.4982 116.048 22.6209C115.876 22.7437 115.716 22.9217 115.569 23.1549C115.434 23.3758 115.367 23.6335 115.367 23.9281C115.367 24.4927 115.575 24.9468 115.993 25.2905C116.41 25.6342 116.907 25.806 117.484 25.806C118.417 25.806 119.202 25.536 119.84 24.9959C120.479 24.4436 120.798 23.7195 120.798 22.8235ZM124.269 26.5056V17.0057H125.337V19.2334H125.374C125.669 18.4478 126.129 17.8526 126.755 17.4475C127.381 17.0302 128.117 16.84 128.964 16.8768V18.0367C127.933 17.9876 127.086 18.2944 126.423 18.9572C125.761 19.6077 125.429 20.4362 125.429 21.4427V26.5056H124.269ZM137.582 17.0057V25.7324C137.582 27.2175 137.251 28.3467 136.588 29.1199C135.925 29.9055 134.851 30.2982 133.366 30.2982C132.323 30.2982 131.421 30.0528 130.66 29.5618C129.911 29.0831 129.5 28.3712 129.426 27.4262H130.586C130.697 28.0767 131.01 28.5553 131.525 28.8622C132.041 29.169 132.654 29.3225 133.366 29.3225C134.422 29.3225 135.195 29.0218 135.686 28.4203C136.177 27.8189 136.422 26.9229 136.422 25.7324V24.4436H136.386C136.116 25.045 135.711 25.5237 135.17 25.8796C134.643 26.2233 134.041 26.3952 133.366 26.3952C131.918 26.3952 130.838 25.9472 130.126 25.0512C129.426 24.1552 129.077 22.9769 129.077 21.5163C129.077 20.1539 129.457 19.0186 130.218 18.1103C130.991 17.1898 132.041 16.7295 133.366 16.7295C134.041 16.7295 134.649 16.9136 135.189 17.2818C135.741 17.6378 136.14 18.0919 136.386 18.6442H136.422V17.0057H137.582ZM133.366 25.4194C134.324 25.4194 135.072 25.0512 135.612 24.3147C136.152 23.566 136.422 22.6762 136.422 21.6452C136.422 20.5896 136.165 19.6691 135.649 18.8836C135.146 18.098 134.385 17.7053 133.366 17.7053C132.335 17.7053 131.556 18.0919 131.028 18.8651C130.5 19.6261 130.236 20.5528 130.236 21.6452C130.236 22.6885 130.5 23.5783 131.028 24.3147C131.568 25.0512 132.347 25.4194 133.366 25.4194ZM147.776 22.0686H140.467C140.467 23.0383 140.73 23.9036 141.258 24.6645C141.798 25.4255 142.578 25.806 143.596 25.806C145.18 25.806 146.174 24.9959 146.579 23.3758H147.739C147.211 25.6464 145.83 26.7818 143.596 26.7818C142.173 26.7818 141.099 26.3092 140.375 25.3641C139.663 24.4191 139.307 23.2162 139.307 21.7556C139.307 20.8719 139.448 20.068 139.73 19.3438C140.012 18.6074 140.485 17.9876 141.148 17.4843C141.823 16.9811 142.639 16.7295 143.596 16.7295C144.566 16.7295 145.376 16.9934 146.027 17.5212C146.689 18.0489 147.156 18.7056 147.426 19.4911C147.696 20.2766 147.812 21.1358 147.776 22.0686ZM140.467 21.0929H146.616C146.591 20.1723 146.303 19.3807 145.75 18.7179C145.198 18.0428 144.48 17.7053 143.596 17.7053C142.7 17.7053 141.982 18.0367 141.442 18.6995C140.902 19.35 140.577 20.1478 140.467 21.0929ZM156.181 19.7857H155.021C154.997 19.0984 154.751 18.5829 154.285 18.2392C153.818 17.8832 153.235 17.7053 152.536 17.7053C151.934 17.7053 151.407 17.8403 150.953 18.1103C150.511 18.3681 150.29 18.7792 150.29 19.3438C150.29 20.0803 150.946 20.6142 152.26 20.9456L153.806 21.2954C154.567 21.4058 155.205 21.682 155.721 22.1239C156.249 22.5657 156.513 23.1671 156.513 23.9281C156.513 24.8732 156.126 25.5851 155.353 26.0638C154.592 26.5424 153.708 26.7818 152.702 26.7818C150.296 26.7818 148.995 25.6649 148.798 23.431H149.958C150.007 24.192 150.284 24.7811 150.787 25.1985C151.302 25.6035 151.959 25.806 152.757 25.806C153.42 25.806 154.015 25.6587 154.543 25.3641C155.083 25.0573 155.353 24.6032 155.353 24.0018C155.353 23.4985 155.169 23.1242 154.8 22.8787C154.432 22.6332 153.923 22.4307 153.272 22.2711L151.781 21.9397C150.91 21.7188 150.247 21.4242 149.793 21.056C149.351 20.6878 149.13 20.1355 149.13 19.3991C149.13 18.5031 149.486 17.8341 150.198 17.3923C150.91 16.9504 151.744 16.7295 152.702 16.7295C153.696 16.7295 154.512 16.9934 155.15 17.5212C155.788 18.0367 156.132 18.7915 156.181 19.7857Z" fill="black"/>
</g>
<defs>
<filter id="filter0_d_978_471" x="0.0609102" y="0.490133" width="167.011" height="46.395" filterUnits="userSpaceOnUse" color-interpolation-filters="sRGB">
<feFlood flood-opacity="0" result="BackgroundImageFix"/>
<feColorMatrix in="SourceAlpha" type="matrix" values="0 0 0 0 0 0 0 0 0 0 0 0 0 0 0 0 0 0 127 0" result="hardAlpha"/>
<feOffset dy="3.68215"/>
<feGaussianBlur stdDeviation="2.20929"/>
<feComposite in2="hardAlpha" operator="out"/>
<feColorMatrix type="matrix" values="0 0 0 0 0 0 0 0 0 0 0 0 0 0 0 0 0 0 0.25 0"/>
<feBlend mode="normal" in2="BackgroundImageFix" result="effect1_dropShadow_978_471"/>
<feBlend mode="normal" in="SourceGraphic" in2="effect1_dropShadow_978_471" result="shape"/>
</filter>
</defs>
</svg>
