<svg width="222" height="47" viewBox="0 0 222 47" fill="none" xmlns="http://www.w3.org/2000/svg">
<g filter="url(#filter0_d_978_466)">
<rect x="5.15649" y="1.03882" width="212.174" height="37.5579" rx="7.3643" fill="white" fill-opacity="0.75" shape-rendering="crispEdges"/>
<path d="M19.5291 12.0852C15.221 12.0852 11.7966 15.5096 11.7966 19.8177C11.7966 24.1258 15.221 27.5502 19.5291 27.5502C23.8373 27.5502 27.2617 24.1258 27.2617 19.8177C27.2617 15.5096 23.8373 12.0852 19.5291 12.0852ZM22.5117 23.684L19.5291 20.7014L16.5466 23.684L15.6629 22.8003L18.6454 19.8177L15.6629 16.8352L16.5466 15.9515L19.5291 18.934L22.5117 15.9515L23.3954 16.8352L20.4129 19.8177L23.3954 22.8003L22.5117 23.684Z" fill="#D40511"/>
<path d="M34.1203 26.3179V13.1726H40.1406C41.2943 13.1726 42.2455 13.461 42.9942 14.0379C43.7552 14.6148 44.1357 15.4678 44.1357 16.597C44.1357 17.4562 43.9148 18.1865 43.4729 18.7879C43.0311 19.3893 42.399 19.7759 41.5766 19.9477V19.9846C42.3867 20.095 42.9574 20.4019 43.2888 20.9051C43.6325 21.3961 43.8289 22.0773 43.878 22.9487C43.878 22.9855 43.8841 23.188 43.8964 23.5563C43.9209 23.9245 43.9393 24.1945 43.9516 24.3663C43.9761 24.5382 44.0068 24.7775 44.0437 25.0844C44.0805 25.3912 44.1357 25.6428 44.2093 25.8392C44.283 26.0356 44.375 26.1951 44.4855 26.3179H43.1047C43.0311 26.2074 42.9697 26.054 42.9206 25.8576C42.8838 25.6612 42.8531 25.4894 42.8285 25.3421C42.8163 25.1825 42.804 24.9862 42.7917 24.753C42.7794 24.5075 42.7672 24.3479 42.7549 24.2743C42.7304 23.8079 42.6997 23.4335 42.6628 23.1512C42.6383 22.8566 42.5708 22.5191 42.4603 22.1386C42.3621 21.7459 42.221 21.4452 42.0369 21.2365C41.865 21.0156 41.6134 20.8315 41.282 20.6842C40.9629 20.5369 40.5763 20.4694 40.1222 20.4817H35.3722V26.3179H34.1203ZM35.3722 14.2404V19.4138H40.0485C40.8463 19.4138 41.5152 19.1806 42.0553 18.7142C42.6076 18.2478 42.8838 17.628 42.8838 16.8547C42.8838 16.0324 42.6444 15.3942 42.1658 14.94C41.6871 14.4736 40.9813 14.2404 40.0485 14.2404H35.3722ZM46.1976 15.0321V13.1726H47.3574V15.0321H46.1976ZM46.1976 26.3179V16.8179H47.3574V26.3179H46.1976ZM57.9357 13.1726V26.3179H56.8679V24.5136H56.8311C56.5856 25.1273 56.1376 25.6305 55.4871 26.0233C54.8366 26.4038 54.1554 26.594 53.4435 26.594C52.0688 26.594 51.0133 26.1154 50.2768 25.158C49.5404 24.2006 49.1722 23.0039 49.1722 21.5679C49.1722 20.1319 49.5404 18.9352 50.2768 17.9778C51.0133 17.0204 52.0688 16.5418 53.4435 16.5418C54.1799 16.5418 54.855 16.7259 55.4687 17.0941C56.0824 17.4623 56.5058 17.9717 56.739 18.6222H56.7758V13.1726H57.9357ZM50.6267 19.6348C50.4303 20.2239 50.3321 20.8683 50.3321 21.5679C50.3321 22.2675 50.4303 22.9119 50.6267 23.501C50.8353 24.0902 51.179 24.5934 51.6577 25.0107C52.1486 25.4157 52.7439 25.6183 53.4435 25.6183C54.5727 25.6183 55.4073 25.2255 55.9474 24.44C56.4997 23.6422 56.7758 22.6848 56.7758 21.5679C56.7758 20.451 56.4997 19.4998 55.9474 18.7142C55.4073 17.9164 54.5727 17.5175 53.4435 17.5175C52.7439 17.5175 52.1486 17.7262 51.6577 18.1435C51.179 18.5485 50.8353 19.0456 50.6267 19.6348ZM68.1393 21.8809H60.8302C60.8302 22.8505 61.0941 23.7158 61.6219 24.4768C62.162 25.2378 62.9413 25.6183 63.9601 25.6183C65.5434 25.6183 66.5376 24.8082 66.9426 23.188H68.1025C67.5747 25.4587 66.1939 26.594 63.9601 26.594C62.5363 26.594 61.4623 26.1215 60.7382 25.1764C60.0263 24.2313 59.6704 23.0285 59.6704 21.5679C59.6704 20.6842 59.8115 19.8802 60.0938 19.1561C60.3761 18.4197 60.8487 17.7998 61.5114 17.2966C62.1865 16.7934 63.0027 16.5418 63.9601 16.5418C64.9297 16.5418 65.7398 16.8056 66.3903 17.3334C67.0531 17.8612 67.5195 18.5178 67.7895 19.3034C68.0595 20.0889 68.1761 20.9481 68.1393 21.8809ZM60.8302 20.9051H66.9794C66.9549 19.9846 66.6665 19.1929 66.1141 18.5301C65.5618 17.8551 64.8438 17.5175 63.9601 17.5175C63.0641 17.5175 62.3461 17.8489 61.806 18.5117C61.266 19.1622 60.9407 19.96 60.8302 20.9051ZM69.696 26.3179V16.8179H70.7639V19.0456H70.8007C71.0952 18.2601 71.5555 17.6648 72.1815 17.2598C72.8074 16.8425 73.5439 16.6522 74.3908 16.689V17.8489C73.3598 17.7998 72.5129 18.1067 71.8501 18.7695C71.1873 19.42 70.8559 20.2485 70.8559 21.2549V26.3179H69.696ZM88.9859 13.1726V26.3179H87.9181V24.5136H87.8813C87.6358 25.1273 87.1878 25.6305 86.5373 26.0233C85.8868 26.4038 85.2056 26.594 84.4937 26.594C83.119 26.594 82.0635 26.1154 81.327 25.158C80.5906 24.2006 80.2224 23.0039 80.2224 21.5679C80.2224 20.1319 80.5906 18.9352 81.327 17.9778C82.0635 17.0204 83.119 16.5418 84.4937 16.5418C85.2301 16.5418 85.9052 16.7259 86.5189 17.0941C87.1326 17.4623 87.556 17.9717 87.7892 18.6222H87.826V13.1726H88.9859ZM81.6768 19.6348C81.4804 20.2239 81.3823 20.8683 81.3823 21.5679C81.3823 22.2675 81.4804 22.9119 81.6768 23.501C81.8855 24.0902 82.2292 24.5934 82.7078 25.0107C83.1988 25.4157 83.7941 25.6183 84.4937 25.6183C85.6229 25.6183 86.4575 25.2255 86.9975 24.44C87.5499 23.6422 87.826 22.6848 87.826 21.5679C87.826 20.451 87.5499 19.4998 86.9975 18.7142C86.4575 17.9164 85.6229 17.5175 84.4937 17.5175C83.7941 17.5175 83.1988 17.7262 82.7078 18.1435C82.2292 18.5485 81.8855 19.0456 81.6768 19.6348ZM91.2176 15.0321V13.1726H92.3775V15.0321H91.2176ZM91.2176 26.3179V16.8179H92.3775V26.3179H91.2176ZM101.446 19.5979H100.286C100.262 18.9106 100.016 18.3951 99.5498 18.0514C99.0834 17.6955 98.5004 17.5175 97.8008 17.5175C97.1994 17.5175 96.6716 17.6525 96.2174 17.9226C95.7756 18.1803 95.5547 18.5915 95.5547 19.1561C95.5547 19.8925 96.2113 20.4264 97.5246 20.7578L99.0711 21.1076C99.8321 21.2181 100.47 21.4943 100.986 21.9361C101.514 22.378 101.777 22.9794 101.777 23.7404C101.777 24.6855 101.391 25.3973 100.618 25.876C99.8566 26.3547 98.9729 26.594 97.9665 26.594C95.5608 26.594 94.2598 25.4771 94.0634 23.2433H95.2233C95.2724 24.0043 95.5485 24.5934 96.0518 25.0107C96.5673 25.4157 97.2239 25.6183 98.0217 25.6183C98.6845 25.6183 99.2798 25.471 99.8075 25.1764C100.348 24.8696 100.618 24.4154 100.618 23.814C100.618 23.3108 100.434 22.9364 100.065 22.691C99.6971 22.4455 99.1877 22.243 98.5372 22.0834L97.0459 21.752C96.1745 21.5311 95.5117 21.2365 95.0576 20.8683C94.6157 20.5001 94.3948 19.9477 94.3948 19.2113C94.3948 18.3153 94.7507 17.6464 95.4626 17.2045C96.1745 16.7627 97.0091 16.5418 97.9665 16.5418C98.9607 16.5418 99.7769 16.8056 100.415 17.3334C101.053 17.8489 101.397 18.6038 101.446 19.5979ZM104.51 19.7268H103.351C103.412 18.6467 103.78 17.8489 104.455 17.3334C105.143 16.8056 106.057 16.5418 107.198 16.5418C109.53 16.5418 110.697 17.5605 110.697 19.5979V24.6425C110.697 25.1089 110.924 25.3421 111.378 25.3421C111.513 25.3421 111.635 25.3176 111.746 25.2685V26.2442C111.5 26.2933 111.249 26.3179 110.991 26.3179C110.451 26.3179 110.089 26.1829 109.905 25.9128C109.721 25.6305 109.629 25.2132 109.629 24.6609H109.592C109.138 25.336 108.659 25.8269 108.156 26.1338C107.665 26.4406 106.99 26.594 106.131 26.594C105.198 26.594 104.431 26.3608 103.829 25.8944C103.24 25.428 102.946 24.7345 102.946 23.814C102.946 23.4703 102.995 23.1635 103.093 22.8935C103.191 22.6112 103.302 22.378 103.424 22.1939C103.559 21.9975 103.762 21.8256 104.032 21.6784C104.314 21.5188 104.553 21.4022 104.75 21.3286C104.946 21.2426 105.241 21.1629 105.634 21.0892C106.039 21.0156 106.345 20.9665 106.554 20.9419C106.763 20.9051 107.1 20.8621 107.567 20.8131C107.775 20.7885 107.935 20.7701 108.045 20.7578C108.585 20.7087 108.966 20.6044 109.187 20.4448C109.42 20.273 109.537 19.9477 109.537 19.4691C109.537 18.7449 109.316 18.2417 108.874 17.9594C108.432 17.6648 107.824 17.5175 107.051 17.5175C106.29 17.5175 105.683 17.7016 105.229 18.0698C104.774 18.4258 104.535 18.9781 104.51 19.7268ZM109.537 22.6357V21.126H109.5C109.402 21.3101 109.076 21.4513 108.524 21.5495C108.315 21.5863 107.984 21.6415 107.53 21.7152C107.076 21.7766 106.726 21.8318 106.48 21.8809C106.235 21.9177 105.934 21.9913 105.578 22.1018C105.235 22.2 104.971 22.3105 104.787 22.4332C104.615 22.5559 104.455 22.7339 104.308 22.9671C104.173 23.188 104.105 23.4458 104.105 23.7404C104.105 24.305 104.314 24.7591 104.731 25.1028C105.149 25.4464 105.646 25.6183 106.223 25.6183C107.156 25.6183 107.941 25.3482 108.579 24.8082C109.218 24.2559 109.537 23.5317 109.537 22.6357ZM113.008 29.8343V16.8179H114.076V18.6222H114.113C114.383 17.9717 114.818 17.4623 115.42 17.0941C116.034 16.7259 116.727 16.5418 117.5 16.5418C118.875 16.5418 119.931 17.0204 120.667 17.9778C121.403 18.9352 121.772 20.1319 121.772 21.5679C121.772 23.0039 121.403 24.2006 120.667 25.158C119.931 26.1154 118.875 26.594 117.5 26.594C116.764 26.594 116.089 26.4161 115.475 26.0601C114.861 25.6919 114.438 25.1764 114.205 24.5136H114.168V29.8343H113.008ZM120.299 23.501C120.507 22.9119 120.612 22.2675 120.612 21.5679C120.612 20.8683 120.507 20.2239 120.299 19.6348C120.102 19.0456 119.759 18.5485 119.268 18.1435C118.789 17.7262 118.2 17.5175 117.5 17.5175C115.279 17.5175 114.168 18.8676 114.168 21.5679C114.168 22.6848 114.438 23.6422 114.978 24.44C115.53 25.2255 116.371 25.6183 117.5 25.6183C118.2 25.6183 118.789 25.4157 119.268 25.0107C119.759 24.5934 120.102 24.0902 120.299 23.501ZM123.58 29.8343V16.8179H124.648V18.6222H124.685C124.955 17.9717 125.39 17.4623 125.992 17.0941C126.605 16.7259 127.299 16.5418 128.072 16.5418C129.447 16.5418 130.502 17.0204 131.239 17.9778C131.975 18.9352 132.343 20.1319 132.343 21.5679C132.343 23.0039 131.975 24.2006 131.239 25.158C130.502 26.1154 129.447 26.594 128.072 26.594C127.336 26.594 126.661 26.4161 126.047 26.0601C125.433 25.6919 125.01 25.1764 124.777 24.5136H124.74V29.8343H123.58ZM130.871 23.501C131.079 22.9119 131.184 22.2675 131.184 21.5679C131.184 20.8683 131.079 20.2239 130.871 19.6348C130.674 19.0456 130.33 18.5485 129.84 18.1435C129.361 17.7262 128.772 17.5175 128.072 17.5175C125.851 17.5175 124.74 18.8676 124.74 21.5679C124.74 22.6848 125.01 23.6422 125.55 24.44C126.102 25.2255 126.943 25.6183 128.072 25.6183C128.772 25.6183 129.361 25.4157 129.84 25.0107C130.33 24.5934 130.674 24.0902 130.871 23.501ZM134.87 17.9962C135.667 17.0266 136.766 16.5418 138.165 16.5418C139.564 16.5418 140.663 17.0266 141.461 17.9962C142.259 18.9536 142.657 20.1441 142.657 21.5679C142.657 22.9917 142.259 24.1884 141.461 25.158C140.663 26.1154 139.564 26.594 138.165 26.594C136.766 26.594 135.667 26.1154 134.87 25.158C134.072 24.1884 133.673 22.9917 133.673 21.5679C133.673 20.1441 134.072 18.9536 134.87 17.9962ZM140.614 18.7326C140.025 17.9226 139.208 17.5175 138.165 17.5175C137.122 17.5175 136.306 17.9226 135.717 18.7326C135.127 19.5304 134.833 20.4755 134.833 21.5679C134.833 22.6603 135.127 23.6115 135.717 24.4216C136.306 25.2194 137.122 25.6183 138.165 25.6183C139.208 25.6183 140.025 25.2194 140.614 24.4216C141.203 23.6115 141.498 22.6603 141.498 21.5679C141.498 20.4755 141.203 19.5304 140.614 18.7326ZM144.4 15.0321V13.1726H145.56V15.0321H144.4ZM144.4 26.3179V16.8179H145.56V26.3179H144.4ZM147.762 26.3179V16.8179H148.921V18.4565H148.958C149.179 17.8919 149.572 17.4316 150.137 17.0757C150.701 16.7197 151.321 16.5418 151.996 16.5418C153.272 16.5418 154.168 16.8547 154.684 17.4807C155.212 18.0944 155.476 19.0027 155.476 20.2055V26.3179H154.316V20.3896C154.316 18.4749 153.512 17.5175 151.904 17.5175C150.996 17.5175 150.278 17.8244 149.75 18.4381C149.222 19.0395 148.946 19.8189 148.921 20.7762V26.3179H147.762ZM159.51 13.9643V16.8179H161.443V17.7937H159.51V24.2006C159.51 24.6179 159.571 24.9248 159.694 25.1212C159.816 25.3176 160.068 25.428 160.449 25.4526C160.78 25.4526 161.111 25.4342 161.443 25.3973V26.3915C161.332 26.3915 161.16 26.3977 160.927 26.4099C160.694 26.4222 160.522 26.4283 160.412 26.4283C159.638 26.4283 159.098 26.2749 158.792 25.9681C158.485 25.6612 158.337 25.1028 158.35 24.2927V17.7937H156.693V16.8179H158.35V13.9643H159.51ZM163.116 26.3179V16.8179H164.184V18.4197H164.239C164.89 17.1677 165.927 16.5418 167.351 16.5418C168.001 16.5418 168.572 16.7013 169.063 17.0204C169.566 17.3396 169.904 17.7998 170.076 18.4012C170.346 17.7998 170.751 17.3396 171.291 17.0204C171.843 16.7013 172.444 16.5418 173.095 16.5418C175.194 16.5418 176.243 17.6525 176.243 19.8741V26.3179H175.083V19.9293C175.083 19.1193 174.911 18.5178 174.568 18.1251C174.224 17.72 173.647 17.5175 172.837 17.5175C171.119 17.5175 170.26 18.659 170.26 20.9419V26.3179H169.1V19.8741C169.1 18.3031 168.437 17.5175 167.111 17.5175C166.166 17.5175 165.454 17.8366 164.976 18.4749C164.509 19.1131 164.276 19.96 164.276 21.0156V26.3179H163.116ZM186.443 21.8809H179.134C179.134 22.8505 179.398 23.7158 179.925 24.4768C180.465 25.2378 181.245 25.6183 182.264 25.6183C183.847 25.6183 184.841 24.8082 185.246 23.188H186.406C185.878 25.4587 184.497 26.594 182.264 26.594C180.84 26.594 179.766 26.1215 179.042 25.1764C178.33 24.2313 177.974 23.0285 177.974 21.5679C177.974 20.6842 178.115 19.8802 178.397 19.1561C178.68 18.4197 179.152 17.7998 179.815 17.2966C180.49 16.7934 181.306 16.5418 182.264 16.5418C183.233 16.5418 184.043 16.8056 184.694 17.3334C185.357 17.8612 185.823 18.5178 186.093 19.3034C186.363 20.0889 186.48 20.9481 186.443 21.8809ZM179.134 20.9051H185.283C185.258 19.9846 184.97 19.1929 184.418 18.5301C183.865 17.8551 183.147 17.5175 182.264 17.5175C181.368 17.5175 180.65 17.8489 180.11 18.5117C179.569 19.1622 179.244 19.96 179.134 20.9051ZM187.981 26.3179V16.8179H189.141V18.4565H189.178C189.399 17.8919 189.792 17.4316 190.356 17.0757C190.921 16.7197 191.541 16.5418 192.216 16.5418C193.492 16.5418 194.388 16.8547 194.904 17.4807C195.431 18.0944 195.695 19.0027 195.695 20.2055V26.3179H194.535V20.3896C194.535 18.4749 193.731 17.5175 192.124 17.5175C191.215 17.5175 190.497 17.8244 189.969 18.4381C189.442 19.0395 189.166 19.8189 189.141 20.7762V26.3179H187.981ZM199.729 13.9643V16.8179H201.662V17.7937H199.729V24.2006C199.729 24.6179 199.791 24.9248 199.913 25.1212C200.036 25.3176 200.288 25.428 200.668 25.4526C201 25.4526 201.331 25.4342 201.662 25.3973V26.3915C201.552 26.3915 201.38 26.3977 201.147 26.4099C200.914 26.4222 200.742 26.4283 200.631 26.4283C199.858 26.4283 199.318 26.2749 199.011 25.9681C198.704 25.6612 198.557 25.1028 198.569 24.2927V17.7937H196.912V16.8179H198.569V13.9643H199.729ZM210.185 19.5979H209.025C209 18.9106 208.755 18.3951 208.288 18.0514C207.822 17.6955 207.239 17.5175 206.539 17.5175C205.938 17.5175 205.41 17.6525 204.956 17.9226C204.514 18.1803 204.293 18.5915 204.293 19.1561C204.293 19.8925 204.95 20.4264 206.263 20.7578L207.81 21.1076C208.571 21.2181 209.209 21.4943 209.724 21.9361C210.252 22.378 210.516 22.9794 210.516 23.7404C210.516 24.6855 210.129 25.3973 209.356 25.876C208.595 26.3547 207.711 26.594 206.705 26.594C204.299 26.594 202.998 25.4771 202.802 23.2433H203.962C204.011 24.0043 204.287 24.5934 204.79 25.0107C205.306 25.4157 205.962 25.6183 206.76 25.6183C207.423 25.6183 208.018 25.471 208.546 25.1764C209.086 24.8696 209.356 24.4154 209.356 23.814C209.356 23.3108 209.172 22.9364 208.804 22.691C208.436 22.4455 207.926 22.243 207.276 22.0834L205.784 21.752C204.913 21.5311 204.25 21.2365 203.796 20.8683C203.354 20.5001 203.133 19.9477 203.133 19.2113C203.133 18.3153 203.489 17.6464 204.201 17.2045C204.913 16.7627 205.748 16.5418 206.705 16.5418C207.699 16.5418 208.515 16.8056 209.154 17.3334C209.792 17.8489 210.136 18.6038 210.185 19.5979Z" fill="black"/>
</g>
<defs>
<filter id="filter0_d_978_466" x="0.737912" y="0.302388" width="221.011" height="46.395" filterUnits="userSpaceOnUse" color-interpolation-filters="sRGB">
<feFlood flood-opacity="0" result="BackgroundImageFix"/>
<feColorMatrix in="SourceAlpha" type="matrix" values="0 0 0 0 0 0 0 0 0 0 0 0 0 0 0 0 0 0 127 0" result="hardAlpha"/>
<feOffset dy="3.68215"/>
<feGaussianBlur stdDeviation="2.20929"/>
<feComposite in2="hardAlpha" operator="out"/>
<feColorMatrix type="matrix" values="0 0 0 0 0 0 0 0 0 0 0 0 0 0 0 0 0 0 0.25 0"/>
<feBlend mode="normal" in2="BackgroundImageFix" result="effect1_dropShadow_978_466"/>
<feBlend mode="normal" in="SourceGraphic" in2="effect1_dropShadow_978_466" result="shape"/>
</filter>
</defs>
</svg>
