<svg width="182" height="48" viewBox="0 0 182 48" fill="none" xmlns="http://www.w3.org/2000/svg">
<g filter="url(#filter0_dd_978_461)">
<rect x="5.03125" y="1.18872" width="172.174" height="37.5579" rx="7.3643" fill="white" fill-opacity="0.75" shape-rendering="crispEdges"/>
<path d="M19.4039 12.2354C15.0958 12.2354 11.6714 15.6598 11.6714 19.9679C11.6714 24.276 15.0958 27.7004 19.4039 27.7004C23.712 27.7004 27.1364 24.276 27.1364 19.9679C27.1364 15.6598 23.712 12.2354 19.4039 12.2354ZM22.3864 23.8341L19.4039 20.8516L16.4214 23.8341L15.5376 22.9504L18.5202 19.9679L15.5376 16.9853L16.4214 16.1016L19.4039 19.0842L22.3864 16.1016L23.2702 16.9853L20.2876 19.9679L23.2702 22.9504L22.3864 23.8341Z" fill="#D40511"/>
<path d="M33.995 26.4678V13.3225H35.2469V19.0298H43.0531V13.3225H44.305V26.4678H43.0531V20.0976H35.2469V26.4678H33.995ZM46.7555 15.182V13.3225H47.9154V15.182H46.7555ZM46.7555 26.4678V16.9678H47.9154V26.4678H46.7555ZM58.1623 16.9678V25.6945C58.1623 27.1797 57.8309 28.3088 57.1681 29.0821C56.5053 29.8676 55.4314 30.2604 53.9462 30.2604C52.903 30.2604 52.0008 30.0149 51.2399 29.524C50.4911 29.0453 50.08 28.3334 50.0063 27.3883H51.1662C51.2767 28.0388 51.5897 28.5175 52.1052 28.8244C52.6207 29.1312 53.2344 29.2846 53.9462 29.2846C55.0018 29.2846 55.775 28.9839 56.266 28.3825C56.7569 27.7811 57.0024 26.8851 57.0024 25.6945V24.4058H56.9656C56.6956 25.0072 56.2905 25.4859 55.7505 25.8418C55.2227 26.1855 54.6213 26.3573 53.9462 26.3573C52.4979 26.3573 51.4178 25.9093 50.7059 25.0133C50.0063 24.1173 49.6565 22.939 49.6565 21.4785C49.6565 20.1161 50.037 18.9807 50.798 18.0725C51.5712 17.1519 52.6207 16.6917 53.9462 16.6917C54.6213 16.6917 55.2288 16.8758 55.7689 17.244C56.3212 17.5999 56.7201 18.0541 56.9656 18.6064H57.0024V16.9678H58.1623ZM53.9462 25.3815C54.9036 25.3815 55.6523 25.0133 56.1923 24.2769C56.7324 23.5282 57.0024 22.6383 57.0024 21.6073C57.0024 20.5518 56.7447 19.6312 56.2292 18.8457C55.7259 18.0602 54.965 17.6674 53.9462 17.6674C52.9152 17.6674 52.1358 18.0541 51.6081 18.8273C51.0803 19.5883 50.8164 20.515 50.8164 21.6073C50.8164 22.6506 51.0803 23.5405 51.6081 24.2769C52.1481 25.0133 52.9275 25.3815 53.9462 25.3815ZM60.347 26.4678V13.3225H61.5069V18.6064H61.5437C61.7646 18.0418 62.1574 17.5815 62.722 17.2256C63.2866 16.8696 63.9064 16.6917 64.5815 16.6917C65.8579 16.6917 66.7539 17.0046 67.2694 17.6306C67.7972 18.2443 68.0611 19.1526 68.0611 20.3554V26.4678H66.9012V20.5395C66.9012 18.6248 66.0973 17.6674 64.4894 17.6674C63.5811 17.6674 62.8631 17.9743 62.3354 18.588C61.8076 19.1894 61.5314 19.9688 61.5069 20.9261V26.4678H60.347ZM83.7366 13.3225V26.4678H82.6687V24.6635H82.6319C82.3864 25.2772 81.9385 25.7804 81.2879 26.1732C80.6374 26.5537 79.9562 26.7439 79.2443 26.7439C77.8697 26.7439 76.8141 26.2653 76.0777 25.3079C75.3413 24.3505 74.973 23.1538 74.973 21.7178C74.973 20.2818 75.3413 19.0851 76.0777 18.1277C76.8141 17.1703 77.8697 16.6917 79.2443 16.6917C79.9808 16.6917 80.6558 16.8758 81.2695 17.244C81.8832 17.6122 82.3067 18.1216 82.5399 18.7721H82.5767V13.3225H83.7366ZM76.4275 19.7847C76.2311 20.3738 76.1329 21.0182 76.1329 21.7178C76.1329 22.4174 76.2311 23.0618 76.4275 23.6509C76.6362 24.2401 76.9798 24.7433 77.4585 25.1606C77.9495 25.5656 78.5447 25.7682 79.2443 25.7682C80.3735 25.7682 81.2082 25.3754 81.7482 24.5899C82.3005 23.7921 82.5767 22.8347 82.5767 21.7178C82.5767 20.6009 82.3005 19.6497 81.7482 18.8641C81.2082 18.0663 80.3735 17.6674 79.2443 17.6674C78.5447 17.6674 77.9495 17.8761 77.4585 18.2934C76.9798 18.6984 76.6362 19.1955 76.4275 19.7847ZM93.9402 22.0308H86.6311C86.6311 23.0004 86.895 23.8657 87.4227 24.6267C87.9628 25.3877 88.7422 25.7682 89.7609 25.7682C91.3442 25.7682 92.3384 24.9581 92.7435 23.3379H93.9033C93.3756 25.6086 91.9948 26.7439 89.7609 26.7439C88.3371 26.7439 87.2632 26.2714 86.539 25.3263C85.8271 24.3812 85.4712 23.1784 85.4712 21.7178C85.4712 20.8341 85.6124 20.0301 85.8947 19.306C86.177 18.5696 86.6495 17.9497 87.3123 17.4465C87.9873 16.9433 88.8036 16.6917 89.7609 16.6917C90.7305 16.6917 91.5406 16.9555 92.1911 17.4833C92.8539 18.0111 93.3203 18.6677 93.5904 19.4533C93.8604 20.2388 93.977 21.098 93.9402 22.0308ZM86.6311 21.055H92.7803C92.7557 20.1345 92.4673 19.3428 91.915 18.68C91.3627 18.005 90.6446 17.6674 89.7609 17.6674C88.8649 17.6674 88.1469 17.9988 87.6069 18.6616C87.0668 19.3121 86.7416 20.1099 86.6311 21.055ZM95.5153 26.4678V13.3225H96.6752V26.4678H95.5153ZM98.9134 15.182V13.3225H100.073V15.182H98.9134ZM98.9134 26.4678V16.9678H100.073V26.4678H98.9134ZM104.889 26.4678L101.225 16.9678H102.514L105.497 25.3079H105.533L108.479 16.9678H109.676L106.122 26.4678H104.889ZM118.805 22.0308H111.496C111.496 23.0004 111.76 23.8657 112.288 24.6267C112.828 25.3877 113.608 25.7682 114.626 25.7682C116.21 25.7682 117.204 24.9581 117.609 23.3379H118.769C118.241 25.6086 116.86 26.7439 114.626 26.7439C113.202 26.7439 112.129 26.2714 111.404 25.3263C110.692 24.3812 110.337 23.1784 110.337 21.7178C110.337 20.8341 110.478 20.0301 110.76 19.306C111.042 18.5696 111.515 17.9497 112.178 17.4465C112.853 16.9433 113.669 16.6917 114.626 16.6917C115.596 16.6917 116.406 16.9555 117.056 17.4833C117.719 18.0111 118.186 18.6677 118.456 19.4533C118.726 20.2388 118.842 21.098 118.805 22.0308ZM111.496 21.055H117.646C117.621 20.1345 117.333 19.3428 116.78 18.68C116.228 18.005 115.51 17.6674 114.626 17.6674C113.73 17.6674 113.012 17.9988 112.472 18.6616C111.932 19.3121 111.607 20.1099 111.496 21.055ZM120.362 26.4678V16.9678H121.43V19.1955H121.467C121.761 18.41 122.222 17.8147 122.848 17.4097C123.474 16.9924 124.21 16.8021 125.057 16.8389V17.9988C124.026 17.9497 123.179 18.2566 122.516 18.9194C121.853 19.5699 121.522 20.3984 121.522 21.4048V26.4678H120.362ZM128.894 26.431L125.102 16.9678H126.335L129.465 25.0686L132.392 16.9678H133.552L129.428 27.9222C129.072 28.7568 128.741 29.3092 128.434 29.5792C128.127 29.8492 127.624 29.9842 126.924 29.9842C126.458 29.9597 126.163 29.929 126.041 29.8922V28.9164C126.347 28.9778 126.611 29.0085 126.832 29.0085C127.078 29.0085 127.286 28.9778 127.458 28.9164C127.63 28.855 127.777 28.7384 127.9 28.5666C128.035 28.407 128.133 28.2659 128.195 28.1432C128.256 28.0204 128.354 27.8118 128.489 27.5172L128.894 26.431ZM143.479 16.9678V17.9436H141.602V26.4678H140.442V17.9436H138.822V16.9678H140.442V16.1025C140.442 15.1943 140.607 14.5069 140.939 14.0405C141.27 13.5618 141.872 13.3225 142.743 13.3225C143.062 13.3225 143.387 13.347 143.719 13.3961V14.3903C143.375 14.3289 143.093 14.2983 142.872 14.2983C142.626 14.2983 142.418 14.3351 142.246 14.4087C142.086 14.4701 141.964 14.5499 141.878 14.6481C141.792 14.734 141.724 14.8751 141.675 15.0715C141.638 15.2556 141.614 15.4152 141.602 15.5502C141.602 15.6729 141.602 15.8693 141.602 16.1393V16.9678H143.479ZM152.571 22.0308H145.261C145.261 23.0004 145.525 23.8657 146.053 24.6267C146.593 25.3877 147.373 25.7682 148.391 25.7682C149.975 25.7682 150.969 24.9581 151.374 23.3379H152.534C152.006 25.6086 150.625 26.7439 148.391 26.7439C146.968 26.7439 145.894 26.2714 145.169 25.3263C144.458 24.3812 144.102 23.1784 144.102 21.7178C144.102 20.8341 144.243 20.0301 144.525 19.306C144.807 18.5696 145.28 17.9497 145.943 17.4465C146.618 16.9433 147.434 16.6917 148.391 16.6917C149.361 16.6917 150.171 16.9555 150.821 17.4833C151.484 18.0111 151.951 18.6677 152.221 19.4533C152.491 20.2388 152.607 21.098 152.571 22.0308ZM145.261 21.055H151.411C151.386 20.1345 151.098 19.3428 150.545 18.68C149.993 18.005 149.275 17.6674 148.391 17.6674C147.495 17.6674 146.777 17.9988 146.237 18.6616C145.697 19.3121 145.372 20.1099 145.261 21.055ZM162.118 22.0308H154.808C154.808 23.0004 155.072 23.8657 155.6 24.6267C156.14 25.3877 156.92 25.7682 157.938 25.7682C159.522 25.7682 160.516 24.9581 160.921 23.3379H162.081C161.553 25.6086 160.172 26.7439 157.938 26.7439C156.514 26.7439 155.441 26.2714 154.716 25.3263C154.004 24.3812 153.649 23.1784 153.649 21.7178C153.649 20.8341 153.79 20.0301 154.072 19.306C154.354 18.5696 154.827 17.9497 155.49 17.4465C156.165 16.9433 156.981 16.6917 157.938 16.6917C158.908 16.6917 159.718 16.9555 160.368 17.4833C161.031 18.0111 161.498 18.6677 161.768 19.4533C162.038 20.2388 162.154 21.098 162.118 22.0308ZM154.808 21.055H160.958C160.933 20.1345 160.645 19.3428 160.092 18.68C159.54 18.005 158.822 17.6674 157.938 17.6674C157.042 17.6674 156.324 17.9988 155.784 18.6616C155.244 19.3121 154.919 20.1099 154.808 21.055ZM170.523 19.7478H169.363C169.339 19.0605 169.093 18.545 168.627 18.2013C168.16 17.8454 167.577 17.6674 166.878 17.6674C166.276 17.6674 165.749 17.8024 165.294 18.0725C164.853 18.3302 164.632 18.7414 164.632 19.306C164.632 20.0424 165.288 20.5763 166.602 20.9077L168.148 21.2575C168.909 21.368 169.547 21.6442 170.063 22.086C170.591 22.5279 170.854 23.1293 170.854 23.8903C170.854 24.8354 170.468 25.5472 169.695 26.0259C168.934 26.5046 168.05 26.7439 167.043 26.7439C164.638 26.7439 163.337 25.627 163.14 23.3932H164.3C164.349 24.1542 164.625 24.7433 165.129 25.1606C165.644 25.5656 166.301 25.7682 167.099 25.7682C167.761 25.7682 168.357 25.6209 168.884 25.3263C169.425 25.0195 169.695 24.5653 169.695 23.9639C169.695 23.4607 169.51 23.0863 169.142 22.8409C168.774 22.5954 168.265 22.3929 167.614 22.2333L166.123 21.9019C165.251 21.681 164.589 21.3864 164.134 21.0182C163.693 20.65 163.472 20.0977 163.472 19.3612C163.472 18.4652 163.828 17.7963 164.54 17.3544C165.251 16.9126 166.086 16.6917 167.043 16.6917C168.038 16.6917 168.854 16.9555 169.492 17.4833C170.13 17.9988 170.474 18.7537 170.523 19.7478Z" fill="black"/>
</g>
<defs>
<filter id="filter0_dd_978_461" x="0.602914" y="0.452291" width="181.03" height="47.151" filterUnits="userSpaceOnUse" color-interpolation-filters="sRGB">
<feFlood flood-opacity="0" result="BackgroundImageFix"/>
<feColorMatrix in="SourceAlpha" type="matrix" values="0 0 0 0 0 0 0 0 0 0 0 0 0 0 0 0 0 0 127 0" result="hardAlpha"/>
<feOffset dy="3.68215"/>
<feGaussianBlur stdDeviation="2.20929"/>
<feComposite in2="hardAlpha" operator="out"/>
<feColorMatrix type="matrix" values="0 0 0 0 0 0 0 0 0 0 0 0 0 0 0 0 0 0 0.25 0"/>
<feBlend mode="normal" in2="BackgroundImageFix" result="effect1_dropShadow_978_461"/>
<feColorMatrix in="SourceAlpha" type="matrix" values="0 0 0 0 0 0 0 0 0 0 0 0 0 0 0 0 0 0 127 0" result="hardAlpha"/>
<feOffset dy="4.42834"/>
<feGaussianBlur stdDeviation="2.21417"/>
<feComposite in2="hardAlpha" operator="out"/>
<feColorMatrix type="matrix" values="0 0 0 0 0 0 0 0 0 0 0 0 0 0 0 0 0 0 0.25 0"/>
<feBlend mode="normal" in2="effect1_dropShadow_978_461" result="effect2_dropShadow_978_461"/>
<feBlend mode="normal" in="SourceGraphic" in2="effect2_dropShadow_978_461" result="shape"/>
</filter>
</defs>
</svg>
