<svg width="107" height="32" viewBox="0 0 107 32" fill="none" xmlns="http://www.w3.org/2000/svg">
<path d="M4.3418 7.30328C4.3418 5.67525 5.66158 4.35547 7.28961 4.35547H31.6582C33.2862 4.35547 34.606 5.67525 34.606 7.30328V28.527C34.606 30.1553 33.286 31.4753 31.6577 31.4753H7.28961C5.66158 31.4753 4.3418 30.1555 4.3418 28.5275V7.30328Z" fill="#001B6C"/>
<path d="M2.15625 8.16417C2.15625 5.38495 2.15625 3.99534 3.01964 3.13195C3.88304 2.26855 5.27265 2.26855 8.05187 2.26855H26.5248C29.304 2.26855 30.6936 2.26855 31.557 3.13195C32.4204 3.99534 32.4204 5.38495 32.4204 8.16417V23.4928C32.4204 26.272 32.4204 27.6616 31.557 28.525C30.6936 29.3884 29.304 29.3884 26.5248 29.3884H8.05279C5.27314 29.3884 3.88331 29.3884 3.01978 28.5249C2.15625 27.6613 2.15625 26.2715 2.15625 23.4919V8.16417Z" fill="#00EAFF"/>
<path d="M0 5.89561C0 3.11639 0 1.72679 0.863393 0.863393C1.72679 0 3.1164 0 5.89562 0H24.3686C27.1478 0 28.5374 0 29.4008 0.863393C30.2642 1.72679 30.2642 3.1164 30.2642 5.89562V21.2242C30.2642 24.0035 30.2642 25.3931 29.4008 26.2565C28.5374 27.1198 27.1478 27.1198 24.3686 27.1198H5.89654C3.11689 27.1198 1.72706 27.1198 0.863528 26.2563C0 25.3928 0 24.003 0 21.2233V5.89561Z" fill="#007BFF"/>
<path d="M15.2227 8.125C17.339 8.12509 19.0547 9.84065 19.0547 11.957C19.0546 12.4356 18.8488 13.1305 18.4727 13.9561C18.1047 14.7636 17.6042 15.631 17.0859 16.4336C16.5682 17.2353 16.04 17.96 15.6211 18.4795C15.4694 18.6676 15.3328 18.8224 15.2217 18.9443C15.1107 18.8226 14.9756 18.6672 14.8242 18.4795C14.4053 17.96 13.8771 17.2353 13.3594 16.4336C12.8411 15.631 12.3406 14.7636 11.9727 13.9561C11.5965 13.1305 11.3907 12.4356 11.3906 11.957C11.3906 9.84059 13.1062 8.125 15.2227 8.125Z" stroke="white" stroke-width="1.17912"/>
<path d="M45.197 22.9471C44.0909 22.9471 43.112 22.7119 42.2602 22.2415C41.4211 21.7711 40.76 21.1227 40.2769 20.2964C39.8066 19.4573 39.5714 18.5038 39.5714 17.4359V9.27397H42.5844V17.6075C42.5844 18.1415 42.6988 18.6055 42.9277 18.9996C43.1565 19.3937 43.468 19.6988 43.8621 19.915C44.2689 20.1184 44.7139 20.2201 45.197 20.2201C45.7055 20.2201 46.1505 20.1184 46.5319 19.915C46.9133 19.6988 47.212 19.4001 47.4281 19.0187C47.657 18.6246 47.7714 18.1605 47.7714 17.6266V9.27397H50.7844V17.4549C50.7844 18.5229 50.5493 19.47 50.0789 20.2964C49.6085 21.1227 48.9537 21.7711 48.1147 22.2415C47.2756 22.7119 46.303 22.9471 45.197 22.9471ZM58.2436 22.928C57.6207 22.928 57.0486 22.8072 56.5273 22.5657C56.0061 22.3241 55.5802 21.9936 55.2496 21.574C54.9191 21.1418 54.7284 20.6523 54.6775 20.1057V16.1963C54.7284 15.6497 54.9191 15.1538 55.2496 14.7089C55.5802 14.2639 56.0061 13.9143 56.5273 13.66C57.0486 13.4058 57.6207 13.2786 58.2436 13.2786C59.1208 13.2786 59.8963 13.4884 60.5701 13.908C61.2566 14.3275 61.7906 14.8996 62.172 15.6242C62.5661 16.3489 62.7632 17.1753 62.7632 18.1033C62.7632 19.0314 62.5661 19.8578 62.172 20.5824C61.7906 21.3071 61.2566 21.8792 60.5701 22.2987C59.8963 22.7182 59.1208 22.928 58.2436 22.928ZM52.904 26.6466V13.4693H55.8217V15.8531L55.345 18.1033L55.7836 20.3536V26.6466H52.904ZM57.7096 20.2964C58.1292 20.2964 58.4915 20.201 58.7966 20.0103C59.1145 19.8196 59.3624 19.559 59.5404 19.2284C59.7183 18.8979 59.8073 18.5229 59.8073 18.1033C59.8073 17.6711 59.7183 17.2897 59.5404 16.9591C59.3624 16.6286 59.1145 16.3743 58.7966 16.1963C58.4915 16.0056 58.1355 15.9103 57.7287 15.9103C57.3219 15.9103 56.9596 16.0056 56.6417 16.1963C56.3366 16.3743 56.0951 16.6286 55.9171 16.9591C55.7391 17.2897 55.6501 17.6711 55.6501 18.1033C55.6501 18.5229 55.7327 18.8979 55.898 19.2284C56.076 19.559 56.3239 19.8196 56.6417 20.0103C56.9596 20.201 57.3155 20.2964 57.7096 20.2964ZM65.375 22.7373V9.6363H68.2927V22.7373H65.375ZM63.2773 15.9484V13.4693H70.3904V15.9484H63.2773ZM71.6759 22.7373V13.4693H74.5936V22.7373H71.6759ZM73.1443 12.1917C72.6866 12.1917 72.3053 12.0391 72.0001 11.734C71.7077 11.4162 71.5615 11.0348 71.5615 10.5898C71.5615 10.1321 71.7077 9.75072 72.0001 9.4456C72.3053 9.14048 72.6866 8.98792 73.1443 8.98792C73.602 8.98792 73.977 9.14048 74.2694 9.4456C74.5619 9.75072 74.7081 10.1321 74.7081 10.5898C74.7081 11.0348 74.5619 11.4162 74.2694 11.734C73.977 12.0391 73.602 12.1917 73.1443 12.1917ZM81.1106 22.9471C80.1571 22.9471 79.2926 22.7373 78.5171 22.3178C77.7543 21.8855 77.1504 21.3007 76.7055 20.5633C76.2605 19.826 76.038 18.9996 76.038 18.0843C76.038 17.1689 76.2605 16.3489 76.7055 15.6242C77.1504 14.8996 77.7543 14.3275 78.5171 13.908C79.2799 13.4757 80.1444 13.2596 81.1106 13.2596C82.0768 13.2596 82.9413 13.4693 83.7041 13.8889C84.4669 14.3084 85.0708 14.8869 85.5158 15.6242C85.9607 16.3489 86.1832 17.1689 86.1832 18.0843C86.1832 18.9996 85.9607 19.826 85.5158 20.5633C85.0708 21.3007 84.4669 21.8855 83.7041 22.3178C82.9413 22.7373 82.0768 22.9471 81.1106 22.9471ZM81.1106 20.2964C81.5302 20.2964 81.8988 20.2074 82.2167 20.0294C82.5345 19.8387 82.7761 19.5781 82.9413 19.2475C83.1193 18.9043 83.2083 18.5165 83.2083 18.0843C83.2083 17.652 83.1193 17.277 82.9413 16.9591C82.7633 16.6286 82.5154 16.3743 82.1976 16.1963C81.8925 16.0056 81.5302 15.9103 81.1106 15.9103C80.7038 15.9103 80.3415 16.0056 80.0236 16.1963C79.7058 16.3743 79.4579 16.6286 79.2799 16.9591C79.1019 17.2897 79.0129 17.6711 79.0129 18.1033C79.0129 18.5229 79.1019 18.9043 79.2799 19.2475C79.4579 19.5781 79.7058 19.8387 80.0236 20.0294C80.3415 20.2074 80.7038 20.2964 81.1106 20.2964ZM93.7572 22.7373V17.4549C93.7572 16.9718 93.6047 16.5841 93.2995 16.2917C93.0071 15.9866 92.6321 15.834 92.1744 15.834C91.8566 15.834 91.5769 15.9039 91.3353 16.0438C91.0938 16.1709 90.9031 16.3616 90.7633 16.6159C90.6234 16.8574 90.5535 17.1371 90.5535 17.4549L89.4284 16.9019C89.4284 16.1773 89.5873 15.5416 89.9051 14.9949C90.2229 14.4483 90.6615 14.0287 91.2209 13.7363C91.793 13.4312 92.435 13.2786 93.147 13.2786C93.8335 13.2786 94.4374 13.4439 94.9586 13.7745C95.4926 14.0923 95.9121 14.5182 96.2172 15.0521C96.5224 15.5861 96.6749 16.1709 96.6749 16.8066V22.7373H93.7572ZM87.6358 22.7373V13.4693H90.5535V22.7373H87.6358ZM101.924 22.9661C101.378 22.9661 100.837 22.8962 100.303 22.7564C99.782 22.6165 99.2926 22.4195 98.8349 22.1652C98.3899 21.8982 98.0085 21.5931 97.6907 21.2499L99.3498 19.5717C99.6549 19.9022 100.017 20.1629 100.437 20.3536C100.856 20.5316 101.314 20.6205 101.81 20.6205C102.153 20.6205 102.414 20.5697 102.592 20.468C102.782 20.3663 102.878 20.2264 102.878 20.0485C102.878 19.8196 102.763 19.648 102.534 19.5336C102.318 19.4064 102.039 19.2984 101.695 19.2094C101.352 19.1077 100.99 18.9996 100.608 18.8852C100.227 18.7708 99.8646 18.6119 99.5214 18.4084C99.1781 18.205 98.8984 17.9253 98.6823 17.5694C98.4662 17.2007 98.3581 16.7366 98.3581 16.1773C98.3581 15.5797 98.5107 15.0649 98.8158 14.6326C99.1209 14.1876 99.5532 13.838 100.113 13.5838C100.672 13.3295 101.327 13.2024 102.077 13.2024C102.865 13.2024 103.59 13.3422 104.251 13.6219C104.925 13.8889 105.471 14.2893 105.891 14.8233L104.232 16.5015C103.939 16.1582 103.609 15.9166 103.24 15.7768C102.884 15.637 102.534 15.567 102.191 15.567C101.861 15.567 101.613 15.6179 101.447 15.7196C101.282 15.8086 101.2 15.9421 101.2 16.1201C101.2 16.3108 101.308 16.4633 101.524 16.5777C101.74 16.6922 102.02 16.7939 102.363 16.8829C102.706 16.9718 103.068 17.0799 103.45 17.207C103.831 17.3342 104.194 17.5058 104.537 17.7219C104.88 17.9381 105.16 18.2305 105.376 18.5991C105.592 18.9551 105.7 19.4255 105.7 20.0103C105.7 20.913 105.357 21.6313 104.67 22.1652C103.996 22.6992 103.081 22.9661 101.924 22.9661Z" fill="#001B6C"/>
</svg>
