<svg width="64" height="64" viewBox="0 0 64 64" fill="none" xmlns="http://www.w3.org/2000/svg">
<circle cx="32" cy="32" r="32" fill="#001B6C"/>
<path d="M39.0001 40.9999L39.0001 22.9999C38.9995 22.8177 38.9493 22.639 38.8547 22.4832C38.7602 22.3274 38.6249 22.2004 38.4636 22.1157C38.3022 22.0311 38.1207 21.992 37.9388 22.0028C37.7569 22.0136 37.5814 22.0738 37.4311 22.1769L24.4311 31.1769C23.8921 31.5499 23.8921 32.4479 24.4311 32.8219L37.4311 41.8219C37.581 41.9261 37.7567 41.9872 37.9389 41.9985C38.1211 42.0099 38.303 41.9711 38.4647 41.8864C38.6264 41.8017 38.7619 41.6742 38.8562 41.5179C38.9506 41.3617 39.0004 41.1825 39.0001 40.9999Z" fill="#001B6C"/>
<path d="M39.0001 40.9999L39.0001 22.9999C38.9995 22.8177 38.9493 22.639 38.8547 22.4832C38.7602 22.3274 38.6249 22.2004 38.4636 22.1157C38.3022 22.0311 38.1207 21.992 37.9388 22.0028C37.7569 22.0136 37.5814 22.0738 37.4311 22.1769L24.4311 31.1769C23.8921 31.5499 23.8921 32.4479 24.4311 32.8219L37.4311 41.8219C37.581 41.9261 37.7567 41.9872 37.9389 41.9985C38.1211 42.0099 38.303 41.9711 38.4647 41.8864C38.6264 41.8017 38.7619 41.6742 38.8562 41.5179C38.9506 41.3617 39.0004 41.1825 39.0001 40.9999Z" fill="#007BFF"/>
<path d="M39.0001 40.9999L39.0001 22.9999C38.9995 22.8177 38.9493 22.639 38.8547 22.4832C38.7602 22.3274 38.6249 22.2004 38.4636 22.1157C38.3022 22.0311 38.1207 21.992 37.9388 22.0028C37.7569 22.0136 37.5814 22.0738 37.4311 22.1769L24.4311 31.1769C23.8921 31.5499 23.8921 32.4479 24.4311 32.8219L37.4311 41.8219C37.581 41.9261 37.7567 41.9872 37.9389 41.9985C38.1211 42.0099 38.303 41.9711 38.4647 41.8864C38.6264 41.8017 38.7619 41.6742 38.8562 41.5179C38.9506 41.3617 39.0004 41.1825 39.0001 40.9999Z" fill="white"/>
</svg>
