<svg width="1440" height="864" viewBox="0 0 1440 864" fill="none" xmlns="http://www.w3.org/2000/svg">
<rect y="90" width="1440" height="619" fill="#001B6C"/>
<g style="mix-blend-mode:soft-light" opacity="0.25">
<path d="M190.585 405.401C190.585 336.466 246.467 280.584 315.401 280.584H1401.78C1470.72 280.584 1526.6 336.467 1526.6 405.401V1476.42H315.401C246.467 1476.42 190.585 1420.54 190.585 1351.6V405.401Z" stroke="white" stroke-width="13.2014"/>
<path d="M56.4567 411.864C46.4263 343.664 93.5825 280.245 161.783 270.215L1236.6 112.138C1304.8 102.108 1368.22 149.264 1378.25 217.465L1515.93 1153.6C1525.96 1221.8 1478.81 1285.22 1410.61 1295.25L212.298 1471.49L56.4567 411.864Z" stroke="white" stroke-width="13.2014"/>
<path d="M-58.185 433.479C-75.4492 366.886 -35.575 298.879 30.9686 281.424L1082.16 5.68982C1148.84 -11.8003 1217.07 28.0747 1234.56 94.7532L1474.64 1010.01C1492.13 1076.68 1452.26 1144.91 1385.59 1162.41L210.723 1470.74L-58.185 433.479Z" stroke="white" stroke-width="13.2014"/>
</g>
</svg>
