<svg width="118" height="15" viewBox="0 0 118 15" fill="none" xmlns="http://www.w3.org/2000/svg">
<path d="M2.17291 2C6.70212 2.10614 46.5602 3.12868 51.0559 3.27408C53.6382 3.3576 65.7187 3.44908 68.2898 3.5619C71.6693 3.71019 77.1815 3.93845 80.5543 4.39742C83.3342 4.7757 84.1679 5.07868 81.041 5.67444C79.0154 6.06037 76.7658 6.32089 74.5371 6.57143C68.3838 7.26316 43.6483 7.9667 37.3781 8.49396C34.8532 8.70628 32.2976 8.88512 29.8035 9.13108C28.8326 9.22682 26.4635 10.2453 27.0072 10.5167C27.7302 10.8776 29.659 11.6968 31.0069 11.7319C36.92 11.8858 52.5066 11.9873 57.0402 12.0365C68.9823 12.1659 104.442 12.1665 116.173 13" stroke="#007BFF" stroke-width="3" stroke-linecap="round"/>
</svg>
