<svg width="57" height="12" viewBox="0 0 57 12" fill="none" xmlns="http://www.w3.org/2000/svg">
<path d="M2.20117 1.68506C4.29031 1.78841 22.6752 1.81036 24.7489 1.95195C25.94 2.03327 38.3286 2.12236 39.5146 2.23222C41.0734 2.37662 45.5635 2.59889 47.1192 3.04582C48.4015 3.41418 48.786 3.70921 47.3437 4.28935C46.4094 4.66516 41.4767 4.91884 40.4486 5.16281C37.6104 5.83639 14.5157 6.52147 11.6235 7.03491C10.4588 7.24166 9.28006 7.4158 8.12963 7.65531C7.68182 7.74854 5.61528 8.74027 5.86607 9.00459C6.19956 9.35605 8.06302 10.1537 8.68473 10.1879C11.4122 10.3377 25.4181 10.4366 27.5092 10.4845C33.0176 10.6105 49.2445 10.4845 54.7847 10.449" stroke="#007BFF" stroke-width="2.92131" stroke-linecap="round"/>
</svg>
