<svg width="16" height="22" viewBox="0 0 16 22" fill="none" xmlns="http://www.w3.org/2000/svg">
<path fill-rule="evenodd" clip-rule="evenodd" d="M2.18182 9.26689C1.20406 9.26689 1 9.45879 1 10.378V12.0447C1 12.964 1.20406 13.1558 2.18182 13.1558H4.54545V19.8225C4.54545 20.7417 4.74951 20.9336 5.72727 20.9336H8.0909C9.0687 20.9336 9.2727 20.7417 9.2727 19.8225V13.1558H11.9267C12.6683 13.1558 12.8594 13.0203 13.0631 12.35L13.5696 10.6833C13.9185 9.53499 13.7035 9.26689 12.4332 9.26689H9.2727V6.48915C9.2727 5.8755 9.8018 5.37803 10.4545 5.37803H13.8182C14.7959 5.37803 15 5.18618 15 4.26692V2.0447C15 1.12544 14.7959 0.933594 13.8182 0.933594H10.4545C7.191 0.933594 4.54545 3.4209 4.54545 6.48915V9.26689H2.18182Z" stroke="white" stroke-width="1.5" stroke-linejoin="round"/>
</svg>
