<svg width="209" height="62" viewBox="0 0 209 62" fill="none" xmlns="http://www.w3.org/2000/svg">
<path d="M73.3487 20.2593V19.5364H74.2933V14.2351H73.3487V13.5122H75.9801C76.8668 13.5122 77.5512 13.7371 78.0331 14.1869C78.5215 14.6367 78.7657 15.3275 78.7657 16.2592V17.5122C78.7657 18.4504 78.5215 19.1444 78.0331 19.5942C77.5512 20.0376 76.8668 20.2593 75.9801 20.2593H73.3487ZM75.1029 19.5267H75.9801C76.6355 19.5267 77.1303 19.3661 77.4644 19.0448C77.7986 18.7235 77.9656 18.2255 77.9656 17.5508V16.2303C77.9656 15.5427 77.7986 15.0415 77.4644 14.7266C77.1303 14.4118 76.6355 14.2543 75.9801 14.2543H75.1029V19.5267ZM82.2461 20.3942C81.7706 20.3942 81.3529 20.2946 80.993 20.0954C80.6332 19.8898 80.3537 19.6038 80.1545 19.2376C79.9553 18.8713 79.8557 18.4472 79.8557 17.9653V17.8496C79.8557 17.3612 79.9553 16.9339 80.1545 16.5676C80.3537 16.2014 80.63 15.9186 80.9834 15.7194C81.3368 15.5138 81.7416 15.411 82.1979 15.411C82.6413 15.411 83.0332 15.5074 83.3738 15.7002C83.7144 15.8865 83.981 16.1564 84.1738 16.5098C84.3666 16.8632 84.463 17.2777 84.463 17.7532V18.1002H80.6171C80.6364 18.6078 80.8003 19.0062 81.1087 19.2954C81.4171 19.5781 81.8027 19.7195 82.2653 19.7195C82.6702 19.7195 82.9818 19.6263 83.2003 19.44C83.4188 19.2536 83.5859 19.0319 83.7015 18.7749L84.357 19.093C84.2606 19.2922 84.1256 19.4914 83.9521 19.6906C83.7851 19.8898 83.5634 20.0569 83.2871 20.1918C83.0172 20.3267 82.6702 20.3942 82.2461 20.3942ZM80.6268 17.4737H83.6919C83.6662 17.0367 83.5152 16.6962 83.2389 16.452C82.969 16.2078 82.622 16.0857 82.1979 16.0857C81.7673 16.0857 81.4139 16.2078 81.1376 16.452C80.8613 16.6962 80.691 17.0367 80.6268 17.4737ZM85.7912 20.2593V13.5122H86.5526V20.2593H85.7912ZM88.1538 20.2593V15.5459H88.9153V20.2593H88.1538ZM88.5393 14.8134C88.3723 14.8134 88.2309 14.7588 88.1152 14.6495C88.006 14.5403 87.9514 14.4021 87.9514 14.2351C87.9514 14.0616 88.006 13.9202 88.1152 13.811C88.2309 13.7017 88.3723 13.6471 88.5393 13.6471C88.7064 13.6471 88.8446 13.7017 88.9538 13.811C89.063 13.9202 89.1177 14.0616 89.1177 14.2351C89.1177 14.4021 89.063 14.5403 88.9538 14.6495C88.8446 14.7588 88.7064 14.8134 88.5393 14.8134ZM91.7116 20.2593L90.0248 15.5459H90.8345L92.2514 19.6906H92.3863L93.8032 15.5459H94.6129L92.9261 20.2593H91.7116ZM97.6737 20.3942C97.1982 20.3942 96.7805 20.2946 96.4207 20.0954C96.0608 19.8898 95.7813 19.6038 95.5821 19.2376C95.3829 18.8713 95.2833 18.4472 95.2833 17.9653V17.8496C95.2833 17.3612 95.3829 16.9339 95.5821 16.5676C95.7813 16.2014 96.0576 15.9186 96.411 15.7194C96.7644 15.5138 97.1693 15.411 97.6255 15.411C98.0689 15.411 98.4609 15.5074 98.8014 15.7002C99.142 15.8865 99.4087 16.1564 99.6014 16.5098C99.7942 16.8632 99.8906 17.2777 99.8906 17.7532V18.1002H96.0448C96.064 18.6078 96.2279 19.0062 96.5363 19.2954C96.8448 19.5781 97.2303 19.7195 97.693 19.7195C98.0978 19.7195 98.4095 19.6263 98.6279 19.44C98.8464 19.2536 99.0135 19.0319 99.1291 18.7749L99.7846 19.093C99.6882 19.2922 99.5533 19.4914 99.3798 19.6906C99.2127 19.8898 98.991 20.0569 98.7147 20.1918C98.4448 20.3267 98.0978 20.3942 97.6737 20.3942ZM96.0544 17.4737H99.1195C99.0938 17.0367 98.9428 16.6962 98.6665 16.452C98.3966 16.2078 98.0496 16.0857 97.6255 16.0857C97.195 16.0857 96.8416 16.2078 96.5652 16.452C96.2889 16.6962 96.1187 17.0367 96.0544 17.4737ZM101.219 20.2593V15.5459H101.961V16.1243H102.096C102.179 15.9186 102.308 15.7676 102.481 15.6712C102.655 15.5749 102.883 15.5267 103.166 15.5267H103.725V16.2206H103.118C102.777 16.2206 102.501 16.317 102.289 16.5098C102.083 16.6962 101.98 16.9885 101.98 17.3869V20.2593H101.219ZM105.421 22.187V21.5123H108.12C108.306 21.5123 108.399 21.4159 108.399 21.2232V19.5075H108.264C108.2 19.6424 108.1 19.7773 107.965 19.9123C107.837 20.0408 107.667 20.1468 107.455 20.2304C107.243 20.3075 106.976 20.346 106.655 20.346C106.314 20.346 105.999 20.2721 105.71 20.1243C105.427 19.9765 105.202 19.7581 105.035 19.4689C104.875 19.1797 104.794 18.8263 104.794 18.4086V15.5459H105.556V18.3508C105.556 18.8135 105.671 19.1508 105.903 19.3629C106.141 19.5749 106.459 19.681 106.857 19.681C107.307 19.681 107.676 19.5332 107.965 19.2376C108.255 18.942 108.399 18.5018 108.399 17.9171V15.5459H109.161V21.3581C109.161 21.6151 109.087 21.8175 108.939 21.9653C108.798 22.1131 108.589 22.187 108.312 22.187H105.421Z" fill="#2770EF"/>
<path d="M82.272 54.2084C80.1567 54.2084 78.3366 53.8272 76.8117 53.0647C75.3113 52.2776 74.1553 51.1708 73.3436 49.7442C72.5566 48.2931 72.163 46.5837 72.163 44.616V27.8662H77.033V44.7636C77.033 46.3377 77.4758 47.5798 78.3612 48.4899C79.2713 49.3999 80.5748 49.8549 82.272 49.8549C83.9691 49.8549 85.2604 49.3999 86.1458 48.4899C87.0559 47.5798 87.5109 46.3377 87.5109 44.7636V27.8662H92.3809V44.616C92.3809 46.5837 91.9751 48.2931 91.1634 49.7442C90.3763 51.1708 89.2203 52.2776 87.6954 53.0647C86.195 53.8272 84.3872 54.2084 82.272 54.2084ZM97.2463 61.0707V35.3925H101.821V37.6061H102.485C102.903 36.8929 103.555 36.2657 104.441 35.7246C105.326 35.1589 106.593 34.876 108.241 34.876C109.716 34.876 111.082 35.2449 112.336 35.9828C113.59 36.6961 114.599 37.7537 115.361 39.1557C116.124 40.5577 116.505 42.2548 116.505 44.2471V44.8374C116.505 46.8296 116.124 48.5267 115.361 49.9287C114.599 51.3307 113.59 52.4006 112.336 53.1385C111.082 53.8518 109.716 54.2084 108.241 54.2084C107.134 54.2084 106.199 54.0731 105.437 53.8026C104.699 53.5566 104.096 53.2369 103.629 52.8433C103.186 52.4252 102.83 52.0071 102.559 51.5889H101.895V61.0707H97.2463ZM106.839 50.1501C108.29 50.1501 109.483 49.6951 110.417 48.785C111.377 47.8504 111.856 46.4976 111.856 44.7267V44.3577C111.856 42.5868 111.377 41.2463 110.417 40.3363C109.458 39.4017 108.265 38.9343 106.839 38.9343C105.412 38.9343 104.219 39.4017 103.26 40.3363C102.301 41.2463 101.821 42.5868 101.821 44.3577V44.7267C101.821 46.4976 102.301 47.8504 103.26 48.785C104.219 49.6951 105.412 50.1501 106.839 50.1501ZM127.171 53.6919C125.966 53.6919 124.982 53.323 124.219 52.5851C123.481 51.8226 123.112 50.8142 123.112 49.5598V39.2295H118.538V35.3925H123.112V29.7108H127.761V35.3925H132.779V39.2295H127.761V48.7481C127.761 49.486 128.105 49.8549 128.794 49.8549H132.336V53.6919H127.171ZM136.987 53.6919V35.3925H141.635V53.6919H136.987ZM139.311 33.2527C138.475 33.2527 137.761 32.9821 137.171 32.441C136.605 31.8999 136.322 31.1866 136.322 30.3012C136.322 29.4157 136.605 28.7024 137.171 28.1613C137.761 27.6202 138.475 27.3496 139.311 27.3496C140.172 27.3496 140.885 27.6202 141.451 28.1613C142.016 28.7024 142.299 29.4157 142.299 30.3012C142.299 31.1866 142.016 31.8999 141.451 32.441C140.885 32.9821 140.172 33.2527 139.311 33.2527ZM155.493 54.2084C153.673 54.2084 152.038 53.8395 150.587 53.1016C149.135 52.3637 147.992 51.2938 147.155 49.8918C146.319 48.4899 145.901 46.805 145.901 44.8374V44.2471C145.901 42.2794 146.319 40.5946 147.155 39.1926C147.992 37.7906 149.135 36.7207 150.587 35.9828C152.038 35.2449 153.673 34.876 155.493 34.876C157.314 34.876 158.949 35.2449 160.4 35.9828C161.851 36.7207 162.995 37.7906 163.831 39.1926C164.668 40.5946 165.086 42.2794 165.086 44.2471V44.8374C165.086 46.805 164.668 48.4899 163.831 49.8918C162.995 51.2938 161.851 52.3637 160.4 53.1016C158.949 53.8395 157.314 54.2084 155.493 54.2084ZM155.493 50.0763C156.92 50.0763 158.101 49.6213 159.035 48.7112C159.97 47.7766 160.437 46.4484 160.437 44.7267V44.3577C160.437 42.636 159.97 41.3201 159.035 40.4101C158.125 39.4754 156.945 39.0081 155.493 39.0081C154.067 39.0081 152.886 39.4754 151.952 40.4101C151.017 41.3201 150.55 42.636 150.55 44.3577V44.7267C150.55 46.4484 151.017 47.7766 151.952 48.7112C152.886 49.6213 154.067 50.0763 155.493 50.0763ZM169.377 53.6919V35.3925H173.952V37.7906H174.616C174.911 37.1511 175.464 36.5485 176.276 35.9828C177.088 35.3925 178.317 35.0974 179.965 35.0974C181.392 35.0974 182.634 35.4294 183.692 36.0935C184.774 36.733 185.61 37.6307 186.2 38.7868C186.791 39.9182 187.086 41.2463 187.086 42.7713V53.6919H182.437V43.1402C182.437 41.7629 182.093 40.7298 181.404 40.0411C180.74 39.3525 179.781 39.0081 178.526 39.0081C177.1 39.0081 175.993 39.4877 175.206 40.447C174.419 41.3816 174.025 42.6975 174.025 44.3946V53.6919H169.377ZM199.711 54.2084C197.326 54.2084 195.37 53.6919 193.845 52.6589C192.32 51.6258 191.398 50.1501 191.078 48.2316L195.358 47.1248C195.53 47.9856 195.813 48.662 196.206 49.1539C196.625 49.6459 197.129 50.0025 197.719 50.2239C198.334 50.4206 198.998 50.519 199.711 50.519C200.794 50.519 201.593 50.3345 202.109 49.9656C202.626 49.5721 202.884 49.0925 202.884 48.5267C202.884 47.961 202.638 47.5306 202.146 47.2355C201.654 46.9157 200.867 46.6575 199.785 46.4607L198.752 46.2762C197.473 46.0303 196.305 45.6982 195.247 45.2801C194.19 44.8374 193.341 44.2348 192.702 43.4723C192.062 42.7098 191.742 41.726 191.742 40.5208C191.742 38.7007 192.406 37.311 193.735 36.3518C195.063 35.3679 196.809 34.876 198.973 34.876C201.015 34.876 202.712 35.331 204.065 36.2411C205.418 37.1511 206.303 38.344 206.721 39.8198L202.405 41.148C202.208 40.2133 201.802 39.5492 201.187 39.1557C200.597 38.7622 199.859 38.5654 198.973 38.5654C198.088 38.5654 197.412 38.7253 196.944 39.045C196.477 39.3402 196.243 39.7583 196.243 40.2994C196.243 40.8897 196.489 41.3324 196.981 41.6276C197.473 41.8981 198.137 42.1072 198.973 42.2548L200.006 42.4393C201.384 42.6852 202.626 43.0173 203.733 43.4354C204.864 43.8289 205.75 44.4069 206.389 45.1694C207.053 45.9073 207.385 46.9157 207.385 48.1947C207.385 50.1132 206.684 51.6012 205.282 52.6589C203.905 53.6919 202.048 54.2084 199.711 54.2084Z" fill="white"/>
<path d="M10.2554 16.4378C10.2554 13.5756 12.5756 11.2554 15.4378 11.2554H58.2791C61.1412 11.2554 63.4615 13.5756 63.4615 16.4378V58.9336H15.4378C12.5756 58.9336 10.2554 56.6133 10.2554 53.7512V16.4378Z" fill="#007BFF"/>
<path d="M4.9688 16.7303C4.55233 13.8986 6.51027 11.2654 9.34198 10.8489L51.7273 4.61524C54.559 4.19877 57.1922 6.15671 57.6086 8.98841L63.038 45.9047C63.4545 48.7364 61.4965 51.3695 58.6648 51.786L11.1522 58.7738L4.9688 16.7303Z" fill="white" fill-opacity="0.35"/>
<path d="M0.453507 17.6102C-0.263309 14.8452 1.39228 12.0215 4.15518 11.2968L45.6089 0.423274C48.3774 -0.302921 51.2104 1.3527 51.9366 4.12121L61.404 40.2142C62.1301 42.9825 60.4749 45.8153 57.7067 46.5418L11.1234 58.767L0.453507 17.6102Z" fill="white" fill-opacity="0.75"/>
<path d="M40.0465 28.5446C40.0465 29.386 39.684 30.6069 39.0227 32.0584C38.3757 33.4785 37.4969 35.0045 36.5855 36.4158C35.6751 37.8255 34.7462 39.0991 34.0097 40.0124C33.7416 40.3448 33.5053 40.6216 33.3094 40.8364C33.1135 40.6216 32.8772 40.3448 32.6091 40.0124C31.8726 39.0991 30.9437 37.8255 30.0333 36.4158C29.1218 35.0045 28.2431 33.4785 27.5961 32.0584C26.9348 30.6069 26.5722 29.386 26.5722 28.5446C26.5722 24.8238 29.5886 21.8075 33.3094 21.8075C37.0302 21.8075 40.0465 24.8238 40.0465 28.5446Z" stroke="#007BFF" stroke-width="2.07296"/>
</svg>
