<svg width="64" height="64" viewBox="0 0 64 64" fill="none" xmlns="http://www.w3.org/2000/svg">
<circle cx="32" cy="32" r="32" fill="#001B6C"/>
<path d="M24.9999 40.9999L24.9999 22.9999C25.0005 22.8177 25.0507 22.639 25.1453 22.4832C25.2398 22.3274 25.3751 22.2004 25.5364 22.1157C25.6978 22.0311 25.8793 21.992 26.0612 22.0028C26.2431 22.0136 26.4186 22.0738 26.5689 22.1769L39.5689 31.1769C40.1079 31.5499 40.1079 32.4479 39.5689 32.8219L26.5689 41.8219C26.419 41.9261 26.2433 41.9872 26.0611 41.9985C25.8789 42.0099 25.697 41.9711 25.5353 41.8864C25.3736 41.8017 25.2381 41.6742 25.1438 41.5179C25.0494 41.3617 24.9996 41.1825 24.9999 40.9999Z" fill="#001B6C"/>
<path d="M24.9999 40.9999L24.9999 22.9999C25.0005 22.8177 25.0507 22.639 25.1453 22.4832C25.2398 22.3274 25.3751 22.2004 25.5364 22.1157C25.6978 22.0311 25.8793 21.992 26.0612 22.0028C26.2431 22.0136 26.4186 22.0738 26.5689 22.1769L39.5689 31.1769C40.1079 31.5499 40.1079 32.4479 39.5689 32.8219L26.5689 41.8219C26.419 41.9261 26.2433 41.9872 26.0611 41.9985C25.8789 42.0099 25.697 41.9711 25.5353 41.8864C25.3736 41.8017 25.2381 41.6742 25.1438 41.5179C25.0494 41.3617 24.9996 41.1825 24.9999 40.9999Z" fill="#007BFF"/>
<path d="M24.9999 40.9999L24.9999 22.9999C25.0005 22.8177 25.0507 22.639 25.1453 22.4832C25.2398 22.3274 25.3751 22.2004 25.5364 22.1157C25.6978 22.0311 25.8793 21.992 26.0612 22.0028C26.2431 22.0136 26.4186 22.0738 26.5689 22.1769L39.5689 31.1769C40.1079 31.5499 40.1079 32.4479 39.5689 32.8219L26.5689 41.8219C26.419 41.9261 26.2433 41.9872 26.0611 41.9985C25.8789 42.0099 25.697 41.9711 25.5353 41.8864C25.3736 41.8017 25.2381 41.6742 25.1438 41.5179C25.0494 41.3617 24.9996 41.1825 24.9999 40.9999Z" fill="white"/>
</svg>
