<svg width="416" height="24" viewBox="0 0 416 24" fill="none" xmlns="http://www.w3.org/2000/svg">
<path d="M3 3C7.52921 3.10614 262.387 4.12868 266.883 4.27408C269.465 4.3576 281.546 4.44908 284.117 4.5619C287.496 4.71019 338.009 4.93845 341.381 5.39742C344.161 5.7757 344.995 9.07868 341.868 9.67444C339.842 10.0604 292.593 10.3209 290.364 10.5714C284.211 11.2632 259.475 10.9667 253.205 11.494C250.68 11.7063 248.125 11.8851 245.631 12.1311C244.66 12.2268 71.6671 11.0001 71.8343 14.5167C72 18 245.486 19.6968 246.834 19.7319C252.747 19.8857 268.334 19.9873 272.867 20.0365C284.809 20.1659 401.269 20.1665 413 21" stroke="#007BFF" stroke-width="5" stroke-linecap="round"/>
</svg>
