<svg width="24" height="25" viewBox="0 0 24 25" fill="none" xmlns="http://www.w3.org/2000/svg">
<path fill-rule="evenodd" clip-rule="evenodd" d="M5 1.75C4.27065 1.75 3.57118 2.03973 3.05546 2.55546C2.53973 3.07118 2.25 3.77065 2.25 4.5C2.25 5.22935 2.53973 5.92882 3.05546 6.44454C3.57118 6.96027 4.27065 7.25 5 7.25C5.72935 7.25 6.42882 6.96027 6.94454 6.44454C7.46027 5.92882 7.75 5.22935 7.75 4.5C7.75 3.77065 7.46027 3.07118 6.94454 2.55546C6.42882 2.03973 5.72935 1.75 5 1.75ZM3.75 4.5C3.75 4.16848 3.8817 3.85054 4.11612 3.61612C4.35054 3.3817 4.66848 3.25 5 3.25C5.33152 3.25 5.64946 3.3817 5.88388 3.61612C6.1183 3.85054 6.25 4.16848 6.25 4.5C6.25 4.83152 6.1183 5.14946 5.88388 5.38388C5.64946 5.6183 5.33152 5.75 5 5.75C4.66848 5.75 4.35054 5.6183 4.11612 5.38388C3.8817 5.14946 3.75 4.83152 3.75 4.5ZM2.25 8.5C2.25 8.30109 2.32902 8.11032 2.46967 7.96967C2.61032 7.82902 2.80109 7.75 3 7.75H7C7.19891 7.75 7.38968 7.82902 7.53033 7.96967C7.67098 8.11032 7.75 8.30109 7.75 8.5V21.5C7.75 21.6989 7.67098 21.8897 7.53033 22.0303C7.38968 22.171 7.19891 22.25 7 22.25H3C2.80109 22.25 2.61032 22.171 2.46967 22.0303C2.32902 21.8897 2.25 21.6989 2.25 21.5V8.5ZM3.75 9.25V20.75H6.25V9.25H3.75ZM9.25 8.5C9.25 8.30109 9.32902 8.11032 9.46967 7.96967C9.61032 7.82902 9.80109 7.75 10 7.75H14C14.1989 7.75 14.3897 7.82902 14.5303 7.96967C14.671 8.11032 14.75 8.30109 14.75 8.5V8.934L15.185 8.747C15.9351 8.4266 16.7307 8.22583 17.543 8.152C20.318 7.9 22.75 10.08 22.75 12.88V21.5C22.75 21.6989 22.671 21.8897 22.5303 22.0303C22.3897 22.171 22.1989 22.25 22 22.25H18C17.8011 22.25 17.6103 22.171 17.4697 22.0303C17.329 21.8897 17.25 21.6989 17.25 21.5V14.5C17.25 14.1685 17.1183 13.8505 16.8839 13.6161C16.6495 13.3817 16.3315 13.25 16 13.25C15.6685 13.25 15.3505 13.3817 15.1161 13.6161C14.8817 13.8505 14.75 14.1685 14.75 14.5V21.5C14.75 21.6989 14.671 21.8897 14.5303 22.0303C14.3897 22.171 14.1989 22.25 14 22.25H10C9.80109 22.25 9.61032 22.171 9.46967 22.0303C9.32902 21.8897 9.25 21.6989 9.25 21.5V8.5ZM10.75 9.25V20.75H13.25V14.5C13.25 13.7707 13.5397 13.0712 14.0555 12.5555C14.5712 12.0397 15.2707 11.75 16 11.75C16.7293 11.75 17.4288 12.0397 17.9445 12.5555C18.4603 13.0712 18.75 13.7707 18.75 14.5V20.75H21.25V12.88C21.25 10.976 19.589 9.472 17.68 9.646C17.0241 9.7055 16.3817 9.86747 15.776 10.126L14.296 10.761C14.1818 10.81 14.0573 10.8299 13.9336 10.8189C13.8098 10.8079 13.6907 10.7663 13.587 10.6979C13.4833 10.6295 13.3982 10.5364 13.3394 10.427C13.2806 10.3176 13.2499 10.1952 13.25 10.071V9.25H10.75Z" fill="#007BFF"/>
</svg>
