<svg width="191" height="58" viewBox="0 0 191 58" fill="none" xmlns="http://www.w3.org/2000/svg">
<path d="M7.75879 13.9743C7.75879 11.0651 10.1171 8.70679 13.0263 8.70679H56.5711C59.4803 8.70679 61.8386 11.0651 61.8386 13.9743V51.8996C61.8386 54.8092 59.4799 57.168 56.5703 57.168H13.0263C10.1171 57.168 7.75879 54.8096 7.75879 51.9004V13.9743Z" fill="#001B6C"/>
<path d="M3.85254 15.5131C3.85254 10.5468 3.85254 8.06367 5.39536 6.52085C6.93818 4.97803 9.42131 4.97803 14.3876 4.97803H47.3974C52.3636 4.97803 54.8467 4.97803 56.3896 6.52085C57.9324 8.06367 57.9324 10.5468 57.9324 15.5131V42.9042C57.9324 47.8704 57.9324 50.3536 56.3896 51.8964C54.8467 53.4392 52.3636 53.4392 47.3974 53.4392H14.3892C9.42218 53.4392 6.93866 53.4392 5.3956 51.8961C3.85254 50.3531 3.85254 47.8696 3.85254 42.9025V15.5131Z" fill="#00EAFF"/>
<path d="M0 11.4598C0 6.49358 0 4.01044 1.54282 2.46762C3.08564 0.924805 5.56877 0.924805 10.535 0.924805H43.5448C48.5111 0.924805 50.9942 0.924805 52.537 2.46762C54.0798 4.01044 54.0798 6.49358 54.0798 11.4598V38.8509C54.0798 43.8172 54.0798 46.3003 52.537 47.8432C50.9942 49.386 48.5111 49.386 43.5448 49.386H10.5367C5.56965 49.386 3.08612 49.386 1.54306 47.8429C0 46.2999 0 43.8163 0 38.8493V11.4598Z" fill="#007BFF"/>
<path d="M27.2012 15.4426C30.9831 15.4427 34.0488 18.5084 34.0488 22.2903C34.0488 23.1455 33.68 24.3862 33.0078 25.8616C32.3502 27.3048 31.4576 28.8559 30.5312 30.2903C29.6059 31.7231 28.6617 33.0182 27.9131 33.9465C27.6408 34.2842 27.3993 34.5642 27.2002 34.7825C27.0013 34.5644 26.7612 34.2837 26.4893 33.9465C25.7406 33.0182 24.7964 31.7231 23.8711 30.2903C22.9447 28.8558 22.0511 27.3049 21.3936 25.8616C20.7215 24.3864 20.3535 23.1454 20.3535 22.2903C20.3535 18.5084 23.4193 15.4426 27.2012 15.4426Z" stroke="white" stroke-width="2.10701"/>
<path d="M80.7635 41.9212C78.787 41.9212 77.0378 41.501 75.5157 40.6604C74.0163 39.8198 72.835 38.6612 71.9717 37.1846C71.1312 35.6852 70.7109 33.9814 70.7109 32.0731V17.4884H76.095V32.3798C76.095 33.334 76.2995 34.1632 76.7084 34.8674C77.1173 35.5716 77.6739 36.1169 78.3781 36.5031C79.1051 36.8666 79.9002 37.0483 80.7635 37.0483C81.6722 37.0483 82.4673 36.8666 83.1488 36.5031C83.8304 36.1169 84.3642 35.583 84.7504 34.9015C85.1593 34.1972 85.3638 33.368 85.3638 32.4139V17.4884H90.7479V32.1072C90.7479 34.0155 90.3276 35.708 89.487 37.1846C88.6465 38.6612 87.4765 39.8198 85.9772 40.6604C84.4778 41.501 82.7399 41.9212 80.7635 41.9212ZM104.077 41.8872C102.964 41.8872 101.941 41.6713 101.01 41.2397C100.079 40.8081 99.3175 40.2174 98.7268 39.4677C98.1362 38.6953 97.7954 37.8207 97.7045 36.8438V29.8582C97.7954 28.8813 98.1362 27.9953 98.7268 27.2002C99.3175 26.4051 100.079 25.7803 101.01 25.326C101.941 24.8716 102.964 24.6445 104.077 24.6445C105.644 24.6445 107.03 25.0193 108.234 25.769C109.461 26.5187 110.415 27.541 111.097 28.8359C111.801 30.1308 112.153 31.6074 112.153 33.2658C112.153 34.9242 111.801 36.4008 111.097 37.6957C110.415 38.9907 109.461 40.0129 108.234 40.7626C107.03 41.5123 105.644 41.8872 104.077 41.8872ZM94.5354 48.5321V24.9852H99.7491V29.2448L98.8972 33.2658L99.681 37.2868V48.5321H94.5354ZM103.123 37.1846C103.872 37.1846 104.52 37.0142 105.065 36.6735C105.633 36.3327 106.076 35.867 106.394 35.2763C106.712 34.6857 106.871 34.0155 106.871 33.2658C106.871 32.4934 106.712 31.8119 106.394 31.2212C106.076 30.6306 105.633 30.1762 105.065 29.8582C104.52 29.5174 103.884 29.347 103.157 29.347C102.43 29.347 101.782 29.5174 101.214 29.8582C100.669 30.1762 100.238 30.6306 99.9195 31.2212C99.6015 31.8119 99.4424 32.4934 99.4424 33.2658C99.4424 34.0155 99.5901 34.6857 99.8854 35.2763C100.203 35.867 100.646 36.3327 101.214 36.6735C101.782 37.0142 102.418 37.1846 103.123 37.1846ZM116.82 41.5464V18.1359H122.034V41.5464H116.82ZM113.072 29.4152V24.9852H125.782V29.4152H113.072ZM128.079 41.5464V24.9852H133.293V41.5464H128.079ZM130.703 22.7021C129.885 22.7021 129.204 22.4295 128.659 21.8843C128.136 21.3163 127.875 20.6348 127.875 19.8397C127.875 19.0218 128.136 18.3403 128.659 17.7951C129.204 17.2499 129.885 16.9773 130.703 16.9773C131.521 16.9773 132.191 17.2499 132.714 17.7951C133.236 18.3403 133.498 19.0218 133.498 19.8397C133.498 20.6348 133.236 21.3163 132.714 21.8843C132.191 22.4295 131.521 22.7021 130.703 22.7021ZM144.939 41.9212C143.235 41.9212 141.69 41.5464 140.304 40.7967C138.941 40.0243 137.862 38.9793 137.067 37.6617C136.272 36.344 135.874 34.8674 135.874 33.2317C135.874 31.5961 136.272 30.1308 137.067 28.8359C137.862 27.541 138.941 26.5187 140.304 25.769C141.667 24.9966 143.212 24.6104 144.939 24.6104C146.665 24.6104 148.21 24.9852 149.573 25.7349C150.936 26.4846 152.015 27.5182 152.81 28.8359C153.605 30.1308 154.003 31.5961 154.003 33.2317C154.003 34.8674 153.605 36.344 152.81 37.6617C152.015 38.9793 150.936 40.0243 149.573 40.7967C148.21 41.5464 146.665 41.9212 144.939 41.9212ZM144.939 37.1846C145.688 37.1846 146.347 37.0256 146.915 36.7075C147.483 36.3668 147.915 35.9011 148.21 35.3104C148.528 34.697 148.687 34.0041 148.687 33.2317C148.687 32.4593 148.528 31.7892 148.21 31.2212C147.892 30.6306 147.449 30.1762 146.881 29.8582C146.336 29.5174 145.688 29.347 144.939 29.347C144.212 29.347 143.564 29.5174 142.996 29.8582C142.428 30.1762 141.985 30.6306 141.667 31.2212C141.349 31.8119 141.19 32.4934 141.19 33.2658C141.19 34.0155 141.349 34.697 141.667 35.3104C141.985 35.9011 142.428 36.3668 142.996 36.7075C143.564 37.0256 144.212 37.1846 144.939 37.1846ZM167.537 41.5464V32.1072C167.537 31.2439 167.264 30.551 166.719 30.0285C166.197 29.4833 165.527 29.2107 164.709 29.2107C164.141 29.2107 163.641 29.3357 163.209 29.5855C162.778 29.8127 162.437 30.1535 162.187 30.6078C161.937 31.0395 161.812 31.5393 161.812 32.1072L159.802 31.119C159.802 29.8241 160.086 28.6882 160.654 27.7113C161.222 26.7345 162.005 25.9848 163.005 25.4623C164.027 24.9171 165.174 24.6445 166.447 24.6445C167.673 24.6445 168.752 24.9398 169.684 25.5304C170.638 26.0984 171.388 26.8594 171.933 27.8136C172.478 28.7677 172.751 29.8127 172.751 30.9486V41.5464H167.537ZM156.599 41.5464V24.9852H161.812V41.5464H156.599ZM182.131 41.9553C181.154 41.9553 180.188 41.8304 179.234 41.5805C178.303 41.3306 177.428 40.9784 176.61 40.5241C175.815 40.047 175.134 39.5018 174.566 38.8884L177.531 35.8897C178.076 36.4804 178.723 36.9461 179.473 37.2868C180.223 37.6049 181.04 37.7639 181.926 37.7639C182.54 37.7639 183.005 37.673 183.324 37.4913C183.664 37.3095 183.835 37.0597 183.835 36.7416C183.835 36.3327 183.63 36.026 183.221 35.8215C182.835 35.5944 182.335 35.4013 181.722 35.2422C181.109 35.0605 180.461 34.8674 179.78 34.6629C179.098 34.4585 178.451 34.1745 177.837 33.811C177.224 33.4475 176.724 32.9478 176.338 32.3117C175.952 31.6529 175.759 30.8237 175.759 29.8241C175.759 28.7564 176.031 27.8363 176.576 27.0639C177.122 26.2688 177.894 25.644 178.894 25.1897C179.893 24.7353 181.063 24.5082 182.403 24.5082C183.812 24.5082 185.107 24.758 186.288 25.2578C187.492 25.7349 188.469 26.4505 189.219 27.4047L186.254 30.4034C185.732 29.79 185.141 29.3584 184.482 29.1085C183.846 28.8586 183.221 28.7336 182.608 28.7336C182.017 28.7336 181.574 28.8245 181.279 29.0062C180.984 29.1653 180.836 29.4038 180.836 29.7219C180.836 30.0626 181.029 30.3352 181.415 30.5397C181.801 30.7441 182.301 30.9259 182.915 31.0849C183.528 31.2439 184.175 31.437 184.857 31.6642C185.538 31.8914 186.186 32.1981 186.799 32.5843C187.413 32.9705 187.912 33.493 188.299 34.1518C188.685 34.7879 188.878 35.6284 188.878 36.6735C188.878 38.2864 188.265 39.57 187.038 40.5241C185.834 41.4782 184.198 41.9553 182.131 41.9553Z" fill="#001B6C"/>
</svg>
