<svg width="243" height="72" viewBox="0 0 200 72" fill="none" xmlns="http://www.w3.org/2000/svg">
<path d="M12.5467 19.6515C12.5467 16.2799 15.2799 13.5467 18.6515 13.5467H69.1177C72.4893 13.5467 75.2225 16.2799 75.2225 19.6515V69.7107H18.6515C15.2799 69.7107 12.5467 66.9775 12.5467 63.6059V19.6515Z" fill="#2321A1"/>
<path d="M6.31927 19.9963C5.82868 16.6606 8.1351 13.5588 11.4708 13.0682L61.3999 5.72498C64.7356 5.23439 67.8374 7.54081 68.328 10.8765L74.7237 54.3632C75.2143 57.6989 72.9079 60.8007 69.5722 61.2913L13.6033 69.5227L6.31927 19.9963Z" fill="white" fill-opacity="0.35"/>
<path d="M1.0002 21.0327C0.155802 17.7756 2.10605 14.4494 5.3607 13.5957L54.1924 0.786844C57.4537 -0.0686002 60.7909 1.88169 61.6464 5.14294L72.7988 47.6598C73.6541 50.9208 71.7043 54.2578 68.4434 55.1136L13.5691 69.5146L1.0002 21.0327Z" fill="white" fill-opacity="0.75"/>
<path d="M47.6401 33.9129C47.6401 34.904 47.2131 36.3422 46.434 38.0521C45.6718 39.7249 44.6367 41.5224 43.563 43.185C42.4906 44.8455 41.3964 46.3458 40.5288 47.4217C40.213 47.8132 39.9347 48.1394 39.7039 48.3924C39.4731 48.1394 39.1947 47.8132 38.8789 47.4217C38.0113 46.3458 36.9171 44.8455 35.8447 43.185C34.771 41.5224 33.7359 39.7249 32.9737 38.0521C32.1947 36.3422 31.7676 34.904 31.7676 33.9129C31.7676 29.5298 35.3208 25.9766 39.7039 25.9766C44.0869 25.9766 47.6401 29.5298 47.6401 33.9129ZM39.1837 48.9059C39.1837 48.9059 39.1844 48.9053 39.1859 48.9044C39.1845 48.9054 39.1838 48.9059 39.1837 48.9059ZM40.2219 48.9044C40.2233 48.9053 40.224 48.9059 40.224 48.9059C40.2239 48.9059 40.2232 48.9054 40.2219 48.9044Z" stroke="#007BFF" stroke-width="2.44191"/>
<path d="M84.5308 23.7423V22.9036H85.6267V16.7531H84.5308V15.9143H87.5837C88.6125 15.9143 89.4065 16.1753 89.9656 16.6971C90.5322 17.219 90.8155 18.0204 90.8155 19.1014V20.5552C90.8155 21.6437 90.5322 22.4488 89.9656 22.9707C89.4065 23.4851 88.6125 23.7423 87.5837 23.7423H84.5308ZM86.566 22.8924H87.5837C88.3441 22.8924 88.9181 22.706 89.3058 22.3333C89.6935 21.9605 89.8873 21.3827 89.8873 20.5999V19.0679C89.8873 18.2702 89.6935 17.6887 89.3058 17.3234C88.9181 16.9581 88.3441 16.7754 87.5837 16.7754H86.566V22.8924ZM94.8534 23.8989C94.3018 23.8989 93.8172 23.7833 93.3997 23.5522C92.9822 23.3136 92.6579 22.9819 92.4268 22.5569C92.1957 22.132 92.0801 21.6399 92.0801 21.0808V20.9466C92.0801 20.38 92.1957 19.8842 92.4268 19.4593C92.6579 19.0343 92.9785 18.7063 93.3885 18.4752C93.7985 18.2366 94.2682 18.1174 94.7975 18.1174C95.3119 18.1174 95.7667 18.2292 96.1618 18.4528C96.557 18.669 96.8664 18.9822 97.09 19.3922C97.3137 19.8022 97.4255 20.2831 97.4255 20.8348V21.2374H92.9636C92.9859 21.8263 93.176 22.2885 93.5339 22.624C93.8917 22.9521 94.339 23.1161 94.8758 23.1161C95.3455 23.1161 95.7071 23.008 95.9605 22.7918C96.214 22.5756 96.4079 22.3184 96.5421 22.0202L97.3025 22.3892C97.1907 22.6203 97.0341 22.8514 96.8328 23.0825C96.639 23.3136 96.3818 23.5075 96.0612 23.664C95.7481 23.8206 95.3455 23.8989 94.8534 23.8989ZM92.9747 20.5105H96.5309C96.501 20.0035 96.3258 19.6084 96.0053 19.3251C95.6922 19.0418 95.2896 18.9002 94.7975 18.9002C94.298 18.9002 93.888 19.0418 93.5674 19.3251C93.2468 19.6084 93.0493 20.0035 92.9747 20.5105ZM98.9664 23.7423V15.9143H99.8499V23.7423H98.9664ZM101.708 23.7423V18.2739H102.591V23.7423H101.708ZM102.155 17.424C101.961 17.424 101.797 17.3607 101.663 17.2339C101.536 17.1072 101.473 16.9469 101.473 16.7531C101.473 16.5518 101.536 16.3877 101.663 16.261C101.797 16.1343 101.961 16.0709 102.155 16.0709C102.349 16.0709 102.509 16.1343 102.636 16.261C102.762 16.3877 102.826 16.5518 102.826 16.7531C102.826 16.9469 102.762 17.1072 102.636 17.2339C102.509 17.3607 102.349 17.424 102.155 17.424ZM105.835 23.7423L103.878 18.2739H104.818L106.462 23.0825H106.618L108.262 18.2739H109.201L107.244 23.7423H105.835ZM112.752 23.8989C112.201 23.8989 111.716 23.7833 111.299 23.5522C110.881 23.3136 110.557 22.9819 110.326 22.5569C110.095 22.132 109.979 21.6399 109.979 21.0808V20.9466C109.979 20.38 110.095 19.8842 110.326 19.4593C110.557 19.0343 110.878 18.7063 111.288 18.4752C111.698 18.2366 112.167 18.1174 112.697 18.1174C113.211 18.1174 113.666 18.2292 114.061 18.4528C114.456 18.669 114.765 18.9822 114.989 19.3922C115.213 19.8022 115.325 20.2831 115.325 20.8348V21.2374H110.863C110.885 21.8263 111.075 22.2885 111.433 22.624C111.791 22.9521 112.238 23.1161 112.775 23.1161C113.245 23.1161 113.606 23.008 113.86 22.7918C114.113 22.5756 114.307 22.3184 114.441 22.0202L115.202 22.3892C115.09 22.6203 114.933 22.8514 114.732 23.0825C114.538 23.3136 114.281 23.5075 113.96 23.664C113.647 23.8206 113.245 23.8989 112.752 23.8989ZM110.874 20.5105H114.43C114.4 20.0035 114.225 19.6084 113.904 19.3251C113.591 19.0418 113.189 18.9002 112.697 18.9002C112.197 18.9002 111.787 19.0418 111.466 19.3251C111.146 19.6084 110.948 20.0035 110.874 20.5105ZM116.865 23.7423V18.2739H117.727V18.9449H117.883C117.98 18.7063 118.129 18.5311 118.33 18.4193C118.532 18.3075 118.796 18.2516 119.124 18.2516H119.773V19.0567H119.069C118.673 19.0567 118.353 19.1685 118.107 19.3922C117.868 19.6084 117.749 19.9476 117.749 20.4098V23.7423H116.865ZM121.741 25.9789V25.1961H124.872C125.088 25.1961 125.196 25.0842 125.196 24.8606V22.8701H125.04C124.965 23.0266 124.849 23.1832 124.693 23.3397C124.544 23.4888 124.346 23.6118 124.1 23.7088C123.854 23.7982 123.545 23.843 123.172 23.843C122.777 23.843 122.412 23.7572 122.076 23.5858C121.748 23.4143 121.487 23.1608 121.293 22.8253C121.107 22.4898 121.014 22.0798 121.014 21.5952V18.2739H121.897V21.5281C121.897 22.0649 122.031 22.4563 122.3 22.7023C122.576 22.9483 122.945 23.0713 123.407 23.0713C123.929 23.0713 124.357 22.8999 124.693 22.5569C125.028 22.214 125.196 21.7033 125.196 21.0249V18.2739H126.08V25.0171C126.08 25.3154 125.994 25.5502 125.822 25.7217C125.658 25.8931 125.416 25.9789 125.096 25.9789H121.741Z" fill="#2770EF"/>
<path d="M95.8425 63.0866C93.6167 63.0866 91.6762 62.6871 90.0211 61.8881C88.366 61.0891 87.0819 59.9049 86.1688 58.3354C85.2556 56.7374 84.799 54.7826 84.799 52.4712V32.5245H88.3518V52.514C88.3518 54.9681 89.0081 56.8087 90.3208 58.0358C91.6334 59.2628 93.474 59.8763 95.8425 59.8763C98.211 59.8763 100.052 59.2628 101.364 58.0358C102.677 56.8087 103.333 54.9681 103.333 52.514V32.5245H106.929V52.4712C106.929 54.7826 106.472 56.7374 105.559 58.3354C104.646 59.9049 103.347 61.0891 101.664 61.8881C100.009 62.6871 98.0683 63.0866 95.8425 63.0866ZM113.65 71.0482V41.5562H116.946V45.0233H117.545C118.087 43.9675 118.957 43.0258 120.156 42.1982C121.383 41.3707 123.081 40.9569 125.25 40.9569C127.047 40.9569 128.688 41.3992 130.172 42.2838C131.684 43.1399 132.883 44.367 133.768 45.965C134.681 47.563 135.137 49.4892 135.137 51.7436V52.3C135.137 54.5258 134.695 56.452 133.81 58.0786C132.926 59.7051 131.727 60.9464 130.215 61.8025C128.731 62.6586 127.076 63.0866 125.25 63.0866C123.794 63.0866 122.553 62.8869 121.526 62.4874C120.527 62.1164 119.714 61.6313 119.086 61.032C118.458 60.4328 117.973 59.8193 117.63 59.1915H117.031V71.0482H113.65ZM124.351 60.0904C126.519 60.0904 128.274 59.4055 129.616 58.0358C130.985 56.6375 131.67 54.697 131.67 52.2144V51.8292C131.67 49.3465 130.985 47.4203 129.616 46.0506C128.274 44.6523 126.519 43.9532 124.351 43.9532C122.21 43.9532 120.441 44.6523 119.043 46.0506C117.673 47.4203 116.988 49.3465 116.988 51.8292V52.2144C116.988 54.697 117.673 56.6375 119.043 58.0358C120.441 59.4055 122.21 60.0904 124.351 60.0904ZM148.023 62.4874C146.825 62.4874 145.897 62.1592 145.241 61.5029C144.613 60.8466 144.299 59.9477 144.299 58.8062V44.5097H138.007V41.5562H144.299V34.1083H147.681V41.5562H154.53V44.5097H147.681V58.2926C147.681 59.1487 148.095 59.5767 148.922 59.5767H153.588V62.4874H148.023ZM160.007 62.4874V41.5562H163.388V62.4874H160.007ZM161.719 38.3031C160.977 38.3031 160.349 38.0605 159.836 37.5754C159.351 37.0903 159.108 36.4768 159.108 35.7348C159.108 34.9643 159.351 34.3365 159.836 33.8514C160.349 33.3663 160.977 33.1238 161.719 33.1238C162.461 33.1238 163.074 33.3663 163.56 33.8514C164.045 34.3365 164.287 34.9643 164.287 35.7348C164.287 36.4768 164.045 37.0903 163.56 37.5754C163.074 38.0605 162.461 38.3031 161.719 38.3031ZM180.173 63.0866C178.061 63.0866 176.192 62.6443 174.565 61.7597C172.967 60.8751 171.712 59.6338 170.798 58.0358C169.914 56.4092 169.472 54.4973 169.472 52.3V51.7436C169.472 49.5748 169.914 47.6772 170.798 46.0506C171.712 44.424 172.967 43.1685 174.565 42.2838C176.192 41.3992 178.061 40.9569 180.173 40.9569C182.284 40.9569 184.139 41.3992 185.737 42.2838C187.364 43.1685 188.619 44.424 189.504 46.0506C190.417 47.6772 190.874 49.5748 190.874 51.7436V52.3C190.874 54.4973 190.417 56.4092 189.504 58.0358C188.619 59.6338 187.364 60.8751 185.737 61.7597C184.139 62.6443 182.284 63.0866 180.173 63.0866ZM180.173 60.0475C182.398 60.0475 184.168 59.3484 185.48 57.9501C186.822 56.5233 187.492 54.6114 187.492 52.2144V51.8292C187.492 49.4321 186.822 47.5345 185.48 46.1362C184.168 44.7094 182.398 43.996 180.173 43.996C177.975 43.996 176.206 44.7094 174.865 46.1362C173.524 47.5345 172.853 49.4321 172.853 51.8292V52.2144C172.853 54.6114 173.524 56.5233 174.865 57.9501C176.206 59.3484 177.975 60.0475 180.173 60.0475ZM196.959 62.4874V41.5562H200.255V45.1089H200.854C201.311 44.1102 202.081 43.2113 203.165 42.4123C204.278 41.5847 205.905 41.1709 208.045 41.1709C209.615 41.1709 211.013 41.4991 212.24 42.1554C213.495 42.8118 214.494 43.782 215.236 45.0661C215.978 46.3502 216.349 47.934 216.349 49.8174V62.4874H212.968V50.0742C212.968 47.9911 212.44 46.4786 211.384 45.537C210.357 44.5953 208.958 44.1244 207.189 44.1244C205.163 44.1244 203.508 44.7807 202.224 46.0934C200.968 47.4061 200.34 49.3608 200.34 51.9576V62.4874H196.959ZM231.642 63.0866C229.045 63.0866 226.848 62.4874 225.05 61.2889C223.281 60.0904 222.211 58.1927 221.84 55.5959L225.05 54.8683C225.279 56.238 225.707 57.3224 226.334 58.1214C226.962 58.8918 227.733 59.4483 228.646 59.7907C229.588 60.1046 230.586 60.2616 231.642 60.2616C233.212 60.2616 234.453 59.9477 235.366 59.3199C236.279 58.6921 236.736 57.8503 236.736 56.7944C236.736 55.7101 236.294 54.9539 235.409 54.5258C234.553 54.0692 233.369 53.6983 231.856 53.4129L230.101 53.1133C228.76 52.885 227.533 52.5283 226.42 52.0432C225.307 51.5581 224.423 50.9017 223.766 50.0742C223.11 49.2466 222.782 48.2051 222.782 46.9495C222.782 45.0661 223.509 43.5965 224.965 42.5407C226.42 41.4848 228.346 40.9569 230.743 40.9569C233.112 40.9569 235.024 41.4991 236.479 42.5835C237.963 43.6393 238.919 45.1374 239.347 47.0779L236.179 47.8912C235.923 46.3788 235.309 45.3229 234.339 44.7237C233.369 44.0959 232.17 43.782 230.743 43.782C229.317 43.782 228.189 44.0531 227.362 44.5953C226.534 45.1089 226.12 45.8794 226.12 46.9067C226.12 47.9054 226.506 48.6474 227.276 49.1325C228.075 49.5891 229.131 49.9315 230.444 50.1598L232.199 50.4594C233.683 50.7163 235.009 51.073 236.179 51.5295C237.378 51.9576 238.32 52.5854 239.004 53.4129C239.718 54.2405 240.075 55.3248 240.075 56.666C240.075 58.7206 239.304 60.3044 237.763 61.4173C236.251 62.5302 234.21 63.0866 231.642 63.0866Z" fill="#1E1E1E"/>
</svg>
