<svg width="185" height="54" viewBox="0 0 185 54" fill="none" xmlns="http://www.w3.org/2000/svg">
<path d="M9.09215 14.5975C9.09215 12.0287 11.1746 9.94629 13.7434 9.94629H52.1938C54.7626 9.94629 56.845 12.0287 56.845 14.5975V52.7378H13.7434C11.1746 52.7378 9.09215 50.6554 9.09215 48.0866V14.5975Z" fill="#007BFF"/>
<path d="M4.3474 14.8598C3.97362 12.3183 5.73088 9.95505 8.27236 9.58127L46.3135 3.98646C48.855 3.61268 51.2183 5.36995 51.592 7.91142L56.4649 41.044C56.8387 43.5855 55.0815 45.9488 52.54 46.3226L9.89708 52.5942L4.3474 14.8598Z" fill="white" fill-opacity="0.35"/>
<path d="M0.294791 15.6501C-0.348557 13.1685 1.13734 10.6343 3.61707 9.98382L40.8221 0.224734C43.3069 -0.427032 45.8495 1.0589 46.5013 3.54366L54.9983 35.9374C55.65 38.4219 54.1644 40.9644 51.68 41.6164L9.87107 52.5886L0.294791 15.6501Z" fill="white" fill-opacity="0.75"/>
<path d="M35.8297 25.463C35.8297 26.2181 35.5043 27.3139 34.9108 28.6166C34.3301 29.8912 33.5414 31.2607 32.7234 32.5274C31.9063 33.7926 31.0726 34.9357 30.4116 35.7554C30.171 36.0537 29.9589 36.3022 29.7831 36.4949C29.6072 36.3022 29.3951 36.0537 29.1545 35.7554C28.4935 34.9357 27.6598 33.7926 26.8427 32.5274C26.0247 31.2607 25.236 29.8912 24.6553 28.6166C24.0618 27.3139 23.7364 26.2181 23.7364 25.463C23.7364 22.1235 26.4436 19.4163 29.783 19.4163C33.1225 19.4163 35.8297 22.1235 35.8297 25.463Z" stroke="#007BFF" stroke-width="1.8605"/>
<path d="M64.1751 17.6191V16.9801H65.0101V12.294H64.1751V11.655H66.5011C67.285 11.655 67.8899 11.8538 68.3159 12.2514C68.7476 12.649 68.9635 13.2596 68.9635 14.0833V15.1909C68.9635 16.0202 68.7476 16.6336 68.3159 17.0312C67.8899 17.4232 67.285 17.6191 66.5011 17.6191H64.1751ZM65.7258 16.9716H66.5011C67.0805 16.9716 67.5179 16.8296 67.8132 16.5456C68.1086 16.2616 68.2563 15.8214 68.2563 15.225V14.0577C68.2563 13.4499 68.1086 13.0069 67.8132 12.7285C67.5179 12.4502 67.0805 12.311 66.5011 12.311H65.7258V16.9716ZM72.04 17.7384C71.6197 17.7384 71.2505 17.6504 70.9324 17.4743C70.6143 17.2925 70.3672 17.0398 70.1911 16.716C70.015 16.3922 69.927 16.0173 69.927 15.5913V15.4891C69.927 15.0574 70.015 14.6797 70.1911 14.3559C70.3672 14.0321 70.6115 13.7822 70.9239 13.6061C71.2363 13.4244 71.5941 13.3335 71.9974 13.3335C72.3893 13.3335 72.7358 13.4187 73.0369 13.5891C73.3379 13.7538 73.5736 13.9924 73.744 14.3048C73.9145 14.6172 73.9997 14.9836 73.9997 15.4039V15.7106H70.6001C70.6171 16.1593 70.762 16.5115 71.0346 16.7671C71.3073 17.017 71.6481 17.142 72.057 17.142C72.4149 17.142 72.6904 17.0596 72.8835 16.8949C73.0766 16.7302 73.2243 16.5342 73.3266 16.307L73.9059 16.5882C73.8207 16.7643 73.7014 16.9404 73.5481 17.1164C73.4004 17.2925 73.2044 17.4402 72.9602 17.5595C72.7216 17.6788 72.4149 17.7384 72.04 17.7384ZM70.6086 15.1568H73.318C73.2953 14.7705 73.1618 14.4695 72.9176 14.2537C72.679 14.0378 72.3723 13.9299 71.9974 13.9299C71.6168 13.9299 71.3044 14.0378 71.0602 14.2537C70.8159 14.4695 70.6654 14.7705 70.6086 15.1568ZM75.1737 17.6191V11.655H75.8468V17.6191H75.1737ZM77.2622 17.6191V13.4528H77.9353V17.6191H77.2622ZM77.603 12.8052C77.4553 12.8052 77.3303 12.7569 77.2281 12.6604C77.1315 12.5638 77.0832 12.4417 77.0832 12.294C77.0832 12.1406 77.1315 12.0157 77.2281 11.9191C77.3303 11.8226 77.4553 11.7743 77.603 11.7743C77.7507 11.7743 77.8728 11.8226 77.9693 11.9191C78.0659 12.0157 78.1142 12.1406 78.1142 12.294C78.1142 12.4417 78.0659 12.5638 77.9693 12.6604C77.8728 12.7569 77.7507 12.8052 77.603 12.8052ZM80.4071 17.6191L78.9161 13.4528H79.6318L80.8843 17.1164H81.0035L82.256 13.4528H82.9717L81.4807 17.6191H80.4071ZM85.6773 17.7384C85.257 17.7384 84.8878 17.6504 84.5697 17.4743C84.2516 17.2925 84.0045 17.0398 83.8285 16.716C83.6524 16.3922 83.5643 16.0173 83.5643 15.5913V15.4891C83.5643 15.0574 83.6524 14.6797 83.8285 14.3559C84.0045 14.0321 84.2488 13.7822 84.5612 13.6061C84.8736 13.4244 85.2315 13.3335 85.6347 13.3335C86.0267 13.3335 86.3732 13.4187 86.6742 13.5891C86.9753 13.7538 87.211 13.9924 87.3814 14.3048C87.5518 14.6172 87.637 14.9836 87.637 15.4039V15.7106H84.2374C84.2545 16.1593 84.3993 16.5115 84.672 16.7671C84.9446 17.017 85.2854 17.142 85.6944 17.142C86.0522 17.142 86.3277 17.0596 86.5208 16.8949C86.714 16.7302 86.8617 16.5342 86.9639 16.307L87.5433 16.5882C87.4581 16.7643 87.3388 16.9404 87.1854 17.1164C87.0377 17.2925 86.8418 17.4402 86.5975 17.5595C86.359 17.6788 86.0522 17.7384 85.6773 17.7384ZM84.2459 15.1568H86.9554C86.9327 14.7705 86.7992 14.4695 86.5549 14.2537C86.3164 14.0378 86.0096 13.9299 85.6347 13.9299C85.2542 13.9299 84.9418 14.0378 84.6975 14.2537C84.4533 14.4695 84.3027 14.7705 84.2459 15.1568ZM88.8111 17.6191V13.4528H89.4671V13.964H89.5864C89.6602 13.7822 89.7738 13.6487 89.9272 13.5635C90.0806 13.4783 90.2822 13.4357 90.5321 13.4357H91.0263V14.0492H90.4895C90.1885 14.0492 89.9442 14.1344 89.7568 14.3048C89.575 14.4695 89.4841 14.7279 89.4841 15.0801V17.6191H88.8111ZM92.5255 19.3232V18.7268H94.9111C95.0759 18.7268 95.1582 18.6416 95.1582 18.4712V16.9546H95.0389C94.9821 17.0738 94.8941 17.1931 94.7748 17.3124C94.6612 17.426 94.5107 17.5197 94.3232 17.5936C94.1358 17.6617 93.9001 17.6958 93.6161 17.6958C93.315 17.6958 93.0367 17.6305 92.7811 17.4999C92.5311 17.3692 92.3323 17.1761 92.1847 16.9205C92.0427 16.6649 91.9717 16.3525 91.9717 15.9833V13.4528H92.6447V15.9321C92.6447 16.3411 92.747 16.6393 92.9515 16.8268C93.1616 17.0142 93.4428 17.1079 93.795 17.1079C94.1926 17.1079 94.5192 16.9773 94.7748 16.716C95.0304 16.4547 95.1582 16.0656 95.1582 15.5487V13.4528H95.8313V18.5904C95.8313 18.8177 95.766 18.9966 95.6353 19.1272C95.5104 19.2579 95.3258 19.3232 95.0815 19.3232H92.5255Z" fill="#2770EF"/>
<path d="M72.6532 47.8335C70.7835 47.8335 69.1746 47.4965 67.8266 46.8225C66.5003 46.1268 65.4785 45.1484 64.761 43.8874C64.0653 42.6046 63.7174 41.0936 63.7174 39.3543V24.5481H68.0223V39.4847C68.0223 40.8762 68.4136 41.9741 69.1963 42.7786C70.0008 43.583 71.1531 43.9852 72.6532 43.9852C74.1534 43.9852 75.2949 43.583 76.0776 42.7786C76.882 41.9741 77.2842 40.8762 77.2842 39.4847V24.5481H81.5891V39.3543C81.5891 41.0936 81.2304 42.6046 80.5129 43.8874C79.8171 45.1484 78.7953 46.1268 77.4473 46.8225C76.121 47.4965 74.523 47.8335 72.6532 47.8335ZM85.8899 53.8995V31.2011H89.9338V33.1579H90.5209C90.8905 32.5274 91.4666 31.9729 92.2493 31.4946C93.032 30.9946 94.1517 30.7445 95.6084 30.7445C96.9129 30.7445 98.1196 31.0707 99.2284 31.7229C100.337 32.3534 101.229 33.2883 101.903 34.5276C102.577 35.7669 102.914 37.2671 102.914 39.0281V39.5499C102.914 41.311 102.577 42.8112 101.903 44.0505C101.229 45.2897 100.337 46.2355 99.2284 46.8878C98.1196 47.5183 96.9129 47.8335 95.6084 47.8335C94.63 47.8335 93.8039 47.7139 93.1299 47.4748C92.4776 47.2574 91.9449 46.9747 91.5318 46.6269C91.1405 46.2573 90.8252 45.8876 90.5861 45.518H89.9991V53.8995H85.8899ZM94.3691 44.2461C95.6519 44.2461 96.7064 43.8439 97.5326 43.0395C98.3805 42.2133 98.8045 41.0175 98.8045 39.4521V39.126C98.8045 37.5606 98.3805 36.3756 97.5326 35.5712C96.6846 34.745 95.6302 34.3319 94.3691 34.3319C93.1081 34.3319 92.0537 34.745 91.2057 35.5712C90.3578 36.3756 89.9338 37.5606 89.9338 39.126V39.4521C89.9338 41.0175 90.3578 42.2133 91.2057 43.0395C92.0537 43.8439 93.1081 44.2461 94.3691 44.2461ZM112.342 47.377C111.276 47.377 110.407 47.0508 109.733 46.3986C109.08 45.7246 108.754 44.8332 108.754 43.7243V34.5928H104.71V31.2011H108.754V26.1788H112.864V31.2011H117.299V34.5928H112.864V43.0069C112.864 43.6591 113.168 43.9852 113.777 43.9852H116.907V47.377H112.342ZM121.018 47.377V31.2011H125.128V47.377H121.018ZM123.073 29.3096C122.334 29.3096 121.703 29.0704 121.182 28.5921C120.681 28.1138 120.431 27.4833 120.431 26.7006C120.431 25.9179 120.681 25.2874 121.182 24.809C121.703 24.3307 122.334 24.0916 123.073 24.0916C123.834 24.0916 124.465 24.3307 124.965 24.809C125.465 25.2874 125.715 25.9179 125.715 26.7006C125.715 27.4833 125.465 28.1138 124.965 28.5921C124.465 29.0704 123.834 29.3096 123.073 29.3096ZM137.378 47.8335C135.769 47.8335 134.323 47.5074 133.04 46.8552C131.758 46.2029 130.747 45.2571 130.007 44.0179C129.268 42.7786 128.898 41.2893 128.898 39.5499V39.0281C128.898 37.2888 129.268 35.7995 130.007 34.5602C130.747 33.3209 131.758 32.3752 133.04 31.7229C134.323 31.0707 135.769 30.7445 137.378 30.7445C138.987 30.7445 140.432 31.0707 141.715 31.7229C142.998 32.3752 144.009 33.3209 144.748 34.5602C145.487 35.7995 145.857 37.2888 145.857 39.0281V39.5499C145.857 41.2893 145.487 42.7786 144.748 44.0179C144.009 45.2571 142.998 46.2029 141.715 46.8552C140.432 47.5074 138.987 47.8335 137.378 47.8335ZM137.378 44.1809C138.639 44.1809 139.682 43.7787 140.509 42.9743C141.335 42.1481 141.748 40.974 141.748 39.4521V39.126C141.748 37.6041 141.335 36.4409 140.509 35.6364C139.704 34.8102 138.661 34.3971 137.378 34.3971C136.117 34.3971 135.073 34.8102 134.247 35.6364C133.421 36.4409 133.008 37.6041 133.008 39.126V39.4521C133.008 40.974 133.421 42.1481 134.247 42.9743C135.073 43.7787 136.117 44.1809 137.378 44.1809ZM149.65 47.377V31.2011H153.694V33.3209H154.281C154.542 32.7556 155.031 32.223 155.749 31.7229C156.466 31.2011 157.553 30.9402 159.01 30.9402C160.271 30.9402 161.369 31.2337 162.304 31.8208C163.26 32.386 164 33.1796 164.521 34.2015C165.043 35.2016 165.304 36.3756 165.304 37.7236V47.377H161.195V38.0498C161.195 36.8322 160.89 35.9191 160.282 35.3103C159.695 34.7015 158.847 34.3971 157.738 34.3971C156.477 34.3971 155.499 34.8211 154.803 35.669C154.107 36.4952 153.759 37.6584 153.759 39.1586V47.377H149.65ZM176.464 47.8335C174.355 47.8335 172.627 47.377 171.279 46.4638C169.931 45.5506 169.116 44.2461 168.833 42.5503L172.616 41.5719C172.768 42.3329 173.018 42.9308 173.366 43.3656C173.736 43.8004 174.182 44.1157 174.703 44.3114C175.247 44.4853 175.834 44.5723 176.464 44.5723C177.421 44.5723 178.128 44.4092 178.584 44.0831C179.041 43.7352 179.269 43.3113 179.269 42.8112C179.269 42.3111 179.052 41.9307 178.617 41.6698C178.182 41.3871 177.486 41.1588 176.53 40.9849L175.616 40.8218C174.486 40.6044 173.453 40.3109 172.518 39.9413C171.583 39.5499 170.833 39.0173 170.268 38.3433C169.703 37.6693 169.42 36.7996 169.42 35.7343C169.42 34.1254 170.007 32.897 171.181 32.049C172.355 31.1794 173.899 30.7445 175.812 30.7445C177.617 30.7445 179.117 31.1468 180.313 31.9512C181.508 32.7556 182.291 33.8101 182.661 35.1146L178.845 36.2887C178.671 35.4625 178.312 34.8755 177.769 34.5276C177.247 34.1797 176.595 34.0058 175.812 34.0058C175.029 34.0058 174.432 34.1471 174.018 34.4298C173.605 34.6907 173.399 35.0603 173.399 35.5386C173.399 36.0604 173.616 36.4517 174.051 36.7126C174.486 36.9518 175.073 37.1366 175.812 37.2671L176.725 37.4301C177.943 37.6475 179.041 37.941 180.019 38.3107C181.019 38.6585 181.802 39.1695 182.367 39.8434C182.954 40.4957 183.248 41.3871 183.248 42.5177C183.248 44.2135 182.628 45.5289 181.389 46.4638C180.171 47.377 178.53 47.8335 176.464 47.8335Z" fill="#001B6C"/>
<path d="M72.6532 47.8335C70.7835 47.8335 69.1746 47.4965 67.8266 46.8225C66.5003 46.1268 65.4785 45.1484 64.761 43.8874C64.0653 42.6046 63.7174 41.0936 63.7174 39.3543V24.5481H68.0223V39.4847C68.0223 40.8762 68.4136 41.9741 69.1963 42.7786C70.0008 43.583 71.1531 43.9852 72.6532 43.9852C74.1534 43.9852 75.2949 43.583 76.0776 42.7786C76.882 41.9741 77.2842 40.8762 77.2842 39.4847V24.5481H81.5891V39.3543C81.5891 41.0936 81.2304 42.6046 80.5129 43.8874C79.8171 45.1484 78.7953 46.1268 77.4473 46.8225C76.121 47.4965 74.523 47.8335 72.6532 47.8335ZM85.8899 53.8995V31.2011H89.9338V33.1579H90.5209C90.8905 32.5274 91.4666 31.9729 92.2493 31.4946C93.032 30.9946 94.1517 30.7445 95.6084 30.7445C96.9129 30.7445 98.1196 31.0707 99.2284 31.7229C100.337 32.3534 101.229 33.2883 101.903 34.5276C102.577 35.7669 102.914 37.2671 102.914 39.0281V39.5499C102.914 41.311 102.577 42.8112 101.903 44.0505C101.229 45.2897 100.337 46.2355 99.2284 46.8878C98.1196 47.5183 96.9129 47.8335 95.6084 47.8335C94.63 47.8335 93.8039 47.7139 93.1299 47.4748C92.4776 47.2574 91.9449 46.9747 91.5318 46.6269C91.1405 46.2573 90.8252 45.8876 90.5861 45.518H89.9991V53.8995H85.8899ZM94.3691 44.2461C95.6519 44.2461 96.7064 43.8439 97.5326 43.0395C98.3805 42.2133 98.8045 41.0175 98.8045 39.4521V39.126C98.8045 37.5606 98.3805 36.3756 97.5326 35.5712C96.6846 34.745 95.6302 34.3319 94.3691 34.3319C93.1081 34.3319 92.0537 34.745 91.2057 35.5712C90.3578 36.3756 89.9338 37.5606 89.9338 39.126V39.4521C89.9338 41.0175 90.3578 42.2133 91.2057 43.0395C92.0537 43.8439 93.1081 44.2461 94.3691 44.2461ZM112.342 47.377C111.276 47.377 110.407 47.0508 109.733 46.3986C109.08 45.7246 108.754 44.8332 108.754 43.7243V34.5928H104.71V31.2011H108.754V26.1788H112.864V31.2011H117.299V34.5928H112.864V43.0069C112.864 43.6591 113.168 43.9852 113.777 43.9852H116.907V47.377H112.342ZM121.018 47.377V31.2011H125.128V47.377H121.018ZM123.073 29.3096C122.334 29.3096 121.703 29.0704 121.182 28.5921C120.681 28.1138 120.431 27.4833 120.431 26.7006C120.431 25.9179 120.681 25.2874 121.182 24.809C121.703 24.3307 122.334 24.0916 123.073 24.0916C123.834 24.0916 124.465 24.3307 124.965 24.809C125.465 25.2874 125.715 25.9179 125.715 26.7006C125.715 27.4833 125.465 28.1138 124.965 28.5921C124.465 29.0704 123.834 29.3096 123.073 29.3096ZM137.378 47.8335C135.769 47.8335 134.323 47.5074 133.04 46.8552C131.758 46.2029 130.747 45.2571 130.007 44.0179C129.268 42.7786 128.898 41.2893 128.898 39.5499V39.0281C128.898 37.2888 129.268 35.7995 130.007 34.5602C130.747 33.3209 131.758 32.3752 133.04 31.7229C134.323 31.0707 135.769 30.7445 137.378 30.7445C138.987 30.7445 140.432 31.0707 141.715 31.7229C142.998 32.3752 144.009 33.3209 144.748 34.5602C145.487 35.7995 145.857 37.2888 145.857 39.0281V39.5499C145.857 41.2893 145.487 42.7786 144.748 44.0179C144.009 45.2571 142.998 46.2029 141.715 46.8552C140.432 47.5074 138.987 47.8335 137.378 47.8335ZM137.378 44.1809C138.639 44.1809 139.682 43.7787 140.509 42.9743C141.335 42.1481 141.748 40.974 141.748 39.4521V39.126C141.748 37.6041 141.335 36.4409 140.509 35.6364C139.704 34.8102 138.661 34.3971 137.378 34.3971C136.117 34.3971 135.073 34.8102 134.247 35.6364C133.421 36.4409 133.008 37.6041 133.008 39.126V39.4521C133.008 40.974 133.421 42.1481 134.247 42.9743C135.073 43.7787 136.117 44.1809 137.378 44.1809ZM149.65 47.377V31.2011H153.694V33.3209H154.281C154.542 32.7556 155.031 32.223 155.749 31.7229C156.466 31.2011 157.553 30.9402 159.01 30.9402C160.271 30.9402 161.369 31.2337 162.304 31.8208C163.26 32.386 164 33.1796 164.521 34.2015C165.043 35.2016 165.304 36.3756 165.304 37.7236V47.377H161.195V38.0498C161.195 36.8322 160.89 35.9191 160.282 35.3103C159.695 34.7015 158.847 34.3971 157.738 34.3971C156.477 34.3971 155.499 34.8211 154.803 35.669C154.107 36.4952 153.759 37.6584 153.759 39.1586V47.377H149.65ZM176.464 47.8335C174.355 47.8335 172.627 47.377 171.279 46.4638C169.931 45.5506 169.116 44.2461 168.833 42.5503L172.616 41.5719C172.768 42.3329 173.018 42.9308 173.366 43.3656C173.736 43.8004 174.182 44.1157 174.703 44.3114C175.247 44.4853 175.834 44.5723 176.464 44.5723C177.421 44.5723 178.128 44.4092 178.584 44.0831C179.041 43.7352 179.269 43.3113 179.269 42.8112C179.269 42.3111 179.052 41.9307 178.617 41.6698C178.182 41.3871 177.486 41.1588 176.53 40.9849L175.616 40.8218C174.486 40.6044 173.453 40.3109 172.518 39.9413C171.583 39.5499 170.833 39.0173 170.268 38.3433C169.703 37.6693 169.42 36.7996 169.42 35.7343C169.42 34.1254 170.007 32.897 171.181 32.049C172.355 31.1794 173.899 30.7445 175.812 30.7445C177.617 30.7445 179.117 31.1468 180.313 31.9512C181.508 32.7556 182.291 33.8101 182.661 35.1146L178.845 36.2887C178.671 35.4625 178.312 34.8755 177.769 34.5276C177.247 34.1797 176.595 34.0058 175.812 34.0058C175.029 34.0058 174.432 34.1471 174.018 34.4298C173.605 34.6907 173.399 35.0603 173.399 35.5386C173.399 36.0604 173.616 36.4517 174.051 36.7126C174.486 36.9518 175.073 37.1366 175.812 37.2671L176.725 37.4301C177.943 37.6475 179.041 37.941 180.019 38.3107C181.019 38.6585 181.802 39.1695 182.367 39.8434C182.954 40.4957 183.248 41.3871 183.248 42.5177C183.248 44.2135 182.628 45.5289 181.389 46.4638C180.171 47.377 178.53 47.8335 176.464 47.8335Z" fill="#007BFF"/>
<path d="M72.6532 47.8335C70.7835 47.8335 69.1746 47.4965 67.8266 46.8225C66.5003 46.1268 65.4785 45.1484 64.761 43.8874C64.0653 42.6046 63.7174 41.0936 63.7174 39.3543V24.5481H68.0223V39.4847C68.0223 40.8762 68.4136 41.9741 69.1963 42.7786C70.0008 43.583 71.1531 43.9852 72.6532 43.9852C74.1534 43.9852 75.2949 43.583 76.0776 42.7786C76.882 41.9741 77.2842 40.8762 77.2842 39.4847V24.5481H81.5891V39.3543C81.5891 41.0936 81.2304 42.6046 80.5129 43.8874C79.8171 45.1484 78.7953 46.1268 77.4473 46.8225C76.121 47.4965 74.523 47.8335 72.6532 47.8335ZM85.8899 53.8995V31.2011H89.9338V33.1579H90.5209C90.8905 32.5274 91.4666 31.9729 92.2493 31.4946C93.032 30.9946 94.1517 30.7445 95.6084 30.7445C96.9129 30.7445 98.1196 31.0707 99.2284 31.7229C100.337 32.3534 101.229 33.2883 101.903 34.5276C102.577 35.7669 102.914 37.2671 102.914 39.0281V39.5499C102.914 41.311 102.577 42.8112 101.903 44.0505C101.229 45.2897 100.337 46.2355 99.2284 46.8878C98.1196 47.5183 96.9129 47.8335 95.6084 47.8335C94.63 47.8335 93.8039 47.7139 93.1299 47.4748C92.4776 47.2574 91.9449 46.9747 91.5318 46.6269C91.1405 46.2573 90.8252 45.8876 90.5861 45.518H89.9991V53.8995H85.8899ZM94.3691 44.2461C95.6519 44.2461 96.7064 43.8439 97.5326 43.0395C98.3805 42.2133 98.8045 41.0175 98.8045 39.4521V39.126C98.8045 37.5606 98.3805 36.3756 97.5326 35.5712C96.6846 34.745 95.6302 34.3319 94.3691 34.3319C93.1081 34.3319 92.0537 34.745 91.2057 35.5712C90.3578 36.3756 89.9338 37.5606 89.9338 39.126V39.4521C89.9338 41.0175 90.3578 42.2133 91.2057 43.0395C92.0537 43.8439 93.1081 44.2461 94.3691 44.2461ZM112.342 47.377C111.276 47.377 110.407 47.0508 109.733 46.3986C109.08 45.7246 108.754 44.8332 108.754 43.7243V34.5928H104.71V31.2011H108.754V26.1788H112.864V31.2011H117.299V34.5928H112.864V43.0069C112.864 43.6591 113.168 43.9852 113.777 43.9852H116.907V47.377H112.342ZM121.018 47.377V31.2011H125.128V47.377H121.018ZM123.073 29.3096C122.334 29.3096 121.703 29.0704 121.182 28.5921C120.681 28.1138 120.431 27.4833 120.431 26.7006C120.431 25.9179 120.681 25.2874 121.182 24.809C121.703 24.3307 122.334 24.0916 123.073 24.0916C123.834 24.0916 124.465 24.3307 124.965 24.809C125.465 25.2874 125.715 25.9179 125.715 26.7006C125.715 27.4833 125.465 28.1138 124.965 28.5921C124.465 29.0704 123.834 29.3096 123.073 29.3096ZM137.378 47.8335C135.769 47.8335 134.323 47.5074 133.04 46.8552C131.758 46.2029 130.747 45.2571 130.007 44.0179C129.268 42.7786 128.898 41.2893 128.898 39.5499V39.0281C128.898 37.2888 129.268 35.7995 130.007 34.5602C130.747 33.3209 131.758 32.3752 133.04 31.7229C134.323 31.0707 135.769 30.7445 137.378 30.7445C138.987 30.7445 140.432 31.0707 141.715 31.7229C142.998 32.3752 144.009 33.3209 144.748 34.5602C145.487 35.7995 145.857 37.2888 145.857 39.0281V39.5499C145.857 41.2893 145.487 42.7786 144.748 44.0179C144.009 45.2571 142.998 46.2029 141.715 46.8552C140.432 47.5074 138.987 47.8335 137.378 47.8335ZM137.378 44.1809C138.639 44.1809 139.682 43.7787 140.509 42.9743C141.335 42.1481 141.748 40.974 141.748 39.4521V39.126C141.748 37.6041 141.335 36.4409 140.509 35.6364C139.704 34.8102 138.661 34.3971 137.378 34.3971C136.117 34.3971 135.073 34.8102 134.247 35.6364C133.421 36.4409 133.008 37.6041 133.008 39.126V39.4521C133.008 40.974 133.421 42.1481 134.247 42.9743C135.073 43.7787 136.117 44.1809 137.378 44.1809ZM149.65 47.377V31.2011H153.694V33.3209H154.281C154.542 32.7556 155.031 32.223 155.749 31.7229C156.466 31.2011 157.553 30.9402 159.01 30.9402C160.271 30.9402 161.369 31.2337 162.304 31.8208C163.26 32.386 164 33.1796 164.521 34.2015C165.043 35.2016 165.304 36.3756 165.304 37.7236V47.377H161.195V38.0498C161.195 36.8322 160.89 35.9191 160.282 35.3103C159.695 34.7015 158.847 34.3971 157.738 34.3971C156.477 34.3971 155.499 34.8211 154.803 35.669C154.107 36.4952 153.759 37.6584 153.759 39.1586V47.377H149.65ZM176.464 47.8335C174.355 47.8335 172.627 47.377 171.279 46.4638C169.931 45.5506 169.116 44.2461 168.833 42.5503L172.616 41.5719C172.768 42.3329 173.018 42.9308 173.366 43.3656C173.736 43.8004 174.182 44.1157 174.703 44.3114C175.247 44.4853 175.834 44.5723 176.464 44.5723C177.421 44.5723 178.128 44.4092 178.584 44.0831C179.041 43.7352 179.269 43.3113 179.269 42.8112C179.269 42.3111 179.052 41.9307 178.617 41.6698C178.182 41.3871 177.486 41.1588 176.53 40.9849L175.616 40.8218C174.486 40.6044 173.453 40.3109 172.518 39.9413C171.583 39.5499 170.833 39.0173 170.268 38.3433C169.703 37.6693 169.42 36.7996 169.42 35.7343C169.42 34.1254 170.007 32.897 171.181 32.049C172.355 31.1794 173.899 30.7445 175.812 30.7445C177.617 30.7445 179.117 31.1468 180.313 31.9512C181.508 32.7556 182.291 33.8101 182.661 35.1146L178.845 36.2887C178.671 35.4625 178.312 34.8755 177.769 34.5276C177.247 34.1797 176.595 34.0058 175.812 34.0058C175.029 34.0058 174.432 34.1471 174.018 34.4298C173.605 34.6907 173.399 35.0603 173.399 35.5386C173.399 36.0604 173.616 36.4517 174.051 36.7126C174.486 36.9518 175.073 37.1366 175.812 37.2671L176.725 37.4301C177.943 37.6475 179.041 37.941 180.019 38.3107C181.019 38.6585 181.802 39.1695 182.367 39.8434C182.954 40.4957 183.248 41.3871 183.248 42.5177C183.248 44.2135 182.628 45.5289 181.389 46.4638C180.171 47.377 178.53 47.8335 176.464 47.8335Z" fill="white"/>
</svg>
