<svg width="868" height="251" viewBox="0 0 868 251" fill="none" xmlns="http://www.w3.org/2000/svg">
<path d="M300.387 80.4651V77.462H304.311V55.4386H300.387V52.4354H311.318C315.002 52.4354 317.845 53.3697 319.847 55.2384C321.876 57.107 322.891 59.9768 322.891 63.8475V69.053C322.891 72.9505 321.876 75.8336 319.847 77.7022C317.845 79.5442 315.002 80.4651 311.318 80.4651H300.387ZM307.674 77.4219H311.318C314.041 77.4219 316.097 76.7545 317.485 75.4198C318.873 74.085 319.567 72.0162 319.567 69.2132V63.7274C319.567 60.871 318.873 58.7888 317.485 57.4808C316.097 56.1727 314.041 55.5187 311.318 55.5187H307.674V77.4219ZM337.349 81.0257C335.374 81.0257 333.639 80.612 332.144 79.7844C330.649 78.9302 329.488 77.7423 328.66 76.2206C327.833 74.699 327.419 72.9372 327.419 70.935V70.4545C327.419 68.4257 327.833 66.6505 328.66 65.1289C329.488 63.6073 330.636 62.4327 332.104 61.6051C333.572 60.7509 335.254 60.3238 337.149 60.3238C338.991 60.3238 340.619 60.7242 342.034 61.5251C343.449 62.2992 344.557 63.4204 345.358 64.8886C346.159 66.3569 346.559 68.0787 346.559 70.0541V71.4956H330.582C330.662 73.6045 331.343 75.2596 332.624 76.4609C333.906 77.6355 335.507 78.2228 337.429 78.2228C339.111 78.2228 340.406 77.8357 341.314 77.0615C342.221 76.2874 342.915 75.3664 343.396 74.2986L346.119 75.62C345.718 76.4476 345.158 77.2751 344.437 78.1026C343.743 78.9302 342.822 79.6243 341.674 80.1849C340.553 80.7454 339.111 81.0257 337.349 81.0257ZM330.622 68.8929H343.356C343.249 67.0776 342.622 65.6628 341.474 64.6484C340.353 63.634 338.911 63.1268 337.149 63.1268C335.361 63.1268 333.892 63.634 332.744 64.6484C331.597 65.6628 330.889 67.0776 330.622 68.8929ZM352.077 80.4651V52.4354H355.24V80.4651H352.077ZM361.892 80.4651V60.8844H365.055V80.4651H361.892ZM363.494 57.8412C362.8 57.8412 362.212 57.6142 361.732 57.1604C361.278 56.7066 361.051 56.1327 361.051 55.4386C361.051 54.7178 361.278 54.1306 361.732 53.6767C362.212 53.2229 362.8 52.996 363.494 52.996C364.188 52.996 364.762 53.2229 365.215 53.6767C365.669 54.1306 365.896 54.7178 365.896 55.4386C365.896 56.1327 365.669 56.7066 365.215 57.1604C364.762 57.6142 364.188 57.8412 363.494 57.8412ZM376.672 80.4651L369.665 60.8844H373.028L378.915 78.1026H379.475L385.362 60.8844H388.725L381.718 80.4651H376.672ZM401.441 81.0257C399.465 81.0257 397.73 80.612 396.235 79.7844C394.74 78.9302 393.579 77.7423 392.752 76.2206C391.924 74.699 391.51 72.9372 391.51 70.935V70.4545C391.51 68.4257 391.924 66.6505 392.752 65.1289C393.579 63.6073 394.727 62.4327 396.195 61.6051C397.663 60.7509 399.345 60.3238 401.241 60.3238C403.082 60.3238 404.711 60.7242 406.126 61.5251C407.541 62.2992 408.648 63.4204 409.449 64.8886C410.25 66.3569 410.651 68.0787 410.651 70.0541V71.4956H394.674C394.754 73.6045 395.434 75.2596 396.716 76.4609C397.997 77.6355 399.599 78.2228 401.521 78.2228C403.203 78.2228 404.497 77.8357 405.405 77.0615C406.313 76.2874 407.007 75.3664 407.487 74.2986L410.21 75.62C409.81 76.4476 409.249 77.2751 408.528 78.1026C407.834 78.9302 406.913 79.6243 405.765 80.1849C404.644 80.7454 403.203 81.0257 401.441 81.0257ZM394.714 68.8929H407.447C407.34 67.0776 406.713 65.6628 405.565 64.6484C404.444 63.634 403.002 63.1268 401.241 63.1268C399.452 63.1268 397.984 63.634 396.836 64.6484C395.688 65.6628 394.981 67.0776 394.714 68.8929ZM416.168 80.4651V60.8844H419.252V63.2869H419.812C420.159 62.4327 420.693 61.8054 421.414 61.4049C422.135 61.0045 423.082 60.8043 424.257 60.8043H426.579V63.6874H424.057C422.642 63.6874 421.494 64.0878 420.613 64.8886C419.759 65.6628 419.332 66.8774 419.332 68.5325V80.4651H416.168ZM433.625 88.4736V85.6707H444.837C445.611 85.6707 445.998 85.2702 445.998 84.4694V77.3418H445.437C445.17 77.9024 444.757 78.463 444.196 79.0236C443.662 79.5575 442.955 79.998 442.074 80.345C441.193 80.6654 440.085 80.8255 438.75 80.8255C437.335 80.8255 436.027 80.5185 434.826 79.9046C433.652 79.2906 432.717 78.3829 432.023 77.1817C431.356 75.9804 431.022 74.5122 431.022 72.777V60.8844H434.185V72.5367C434.185 74.4588 434.666 75.8603 435.627 76.7412C436.615 77.6221 437.936 78.0626 439.591 78.0626C441.46 78.0626 442.995 77.4486 444.196 76.2206C445.397 74.9927 445.998 73.1641 445.998 70.7348V60.8844H449.161V85.03C449.161 86.0978 448.854 86.9387 448.24 87.5527C447.653 88.1666 446.785 88.4736 445.638 88.4736H433.625Z" fill="#2770EF"/>
<path d="M341.322 221.57C332.534 221.57 324.973 219.986 318.638 216.819C312.405 213.549 307.602 208.951 304.231 203.025C300.961 196.996 299.326 189.895 299.326 181.72V112.136H319.557V182.333C319.557 188.873 321.397 194.033 325.075 197.813C328.856 201.594 334.271 203.484 341.322 203.484C348.372 203.484 353.737 201.594 357.415 197.813C361.196 194.033 363.086 188.873 363.086 182.333V112.136H383.318V181.72C383.318 189.895 381.632 196.996 378.26 203.025C374.99 208.951 370.187 213.549 363.852 216.819C357.619 219.986 350.109 221.57 341.322 221.57ZM403.53 250.078V143.403H422.535V152.599H425.294C427.031 149.636 429.739 147.03 433.417 144.782C437.096 142.432 442.358 141.257 449.204 141.257C455.335 141.257 461.006 142.79 466.217 145.855C471.428 148.818 475.618 153.212 478.785 159.036C481.953 164.861 483.537 171.911 483.537 180.187V182.64C483.537 190.916 481.953 197.967 478.785 203.791C475.618 209.615 471.428 214.06 466.217 217.125C461.006 220.089 455.335 221.57 449.204 221.57C444.606 221.57 440.723 221.008 437.556 219.884C434.49 218.862 431.987 217.534 430.046 215.899C428.206 214.162 426.725 212.425 425.601 210.688H422.842V250.078H403.53ZM443.38 204.711C449.409 204.711 454.364 202.82 458.247 199.04C462.232 195.157 464.225 189.537 464.225 182.18V180.647C464.225 173.29 462.232 167.722 458.247 163.941C454.262 160.058 449.306 158.117 443.38 158.117C437.454 158.117 432.498 160.058 428.513 163.941C424.528 167.722 422.535 173.29 422.535 180.647V182.18C422.535 189.537 424.528 195.157 428.513 199.04C432.498 202.82 437.454 204.711 443.38 204.711ZM527.846 219.424C522.839 219.424 518.752 217.892 515.584 214.826C512.519 211.659 510.986 207.469 510.986 202.258V159.343H491.981V143.403H510.986V119.799H530.298V143.403H551.143V159.343H530.298V198.886C530.298 201.952 531.729 203.484 534.59 203.484H549.303V219.424H527.846ZM568.624 219.424V143.403H587.936V219.424H568.624ZM578.28 134.513C574.806 134.513 571.842 133.389 569.39 131.141C567.04 128.893 565.865 125.93 565.865 122.252C565.865 118.573 567.04 115.61 569.39 113.362C571.842 111.114 574.806 109.99 578.28 109.99C581.856 109.99 584.819 111.114 587.169 113.362C589.52 115.61 590.695 118.573 590.695 122.252C590.695 125.93 589.52 128.893 587.169 131.141C584.819 133.389 581.856 134.513 578.28 134.513ZM645.508 221.57C637.946 221.57 631.151 220.038 625.123 216.972C619.094 213.907 614.343 209.462 610.869 203.638C607.395 197.813 605.658 190.814 605.658 182.64V180.187C605.658 172.013 607.395 165.014 610.869 159.19C614.343 153.365 619.094 148.921 625.123 145.855C631.151 142.79 637.946 141.257 645.508 141.257C653.069 141.257 659.864 142.79 665.892 145.855C671.921 148.921 676.672 153.365 680.146 159.19C683.621 165.014 685.358 172.013 685.358 180.187V182.64C685.358 190.814 683.621 197.813 680.146 203.638C676.672 209.462 671.921 213.907 665.892 216.972C659.864 220.038 653.069 221.57 645.508 221.57ZM645.508 204.404C651.434 204.404 656.339 202.514 660.221 198.733C664.104 194.85 666.046 189.333 666.046 182.18V180.647C666.046 173.495 664.104 168.028 660.221 164.247C656.441 160.365 651.536 158.423 645.508 158.423C639.581 158.423 634.677 160.365 630.794 164.247C626.911 168.028 624.969 173.495 624.969 180.647V182.18C624.969 189.333 626.911 194.85 630.794 198.733C634.677 202.514 639.581 204.404 645.508 204.404ZM703.184 219.424V143.403H722.189V153.365H724.948C726.174 150.709 728.473 148.205 731.845 145.855C735.217 143.403 740.326 142.177 747.172 142.177C753.098 142.177 758.258 143.556 762.652 146.315C767.148 148.972 770.622 152.701 773.074 157.504C775.527 162.204 776.753 167.722 776.753 174.057V219.424H757.441V175.589C757.441 169.867 756.01 165.576 753.149 162.715C750.39 159.854 746.405 158.423 741.194 158.423C735.268 158.423 730.67 160.416 727.4 164.401C724.13 168.284 722.495 173.75 722.495 180.801V219.424H703.184ZM829.203 221.57C819.292 221.57 811.169 219.424 804.833 215.133C798.498 210.841 794.667 204.711 793.338 196.741L811.118 192.142C811.833 195.719 813.008 198.529 814.643 200.572C816.38 202.616 818.474 204.098 820.927 205.017C823.481 205.835 826.24 206.243 829.203 206.243C833.699 206.243 837.02 205.477 839.166 203.944C841.312 202.309 842.384 200.317 842.384 197.967C842.384 195.617 841.363 193.828 839.319 192.602C837.275 191.274 834.006 190.201 829.51 189.384L825.218 188.617C819.905 187.595 815.051 186.216 810.658 184.479C806.264 182.64 802.739 180.136 800.082 176.969C797.425 173.801 796.097 169.714 796.097 164.707C796.097 157.146 798.856 151.373 804.374 147.388C809.891 143.301 817.146 141.257 826.138 141.257C834.619 141.257 841.669 143.147 847.289 146.928C852.909 150.709 856.587 155.664 858.324 161.795L840.392 167.313C839.575 163.43 837.889 160.671 835.334 159.036C832.882 157.401 829.816 156.584 826.138 156.584C822.459 156.584 819.649 157.248 817.708 158.576C815.767 159.803 814.796 161.54 814.796 163.788C814.796 166.24 815.818 168.079 817.861 169.305C819.905 170.429 822.664 171.298 826.138 171.911L830.429 172.677C836.151 173.699 841.312 175.078 845.91 176.816C850.61 178.45 854.288 180.852 856.945 184.019C859.704 187.085 861.083 191.274 861.083 196.587C861.083 204.557 858.171 210.739 852.347 215.133C846.625 219.424 838.91 221.57 829.203 221.57Z" fill="#001B6C"/>
<path d="M42.3809 66.082C42.3809 54.097 52.0967 44.3812 64.0817 44.3812H243.476C255.461 44.3812 265.176 54.097 265.176 66.082V244.029H64.0817C52.0967 244.029 42.3809 234.313 42.3809 222.328V66.082Z" fill="#001B6C"/>
<path d="M20.2436 67.3077C18.4997 55.4502 26.6983 44.424 38.5558 42.6801L216.04 16.5771C227.898 14.8331 238.924 23.0318 240.668 34.8893L263.403 189.473C265.147 201.33 256.948 212.356 245.091 214.1L46.1361 243.361L20.2436 67.3077Z" fill="white" fill-opacity="0.35"/>
<path d="M1.33668 73.1865C-1.66492 61.6085 5.26769 49.7846 16.8371 46.7499L190.421 1.21796C202.013 -1.82292 213.876 5.10984 216.917 16.7027L256.561 167.839C259.602 179.431 252.67 191.293 241.079 194.335L46.0157 245.527L1.33668 73.1865Z" fill="#007BFF" fill-opacity="0.75"/>
<path d="M167.129 116.777C167.129 120.301 165.611 125.413 162.841 131.491C160.132 137.438 156.452 143.827 152.636 149.737C148.824 155.64 144.934 160.973 141.85 164.798C140.727 166.189 139.738 167.349 138.918 168.248C138.097 167.349 137.108 166.189 135.985 164.798C132.901 160.973 129.011 155.64 125.199 149.737C121.383 143.827 117.703 137.438 114.994 131.491C112.224 125.413 110.706 120.301 110.706 116.777C110.706 101.197 123.337 88.5662 138.918 88.5662C154.498 88.5662 167.129 101.197 167.129 116.777ZM140.766 170.073C140.766 170.073 140.764 170.072 140.759 170.068C140.764 170.072 140.767 170.074 140.766 170.073Z" stroke="white" stroke-width="8.68034"/>
</svg>
