<svg width="1444" height="404" viewBox="0 0 1444 404" fill="none" xmlns="http://www.w3.org/2000/svg">
<g clip-path="url(#clip0_2029_1096)">
<rect width="1444" height="404" fill="#007BFF" fill-opacity="0.2"/>
<g opacity="0.75" clip-path="url(#clip1_2029_1096)">
<path d="M392.864 725.379H404.864V727.904H392.864V725.379ZM406.864 725.379H418.864V727.904H406.864V725.379ZM420.864 725.379H432.864V727.904H420.864V725.379ZM434.864 725.379H446.864V727.904H434.864V725.379ZM448.864 725.379H460.864V727.904H448.864V725.379ZM462.864 725.379H474.864V727.904H462.864V725.379ZM476.864 725.379H488.864V727.904H476.864V725.379ZM490.864 725.379H502.864V727.904H490.864V725.379ZM504.864 725.379H516.864V727.904H504.864V725.379ZM518.864 725.379H530.864V727.904H518.864V725.379ZM532.864 725.379H544.864V727.904H532.864V725.379ZM546.864 725.379H558.864V727.904H546.864V725.379ZM560.864 725.379H572.218C572.422 725.379 572.625 725.373 572.828 725.36L572.948 727.878C572.703 727.898 572.463 727.904 572.218 727.904H560.864V725.379ZM574.646 725.005C578.578 723.768 581.015 720.665 581.948 715.687L583.896 716.266C582.771 722.243 579.849 725.971 575.13 727.457L574.646 725.005ZM582.208 713.379C582.218 713.175 582.218 712.965 582.218 712.754V698.269H584.218V712.754C584.218 713.004 584.213 713.254 584.208 713.504L582.208 713.379ZM582.218 695.744V680.594H584.218V695.744H582.218ZM582.218 678.069V662.919H584.218V678.069H582.218ZM582.218 660.394V645.244H584.218V660.394H582.218ZM582.218 642.719V627.569H584.218V642.719H582.218ZM582.218 625.044V609.894H584.218V625.044H582.218ZM582.218 607.369V592.219H584.218V607.369H582.218ZM582.218 589.694V574.544H584.218V589.694H582.218ZM582.218 572.019V556.869H584.218V572.019H582.218ZM582.218 554.344V539.194H584.218V554.344H582.218ZM582.218 536.669V521.519H584.218V536.669H582.218ZM582.218 518.994V503.844H584.218V518.994H582.218ZM582.218 501.319V486.169H584.218V501.319H582.218ZM582.218 483.644V468.494H584.218V483.644H582.218ZM582.218 465.969V450.819H584.218V465.969H582.218ZM582.218 448.294V433.144H584.218V448.294H582.218ZM582.218 430.619V415.469H584.218V430.619H582.218ZM582.218 412.944V397.794H584.218V412.944H582.218ZM582.218 395.269V380.119H584.218V395.269H582.218ZM582.218 377.594V362.444H584.218V377.594H582.218ZM582.218 359.919V344.769H584.218V359.919H582.218ZM582.218 342.244V327.094H584.218V342.244H582.218ZM582.218 324.569V309.419H584.218V324.569H582.218ZM582.218 306.894V291.744H584.218V306.894H582.218ZM582.218 289.219V274.069H584.218V289.219H582.218ZM582.218 271.544V256.394H584.218V271.544H582.218ZM582.218 253.869V238.719H584.218V253.869H582.218ZM582.218 236.194V221.044H584.218V236.194H582.218ZM582.218 218.519V203.369H584.218V218.519H582.218ZM582.218 200.844V185.694H584.218V200.844H582.218ZM582.218 183.169V168.019H584.218V183.169H582.218ZM582.218 165.494V150.344H584.218V165.494H582.218ZM582.218 147.819V132.669H584.218V147.819H582.218ZM582.218 130.144V114.994H584.218V130.144H582.218ZM582.218 112.469V97.3186H584.218V112.469H582.218ZM582.218 94.7936V79.6436H584.218V94.7936H582.218ZM582.218 77.1186V61.9686H584.218V77.1186H582.218ZM582.218 59.4436V44.2936H584.218V59.4436H582.218ZM582.218 41.7686V26.6186H584.218V41.7686H582.218ZM582.218 24.0936V19.7998H584.218V24.0936H582.218Z" fill="#007BFF" fill-opacity="0.2"/>
<path d="M444.422 726.642V711.492H446.422V726.642H444.422ZM444.422 708.967V693.817H446.422V708.967H444.422ZM444.422 691.292V676.142H446.422V691.292H444.422ZM444.422 673.617V658.467H446.422V673.617H444.422ZM444.422 655.942V640.792H446.422V655.942H444.422ZM444.422 638.267V623.117H446.422V638.267H444.422ZM444.422 620.592V605.442H446.422V620.592H444.422ZM444.422 602.917V587.767H446.422V602.917H444.422ZM444.422 585.242V570.092H446.422V585.242H444.422ZM444.422 567.567V552.417H446.422V567.567H444.422ZM444.422 549.892V534.742H446.422V549.892H444.422ZM444.422 532.217V517.067H446.422V532.217H444.422ZM444.422 514.542V499.392H446.422V514.542H444.422ZM444.422 496.867V481.717H446.422V496.867H444.422ZM444.422 479.192V464.042H446.422V479.192H444.422ZM444.422 461.517V446.367H446.422V461.517H444.422ZM444.422 443.842V428.692H446.422V443.842H444.422ZM444.422 426.167V411.017H446.422V426.167H444.422ZM444.422 408.492V393.342H446.422V408.492H444.422ZM444.422 390.817V375.667H446.422V390.817H444.422ZM444.422 373.142V371.788C444.422 366.284 446.26 362.036 449.927 359.051L451.016 361.168C447.953 363.66 446.422 367.198 446.422 371.788V373.142H444.422ZM451.88 357.762C453.328 357.013 454.844 356.638 456.422 356.638H464.182V359.163H456.422C455.104 359.163 453.844 359.478 452.635 360.103L451.88 357.762ZM466.182 356.638H478.182V359.163H466.182V356.638ZM480.182 356.638H492.182V359.163H480.182V356.638ZM494.182 356.638H506.182V359.163H494.182V356.638ZM508.182 356.638H520.182V359.163H508.182V356.638ZM522.182 356.638H534.182V359.163H522.182V356.638ZM536.182 356.638H548.182V359.163H536.182V356.638ZM550.182 356.638H562.182V359.163H550.182V356.638ZM564.182 356.638H576.182V359.163H564.182V356.638ZM578.182 356.638H582.219V359.163H578.182V356.638Z" fill="#007BFF" fill-opacity="0.2"/>
<path d="M578.219 354.113L582.219 357.9L578.219 361.688" stroke="#007BFF" stroke-opacity="0.2" stroke-width="0.324285" stroke-linecap="round" stroke-linejoin="round"/>
<path d="M697.839 494.355V479.205H699.839V494.355H697.839ZM697.839 476.68V461.53H699.839V476.68H697.839ZM697.839 459.005V443.855H699.839V459.005H697.839ZM697.839 441.33V426.18H699.839V441.33H697.839ZM697.839 423.655V413.496C697.839 411.635 698.099 409.847 698.62 408.124L700.49 409.018C700.058 410.452 699.839 411.944 699.839 413.496V423.655H697.839ZM699.578 405.638C701.922 400.773 705.339 398.346 709.839 398.346H710.62V400.871H709.839C706.089 400.871 703.24 402.896 701.292 406.947L699.578 405.638ZM712.62 398.346H724.62V400.871H712.62V398.346ZM726.62 398.346H738.62V400.871H726.62V398.346ZM740.62 398.346H752.62V400.871H740.62V398.346ZM754.62 398.346H766.62V400.871H754.62V398.346ZM768.62 398.346H780.62V400.871H768.62V398.346ZM782.62 398.346H794.62V400.871H782.62V398.346ZM796.62 398.346H808.62V400.871H796.62V398.346ZM810.62 398.346H822.62V400.871H810.62V398.346ZM824.62 398.346H836.62V400.871H824.62V398.346ZM838.62 398.346H850.62V400.871H838.62V398.346ZM852.62 398.346H864.62V400.871H852.62V398.346ZM866.589 398.326C870.646 398.037 873.506 395.538 875.157 390.844L876.985 391.863C875 397.505 871.573 400.496 866.703 400.845L866.589 398.326ZM875.735 388.687C875.922 387.72 876.016 386.727 876.016 385.721V373.806H878.016V385.721C878.016 386.931 877.901 388.115 877.683 389.279L875.735 388.687ZM876.016 371.281V356.131H878.016V371.281H876.016ZM876.016 353.606V338.456H878.016V353.606H876.016ZM876.016 335.931V320.781H878.016V335.931H876.016ZM876.016 318.256V303.106H878.016V318.256H876.016ZM876.016 300.581V285.431H878.016V300.581H876.016ZM876.016 282.906V267.756H878.016V282.906H876.016ZM876.016 265.231V250.081H878.016V265.231H876.016ZM876.016 247.556V232.406H878.016V247.556H876.016ZM876.016 229.881V214.731H878.016V229.881H876.016ZM876.016 212.206V197.056H878.016V212.206H876.016ZM876.016 194.531V179.381H878.016V194.531H876.016ZM876.016 176.856V161.706H878.016V176.856H876.016ZM876.016 159.181V144.031H878.016V159.181H876.016ZM876.016 141.506V126.356H878.016V141.506H876.016ZM876.016 123.831V108.681H878.016V123.831H876.016ZM876.016 106.156V91.0063H878.016V106.156H876.016ZM876.016 88.4814V73.3314H878.016V88.4814H876.016ZM876.016 70.8064V55.6563H878.016V70.8064H876.016ZM876.016 53.1313V37.9813H878.016V53.1313H876.016ZM876.016 35.4563V20.3063H878.016V35.4563H876.016ZM876.016 17.7813V2.63135H878.016V17.7813H876.016Z" fill="#007BFF" fill-opacity="0.2"/>
<path d="M876.016 394.559H888.016V397.084H876.016V394.559ZM890.016 394.559H902.016V397.084H890.016V394.559ZM904.016 394.559H916.016V397.084H904.016V394.559ZM918.016 394.559H930.016V397.084H918.016V394.559ZM932.016 394.559H944.016V397.084H932.016V394.559ZM946.016 394.559H958.016V397.084H946.016V394.559ZM960.016 394.559H972.016V397.084H960.016V394.559ZM974.016 394.559H986.016V397.084H974.016V394.559ZM988.016 394.559H1000.02V397.084H988.016V394.559ZM1002.02 394.559H1014.02V397.084H1002.02V394.559ZM1016.02 394.559H1028.02V397.084H1016.02V394.559ZM1030.02 394.559H1042.02V397.084H1030.02V394.559ZM1044.02 394.559H1056.02V397.084H1044.02V394.559ZM1058.21 394.762C1063.02 395.775 1066.16 399.214 1067.65 405.066L1065.74 405.842C1064.51 400.963 1061.89 398.096 1057.89 397.255L1058.21 394.762ZM1068.13 407.756C1068.19 408.4 1068.22 409.051 1068.22 409.709V423.116H1066.22V409.709C1066.22 409.163 1066.19 408.617 1066.14 408.078L1068.13 407.756ZM1068.22 425.641V440.791H1066.22V425.641H1068.22ZM1068.22 443.316V458.466H1066.22V443.316H1068.22ZM1068.22 460.991V476.141H1066.22V460.991H1068.22ZM1068.22 478.666V493.816H1066.22V478.666H1068.22ZM1068.22 496.341V511.491H1066.22V496.341H1068.22ZM1068.22 514.016V529.166H1066.22V514.016H1068.22ZM1068.22 531.691V546.841H1066.22V531.691H1068.22ZM1068.22 549.366V564.516H1066.22V549.366H1068.22ZM1068.22 567.041V582.191H1066.22V567.041H1068.22ZM1068.22 584.716V599.866H1066.22V584.716H1068.22ZM1068.22 602.391V617.541H1066.22V602.391H1068.22ZM1068.22 620.066V635.216H1066.22V620.066H1068.22ZM1068.22 637.741V652.891H1066.22V637.741H1068.22ZM1068.22 655.416V670.566H1066.22V655.416H1068.22ZM1068.22 673.091V688.241H1066.22V673.091H1068.22ZM1068.22 690.766V705.916H1066.22V690.766H1068.22ZM1068.22 708.441V723.591H1066.22V708.441H1068.22ZM1068.22 726.116V741.266H1066.22V726.116H1068.22ZM1068.22 743.791V758.941H1066.22V743.791H1068.22ZM1068.22 761.466V776.616H1066.22V761.466H1068.22ZM1068.22 779.141V794.291H1066.22V779.141H1068.22ZM1068.22 796.816V811.966H1066.22V796.816H1068.22ZM1068.22 814.491V829.641H1066.22V814.491H1068.22ZM1068.22 832.166V847.316H1066.22V832.166H1068.22ZM1068.22 849.841V864.991H1066.22V849.841H1068.22ZM1068.22 867.516V882.666H1066.22V867.516H1068.22ZM1068.22 885.191V900.341H1066.22V885.191H1068.22ZM1068.22 902.866V918.016H1066.22V902.866H1068.22ZM1068.22 920.541V935.691H1066.22V920.541H1068.22ZM1068.22 938.216V953.366H1066.22V938.216H1068.22ZM1068.22 955.891V971.041H1066.22V955.891H1068.22ZM1068.22 973.566V988.716H1066.22V973.566H1068.22ZM1068.22 991.241V1006.39H1066.22V991.241H1068.22ZM1068.22 1008.92V1024.07H1066.22V1008.92H1068.22ZM1068.22 1026.59V1041.74H1066.22V1026.59H1068.22ZM1068.22 1044.27V1059.42H1066.22V1044.27H1068.22ZM1068.22 1061.94V1077.09H1066.22V1061.94H1068.22ZM1068.22 1079.62V1094.77H1066.22V1079.62H1068.22ZM1068.22 1097.29V1111.74H1066.22V1097.29H1068.22Z" fill="#007BFF" fill-opacity="0.2"/>
<mask id="mask0_2029_1096" style="mask-type:luminance" maskUnits="userSpaceOnUse" x="926" y="363" width="20" height="33">
<path d="M926.067 363.174H945.067V395.9H926.067V363.174Z" fill="white"/>
</mask>
<g mask="url(#mask0_2029_1096)">
<path d="M933.927 389.713C933.562 388.365 932.89 387.181 932 386.307L929.807 384.156C927.552 381.947 926.182 378.6 926.067 375.003C926.067 368.474 930.255 363.187 935.427 363.187C940.593 363.187 944.786 368.474 944.786 375.003C944.666 378.6 943.297 381.947 941.047 384.156L938.854 386.307C937.958 387.181 937.291 388.365 936.922 389.713L936.666 390.66C936.484 391.33 935.984 391.777 935.427 391.777C934.864 391.777 934.369 391.33 934.187 390.66L933.927 389.713ZM935.427 395.795C933.359 395.795 931.682 395.479 931.682 395.091C931.682 394.697 933.359 394.381 935.427 394.381C937.494 394.381 939.172 394.697 939.172 395.091C939.172 395.479 937.494 395.795 935.427 395.795ZM935.427 384.216C939.562 384.216 942.911 379.987 942.911 374.767C942.911 369.546 939.562 365.311 935.427 365.311C931.291 365.311 927.937 369.546 927.937 374.767C927.937 379.987 931.291 384.216 935.427 384.216ZM930.557 378.304L930.573 371.926L934.968 375.135V381.506L930.557 378.304ZM935.916 375.128L940.276 371.926L940.291 378.298L935.916 381.513V375.128ZM931.047 370.874L935.411 367.672L939.802 370.874L935.442 374.076L931.047 370.874Z" fill="#007BFF" fill-opacity="0.2"/>
</g>
<mask id="mask1_2029_1096" style="mask-type:luminance" maskUnits="userSpaceOnUse" x="489" y="342" width="10" height="14">
<path d="M489.333 342.033H498.057V355.5H489.333V342.033Z" fill="white"/>
</mask>
<g mask="url(#mask1_2029_1096)">
<path d="M497.053 346.721L494.85 343.94C494.542 343.552 494.126 343.335 493.693 343.335H489.584V355.131H490.86C490.86 353.211 492.089 351.666 493.605 351.666C495.12 351.666 496.35 353.218 496.35 355.131H496.844C497.277 355.131 497.62 354.691 497.62 354.152V348.477C497.631 347.819 497.423 347.182 497.053 346.721ZM490.381 347.425V344.328H493.699C493.923 344.328 494.136 344.433 494.292 344.643L496.495 347.425H490.381Z" fill="#007BFF" fill-opacity="0.2"/>
</g>
<mask id="mask2_2029_1096" style="mask-type:luminance" maskUnits="userSpaceOnUse" x="490" y="352" width="6" height="7">
<path d="M490.665 352.133H495.998V358.341H490.665V352.133Z" fill="white"/>
</mask>
<g mask="url(#mask2_2029_1096)">
<path d="M493.608 352.376C492.4 352.376 491.426 353.606 491.426 355.132C491.426 356.651 492.4 357.887 493.608 357.887C494.811 357.887 495.79 356.651 495.79 355.132C495.79 353.606 494.811 352.376 493.608 352.376ZM493.608 356.552C492.983 356.552 492.483 355.908 492.483 355.132C492.483 354.343 492.988 353.711 493.608 353.711C494.233 353.711 494.733 354.349 494.733 355.132C494.738 355.914 494.233 356.552 493.608 356.552Z" fill="#007BFF" fill-opacity="0.2"/>
</g>
<mask id="mask3_2029_1096" style="mask-type:luminance" maskUnits="userSpaceOnUse" x="474" y="352" width="8" height="7">
<path d="M474.668 352.133H481.335V358.341H474.668V352.133Z" fill="white"/>
</mask>
<g mask="url(#mask3_2029_1096)">
<path d="M477.996 352.376C476.793 352.376 475.813 353.606 475.813 355.132C475.813 356.651 476.793 357.887 477.996 357.887C479.204 357.887 480.178 356.651 480.178 355.132C480.178 353.606 479.204 352.376 477.996 352.376ZM477.996 356.552C477.376 356.552 476.871 355.908 476.871 355.132C476.871 354.343 477.381 353.711 477.996 353.711C478.616 353.711 479.121 354.349 479.121 355.132C479.126 355.914 478.621 356.552 477.996 356.552Z" fill="#007BFF" fill-opacity="0.2"/>
</g>
<mask id="mask4_2029_1096" style="mask-type:luminance" maskUnits="userSpaceOnUse" x="472" y="339" width="18" height="17">
<path d="M472.058 339.403H489.334V355.5H472.058V339.403Z" fill="white"/>
</mask>
<g mask="url(#mask4_2029_1096)">
<path d="M488.245 339.403H472.849C472.422 339.403 472.073 339.844 472.073 340.383V354.146C472.073 354.685 472.422 355.125 472.849 355.125H475.25C475.25 353.205 476.485 351.66 477.995 351.66C479.511 351.66 480.74 353.212 480.74 355.125H489.016V340.383C489.021 339.844 488.677 339.403 488.245 339.403Z" fill="#007BFF" fill-opacity="0.2"/>
</g>
<path d="M1305.32 198.753H1293.32V196.228H1305.32V198.753ZM1291.32 198.753H1279.32V196.228H1291.32V198.753ZM1277.32 198.753H1265.32V196.228H1277.32V198.753ZM1263.32 198.753H1251.32V196.228H1263.32V198.753ZM1249.32 198.753H1237.32V196.228H1249.32V198.753ZM1235.32 198.753H1223.32V196.228H1235.32V198.753ZM1221.32 198.753H1209.32V196.228H1221.32V198.753ZM1207.32 198.753H1195.32V196.228H1207.32V198.753ZM1193.32 198.753H1181.32V196.228H1193.32V198.753ZM1179.32 198.753H1167.32V196.228H1179.32V198.753ZM1165.32 198.753H1153.32V196.228H1165.32V198.753ZM1151.32 198.753H1148.42C1144.89 198.753 1141.93 197.103 1139.55 193.808L1141.03 192.105C1143.01 194.854 1145.47 196.228 1148.42 196.228H1151.32V198.753ZM1138.23 191.612C1137.02 189.166 1136.42 186.496 1136.42 183.603V176.127H1138.42V183.603C1138.42 186.016 1138.92 188.239 1139.93 190.277L1138.23 191.612ZM1136.42 173.602V158.452H1138.42V173.602H1136.42ZM1136.42 155.927V140.777H1138.42V155.927H1136.42ZM1136.42 138.252V123.102H1138.42V138.252H1136.42ZM1136.42 120.577V118.637C1136.42 115.152 1135.44 112.173 1133.49 109.714C1133.08 109.194 1132.64 108.728 1132.17 108.307L1133.31 106.242C1133.89 106.742 1134.41 107.307 1134.91 107.925C1137.24 110.884 1138.42 114.455 1138.42 118.637V120.577H1136.42ZM1130.59 107.163C1129.27 106.393 1127.88 106.012 1126.42 106.012H1119.12V103.487H1126.42C1128.17 103.487 1129.83 103.947 1131.42 104.868L1130.59 107.163ZM1117.12 106.012H1105.12V103.487H1117.12V106.012ZM1103.12 106.012H1091.12V103.487H1103.12V106.012ZM1089.12 106.012H1077.12V103.487H1089.12V106.012ZM1075.12 106.012H1063.12V103.487H1075.12V106.012ZM1061.12 106.012H1049.12V103.487H1061.12V106.012ZM1047.12 106.012H1035.12V103.487H1047.12V106.012ZM1033.12 106.012H1021.12V103.487H1033.12V106.012ZM1019.12 106.012H1007.12V103.487H1019.12V106.012ZM1005.12 106.012H993.12V103.487H1005.12V106.012ZM991.12 106.012H979.12V103.487H991.12V106.012ZM977.12 106.012H965.12V103.487H977.12V106.012ZM963.12 106.012H951.12V103.487H963.12V106.012ZM949.12 106.012H937.12V103.487H949.12V106.012ZM935.12 106.012H923.12V103.487H935.12V106.012ZM921.12 106.012H909.12V103.487H921.12V106.012ZM907.12 106.012H895.12V103.487H907.12V106.012ZM893.12 106.012H881.12V103.487H893.12V106.012ZM879.12 106.012H867.12V103.487H879.12V106.012ZM865.12 106.012H853.12V103.487H865.12V106.012ZM851.12 106.012H839.12V103.487H851.12V106.012ZM837.12 106.012H825.12V103.487H837.12V106.012ZM823.12 106.012H811.12V103.487H823.12V106.012ZM809.12 106.012H798.63C798.156 106.012 797.688 106.051 797.224 106.137L796.943 103.638C797.5 103.539 798.062 103.487 798.63 103.487H809.12V106.012ZM795.458 106.663C791.604 108.287 789.37 111.634 788.75 116.69L786.771 116.303C787.516 110.233 790.198 106.222 794.823 104.269L795.458 106.663ZM788.63 119.071V134.221H786.63V119.071H788.63ZM788.63 136.746V151.896H786.63V136.746H788.63ZM788.63 154.421V169.571H786.63V154.421H788.63ZM788.63 172.096V183.603C788.63 184.964 788.49 186.292 788.208 187.594L786.281 186.93C786.516 185.845 786.63 184.741 786.63 183.603V172.096H788.63ZM787.453 190.159C785.339 195.722 781.839 198.582 776.958 198.746L776.901 196.221C780.969 196.09 783.885 193.703 785.651 189.061L787.453 190.159ZM774.917 198.753H762.917V196.228H774.917V198.753ZM760.917 198.753H748.917V196.228H760.917V198.753ZM746.917 198.753H734.917V196.228H746.917V198.753ZM732.917 198.753H720.917V196.228H732.917V198.753ZM718.917 198.753H706.917V196.228H718.917V198.753ZM704.917 198.753H692.917V196.228H704.917V198.753ZM690.917 198.753H678.917V196.228H690.917V198.753ZM676.917 198.753H664.917V196.228H676.917V198.753ZM662.917 198.753H650.917V196.228H662.917V198.753ZM648.917 198.753H636.917V196.228H648.917V198.753ZM634.917 198.753H622.917V196.228H634.917V198.753ZM620.917 198.753H608.917V196.228H620.917V198.753ZM606.917 198.753H594.917V196.228H606.917V198.753ZM592.917 198.753H585.911C583.453 198.753 582.219 197.201 582.219 194.091V192.993H584.219V194.091C584.219 195.518 584.786 196.228 585.911 196.228H592.917V198.753Z" fill="#007BFF" fill-opacity="0.2"/>
<mask id="mask5_2029_1096" style="mask-type:luminance" maskUnits="userSpaceOnUse" x="690" y="182" width="10" height="14">
<path d="M690.667 182.117H699.245V195.583H690.667V182.117Z" fill="white"/>
</mask>
<g mask="url(#mask5_2029_1096)">
<path d="M698.245 186.312L696.042 183.53C695.735 183.143 695.313 182.919 694.881 182.919H690.776V194.715H692.047C692.047 192.802 693.282 191.25 694.792 191.25C696.313 191.25 697.537 192.809 697.537 194.715H698.032C698.464 194.715 698.813 194.281 698.813 193.736V188.068C698.823 187.403 698.61 186.772 698.245 186.312ZM691.568 187.015V183.912H694.886C695.11 183.912 695.323 184.024 695.485 184.234L697.688 187.015H691.568Z" fill="#007BFF" fill-opacity="0.2"/>
</g>
<mask id="mask6_2029_1096" style="mask-type:luminance" maskUnits="userSpaceOnUse" x="691" y="190" width="7" height="8">
<path d="M691.999 190.533H697.332V197.931H691.999V190.533Z" fill="white"/>
</mask>
<g mask="url(#mask6_2029_1096)">
<path d="M694.796 191.96C693.592 191.96 692.613 193.197 692.613 194.716C692.613 196.241 693.592 197.477 694.796 197.477C696.004 197.477 696.978 196.241 696.978 194.716C696.978 193.197 696.004 191.96 694.796 191.96ZM694.796 196.136C694.171 196.136 693.671 195.498 693.671 194.716C693.671 193.933 694.176 193.302 694.796 193.302C695.421 193.302 695.921 193.94 695.921 194.716C695.926 195.505 695.421 196.136 694.796 196.136Z" fill="#007BFF" fill-opacity="0.2"/>
</g>
<mask id="mask7_2029_1096" style="mask-type:luminance" maskUnits="userSpaceOnUse" x="675" y="190" width="8" height="8">
<path d="M675.998 190.533H682.665V197.931H675.998V190.533Z" fill="white"/>
</mask>
<g mask="url(#mask7_2029_1096)">
<path d="M679.186 191.96C677.978 191.96 677.004 193.197 677.004 194.716C677.004 196.241 677.978 197.477 679.186 197.477C680.389 197.477 681.368 196.241 681.368 194.716C681.368 193.197 680.389 191.96 679.186 191.96ZM679.186 196.136C678.561 196.136 678.061 195.498 678.061 194.716C678.061 193.933 678.566 193.302 679.186 193.302C679.801 193.302 680.311 193.94 680.311 194.716C680.316 195.505 679.806 196.136 679.186 196.136Z" fill="#007BFF" fill-opacity="0.2"/>
</g>
<mask id="mask8_2029_1096" style="mask-type:luminance" maskUnits="userSpaceOnUse" x="673" y="178" width="18" height="18">
<path d="M673.245 178.993H690.667V195.583H673.245V178.993Z" fill="white"/>
</mask>
<g mask="url(#mask8_2029_1096)">
<path d="M689.438 178.993H674.037C673.61 178.993 673.261 179.427 673.261 179.973V193.729C673.261 194.275 673.61 194.709 674.037 194.709H676.443C676.443 192.795 677.672 191.243 679.188 191.243C680.698 191.243 681.933 192.802 681.933 194.709H690.209V179.973C690.214 179.427 689.865 178.993 689.438 178.993Z" fill="#007BFF" fill-opacity="0.2"/>
</g>
<mask id="mask9_2029_1096" style="mask-type:luminance" maskUnits="userSpaceOnUse" x="1086" y="67" width="20" height="34">
<path d="M1086.02 67.3477H1105.02V100.173H1086.02V67.3477Z" fill="white"/>
</mask>
<g mask="url(#mask9_2029_1096)">
<path d="M1093.88 93.8801C1093.52 92.5322 1092.84 91.3486 1091.95 90.474L1089.76 88.3238C1087.5 86.1145 1086.14 82.7675 1086.02 79.1707C1086.02 72.6412 1090.21 67.3545 1095.38 67.3545C1100.55 67.3545 1104.74 72.6412 1104.74 79.1707C1104.62 82.7675 1103.25 86.1145 1101 88.3238L1098.81 90.474C1097.91 91.3486 1097.24 92.5322 1096.87 93.8801L1096.62 94.827C1096.44 95.4977 1095.94 95.9449 1095.38 95.9449C1094.82 95.9449 1094.32 95.4977 1094.14 94.827L1093.88 93.8801ZM1095.38 99.9625C1093.31 99.9625 1091.64 99.6469 1091.64 99.2589C1091.64 98.8644 1093.31 98.5488 1095.38 98.5488C1097.45 98.5488 1099.12 98.8644 1099.12 99.2589C1099.12 99.6469 1097.45 99.9625 1095.38 99.9625ZM1095.38 88.383C1099.52 88.383 1102.86 84.1549 1102.86 78.934C1102.86 73.713 1099.52 69.4784 1095.38 69.4784C1091.24 69.4784 1087.89 73.713 1087.89 78.934C1087.89 84.1549 1091.24 88.383 1095.38 88.383ZM1090.51 82.4716L1090.53 76.0934L1094.92 79.3022V85.6739L1090.51 82.4716ZM1095.87 79.2956L1100.23 76.0999L1100.24 82.4716L1095.87 85.6805V79.2956ZM1091 75.0413L1095.36 71.8456L1099.76 75.0479L1095.4 78.2436L1091 75.0413Z" fill="#007BFF" fill-opacity="0.2"/>
</g>
<path d="M105.261 726.642V711.492H107.261V726.642H105.261ZM105.261 708.967V693.817H107.261V708.967H105.261ZM105.261 691.292V676.142H107.261V691.292H105.261ZM105.261 673.617V658.467H107.261V673.617H105.261ZM105.261 655.942V640.792H107.261V655.942H105.261ZM105.261 638.267V623.117H107.261V638.267H105.261ZM105.261 620.592V605.442H107.261V620.592H105.261ZM105.261 602.917V587.767H107.261V602.917H105.261ZM105.261 585.242V570.092H107.261V585.242H105.261ZM105.261 567.567V552.417H107.261V567.567H105.261ZM105.261 549.892V534.742H107.261V549.892H105.261ZM105.261 532.217V517.067H107.261V532.217H105.261ZM105.261 514.542V499.392H107.261V514.542H105.261ZM105.261 496.867V481.717H107.261V496.867H105.261ZM105.261 479.192V475.99C105.261 471.328 106.667 467.481 109.479 464.457L110.776 466.377C108.433 468.902 107.261 472.104 107.261 475.99V479.192H105.261ZM111.266 462.859C113.115 461.511 115.115 460.84 117.261 460.84H123.552V463.365H117.261C115.469 463.365 113.808 463.924 112.266 465.048L111.266 462.859ZM125.552 460.84H137.552V463.365H125.552V460.84ZM139.552 460.84H151.552V463.365H139.552V460.84ZM153.552 460.84H165.552V463.365H153.552V460.84ZM167.552 460.84H179.552V463.365H167.552V460.84ZM181.552 460.84H193.552V463.365H181.552V460.84ZM195.552 460.84H207.552V463.365H195.552V460.84ZM209.552 460.84H214.969C217.047 460.84 218.938 460.097 220.641 458.618L221.776 460.695C219.73 462.471 217.464 463.365 214.969 463.365H209.552V460.84ZM222.042 457.145C223.995 454.679 224.969 451.7 224.969 448.215V443.908H226.969V448.215C226.969 452.397 225.797 455.974 223.453 458.927L222.042 457.145ZM224.969 441.383V426.233H226.969V441.383H224.969ZM224.969 423.708V408.558H226.969V423.708H224.969ZM224.969 406.033V390.883H226.969V406.033H224.969ZM224.969 388.358V373.208H226.969V388.358H224.969ZM224.969 370.683V355.533H226.969V370.683H224.969ZM224.969 353.008V337.858H226.969V353.008H224.969ZM224.969 335.333V320.183H226.969V335.333H224.969ZM224.969 317.658V302.508H226.969V317.658H224.969ZM224.969 299.983V284.833H226.969V299.983H224.969ZM224.969 282.308V267.158H226.969V282.308H224.969ZM224.969 264.633V249.483H226.969V264.633H224.969ZM224.969 246.958V231.808H226.969V246.958H224.969ZM224.969 229.283V214.133H226.969V229.283H224.969ZM224.969 211.608V196.458H226.969V211.608H224.969ZM224.969 193.933V178.783H226.969V193.933H224.969ZM224.969 176.258V161.108H226.969V176.258H224.969ZM224.969 158.583V143.433H226.969V158.583H224.969ZM224.969 140.908V125.758H226.969V140.908H224.969ZM224.969 123.233V108.083H226.969V123.233H224.969ZM224.969 105.558V90.4081H226.969V105.558H224.969ZM224.969 87.8831V72.7331H226.969V87.8831H224.969ZM224.969 70.2081V55.0581H226.969V70.2081H224.969ZM224.969 52.5331V37.3831H226.969V52.5331H224.969ZM224.969 34.8581V19.7081H226.969V34.8581H224.969ZM224.969 17.1831V3.2627H226.969V17.1831H224.969Z" fill="#007BFF" fill-opacity="0.2"/>
<path d="M222.969 8.3127L225.969 3.2627L228.969 8.3127" stroke="#007BFF" stroke-opacity="0.2" stroke-width="0.324285" stroke-linecap="round" stroke-linejoin="round"/>
<path d="M1306.32 2V17.15H1304.32V2H1306.32ZM1306.32 19.675V34.825H1304.32V19.675H1306.32ZM1306.32 37.35V52.5H1304.32V37.35H1306.32ZM1306.32 55.025V70.175H1304.32V55.025H1306.32ZM1306.32 72.7V87.85H1304.32V72.7H1306.32ZM1306.32 90.375V105.525H1304.32V90.375H1306.32ZM1306.32 108.05V123.2H1304.32V108.05H1306.32ZM1306.32 125.725V140.875H1304.32V125.725H1306.32ZM1306.32 143.4V158.55H1304.32V143.4H1306.32ZM1306.32 161.075V176.225H1304.32V161.075H1306.32ZM1306.32 178.75V193.9H1304.32V178.75H1306.32ZM1306.32 196.425V211.575H1304.32V196.425H1306.32ZM1306.32 214.1V229.25H1304.32V214.1H1306.32ZM1306.32 231.775V246.925H1304.32V231.775H1306.32ZM1306.32 249.45V264.6H1304.32V249.45H1306.32ZM1306.32 267.125V282.275H1304.32V267.125H1306.32ZM1306.32 284.8V299.95H1304.32V284.8H1306.32ZM1306.32 302.475V317.625H1304.32V302.475H1306.32ZM1306.32 320.15V335.3H1304.32V320.15H1306.32ZM1306.32 337.825V352.975H1304.32V337.825H1306.32ZM1306.32 355.5V370.65H1304.32V355.5H1306.32ZM1306.32 373.175V388.325H1304.32V373.175H1306.32ZM1306.32 390.85V406H1304.32V390.85H1306.32ZM1306.32 408.525V423.675H1304.32V408.525H1306.32ZM1306.32 426.2V441.35H1304.32V426.2H1306.32ZM1306.32 443.875V459.025H1304.32V443.875H1306.32ZM1306.32 461.55V476.7H1304.32V461.55H1306.32ZM1306.32 479.225V494.375H1304.32V479.225H1306.32ZM1306.32 496.9V512.05H1304.32V496.9H1306.32ZM1306.32 514.575V529.725H1304.32V514.575H1306.32ZM1306.32 532.25V547.4H1304.32V532.25H1306.32ZM1306.32 549.925V565.075H1304.32V549.925H1306.32ZM1306.32 567.6V582.75H1304.32V567.6H1306.32ZM1306.32 585.275V600.425H1304.32V585.275H1306.32ZM1306.32 602.95V618.1H1304.32V602.95H1306.32ZM1306.32 620.625V635.775H1304.32V620.625H1306.32ZM1306.32 638.3V653.45H1304.32V638.3H1306.32ZM1306.32 655.975V671.125H1304.32V655.975H1306.32ZM1306.32 673.65V688.8H1304.32V673.65H1306.32ZM1306.32 691.325V706.475H1304.32V691.325H1306.32ZM1306.32 709V724.15H1304.32V709H1306.32ZM1306.32 726.675V741.825H1304.32V726.675H1306.32ZM1306.32 744.35V759.5H1304.32V744.35H1306.32ZM1306.32 762.025V777.175H1304.32V762.025H1306.32ZM1306.32 779.7V794.85H1304.32V779.7H1306.32ZM1306.32 797.375V812.525H1304.32V797.375H1306.32ZM1306.32 815.05V815.445C1306.32 821.415 1304.25 825.84 1300.1 828.727L1299.14 826.511C1302.59 824.111 1304.32 820.422 1304.32 815.445V815.05H1306.32ZM1298.1 829.825C1296.88 830.338 1295.62 830.595 1294.32 830.595H1285.81V828.07H1294.32C1295.41 828.07 1296.46 827.853 1297.47 827.432L1298.1 829.825ZM1283.81 830.595H1271.81V828.07H1283.81V830.595ZM1269.81 830.595H1257.81V828.07H1269.81V830.595ZM1255.81 830.595H1243.81V828.07H1255.81V830.595ZM1241.81 830.595H1229.81V828.07H1241.81V830.595ZM1227.81 830.595H1215.81V828.07H1227.81V830.595ZM1213.81 830.595H1201.81V828.07H1213.81V830.595ZM1199.81 830.595H1187.81V828.07H1199.81V830.595ZM1185.81 830.595H1173.81V828.07H1185.81V830.595ZM1171.81 830.595H1159.81V828.07H1171.81V830.595ZM1157.81 830.595H1145.81V828.07H1157.81V830.595ZM1143.81 830.595H1131.81V828.07H1143.81V830.595ZM1129.81 830.595H1117.81V828.07H1129.81V830.595ZM1115.81 830.595H1103.81V828.07H1115.81V830.595ZM1101.81 830.595H1089.81V828.07H1101.81V830.595ZM1087.81 830.595H1075.81V828.07H1087.81V830.595ZM1073.81 830.595H1061.81V828.07H1073.81V830.595ZM1059.81 830.595H1047.81V828.07H1059.81V830.595ZM1045.81 830.595H1033.81V828.07H1045.81V830.595ZM1031.81 830.595H1019.81V828.07H1031.81V830.595ZM1017.81 830.595H1005.81V828.07H1017.81V830.595ZM1003.81 830.595H991.807V828.07H1003.81V830.595ZM989.807 830.595H977.807V828.07H989.807V830.595ZM975.807 830.595H963.807V828.07H975.807V830.595ZM961.807 830.595H949.807V828.07H961.807V830.595ZM947.807 830.595H935.807V828.07H947.807V830.595ZM933.807 830.595H921.807V828.07H933.807V830.595ZM919.823 830.601C915.755 830.746 912.843 833.139 911.088 837.782L909.281 836.69C911.39 831.127 914.885 828.254 919.765 828.076L919.823 830.601ZM910.458 839.919C910.229 840.99 910.114 842.095 910.114 843.22V854.753H908.114V843.22C908.114 841.872 908.255 840.55 908.531 839.261L910.458 839.919ZM910.114 857.278V872.428H908.114V857.278H910.114ZM910.114 874.953V890.103H908.114V874.953H910.114ZM910.114 892.628V907.778H908.114V892.628H910.114ZM910.114 910.303V925.453H908.114V910.303H910.114ZM910.114 927.978V943.128H908.114V927.978H910.114ZM910.114 945.653V960.803H908.114V945.653H910.114ZM910.114 963.328V978.478H908.114V963.328H910.114ZM910.114 981.003V993.063C910.114 994.029 910.198 994.976 910.369 995.91L908.422 996.475C908.218 995.357 908.114 994.22 908.114 993.063V981.003H910.114ZM910.932 998.067C912.547 1002.79 915.38 1005.32 919.437 1005.66L919.302 1008.18C914.437 1007.77 911.031 1004.73 909.093 999.066L910.932 998.067ZM921.396 1005.69H933.396V1008.21H921.396V1005.69ZM935.396 1005.69H947.396V1008.21H935.396V1005.69ZM949.396 1005.69H961.396V1008.21H949.396V1005.69ZM963.396 1005.69H975.396V1008.21H963.396V1005.69ZM977.396 1005.69H989.396V1008.21H977.396V1005.69ZM991.396 1005.69H1003.4V1008.21H991.396V1005.69ZM1005.4 1005.69H1017.4V1008.21H1005.4V1005.69ZM1019.4 1005.69H1031.4V1008.21H1019.4V1005.69ZM1033.4 1005.69H1045.4V1008.21H1033.4V1005.69ZM1047.4 1005.69H1059.4V1008.21H1047.4V1005.69ZM1061.4 1005.69H1073.4V1008.21H1061.4V1005.69ZM1075.4 1005.69H1087.4V1008.21H1075.4V1005.69ZM1089.4 1005.69H1101.4V1008.21H1089.4V1005.69ZM1103.4 1005.69H1115.4V1008.21H1103.4V1005.69ZM1117.4 1005.69H1129.4V1008.21H1117.4V1005.69ZM1131.4 1005.69H1143.4V1008.21H1131.4V1005.69ZM1145.4 1005.69H1157.4V1008.21H1145.4V1005.69ZM1159.4 1005.69H1171.4V1008.21H1159.4V1005.69ZM1173.4 1005.69H1185.4V1008.21H1173.4V1005.69ZM1187.4 1005.69H1199.4V1008.21H1187.4V1005.69ZM1201.4 1005.69H1213.4V1008.21H1201.4V1005.69ZM1215.4 1005.69H1227.4V1008.21H1215.4V1005.69ZM1229.4 1005.69H1241.4V1008.21H1229.4V1005.69ZM1243.4 1005.69H1255.4V1008.21H1243.4V1005.69ZM1257.4 1005.69H1269.4V1008.21H1257.4V1005.69ZM1271.4 1005.69H1283.4V1008.21H1271.4V1005.69ZM1285.4 1005.69H1297.4V1008.21H1285.4V1005.69ZM1299.4 1005.69H1311.4V1008.21H1299.4V1005.69ZM1313.4 1005.69H1325.4V1008.21H1313.4V1005.69ZM1327.4 1005.69H1339.4V1008.21H1327.4V1005.69ZM1341.4 1005.69H1353.4V1008.21H1341.4V1005.69ZM1355.4 1005.69H1367.4V1008.21H1355.4V1005.69ZM1369.4 1005.69H1381.4V1008.21H1369.4V1005.69ZM1383.4 1005.69H1395.4V1008.21H1383.4V1005.69ZM1397.4 1005.69H1409.4V1008.21H1397.4V1005.69ZM1411.4 1005.69H1423.4V1008.21H1411.4V1005.69ZM1425.4 1005.69H1437.4V1008.21H1425.4V1005.69ZM1439.4 1005.69H1440V1008.21H1439.4V1005.69Z" fill="#007BFF" fill-opacity="0.2"/>
<path d="M225.969 261.049H237.969V263.574H225.969V261.049ZM239.969 261.049H251.969V263.574H239.969V261.049ZM253.969 261.049H265.969V263.574H253.969V261.049ZM267.969 261.049H279.969V263.574H267.969V261.049ZM281.969 261.049H293.969V263.574H281.969V261.049ZM295.969 261.049H307.969V263.574H295.969V261.049ZM309.969 261.049H321.969V263.574H309.969V261.049ZM323.969 261.049H335.969V263.574H323.969V261.049ZM337.969 261.049H349.969V263.574H337.969V261.049ZM351.969 261.049H363.969V263.574H351.969V261.049ZM365.969 261.049H377.969V263.574H365.969V261.049ZM379.969 261.049H391.969V263.574H379.969V261.049ZM393.969 261.049H405.969V263.574H393.969V261.049ZM407.969 261.049H419.969V263.574H407.969V261.049ZM421.969 261.049H433.969V263.574H421.969V261.049ZM435.865 260.924C439.88 260.188 442.547 257.4 443.875 252.554L445.766 253.382C444.172 259.195 440.969 262.542 436.151 263.423L435.865 260.924ZM444.312 250.331C444.385 249.706 444.422 249.069 444.422 248.424V235.326H446.422V248.424C446.422 249.194 446.38 249.956 446.286 250.712L444.312 250.331ZM444.422 232.801V217.651H446.422V232.801H444.422ZM444.422 215.126V199.976H446.422V215.126H444.422ZM444.422 197.451V182.301H446.422V197.451H444.422ZM444.422 179.776V164.626H446.422V179.776H444.422ZM444.422 162.101V146.951H446.422V162.101H444.422ZM444.422 144.426V129.276H446.422V144.426H444.422ZM444.422 126.751V111.601H446.422V126.751H444.422ZM444.422 109.076V93.9258H446.422V109.076H444.422ZM444.422 91.4008V76.2508H446.422V91.4008H444.422ZM444.422 73.7258V58.5758H446.422V73.7258H444.422ZM444.422 56.0508V40.9008H446.422V56.0508H444.422ZM444.422 38.3758V23.2258H446.422V38.3758H444.422ZM444.422 20.7008V5.55078H446.422V20.7008H444.422ZM444.422 3.02578V2H446.422V3.02578H444.422Z" fill="#007BFF" fill-opacity="0.2"/>
<mask id="mask10_2029_1096" style="mask-type:luminance" maskUnits="userSpaceOnUse" x="353" y="246" width="10" height="12">
<path d="M353.332 246.083H362.827V257.867H353.332V246.083Z" fill="white"/>
</mask>
<g mask="url(#mask10_2029_1096)">
<path d="M358.833 254.816C359.156 254.678 359.489 254.612 359.827 254.612C360.9 254.612 361.88 255.309 362.437 256.42C362.77 256.394 362.854 256.151 362.322 255.27C361.458 253.856 360.26 253.58 359.416 253.593C359.364 253.415 359.312 253.225 359.255 253.027C358.734 251.226 357.577 250.364 356.89 250.003L356.234 247.576C356.192 247.432 356.109 247.313 355.999 247.247C355.89 247.182 355.765 247.182 355.65 247.234L354.416 247.852C354.541 247.918 354.656 248.023 354.739 248.168C354.854 248.352 354.911 248.582 354.9 248.819L355.546 248.497L357.546 255.874C357.895 255.394 358.333 255.033 358.833 254.816Z" fill="#007BFF" fill-opacity="0.2"/>
</g>
<mask id="mask11_2029_1096" style="mask-type:luminance" maskUnits="userSpaceOnUse" x="340" y="242" width="9" height="11">
<path d="M340.829 242.716H348.001V252.816H340.829V242.716Z" fill="white"/>
</mask>
<g mask="url(#mask11_2029_1096)">
<path d="M346.923 243.676H341.303C341.043 243.676 340.829 243.939 340.829 244.275V251.264C340.829 251.6 341.043 251.863 341.303 251.863H346.923C347.183 251.863 347.397 251.6 347.397 251.264V244.275C347.397 243.939 347.183 243.676 346.923 243.676Z" fill="#007BFF" fill-opacity="0.2"/>
</g>
<mask id="mask12_2029_1096" style="mask-type:luminance" maskUnits="userSpaceOnUse" x="343" y="254" width="7" height="9">
<path d="M343.998 254.5H349.331V262.029H343.998V254.5Z" fill="white"/>
</mask>
<g mask="url(#mask12_2029_1096)">
<path d="M349.165 257.446C348.692 255.69 347.192 254.756 345.806 255.348C344.415 255.94 343.676 257.84 344.145 259.589C344.613 261.338 346.119 262.279 347.504 261.687C348.889 261.089 349.634 259.195 349.165 257.446ZM346.988 259.767C346.442 260.004 345.848 259.629 345.665 258.938C345.478 258.248 345.77 257.498 346.317 257.268C346.863 257.031 347.462 257.4 347.645 258.09C347.832 258.781 347.54 259.537 346.988 259.767Z" fill="#007BFF" fill-opacity="0.2"/>
</g>
<path d="M357.099 248.102C357.099 249.042 357.703 249.812 358.453 249.812C359.203 249.812 359.203 246.386 358.453 246.386C357.703 246.386 357.099 247.155 357.099 248.102Z" fill="#007BFF" fill-opacity="0.2"/>
<mask id="mask13_2029_1096" style="mask-type:luminance" maskUnits="userSpaceOnUse" x="356" y="254" width="7" height="9">
<path d="M356.001 254.5H362.668V262.029H356.001V254.5Z" fill="white"/>
</mask>
<g mask="url(#mask13_2029_1096)">
<path d="M357.318 259.589C357.792 261.338 359.292 262.279 360.683 261.687C362.068 261.089 362.808 259.195 362.339 257.439C361.87 255.69 360.365 254.756 358.979 255.348C357.594 255.94 356.849 257.84 357.318 259.589ZM360.167 259.767C359.62 260.004 359.021 259.629 358.839 258.938C358.651 258.248 358.943 257.498 359.495 257.268C360.042 257.031 360.636 257.4 360.823 258.09C361.005 258.781 360.714 259.537 360.167 259.767Z" fill="#007BFF" fill-opacity="0.2"/>
</g>
<path d="M350.636 254.151V252.915C350.636 252.665 350.474 252.461 350.282 252.461H343.032C342.834 252.461 342.677 252.665 342.677 252.915V254.151C342.677 254.395 342.834 254.598 343.032 254.598H343.068C342.683 255.795 342.089 257.867 342.089 259.274C342.089 259.274 342.693 259.274 343.62 259.274C343.49 258.439 343.573 257.571 343.881 256.788C344.245 255.854 344.881 255.151 345.662 254.815C345.985 254.677 346.318 254.612 346.657 254.612C347.985 254.612 349.162 255.677 349.589 257.262C349.766 257.932 349.792 258.629 349.688 259.274C349.901 259.274 350.11 259.274 350.313 259.274C350.849 259.274 351.349 259.274 351.782 259.274H356.792C356.724 258.827 356.714 258.373 356.771 257.932H351.099C350.61 256.683 350.438 255.407 350.386 254.579C350.526 254.52 350.636 254.349 350.636 254.151Z" fill="#007BFF" fill-opacity="0.2"/>
<path d="M354.005 249.772C353.448 249.68 352.958 249.522 352.516 249.318H350.563C350.563 248.858 350.594 248.391 350.641 247.931C349.464 246.616 349.12 245.09 349.099 244.992C348.984 244.453 349.234 243.9 349.656 243.756C349.724 243.736 349.797 243.723 349.865 243.723C350.219 243.723 350.537 244.025 350.63 244.459C350.641 244.499 350.734 244.9 351 245.413C351.005 245.367 351.011 245.327 351.021 245.281C351.24 244.314 350.948 243.151 350.292 242.947C349.63 242.736 348.677 243.19 348.287 244.617C347.761 246.583 347.651 247.865 347.849 250.029C348.068 251.462 348.802 251.719 349.464 251.745C349.5 251.751 349.542 251.751 349.578 251.751H352.167L351.344 255.986C351.219 256.644 351.531 257.301 352.052 257.459C352.125 257.485 352.203 257.498 352.281 257.498C352.714 257.498 353.109 257.124 353.219 256.571L354.339 250.824C354.406 250.463 354.344 250.081 354.162 249.785C354.156 249.779 354.156 249.779 354.151 249.779C354.141 249.779 354.125 249.779 354.109 249.779C354.073 249.779 354.037 249.779 354.005 249.772Z" fill="#007BFF" fill-opacity="0.2"/>
<path d="M354.718 248.878C354.765 248.45 354.526 248.056 354.187 248.003C351.171 247.497 350.489 244.65 350.458 244.518C350.369 244.104 350.031 243.861 349.703 243.972C349.375 244.084 349.177 244.518 349.27 244.932C349.302 245.09 350.161 248.904 354.026 249.549C354.052 249.555 354.083 249.555 354.109 249.555C354.411 249.555 354.677 249.272 354.718 248.878Z" fill="#007BFF" fill-opacity="0.2"/>
<path d="M352.808 241.454L353.422 241.928C353.485 241.77 353.537 241.605 353.568 241.428C353.636 241.073 353.625 240.718 353.558 240.382H352.808V241.454Z" fill="#007BFF" fill-opacity="0.2"/>
<path d="M351.484 243.065C351.724 243.137 351.968 243.137 352.198 243.085L350.239 241.638C350.427 242.329 350.88 242.888 351.484 243.065Z" fill="#007BFF" fill-opacity="0.2"/>
<mask id="mask14_2029_1096" style="mask-type:luminance" maskUnits="userSpaceOnUse" x="349" y="238" width="6" height="7">
<path d="M349.333 238.042H354.666V244.4H349.333V238.042Z" fill="white"/>
</mask>
<g mask="url(#mask14_2029_1096)">
<path d="M351.843 238.061C350.192 238.061 349.874 238.896 349.874 241.125L353.426 243.742L353.713 242.401L352.634 241.572V240.172H354.525C354.525 240.172 353.494 238.061 351.843 238.061Z" fill="#007BFF" fill-opacity="0.2"/>
</g>
</g>
</g>
<defs>
<clipPath id="clip0_2029_1096">
<rect width="1444" height="404" fill="white"/>
</clipPath>
<clipPath id="clip1_2029_1096">
<rect width="1440" height="1111" fill="white" transform="translate(0 2)"/>
</clipPath>
</defs>
</svg>
