<svg width="1440" height="880" viewBox="0 0 1440 880" fill="none" xmlns="http://www.w3.org/2000/svg">
<g clip-path="url(#clip0_1966_3062)">
<path d="M0 572.974H12V574.974H0V572.974ZM14 572.974H26V574.974H14V572.974ZM28 572.974H40V574.974H28V572.974ZM42 572.974H54V574.974H42V572.974ZM56 572.974H68V574.974H56V572.974ZM70 572.974H82V574.974H70V572.974ZM84 572.974H96V574.974H84V572.974ZM98 572.974H110V574.974H98V572.974ZM112 572.974H124V574.974H112V572.974ZM126 572.974H138V574.974H126V572.974ZM140 572.974H152V574.974H140V572.974ZM154 572.974H166V574.974H154V572.974ZM168 572.974H180V574.974H168V572.974ZM182 572.974H194V574.974H182V572.974ZM196 572.974H208V574.974H196V572.974ZM210 572.974H222V574.974H210V572.974ZM224 572.974H236V574.974H224V572.974ZM238 572.974H250V574.974H238V572.974ZM252 572.974H264V574.974H252V572.974ZM266 572.974H278V574.974H266V572.974ZM280 572.974H292V574.974H280V572.974ZM294 572.974H306V574.974H294V572.974ZM308 572.974H320V574.974H308V572.974ZM322 572.974H334V574.974H322V572.974ZM336 572.974H348V574.974H336V572.974ZM350 572.974H362V574.974H350V572.974ZM364 572.974H376V574.974H364V572.974ZM378 572.974H384.625C386.641 572.974 388.531 573.448 390.302 574.396L389.354 576.161C387.88 575.37 386.307 574.974 384.625 574.974H378V572.974ZM392.125 575.609C395.125 578.01 396.625 581.135 396.625 584.974V587.177H394.625V584.974C394.625 581.776 393.375 579.172 390.875 577.167L392.125 575.609ZM396.625 589.177V601.177H394.625V589.177H396.625ZM396.625 603.177V615.177H394.625V603.177H396.625ZM396.625 617.177V629.177H394.625V617.177H396.625ZM396.625 631.177V635.208C396.625 637.755 397.474 639.974 399.172 641.87L397.677 643.208C395.646 640.932 394.625 638.266 394.625 635.208V631.177H396.625ZM400.5 643.115C402.302 644.51 404.344 645.208 406.625 645.208H411.427V647.208H406.625C403.885 647.208 401.438 646.37 399.276 644.693L400.5 643.115ZM413.427 645.208H425.427V647.208H413.427V645.208ZM427.427 645.208H439.427V647.208H427.427V645.208ZM441.427 645.208H453.427V647.208H441.427V645.208ZM455.427 645.208H467.427V647.208H455.427V645.208ZM469.427 645.208H481.427V647.208H469.427V645.208ZM483.427 645.208H495.427V647.208H483.427V645.208ZM497.427 645.208H499.99C503.672 645.208 506.708 646.604 509.109 649.401L507.589 650.703C505.589 648.375 503.057 647.208 499.99 647.208H497.427V645.208ZM510.375 651.187C511.453 653.042 511.99 655.047 511.99 657.208V663.474H509.99V657.208C509.99 655.406 509.542 653.734 508.646 652.193L510.375 651.187ZM511.99 665.474V677.474H509.99V665.474H511.99ZM511.99 679.474V691.474H509.99V679.474H511.99ZM511.99 693.474V705.474H509.99V693.474H511.99ZM511.99 707.474V719.474H509.99V707.474H511.99ZM511.99 721.474V733.474H509.99V721.474H511.99ZM511.99 735.474V747.474H509.99V735.474H511.99ZM511.99 749.474V761.474H509.99V749.474H511.99ZM511.99 763.474V775.474H509.99V763.474H511.99ZM511.99 777.474V789.474H509.99V777.474H511.99ZM511.99 791.474V803.474H509.99V791.474H511.99ZM511.99 805.474V817.474H509.99V805.474H511.99ZM511.99 819.474V831.474H509.99V819.474H511.99ZM511.99 833.474V845.474H509.99V833.474H511.99ZM511.99 847.474V859.474H509.99V847.474H511.99ZM511.99 861.474V873.474H509.99V861.474H511.99ZM511.99 875.474V879H509.99V875.474H511.99Z" fill="#007BFF" fill-opacity="0.2"/>
<path d="M513.99 875L510.99 879L507.99 875" stroke="#007BFF" stroke-opacity="0.2" stroke-width="0.324285" stroke-linecap="round" stroke-linejoin="round"/>
<path d="M392.865 572.974H404.865V574.974H392.865V572.974ZM406.865 572.974H418.865V574.974H406.865V572.974ZM420.865 572.974H432.865V574.974H420.865V572.974ZM434.865 572.974H446.865V574.974H434.865V572.974ZM448.865 572.974H460.865V574.974H448.865V572.974ZM462.865 572.974H474.865V574.974H462.865V572.974ZM476.865 572.974H488.865V574.974H476.865V572.974ZM490.865 572.974H502.865V574.974H490.865V572.974ZM504.865 572.974H516.865V574.974H504.865V572.974ZM518.865 572.974H530.865V574.974H518.865V572.974ZM532.865 572.974H544.865V574.974H532.865V572.974ZM546.865 572.974H558.865V574.974H546.865V572.974ZM560.865 572.974H572.219C572.423 572.974 572.626 572.969 572.829 572.958L572.949 574.953C572.704 574.969 572.464 574.974 572.219 574.974H560.865V572.974ZM574.647 572.677C578.579 571.698 581.016 569.24 581.949 565.297L583.897 565.755C582.772 570.49 579.85 573.443 575.131 574.62L574.647 572.677ZM582.209 563.469C582.219 563.307 582.219 563.141 582.219 562.974V551.5H584.219V562.974C584.219 563.172 584.214 563.37 584.209 563.568L582.209 563.469ZM582.219 549.5V537.5H584.219V549.5H582.219ZM582.219 535.5V523.5H584.219V535.5H582.219ZM582.219 521.5V509.5H584.219V521.5H582.219ZM582.219 507.5V495.5H584.219V507.5H582.219ZM582.219 493.5V481.5H584.219V493.5H582.219ZM582.219 479.5V467.5H584.219V479.5H582.219ZM582.219 465.5V453.5H584.219V465.5H582.219ZM582.219 451.5V439.5H584.219V451.5H582.219ZM582.219 437.5V425.5H584.219V437.5H582.219ZM582.219 423.5V411.5H584.219V423.5H582.219ZM582.219 409.5V397.5H584.219V409.5H582.219ZM582.219 395.5V383.5H584.219V395.5H582.219ZM582.219 381.5V369.5H584.219V381.5H582.219ZM582.219 367.5V355.5H584.219V367.5H582.219ZM582.219 353.5V341.5H584.219V353.5H582.219ZM582.219 339.5V327.5H584.219V339.5H582.219ZM582.219 325.5V313.5H584.219V325.5H582.219ZM582.219 311.5V299.5H584.219V311.5H582.219ZM582.219 297.5V285.5H584.219V297.5H582.219ZM582.219 283.5V271.5H584.219V283.5H582.219ZM582.219 269.5V257.5H584.219V269.5H582.219ZM582.219 255.5V243.5H584.219V255.5H582.219ZM582.219 241.5V229.5H584.219V241.5H582.219ZM582.219 227.5V215.5H584.219V227.5H582.219ZM582.219 213.5V201.5H584.219V213.5H582.219ZM582.219 199.5V187.5H584.219V199.5H582.219ZM582.219 185.5V173.5H584.219V185.5H582.219ZM582.219 171.5V159.5H584.219V171.5H582.219ZM582.219 157.5V145.5H584.219V157.5H582.219ZM582.219 143.5V131.5H584.219V143.5H582.219ZM582.219 129.5V117.5H584.219V129.5H582.219ZM582.219 115.5V103.5H584.219V115.5H582.219ZM582.219 101.5V89.4999H584.219V101.5H582.219ZM582.219 87.4999V75.4999H584.219V87.4999H582.219ZM582.219 73.4999V61.4999H584.219V73.4999H582.219ZM582.219 59.4999V47.4999H584.219V59.4999H582.219ZM582.219 45.4999V33.4999H584.219V45.4999H582.219ZM582.219 31.4999V19.4999H584.219V31.4999H582.219ZM582.219 17.4999V14.0989H584.219V17.4999H582.219Z" fill="#007BFF" fill-opacity="0.2"/>
<path d="M583.219 388.984H595.219V390.984H583.219V388.984ZM597.219 388.984H609.219V390.984H597.219V388.984ZM611.219 388.984H623.219V390.984H611.219V388.984ZM625.219 388.984H637.219V390.984H625.219V388.984ZM639.219 388.984H651.219V390.984H639.219V388.984ZM653.219 388.984H665.219V390.984H653.219V388.984ZM667.219 388.984H679.219V390.984H667.219V388.984ZM681.219 388.984H693.219V390.984H681.219V388.984ZM695.219 388.984H707.219V390.984H695.219V388.984ZM709.219 388.984H721.219V390.984H709.219V388.984ZM723.219 388.984H735.219V390.984H723.219V388.984ZM737.219 388.984H749.219V390.984H737.219V388.984ZM751.219 388.984H763.219V390.984H751.219V388.984ZM765.219 388.984H777.219V390.984H765.219V388.984ZM779.219 388.984H784.182C786.859 388.984 789.26 389.786 791.396 391.391L790.193 392.99C788.417 391.651 786.411 390.984 784.182 390.984H779.219V388.984ZM793.01 392.854C795.125 395.151 796.182 397.859 796.182 400.984V404.854H794.182V400.984C794.182 398.38 793.302 396.125 791.542 394.214L793.01 392.854ZM796.182 406.854V418.854H794.182V406.854H796.182ZM796.182 420.854V432.854H794.182V420.854H796.182ZM796.182 434.854V446.854H794.182V434.854H796.182ZM796.182 448.854V460.854H794.182V448.854H796.182ZM796.182 462.854V474.854H794.182V462.854H796.182ZM796.182 476.854V488.854H794.182V476.854H796.182ZM796.182 490.854V502.854H794.182V490.854H796.182ZM796.182 504.854V516.854H794.182V504.854H796.182ZM796.182 518.854V530.854H794.182V518.854H796.182ZM796.182 532.854V544.854H794.182V532.854H796.182ZM796.182 546.854V558.854H794.182V546.854H796.182ZM796.182 560.854V572.854H794.182V560.854H796.182ZM796.182 574.854V586.854H794.182V574.854H796.182ZM796.182 588.854V600.854H794.182V588.854H796.182ZM796.182 602.854V614.854H794.182V602.854H796.182ZM796.182 616.854V628.313C796.182 628.484 796.188 628.651 796.198 628.823L794.198 628.922C794.188 628.719 794.182 628.516 794.182 628.313V616.854H796.182ZM796.458 630.646C797.401 634.589 799.839 637.047 803.771 638.021L803.292 639.958C798.568 638.792 795.641 635.839 794.51 631.109L796.458 630.646ZM805.589 638.297C805.786 638.307 805.984 638.313 806.182 638.313H817.552V640.313H806.182C805.948 640.313 805.708 640.307 805.474 640.292L805.589 638.297ZM819.552 638.313H831.552V640.313H819.552V638.313ZM833.552 638.313H845.552V640.313H833.552V638.313ZM847.552 638.313H859.552V640.313H847.552V638.313ZM861.552 638.313H873.552V640.313H861.552V638.313ZM875.552 638.313H882.115C883.818 638.313 885.411 637.906 886.896 637.099L887.854 638.854C886.068 639.828 884.156 640.313 882.115 640.313H875.552V638.313ZM888.411 636.083C890.88 634.078 892.115 631.49 892.115 628.313V626.042H894.115V628.313C894.115 632.125 892.635 635.229 889.672 637.635L888.411 636.083ZM892.115 624.042V612.042H894.115V624.042H892.115ZM892.115 610.042V598.042H894.115V610.042H892.115ZM892.115 596.042V584.042H894.115V596.042H892.115ZM892.115 582.042V570.042H894.115V582.042H892.115ZM892.115 568.042V556.042H894.115V568.042H892.115ZM892.115 554.042V542.042H894.115V554.042H892.115ZM892.115 540.042V528.042H894.115V540.042H892.115ZM892.115 526.042V514.042H894.115V526.042H892.115ZM892.115 512.042V500.042H894.115V512.042H892.115ZM892.115 498.042V486.042H894.115V498.042H892.115ZM892.115 484.042V472.042H894.115V484.042H892.115ZM892.115 470.042V458.042H894.115V470.042H892.115ZM892.115 456.042V444.042H894.115V456.042H892.115ZM892.115 442.042V430.042H894.115V442.042H892.115ZM892.115 428.042V424.182C892.115 421.057 893.172 418.344 895.292 416.047L896.766 417.406C895 419.318 894.115 421.578 894.115 424.182V428.042H892.115ZM896.911 414.583C899.042 412.984 901.443 412.182 904.115 412.182H909.083V414.182H904.115C901.891 414.182 899.885 414.849 898.115 416.182L896.911 414.583ZM911.083 412.182H923.083V414.182H911.083V412.182ZM925.083 412.182H937.083V414.182H925.083V412.182ZM939.083 412.182H951.083V414.182H939.083V412.182ZM953.083 412.182H965.083V414.182H953.083V412.182ZM967.083 412.182H979.083V414.182H967.083V412.182ZM981.083 412.182H993.083V414.182H981.083V412.182ZM995.083 412.182H1007.08V414.182H995.083V412.182ZM1009.08 412.182H1021.08V414.182H1009.08V412.182ZM1023.08 412.182H1035.08V414.182H1023.08V412.182ZM1037.08 412.182H1049.08V414.182H1037.08V412.182ZM1051.08 412.182H1063.08V414.182H1051.08V412.182ZM1065.08 412.182H1077.08V414.182H1065.08V412.182ZM1079.08 412.182H1091.08V414.182H1079.08V412.182ZM1093.08 412.182H1105.08V414.182H1093.08V412.182ZM1107.08 412.182H1119.08V414.182H1107.08V412.182ZM1121.08 412.182H1133.08V414.182H1121.08V412.182ZM1135.08 412.182H1147.08V414.182H1135.08V412.182ZM1149.08 412.182H1161.08V414.182H1149.08V412.182ZM1163.08 412.182H1175.08V414.182H1163.08V412.182ZM1177.08 412.182H1189.08V414.182H1177.08V412.182ZM1191.08 412.182H1203.08V414.182H1191.08V412.182ZM1205.08 412.182H1217.08V414.182H1205.08V412.182ZM1219.08 412.182H1231.08V414.182H1219.08V412.182ZM1233.08 412.182H1245.08V414.182H1233.08V412.182ZM1247.08 412.182H1259.08V414.182H1247.08V412.182ZM1261.08 412.182H1273.08V414.182H1261.08V412.182ZM1275.08 412.182H1287.08V414.182H1275.08V412.182ZM1289.08 412.182H1301.08V414.182H1289.08V412.182ZM1303.08 412.182H1315.08V414.182H1303.08V412.182ZM1317.08 412.182H1329.08V414.182H1317.08V412.182ZM1331.08 412.182H1343.08V414.182H1331.08V412.182ZM1345.08 412.182H1357.08V414.182H1345.08V412.182ZM1359.08 412.182H1371.08V414.182H1359.08V412.182ZM1373.08 412.182H1385.08V414.182H1373.08V412.182ZM1387.08 412.182H1399.08V414.182H1387.08V412.182ZM1401.08 412.182H1413.08V414.182H1401.08V412.182ZM1415.08 412.182H1427.08V414.182H1415.08V412.182ZM1429.08 412.182H1440V414.182H1429.08V412.182Z" fill="#007BFF" fill-opacity="0.2"/>
<mask id="mask0_1966_3062" style="mask-type:luminance" maskUnits="userSpaceOnUse" x="295" y="559" width="25" height="13">
<path d="M295.115 559.317H319.115V572H295.115V559.317Z" fill="white"/>
</mask>
<g mask="url(#mask0_1966_3062)">
<path d="M313.923 565.208L311.021 560.479C311.021 560.479 310.214 559.323 309.225 559.323H301.24C301.24 559.323 299.777 559.328 299.199 560.505L296.266 565.083C295.771 565.437 295.178 565.984 295.178 566.609V569.187C295.178 570.234 295.912 571.104 296.891 571.328C296.923 569.698 298.251 568.385 299.886 568.385C301.542 568.385 302.886 569.729 302.886 571.385H309.787C309.787 569.729 311.131 568.385 312.787 568.385C314.443 568.385 315.787 569.729 315.787 571.385H316.61C317.824 571.385 318.808 570.401 318.808 569.187C318.808 569.187 318.548 565.208 313.923 565.208ZM303.542 564.708H298.339L300.777 560.76H303.542V564.708ZM306.402 564.708H304.787V560.76H309.423L311.881 564.708H306.402Z" fill="#007BFF" fill-opacity="0.2"/>
</g>
<mask id="mask1_1966_3062" style="mask-type:luminance" maskUnits="userSpaceOnUse" x="297" y="568" width="6" height="7">
<path d="M297.333 568H302.666V574.318H297.333V568Z" fill="white"/>
</mask>
<g mask="url(#mask1_1966_3062)">
<path d="M299.938 568.818C298.521 568.818 297.37 569.963 297.37 571.385C297.37 572.802 298.521 573.948 299.938 573.948C301.354 573.948 302.506 572.802 302.506 571.385C302.506 569.963 301.354 568.818 299.938 568.818ZM299.938 572.557C299.292 572.557 298.766 572.031 298.766 571.38C298.766 570.734 299.292 570.208 299.938 570.208C300.584 570.208 301.11 570.734 301.11 571.38C301.11 572.031 300.584 572.557 299.938 572.557Z" fill="#007BFF" fill-opacity="0.2"/>
</g>
<mask id="mask2_1966_3062" style="mask-type:luminance" maskUnits="userSpaceOnUse" x="309" y="568" width="7" height="7">
<path d="M309.333 568H316V574.318H309.333V568Z" fill="white"/>
</mask>
<g mask="url(#mask2_1966_3062)">
<path d="M312.807 568.818C311.39 568.818 310.239 569.963 310.239 571.385C310.239 572.802 311.39 573.948 312.807 573.948C314.224 573.948 315.375 572.802 315.375 571.385C315.375 569.963 314.224 568.818 312.807 568.818ZM312.807 572.557C312.161 572.557 311.635 572.031 311.635 571.38C311.635 570.734 312.161 570.208 312.807 570.208C313.453 570.208 313.979 570.734 313.979 571.38C313.979 572.031 313.453 572.557 312.807 572.557Z" fill="#007BFF" fill-opacity="0.2"/>
</g>
<mask id="mask3_1966_3062" style="mask-type:luminance" maskUnits="userSpaceOnUse" x="627" y="377" width="11" height="9">
<path d="M627.998 377.333H637.701V385.333H627.998V377.333Z" fill="white"/>
</mask>
<g mask="url(#mask3_1966_3062)">
<path d="M633.706 384.047C634.029 383.937 634.367 383.88 634.701 383.88C635.773 383.88 636.753 384.437 637.31 385.312C637.643 385.297 637.732 385.104 637.195 384.406C636.331 383.286 635.133 383.068 634.289 383.078C634.237 382.937 634.185 382.786 634.128 382.63C633.612 381.198 632.451 380.521 631.768 380.229L631.107 378.312C631.07 378.198 630.982 378.104 630.872 378.052C630.763 378 630.638 377.995 630.523 378.042L629.289 378.531C629.414 378.583 629.529 378.667 629.612 378.776C629.727 378.927 629.784 379.109 629.773 379.297L630.419 379.042L632.419 384.885C632.768 384.505 633.206 384.219 633.706 384.047Z" fill="#007BFF" fill-opacity="0.2"/>
</g>
<mask id="mask4_1966_3062" style="mask-type:luminance" maskUnits="userSpaceOnUse" x="615" y="374" width="8" height="9">
<path d="M615.703 374.667H622.667V382.667H615.703V374.667Z" fill="white"/>
</mask>
<g mask="url(#mask4_1966_3062)">
<path d="M621.797 375.219H616.177C615.917 375.219 615.703 375.433 615.703 375.698V381.235C615.703 381.495 615.917 381.709 616.177 381.709H621.797C622.057 381.709 622.271 381.495 622.271 381.235V375.698C622.271 375.433 622.057 375.219 621.797 375.219Z" fill="#007BFF" fill-opacity="0.2"/>
</g>
<mask id="mask5_1966_3062" style="mask-type:luminance" maskUnits="userSpaceOnUse" x="618" y="384" width="8" height="6">
<path d="M618.666 384H625.333V389.755H618.666V384Z" fill="white"/>
</mask>
<g mask="url(#mask5_1966_3062)">
<path d="M624.04 386.125C623.572 384.74 622.067 384 620.681 384.469C619.29 384.937 618.551 386.443 619.02 387.828C619.488 389.213 620.994 389.958 622.379 389.49C623.764 389.016 624.509 387.51 624.04 386.125ZM621.869 387.969C621.317 388.156 620.723 387.859 620.54 387.312C620.353 386.766 620.645 386.172 621.192 385.984C621.744 385.802 622.337 386.094 622.52 386.641C622.707 387.187 622.415 387.781 621.869 387.969Z" fill="#007BFF" fill-opacity="0.2"/>
</g>
<path d="M631.975 378.724C631.975 379.474 632.579 380.083 633.329 380.083C634.079 380.083 634.079 377.37 633.329 377.37C632.579 377.37 631.975 377.979 631.975 378.724Z" fill="#007BFF" fill-opacity="0.2"/>
<mask id="mask6_1966_3062" style="mask-type:luminance" maskUnits="userSpaceOnUse" x="632" y="384" width="6" height="6">
<path d="M632.002 384H637.705V389.755H632.002V384Z" fill="white"/>
</mask>
<g mask="url(#mask6_1966_3062)">
<path d="M632.195 387.828C632.669 389.213 634.169 389.958 635.56 389.49C636.945 389.016 637.685 387.51 637.216 386.125C636.747 384.74 635.242 384 633.856 384.469C632.471 384.937 631.726 386.443 632.195 387.828ZM635.044 387.969C634.497 388.156 633.903 387.859 633.716 387.312C633.528 386.766 633.825 386.172 634.372 385.984C634.919 385.802 635.513 386.094 635.7 386.641C635.882 387.187 635.591 387.781 635.044 387.969Z" fill="#007BFF" fill-opacity="0.2"/>
</g>
<path d="M625.51 383.516V382.542C625.51 382.344 625.348 382.182 625.156 382.182H617.906C617.708 382.182 617.551 382.344 617.551 382.542V383.516C617.551 383.714 617.708 383.875 617.906 383.875H617.947C617.557 384.823 616.963 386.464 616.963 387.578C616.963 387.578 617.567 387.578 618.494 387.578C618.364 386.912 618.452 386.229 618.755 385.609C619.124 384.865 619.755 384.313 620.536 384.047C620.859 383.938 621.192 383.88 621.531 383.88C622.859 383.88 624.036 384.729 624.463 385.984C624.64 386.516 624.666 387.063 624.562 387.578C624.775 387.578 624.984 387.578 625.187 387.578C625.723 387.578 626.223 387.578 626.656 387.578H631.671C631.598 387.224 631.588 386.865 631.645 386.51H625.973C625.484 385.521 625.312 384.516 625.26 383.854C625.406 383.813 625.51 383.677 625.51 383.516Z" fill="#007BFF" fill-opacity="0.2"/>
<path d="M628.88 380.052C628.323 379.974 627.833 379.849 627.391 379.693H625.438C625.438 379.328 625.469 378.958 625.516 378.589C624.339 377.547 623.995 376.344 623.974 376.266C623.859 375.839 624.109 375.401 624.531 375.286C624.599 375.271 624.672 375.26 624.74 375.26C625.099 375.26 625.412 375.5 625.505 375.844C625.516 375.875 625.609 376.193 625.875 376.599C625.88 376.563 625.885 376.526 625.896 376.495C626.115 375.729 625.823 374.807 625.167 374.646C624.505 374.479 623.552 374.839 623.162 375.969C622.641 377.526 622.526 378.536 622.724 380.255C622.948 381.391 623.677 381.594 624.339 381.615C624.375 381.62 624.417 381.62 624.453 381.62H627.047L626.219 384.974C626.094 385.495 626.406 386.016 626.927 386.141C627.005 386.161 627.078 386.172 627.156 386.172C627.589 386.172 627.984 385.875 628.094 385.438L629.214 380.885C629.281 380.599 629.219 380.297 629.037 380.063C629.031 380.057 629.031 380.057 629.031 380.052C629.016 380.057 629 380.057 628.984 380.057C628.948 380.057 628.912 380.052 628.88 380.052Z" fill="#007BFF" fill-opacity="0.2"/>
<path d="M629.594 379.344C629.641 379.005 629.402 378.693 629.063 378.651C626.048 378.25 625.365 375.995 625.334 375.891C625.245 375.562 624.907 375.37 624.579 375.458C624.251 375.547 624.058 375.885 624.147 376.219C624.178 376.344 625.042 379.365 628.902 379.875C628.928 379.875 628.959 379.88 628.985 379.88C629.287 379.88 629.553 379.651 629.594 379.344Z" fill="#007BFF" fill-opacity="0.2"/>
<path d="M627.682 373.458L628.296 373.838C628.359 373.713 628.411 373.583 628.442 373.437C628.51 373.156 628.505 372.875 628.437 372.615H627.682V373.458Z" fill="#007BFF" fill-opacity="0.2"/>
<path d="M626.36 374.74C626.605 374.792 626.844 374.797 627.074 374.75L625.115 373.609C625.303 374.156 625.756 374.599 626.36 374.74Z" fill="#007BFF" fill-opacity="0.2"/>
<mask id="mask7_1966_3062" style="mask-type:luminance" maskUnits="userSpaceOnUse" x="624" y="370" width="7" height="7">
<path d="M624 370.755H630.667V376H624V370.755Z" fill="white"/>
</mask>
<g mask="url(#mask7_1966_3062)">
<path d="M626.719 370.776C625.073 370.776 624.75 371.432 624.75 373.203L628.302 375.276L628.589 374.214L627.51 373.557V372.443H629.401C629.401 372.443 628.37 370.776 626.719 370.776Z" fill="#007BFF" fill-opacity="0.2"/>
</g>
<mask id="mask8_1966_3062" style="mask-type:luminance" maskUnits="userSpaceOnUse" x="836" y="612" width="20" height="27">
<path d="M836.641 612.146H855.641V638.146H836.641V612.146Z" fill="white"/>
</mask>
<g mask="url(#mask8_1966_3062)">
<path d="M844.5 633.162C844.135 632.094 843.464 631.156 842.573 630.464L840.375 628.761C838.125 627.01 836.755 624.359 836.641 621.51C836.641 616.339 840.828 612.151 846 612.151C851.167 612.151 855.359 616.339 855.359 621.51C855.24 624.359 853.87 627.01 851.62 628.761L849.422 630.464C848.531 631.156 847.859 632.094 847.495 633.162L847.24 633.917C847.057 634.443 846.557 634.802 846 634.802C845.438 634.802 844.938 634.443 844.76 633.917L844.5 633.162ZM846 637.984C843.932 637.984 842.255 637.729 842.255 637.422C842.255 637.109 843.932 636.859 846 636.859C848.068 636.859 849.74 637.109 849.74 637.422C849.74 637.729 848.068 637.984 846 637.984ZM846 628.813C850.135 628.813 853.484 625.458 853.484 621.323C853.484 617.188 850.135 613.833 846 613.833C841.865 613.833 838.51 617.188 838.51 621.323C838.51 625.458 841.865 628.813 846 628.813ZM841.13 624.125L841.146 619.078L845.536 621.615L845.542 626.662L841.13 624.125ZM846.49 621.615L850.849 619.078L850.865 624.125L846.49 626.667V621.615ZM841.62 618.245L845.984 615.708L850.375 618.245L846.01 620.781L841.62 618.245Z" fill="#007BFF" fill-opacity="0.2"/>
</g>
<path d="M444.422 573.974V561.974H446.422V573.974H444.422ZM444.422 559.974V547.974H446.422V559.974H444.422ZM444.422 545.974V533.974H446.422V545.974H444.422ZM444.422 531.974V519.974H446.422V531.974H444.422ZM444.422 517.974V505.974H446.422V517.974H444.422ZM444.422 503.974V491.974H446.422V503.974H444.422ZM444.422 489.974V477.974H446.422V489.974H444.422ZM444.422 475.974V463.974H446.422V475.974H444.422ZM444.422 461.974V449.974H446.422V461.974H444.422ZM444.422 447.974V435.974H446.422V447.974H444.422ZM444.422 433.974V421.974H446.422V433.974H444.422ZM444.422 419.974V407.974H446.422V419.974H444.422ZM444.422 405.974V393.974H446.422V405.974H444.422ZM444.422 391.974V379.974H446.422V391.974H444.422ZM444.422 377.974V365.974H446.422V377.974H444.422ZM444.422 363.974V351.974H446.422V363.974H444.422ZM444.422 349.974V337.974H446.422V349.974H444.422ZM444.422 335.974V323.974H446.422V335.974H444.422ZM444.422 321.974V309.974H446.422V321.974H444.422ZM444.422 307.974V295.974H446.422V307.974H444.422ZM444.422 293.974V292.901C444.422 288.542 446.26 285.177 449.927 282.812L451.016 284.489C447.953 286.463 446.422 289.265 446.422 292.901V293.974H444.422ZM451.88 281.792C453.328 281.198 454.844 280.901 456.422 280.901H464.182V282.901H456.422C455.104 282.901 453.844 283.151 452.635 283.646L451.88 281.792ZM466.182 280.901H478.182V282.901H466.182V280.901ZM480.182 280.901H492.182V282.901H480.182V280.901ZM494.182 280.901H506.182V282.901H494.182V280.901ZM508.182 280.901H520.182V282.901H508.182V280.901ZM522.182 280.901H534.182V282.901H522.182V280.901ZM536.182 280.901H548.182V282.901H536.182V280.901ZM550.182 280.901H562.182V282.901H550.182V280.901ZM564.182 280.901H576.182V282.901H564.182V280.901ZM578.182 280.901H582.219V282.901H578.182V280.901Z" fill="#007BFF" fill-opacity="0.2"/>
<path d="M578.219 278.901L582.219 281.901L578.219 284.901" stroke="#007BFF" stroke-opacity="0.2" stroke-width="0.324285" stroke-linecap="round" stroke-linejoin="round"/>
<path d="M697.838 389.984V377.984H699.838V389.984H697.838ZM697.838 375.984V363.984H699.838V375.984H697.838ZM697.838 361.984V349.984H699.838V361.984H697.838ZM697.838 347.984V335.984H699.838V347.984H697.838ZM697.838 333.984V325.938C697.838 324.464 698.098 323.047 698.619 321.682L700.489 322.391C700.057 323.526 699.838 324.708 699.838 325.938V333.984H697.838ZM699.577 319.714C701.921 315.859 705.338 313.938 709.838 313.938H710.619V315.938H709.838C706.088 315.938 703.239 317.542 701.291 320.75L699.577 319.714ZM712.619 313.938H724.619V315.938H712.619V313.938ZM726.619 313.938H738.619V315.938H726.619V313.938ZM740.619 313.938H752.619V315.938H740.619V313.938ZM754.619 313.938H766.619V315.938H754.619V313.938ZM768.619 313.938H780.619V315.938H768.619V313.938ZM782.619 313.938H794.619V315.938H782.619V313.938ZM796.619 313.938H808.619V315.938H796.619V313.938ZM810.619 313.938H822.619V315.938H810.619V313.938ZM824.619 313.938H836.619V315.938H824.619V313.938ZM838.619 313.938H850.619V315.938H838.619V313.938ZM852.619 313.938H864.619V315.938H852.619V313.938ZM866.588 313.922C870.645 313.693 873.505 311.714 875.156 307.995L876.984 308.802C874.999 313.271 871.572 315.641 866.702 315.917L866.588 313.922ZM875.734 306.286C875.921 305.521 876.015 304.734 876.015 303.938V294.5H878.015V303.938C878.015 304.896 877.9 305.833 877.682 306.755L875.734 306.286ZM876.015 292.5V280.5H878.015V292.5H876.015ZM876.015 278.5V266.5H878.015V278.5H876.015ZM876.015 264.5V252.5H878.015V264.5H876.015ZM876.015 250.5V238.5H878.015V250.5H876.015ZM876.015 236.5V224.5H878.015V236.5H876.015ZM876.015 222.5V210.5H878.015V222.5H876.015ZM876.015 208.5V196.5H878.015V208.5H876.015ZM876.015 194.5V182.5H878.015V194.5H876.015ZM876.015 180.5V168.5H878.015V180.5H876.015ZM876.015 166.5V154.5H878.015V166.5H876.015ZM876.015 152.5V140.5H878.015V152.5H876.015ZM876.015 138.5V126.5H878.015V138.5H876.015ZM876.015 124.5V112.5H878.015V124.5H876.015ZM876.015 110.5V98.5H878.015V110.5H876.015ZM876.015 96.5V84.5H878.015V96.5H876.015ZM876.015 82.5V70.5H878.015V82.5H876.015ZM876.015 68.5V56.5H878.015V68.5H876.015ZM876.015 54.5V42.5H878.015V54.5H876.015ZM876.015 40.5V28.5H878.015V40.5H876.015ZM876.015 26.5V14.5H878.015V26.5H876.015ZM876.015 12.5V0.5H878.015V12.5H876.015Z" fill="#007BFF" fill-opacity="0.2"/>
<path d="M876.016 310.938H888.016V312.938H876.016V310.938ZM890.016 310.938H902.016V312.938H890.016V310.938ZM904.016 310.938H916.016V312.938H904.016V310.938ZM918.016 310.938H930.016V312.938H918.016V310.938ZM932.016 310.938H944.016V312.938H932.016V310.938ZM946.016 310.938H958.016V312.938H946.016V310.938ZM960.016 310.938H972.016V312.938H960.016V310.938ZM974.016 310.938H986.016V312.938H974.016V310.938ZM988.016 310.938H1000.02V312.938H988.016V310.938ZM1002.02 310.938H1014.02V312.938H1002.02V310.938ZM1016.02 310.938H1028.02V312.938H1016.02V310.938ZM1030.02 310.938H1042.02V312.938H1030.02V310.938ZM1044.02 310.938H1056.02V312.938H1044.02V310.938ZM1058.21 311.099C1063.02 311.901 1066.16 314.625 1067.65 319.26L1065.74 319.875C1064.51 316.01 1061.89 313.74 1057.89 313.073L1058.21 311.099ZM1068.13 321.391C1068.19 321.901 1068.22 322.417 1068.22 322.938V333.557H1066.22V322.938C1066.22 322.505 1066.19 322.073 1066.14 321.646L1068.13 321.391ZM1068.22 335.557V347.557H1066.22V335.557H1068.22ZM1068.22 349.557V361.557H1066.22V349.557H1068.22ZM1068.22 363.557V375.557H1066.22V363.557H1068.22ZM1068.22 377.557V389.557H1066.22V377.557H1068.22ZM1068.22 391.557V403.557H1066.22V391.557H1068.22ZM1068.22 405.557V417.557H1066.22V405.557H1068.22ZM1068.22 419.557V431.557H1066.22V419.557H1068.22ZM1068.22 433.557V445.557H1066.22V433.557H1068.22ZM1068.22 447.557V459.557H1066.22V447.557H1068.22ZM1068.22 461.557V473.557H1066.22V461.557H1068.22ZM1068.22 475.557V487.557H1066.22V475.557H1068.22ZM1068.22 489.557V501.557H1066.22V489.557H1068.22ZM1068.22 503.557V515.557H1066.22V503.557H1068.22ZM1068.22 517.557V529.557H1066.22V517.557H1068.22ZM1068.22 531.557V543.557H1066.22V531.557H1068.22ZM1068.22 545.557V557.557H1066.22V545.557H1068.22ZM1068.22 559.557V571.557H1066.22V559.557H1068.22ZM1068.22 573.557V585.557H1066.22V573.557H1068.22ZM1068.22 587.557V599.557H1066.22V587.557H1068.22ZM1068.22 601.557V613.557H1066.22V601.557H1068.22ZM1068.22 615.557V627.557H1066.22V615.557H1068.22ZM1068.22 629.557V641.557H1066.22V629.557H1068.22ZM1068.22 643.557V655.557H1066.22V643.557H1068.22ZM1068.22 657.557V669.557H1066.22V657.557H1068.22ZM1068.22 671.557V683.557H1066.22V671.557H1068.22ZM1068.22 685.557V697.557H1066.22V685.557H1068.22ZM1068.22 699.557V711.557H1066.22V699.557H1068.22ZM1068.22 713.557V725.557H1066.22V713.557H1068.22ZM1068.22 727.557V739.557H1066.22V727.557H1068.22ZM1068.22 741.557V753.557H1066.22V741.557H1068.22ZM1068.22 755.557V767.557H1066.22V755.557H1068.22ZM1068.22 769.557V781.557H1066.22V769.557H1068.22ZM1068.22 783.557V795.557H1066.22V783.557H1068.22ZM1068.22 797.557V809.557H1066.22V797.557H1068.22ZM1068.22 811.557V823.557H1066.22V811.557H1068.22ZM1068.22 825.557V837.557H1066.22V825.557H1068.22ZM1068.22 839.557V851.557H1066.22V839.557H1068.22ZM1068.22 853.557V865.557H1066.22V853.557H1068.22ZM1068.22 867.557V879H1066.22V867.557H1068.22Z" fill="#007BFF" fill-opacity="0.2"/>
<path d="M1070.22 875L1067.22 879L1064.22 875" stroke="#007BFF" stroke-opacity="0.2" stroke-width="0.324285" stroke-linecap="round" stroke-linejoin="round"/>
<path d="M951.063 404.328L948.86 402.12C948.558 401.818 948.136 401.641 947.704 401.641H943.6V410.984H944.87C944.87 409.469 946.1 408.24 947.615 408.24C949.131 408.24 950.36 409.474 950.36 410.984H950.855C951.287 410.984 951.631 410.641 951.631 410.208V405.714C951.641 405.193 951.433 404.693 951.063 404.328ZM944.391 404.885V402.427H947.709C947.933 402.427 948.146 402.516 948.303 402.677L950.511 404.885H944.391Z" fill="#007BFF" fill-opacity="0.2"/>
<path d="M947.62 408.802C946.411 408.802 945.438 409.781 945.438 410.985C945.438 412.193 946.411 413.172 947.62 413.172C948.828 413.172 949.802 412.193 949.802 410.985C949.802 409.781 948.828 408.802 947.62 408.802ZM947.62 412.11C946.995 412.11 946.495 411.604 946.495 410.985C946.495 410.365 947 409.86 947.62 409.86C948.245 409.86 948.745 410.37 948.745 410.985C948.75 411.61 948.245 412.11 947.62 412.11Z" fill="#007BFF" fill-opacity="0.2"/>
<path d="M932.005 408.802C930.801 408.802 929.822 409.781 929.822 410.985C929.822 412.193 930.801 413.172 932.005 413.172C933.213 413.172 934.192 412.193 934.192 410.985C934.192 409.781 933.213 408.802 932.005 408.802ZM932.005 412.11C931.385 412.11 930.885 411.604 930.885 410.985C930.885 410.365 931.39 409.86 932.005 409.86C932.624 409.86 933.13 410.37 933.13 410.985C933.135 411.61 932.63 412.11 932.005 412.11Z" fill="#007BFF" fill-opacity="0.2"/>
<mask id="mask9_1966_3062" style="mask-type:luminance" maskUnits="userSpaceOnUse" x="926" y="398" width="18" height="14">
<path d="M926.068 398.531H944.001V412H926.068V398.531Z" fill="white"/>
</mask>
<g mask="url(#mask9_1966_3062)">
<path d="M942.256 398.531H926.86C926.433 398.531 926.084 398.875 926.084 399.307V410.203C926.084 410.635 926.433 410.979 926.86 410.979H929.261C929.261 409.464 930.495 408.234 932.006 408.234C933.521 408.234 934.756 409.469 934.756 410.979H943.032V399.307C943.037 398.875 942.688 398.531 942.256 398.531Z" fill="#007BFF" fill-opacity="0.2"/>
</g>
<mask id="mask10_1966_3062" style="mask-type:luminance" maskUnits="userSpaceOnUse" x="472" y="619" width="20" height="27">
<path d="M472.057 619.479H491.057V645.333H472.057V619.479Z" fill="white"/>
</mask>
<g mask="url(#mask10_1966_3062)">
<path d="M479.916 640.495C479.551 639.427 478.88 638.49 477.989 637.797L475.791 636.094C473.541 634.344 472.171 631.693 472.057 628.844C472.057 623.672 476.244 619.484 481.416 619.484C486.583 619.484 490.775 623.672 490.775 628.844C490.656 631.693 489.286 634.344 487.036 636.094L484.838 637.797C483.947 638.49 483.275 639.427 482.911 640.495L482.656 641.25C482.473 641.776 481.973 642.135 481.416 642.135C480.854 642.135 480.354 641.776 480.176 641.25L479.916 640.495ZM481.416 645.318C479.348 645.318 477.671 645.063 477.671 644.755C477.671 644.443 479.348 644.193 481.416 644.193C483.484 644.193 485.156 644.443 485.156 644.755C485.156 645.063 483.484 645.318 481.416 645.318ZM481.416 636.146C485.551 636.146 488.9 632.792 488.9 628.656C488.9 624.521 485.551 621.167 481.416 621.167C477.281 621.167 473.926 624.521 473.926 628.656C473.926 632.792 477.281 636.146 481.416 636.146ZM476.546 631.458L476.562 626.411L480.952 628.948L480.958 633.995L476.546 631.458ZM481.906 628.948L486.265 626.411L486.281 631.458L481.906 634V628.948ZM477.036 625.578L481.4 623.042L485.791 625.578L481.432 628.115L477.036 625.578Z" fill="#007BFF" fill-opacity="0.2"/>
</g>
<mask id="mask11_1966_3062" style="mask-type:luminance" maskUnits="userSpaceOnUse" x="926" y="286" width="20" height="26">
<path d="M926.068 286.078H945.068V312H926.068V286.078Z" fill="white"/>
</mask>
<g mask="url(#mask11_1966_3062)">
<path d="M933.928 307.099C933.563 306.032 932.891 305.094 932.001 304.401L929.808 302.698C927.553 300.948 926.183 298.297 926.068 295.448C926.068 290.276 930.256 286.089 935.428 286.089C940.594 286.089 944.787 290.276 944.787 295.448C944.667 298.297 943.298 300.948 941.048 302.698L938.855 304.401C937.959 305.094 937.292 306.032 936.923 307.099L936.667 307.849C936.485 308.381 935.985 308.735 935.428 308.735C934.865 308.735 934.37 308.381 934.188 307.849L933.928 307.099ZM935.428 311.917C933.36 311.917 931.683 311.667 931.683 311.36C931.683 311.047 933.36 310.797 935.428 310.797C937.495 310.797 939.173 311.047 939.173 311.36C939.173 311.667 937.495 311.917 935.428 311.917ZM935.428 302.745C939.563 302.745 942.912 299.396 942.912 295.261C942.912 291.125 939.563 287.771 935.428 287.771C931.292 287.771 927.938 291.125 927.938 295.261C927.938 299.396 931.292 302.745 935.428 302.745ZM930.558 298.063L930.574 293.011L934.969 295.552V300.599L930.558 298.063ZM935.917 295.547L940.277 293.011L940.292 298.058L935.917 300.604V295.547ZM931.048 292.177L935.412 289.641L939.803 292.177L935.443 294.714L931.048 292.177Z" fill="#007BFF" fill-opacity="0.2"/>
</g>
<mask id="mask12_1966_3062" style="mask-type:luminance" maskUnits="userSpaceOnUse" x="489" y="269" width="10" height="11">
<path d="M489.332 269.333H498.056V280H489.332V269.333Z" fill="white"/>
</mask>
<g mask="url(#mask12_1966_3062)">
<path d="M497.053 273.047L494.85 270.844C494.542 270.536 494.126 270.365 493.693 270.365H489.584V279.708H490.86C490.86 278.187 492.089 276.963 493.605 276.963C495.12 276.963 496.35 278.193 496.35 279.708H496.844C497.277 279.708 497.62 279.359 497.62 278.932V274.437C497.631 273.917 497.423 273.411 497.053 273.047ZM490.381 273.604V271.151H493.699C493.923 271.151 494.136 271.234 494.292 271.401L496.495 273.604H490.381Z" fill="#007BFF" fill-opacity="0.2"/>
</g>
<mask id="mask13_1966_3062" style="mask-type:luminance" maskUnits="userSpaceOnUse" x="490" y="277" width="6" height="6">
<path d="M490.664 277.333H495.997V282.25H490.664V277.333Z" fill="white"/>
</mask>
<g mask="url(#mask13_1966_3062)">
<path d="M493.606 277.526C492.398 277.526 491.424 278.5 491.424 279.708C491.424 280.911 492.398 281.89 493.606 281.89C494.809 281.89 495.788 280.911 495.788 279.708C495.788 278.5 494.809 277.526 493.606 277.526ZM493.606 280.833C492.981 280.833 492.481 280.323 492.481 279.708C492.481 279.083 492.986 278.583 493.606 278.583C494.231 278.583 494.731 279.088 494.731 279.708C494.736 280.328 494.231 280.833 493.606 280.833Z" fill="#007BFF" fill-opacity="0.2"/>
</g>
<mask id="mask14_1966_3062" style="mask-type:luminance" maskUnits="userSpaceOnUse" x="474" y="277" width="8" height="6">
<path d="M474.668 277.333H481.335V282.25H474.668V277.333Z" fill="white"/>
</mask>
<g mask="url(#mask14_1966_3062)">
<path d="M477.995 277.526C476.792 277.526 475.812 278.5 475.812 279.708C475.812 280.911 476.792 281.89 477.995 281.89C479.203 281.89 480.177 280.911 480.177 279.708C480.177 278.5 479.203 277.526 477.995 277.526ZM477.995 280.833C477.375 280.833 476.87 280.323 476.87 279.708C476.87 279.083 477.38 278.583 477.995 278.583C478.615 278.583 479.12 279.088 479.12 279.708C479.125 280.328 478.62 280.833 477.995 280.833Z" fill="#007BFF" fill-opacity="0.2"/>
</g>
<mask id="mask15_1966_3062" style="mask-type:luminance" maskUnits="userSpaceOnUse" x="472" y="267" width="18" height="13">
<path d="M472.057 267.25H489.333V280H472.057V267.25Z" fill="white"/>
</mask>
<g mask="url(#mask15_1966_3062)">
<path d="M488.244 267.25H472.848C472.421 267.25 472.072 267.599 472.072 268.026V278.927C472.072 279.354 472.421 279.703 472.848 279.703H475.249C475.249 278.183 476.484 276.959 477.994 276.959C479.51 276.959 480.739 278.188 480.739 279.703H489.015V268.026C489.02 267.599 488.676 267.25 488.244 267.25Z" fill="#007BFF" fill-opacity="0.2"/>
</g>
<path d="M793.874 507.099H781.874V505.099H793.874V507.099ZM779.874 507.099H767.874V505.099H779.874V507.099ZM765.874 507.099H753.874V505.099H765.874V507.099ZM751.874 507.099H739.874V505.099H751.874V507.099ZM737.874 507.099H725.874V505.099H737.874V507.099ZM723.874 507.099H711.874V505.099H723.874V507.099ZM709.874 507.099H697.874V505.099H709.874V507.099ZM695.874 507.099H683.874V505.099H695.874V507.099ZM681.874 507.099H669.874V505.099H681.874V507.099ZM667.874 507.099H663.822C661.281 507.099 659.067 507.943 657.171 509.63L655.843 508.135C658.114 506.115 660.775 505.099 663.822 505.099H667.874V507.099ZM655.926 510.958C654.525 512.76 653.822 514.807 653.822 517.099V521.88H651.822V517.099C651.822 514.349 652.666 511.896 654.354 509.729L655.926 510.958ZM653.822 523.88V535.88H651.822V523.88H653.822ZM653.822 537.88V549.88H651.822V537.88H653.822ZM653.822 551.88V563.88H651.822V551.88H653.822ZM653.822 565.88V577.88H651.822V565.88H653.822ZM653.822 579.88V591.88H651.822V579.88H653.822ZM653.822 593.88V605.88H651.822V593.88H653.822ZM653.822 607.88V619.88H651.822V607.88H653.822ZM653.822 621.88V633.88H651.822V621.88H653.822ZM653.822 635.88V647.88H651.822V635.88H653.822ZM653.822 649.88V661.88H651.822V649.88H653.822ZM653.822 663.88V675.88H651.822V663.88H653.822ZM653.822 677.88V689.88H651.822V677.88H653.822ZM653.822 691.88V703.88H651.822V691.88H653.822ZM653.822 705.88V717.88H651.822V705.88H653.822ZM653.822 719.88V731.88H651.822V719.88H653.822ZM653.822 733.88V745.88H651.822V733.88H653.822ZM653.822 747.88V759.88H651.822V747.88H653.822ZM653.822 761.88V773.88H651.822V761.88H653.822ZM653.822 775.88V787.88H651.822V775.88H653.822ZM653.822 789.88V801.88H651.822V789.88H653.822ZM653.822 803.88V815.88H651.822V803.88H653.822ZM653.822 817.88V829.88H651.822V817.88H653.822ZM653.822 831.88V843.88H651.822V831.88H653.822ZM653.822 845.88V857.88H651.822V845.88H653.822ZM653.822 859.88V871.88H651.822V859.88H653.822ZM653.822 873.88V879H651.822V873.88H653.822Z" fill="#007BFF" fill-opacity="0.2"/>
<path d="M655.822 875L652.822 879L649.822 875" stroke="#007BFF" stroke-opacity="0.2" stroke-width="0.324285" stroke-linecap="round" stroke-linejoin="round"/>
<mask id="mask16_1966_3062" style="mask-type:luminance" maskUnits="userSpaceOnUse" x="698" y="493" width="9" height="10">
<path d="M698.254 493.333H706.665V502.667H698.254V493.333Z" fill="white"/>
</mask>
<g mask="url(#mask16_1966_3062)">
<path d="M702.244 500.161C701.921 500.052 701.587 500 701.249 500C700.176 500 699.202 500.552 698.639 501.432C698.306 501.411 698.223 501.219 698.759 500.521C699.619 499.401 700.817 499.182 701.66 499.193C701.712 499.052 701.77 498.901 701.827 498.745C702.343 497.313 703.504 496.635 704.186 496.349L704.843 494.427C704.884 494.313 704.968 494.219 705.077 494.167C705.192 494.115 705.317 494.115 705.431 494.156L706.66 494.646C706.535 494.698 706.426 494.781 706.343 494.891C706.228 495.042 706.171 495.224 706.176 495.411L705.535 495.156L703.53 501C703.181 500.62 702.744 500.333 702.244 500.161Z" fill="#007BFF" fill-opacity="0.2"/>
</g>
<mask id="mask17_1966_3062" style="mask-type:luminance" maskUnits="userSpaceOnUse" x="713" y="490" width="8" height="9">
<path d="M713.336 490.667H720.227V498.667H713.336V490.667Z" fill="white"/>
</mask>
<g mask="url(#mask17_1966_3062)">
<path d="M714.163 491.339H719.778C720.044 491.339 720.257 491.547 720.257 491.813V497.349C720.257 497.615 720.044 497.823 719.778 497.823H714.163C713.903 497.823 713.689 497.615 713.689 497.349V491.813C713.689 491.547 713.903 491.339 714.163 491.339Z" fill="#007BFF" fill-opacity="0.2"/>
</g>
<mask id="mask18_1966_3062" style="mask-type:luminance" maskUnits="userSpaceOnUse" x="710" y="500" width="8" height="6">
<path d="M710.666 500H717.333V505.875H710.666V500Z" fill="white"/>
</mask>
<g mask="url(#mask18_1966_3062)">
<path d="M711.916 502.24C712.385 500.854 713.89 500.115 715.276 500.583C716.661 501.052 717.406 502.557 716.932 503.943C716.463 505.328 714.958 506.073 713.573 505.604C712.187 505.13 711.442 503.63 711.916 502.24ZM714.088 504.083C714.635 504.271 715.229 503.974 715.416 503.427C715.599 502.88 715.307 502.287 714.76 502.099C714.213 501.917 713.619 502.208 713.432 502.755C713.25 503.302 713.541 503.901 714.088 504.083Z" fill="#007BFF" fill-opacity="0.2"/>
</g>
<path d="M703.984 494.844C703.984 495.589 703.375 496.198 702.625 496.198C701.88 496.198 701.88 493.484 702.625 493.484C703.375 493.484 703.984 494.094 703.984 494.844Z" fill="#007BFF" fill-opacity="0.2"/>
<mask id="mask19_1966_3062" style="mask-type:luminance" maskUnits="userSpaceOnUse" x="698" y="500" width="6" height="6">
<path d="M698.254 500H703.999V505.875H698.254V500Z" fill="white"/>
</mask>
<g mask="url(#mask19_1966_3062)">
<path d="M703.759 503.943C703.29 505.328 701.785 506.073 700.399 505.604C699.014 505.13 698.269 503.63 698.738 502.24C699.212 500.854 700.712 500.115 702.102 500.583C703.488 501.052 704.227 502.557 703.759 503.943ZM700.915 504.083C701.462 504.271 702.056 503.974 702.243 503.427C702.425 502.88 702.134 502.287 701.587 502.099C701.04 501.917 700.446 502.208 700.259 502.755C700.071 503.302 700.368 503.901 700.915 504.083Z" fill="#007BFF" fill-opacity="0.2"/>
</g>
<path d="M710.443 499.635V498.656C710.443 498.458 710.605 498.297 710.803 498.297H718.053C718.245 498.297 718.407 498.458 718.407 498.656V499.635C718.407 499.828 718.245 499.99 718.053 499.99H718.011C718.396 500.937 718.995 502.578 718.995 503.693C718.995 503.693 718.391 503.693 717.459 503.693C717.594 503.031 717.506 502.344 717.199 501.724C716.834 500.984 716.204 500.427 715.417 500.161C715.094 500.052 714.761 500 714.423 500C713.1 500 711.923 500.844 711.495 502.099C711.313 502.63 711.287 503.177 711.391 503.693C711.178 503.693 710.969 503.693 710.766 503.693C710.23 503.693 709.73 503.693 709.298 503.693H704.287C704.36 503.339 704.365 502.979 704.313 502.63H709.985C710.475 501.641 710.641 500.63 710.699 499.974C710.553 499.927 710.443 499.792 710.443 499.635Z" fill="#007BFF" fill-opacity="0.2"/>
<path d="M707.079 496.167C707.631 496.094 708.126 495.969 708.563 495.807H710.516C710.516 495.443 710.485 495.073 710.438 494.708C711.615 493.661 711.959 492.458 711.985 492.38C712.1 491.953 711.85 491.516 711.423 491.401C711.355 491.385 711.287 491.375 711.214 491.375C710.86 491.375 710.542 491.615 710.449 491.958C710.438 491.99 710.345 492.307 710.084 492.713C710.074 492.677 710.069 492.646 710.063 492.609C709.839 491.844 710.131 490.922 710.787 490.76C711.449 490.594 712.402 490.953 712.792 492.083C713.319 493.641 713.433 494.656 713.23 496.37C713.011 497.505 712.282 497.708 711.615 497.729C711.579 497.734 711.542 497.734 711.501 497.734H708.912L709.735 501.088C709.865 501.609 709.548 502.13 709.032 502.255C708.954 502.276 708.876 502.286 708.798 502.286C708.365 502.286 707.97 501.99 707.865 501.552L706.746 497C706.673 496.713 706.74 496.411 706.923 496.177C706.923 496.172 706.928 496.172 706.928 496.172C706.944 496.172 706.959 496.172 706.975 496.172C707.006 496.172 707.042 496.172 707.079 496.167Z" fill="#007BFF" fill-opacity="0.2"/>
<path d="M706.36 495.458C706.319 495.12 706.553 494.807 706.892 494.765C709.912 494.364 710.589 492.109 710.621 492.005C710.709 491.677 711.048 491.484 711.376 491.573C711.709 491.661 711.902 492.005 711.813 492.333C711.777 492.458 710.918 495.479 707.053 495.989C707.027 495.995 707.001 495.995 706.975 495.995C706.668 495.995 706.402 495.771 706.36 495.458Z" fill="#007BFF" fill-opacity="0.2"/>
<path d="M708.271 489.578L707.657 489.953C707.594 489.828 707.542 489.698 707.511 489.557C707.443 489.276 707.453 488.99 707.521 488.729H708.271V489.578Z" fill="#007BFF" fill-opacity="0.2"/>
<path d="M709.593 490.854C709.354 490.906 709.114 490.911 708.885 490.87L710.843 489.724C710.656 490.271 710.197 490.713 709.593 490.854Z" fill="#007BFF" fill-opacity="0.2"/>
<mask id="mask20_1966_3062" style="mask-type:luminance" maskUnits="userSpaceOnUse" x="705" y="486" width="7" height="6">
<path d="M705.334 486.875H712.001V492H705.334V486.875Z" fill="white"/>
</mask>
<g mask="url(#mask20_1966_3062)">
<path d="M709.234 486.891C710.885 486.891 711.202 487.552 711.202 489.318L707.65 491.391L707.364 490.328L708.442 489.672V488.562H706.557C706.557 488.562 707.583 486.891 709.234 486.891Z" fill="#007BFF" fill-opacity="0.2"/>
</g>
<path d="M1305.32 155.844H1293.32V153.844H1305.32V155.844ZM1291.32 155.844H1279.32V153.844H1291.32V155.844ZM1277.32 155.844H1265.32V153.844H1277.32V155.844ZM1263.32 155.844H1251.32V153.844H1263.32V155.844ZM1249.32 155.844H1237.32V153.844H1249.32V155.844ZM1235.32 155.844H1223.32V153.844H1235.32V155.844ZM1221.32 155.844H1209.32V153.844H1221.32V155.844ZM1207.32 155.844H1195.32V153.844H1207.32V155.844ZM1193.32 155.844H1181.32V153.844H1193.32V155.844ZM1179.32 155.844H1167.32V153.844H1179.32V155.844ZM1165.32 155.844H1153.32V153.844H1165.32V155.844ZM1151.32 155.844H1148.42C1144.89 155.844 1141.93 154.537 1139.55 151.927L1141.03 150.578C1143.01 152.755 1145.47 153.844 1148.42 153.844H1151.32V155.844ZM1138.23 150.188C1137.02 148.25 1136.42 146.135 1136.42 143.844V137.922H1138.42V143.844C1138.42 145.755 1138.92 147.516 1139.93 149.13L1138.23 150.188ZM1136.42 135.922V123.922H1138.42V135.922H1136.42ZM1136.42 121.922V109.922H1138.42V121.922H1136.42ZM1136.42 107.922V95.922H1138.42V107.922H1136.42ZM1136.42 93.922V92.3855C1136.42 89.6251 1135.44 87.2657 1133.49 85.3178C1133.08 84.9063 1132.64 84.5365 1132.17 84.2032L1133.31 82.5678C1133.89 82.9636 1134.41 83.4115 1134.91 83.9011C1137.24 86.2449 1138.42 89.073 1138.42 92.3855V93.922H1136.42ZM1130.59 83.297C1129.27 82.6876 1127.88 82.3855 1126.42 82.3855H1119.12V80.3855H1126.42C1128.17 80.3855 1129.83 80.7501 1131.42 81.4792L1130.59 83.297ZM1117.12 82.3855H1105.12V80.3855H1117.12V82.3855ZM1103.12 82.3855H1091.12V80.3855H1103.12V82.3855ZM1089.12 82.3855H1077.12V80.3855H1089.12V82.3855ZM1075.12 82.3855H1063.12V80.3855H1075.12V82.3855ZM1061.12 82.3855H1049.12V80.3855H1061.12V82.3855ZM1047.12 82.3855H1035.12V80.3855H1047.12V82.3855ZM1033.12 82.3855H1021.12V80.3855H1033.12V82.3855ZM1019.12 82.3855H1007.12V80.3855H1019.12V82.3855ZM1005.12 82.3855H993.12V80.3855H1005.12V82.3855ZM991.12 82.3855H979.12V80.3855H991.12V82.3855ZM977.12 82.3855H965.12V80.3855H977.12V82.3855ZM963.12 82.3855H951.12V80.3855H963.12V82.3855ZM949.12 82.3855H937.12V80.3855H949.12V82.3855ZM935.12 82.3855H923.12V80.3855H935.12V82.3855ZM921.12 82.3855H909.12V80.3855H921.12V82.3855ZM907.12 82.3855H895.12V80.3855H907.12V82.3855ZM893.12 82.3855H881.12V80.3855H893.12V82.3855ZM879.12 82.3855H867.12V80.3855H879.12V82.3855ZM865.12 82.3855H853.12V80.3855H865.12V82.3855ZM851.12 82.3855H839.12V80.3855H851.12V82.3855ZM837.12 82.3855H825.12V80.3855H837.12V82.3855ZM823.12 82.3855H811.12V80.3855H823.12V82.3855ZM809.12 82.3855H798.63C798.156 82.3855 797.688 82.4167 797.224 82.4845L796.943 80.5053C797.5 80.4272 798.063 80.3855 798.63 80.3855H809.12V82.3855ZM795.458 82.9011C791.604 84.1876 789.37 86.8386 788.75 90.8438L786.771 90.5365C787.516 85.7292 790.198 82.5522 794.823 81.0053L795.458 82.9011ZM788.63 92.7292V104.729H786.63V92.7292H788.63ZM788.63 106.729V118.729H786.63V106.729H788.63ZM788.63 120.729V132.729H786.63V120.729H788.63ZM788.63 134.729V143.844C788.63 144.922 788.49 145.974 788.208 147.005L786.281 146.479C786.516 145.62 786.63 144.745 786.63 143.844V134.729H788.63ZM787.453 149.037C785.339 153.443 781.839 155.708 776.958 155.839L776.901 153.839C780.969 153.734 783.885 151.844 785.651 148.167L787.453 149.037ZM774.917 155.844H762.917V153.844H774.917V155.844ZM760.917 155.844H748.917V153.844H760.917V155.844ZM746.917 155.844H734.917V153.844H746.917V155.844ZM732.917 155.844H720.917V153.844H732.917V155.844ZM718.917 155.844H706.917V153.844H718.917V155.844ZM704.917 155.844H692.917V153.844H704.917V155.844ZM690.917 155.844H678.917V153.844H690.917V155.844ZM676.917 155.844H664.917V153.844H676.917V155.844ZM662.917 155.844H650.917V153.844H662.917V155.844ZM648.917 155.844H636.917V153.844H648.917V155.844ZM634.917 155.844H622.917V153.844H634.917V155.844ZM620.917 155.844H608.917V153.844H620.917V155.844ZM606.917 155.844H594.917V153.844H606.917V155.844ZM592.917 155.844H585.911C583.453 155.844 582.219 154.615 582.219 152.151V151.281H584.219V152.151C584.219 153.281 584.786 153.844 585.911 153.844H592.917V155.844Z" fill="#007BFF" fill-opacity="0.2"/>
<mask id="mask21_1966_3062" style="mask-type:luminance" maskUnits="userSpaceOnUse" x="690" y="142" width="10" height="12">
<path d="M690.666 142.667H699.244V153.333H690.666V142.667Z" fill="white"/>
</mask>
<g mask="url(#mask21_1966_3062)">
<path d="M698.244 145.99L696.041 143.786C695.734 143.479 695.312 143.302 694.88 143.302H690.775V152.646H692.046C692.046 151.13 693.281 149.901 694.791 149.901C696.312 149.901 697.536 151.135 697.536 152.646H698.031C698.463 152.646 698.812 152.302 698.812 151.87V147.38C698.822 146.854 698.609 146.354 698.244 145.99ZM691.567 146.547V144.088H694.885C695.109 144.088 695.322 144.177 695.484 144.344L697.687 146.547H691.567Z" fill="#007BFF" fill-opacity="0.2"/>
</g>
<mask id="mask22_1966_3062" style="mask-type:luminance" maskUnits="userSpaceOnUse" x="692" y="149" width="6" height="7">
<path d="M692 149.333H697.333V155.193H692V149.333Z" fill="white"/>
</mask>
<g mask="url(#mask22_1966_3062)">
<path d="M694.796 150.464C693.592 150.464 692.613 151.443 692.613 152.646C692.613 153.854 693.592 154.833 694.796 154.833C696.004 154.833 696.978 153.854 696.978 152.646C696.978 151.443 696.004 150.464 694.796 150.464ZM694.796 153.771C694.171 153.771 693.671 153.266 693.671 152.646C693.671 152.026 694.176 151.526 694.796 151.526C695.421 151.526 695.921 152.031 695.921 152.646C695.926 153.271 695.421 153.771 694.796 153.771Z" fill="#007BFF" fill-opacity="0.2"/>
</g>
<mask id="mask23_1966_3062" style="mask-type:luminance" maskUnits="userSpaceOnUse" x="675" y="149" width="8" height="7">
<path d="M675.998 149.333H682.665V155.193H675.998V149.333Z" fill="white"/>
</mask>
<g mask="url(#mask23_1966_3062)">
<path d="M679.186 150.464C677.978 150.464 677.004 151.443 677.004 152.646C677.004 153.854 677.978 154.833 679.186 154.833C680.389 154.833 681.368 153.854 681.368 152.646C681.368 151.443 680.389 150.464 679.186 150.464ZM679.186 153.771C678.561 153.771 678.061 153.266 678.061 152.646C678.061 152.026 678.566 151.526 679.186 151.526C679.801 151.526 680.311 152.031 680.311 152.646C680.316 153.271 679.806 153.771 679.186 153.771Z" fill="#007BFF" fill-opacity="0.2"/>
</g>
<mask id="mask24_1966_3062" style="mask-type:luminance" maskUnits="userSpaceOnUse" x="673" y="140" width="18" height="14">
<path d="M673.244 140.193H690.666V153.333H673.244V140.193Z" fill="white"/>
</mask>
<g mask="url(#mask24_1966_3062)">
<path d="M689.437 140.193H674.036C673.609 140.193 673.26 140.537 673.26 140.969V151.865C673.26 152.297 673.609 152.641 674.036 152.641H676.442C676.442 151.125 677.671 149.896 679.187 149.896C680.697 149.896 681.932 151.13 681.932 152.641H690.208V140.969C690.213 140.537 689.864 140.193 689.437 140.193Z" fill="#007BFF" fill-opacity="0.2"/>
</g>
<mask id="mask25_1966_3062" style="mask-type:luminance" maskUnits="userSpaceOnUse" x="1086" y="51" width="20" height="27">
<path d="M1086.02 51.7605H1105.02V77.7605H1086.02V51.7605Z" fill="white"/>
</mask>
<g mask="url(#mask25_1966_3062)">
<path d="M1093.88 72.7763C1093.52 71.7086 1092.84 70.7711 1091.95 70.0784L1089.76 68.3752C1087.51 66.6252 1086.14 63.9742 1086.02 61.1252C1086.02 55.9534 1090.21 51.7659 1095.38 51.7659C1100.55 51.7659 1104.74 55.9534 1104.74 61.1252C1104.62 63.9742 1103.25 66.6252 1101 68.3752L1098.81 70.0784C1097.91 70.7711 1097.25 71.7086 1096.88 72.7763L1096.62 73.5263C1096.44 74.0575 1095.94 74.4117 1095.38 74.4117C1094.82 74.4117 1094.32 74.0575 1094.14 73.5263L1093.88 72.7763ZM1095.38 77.594C1093.31 77.594 1091.64 77.344 1091.64 77.0367C1091.64 76.7242 1093.31 76.4742 1095.38 76.4742C1097.45 76.4742 1099.13 76.7242 1099.13 77.0367C1099.13 77.344 1097.45 77.594 1095.38 77.594ZM1095.38 68.4221C1099.52 68.4221 1102.87 65.0732 1102.87 60.9377C1102.87 56.8023 1099.52 53.4482 1095.38 53.4482C1091.25 53.4482 1087.89 56.8023 1087.89 60.9377C1087.89 65.0732 1091.25 68.4221 1095.38 68.4221ZM1090.51 63.7398L1090.53 58.6877L1094.92 61.2294V66.2763L1090.51 63.7398ZM1095.87 61.2242L1100.23 58.693L1100.25 63.7398L1095.87 66.2815V61.2242ZM1091 57.8544L1095.37 55.3232L1099.76 57.8596L1095.4 60.3909L1091 57.8544Z" fill="#007BFF" fill-opacity="0.2"/>
</g>
<path d="M105.261 573.974V561.974H107.261V573.974H105.261ZM105.261 559.974V547.974H107.261V559.974H105.261ZM105.261 545.974V533.974H107.261V545.974H105.261ZM105.261 531.974V519.974H107.261V531.974H105.261ZM105.261 517.974V505.974H107.261V517.974H105.261ZM105.261 503.974V491.974H107.261V503.974H105.261ZM105.261 489.974V477.974H107.261V489.974H105.261ZM105.261 475.974V463.974H107.261V475.974H105.261ZM105.261 461.974V449.974H107.261V461.974H105.261ZM105.261 447.974V435.974H107.261V447.974H105.261ZM105.261 433.974V421.974H107.261V433.974H105.261ZM105.261 419.974V407.974H107.261V419.974H105.261ZM105.261 405.974V393.974H107.261V405.974H105.261ZM105.261 391.974V379.974H107.261V391.974H105.261ZM105.261 377.974V375.438C105.261 371.745 106.667 368.698 109.479 366.302L110.776 367.823C108.433 369.823 107.261 372.359 107.261 375.438V377.974H105.261ZM111.266 365.036C113.115 363.969 115.115 363.438 117.261 363.438H123.552V365.438H117.261C115.469 365.438 113.808 365.88 112.266 366.771L111.266 365.036ZM125.552 363.438H137.552V365.438H125.552V363.438ZM139.552 363.438H151.552V365.438H139.552V363.438ZM153.552 363.438H165.552V365.438H153.552V363.438ZM167.552 363.438H179.552V365.438H167.552V363.438ZM181.552 363.438H193.552V365.438H181.552V363.438ZM195.552 363.438H207.552V365.438H195.552V363.438ZM209.552 363.438H214.969C217.047 363.438 218.938 362.849 220.641 361.677L221.776 363.323C219.73 364.729 217.464 365.438 214.969 365.438H209.552V363.438ZM222.042 360.51C223.995 358.557 224.969 356.198 224.969 353.438V350.026H226.969V353.438C226.969 356.75 225.797 359.583 223.453 361.922L222.042 360.51ZM224.969 348.026V336.026H226.969V348.026H224.969ZM224.969 334.026V322.026H226.969V334.026H224.969ZM224.969 320.026V308.026H226.969V320.026H224.969ZM224.969 306.026V294.026H226.969V306.026H224.969ZM224.969 292.026V280.026H226.969V292.026H224.969ZM224.969 278.026V266.026H226.969V278.026H224.969ZM224.969 264.026V252.026H226.969V264.026H224.969ZM224.969 250.026V238.026H226.969V250.026H224.969ZM224.969 236.026V224.026H226.969V236.026H224.969ZM224.969 222.026V210.026H226.969V222.026H224.969ZM224.969 208.026V196.026H226.969V208.026H224.969ZM224.969 194.026V182.026H226.969V194.026H224.969ZM224.969 180.026V168.026H226.969V180.026H224.969ZM224.969 166.026V154.026H226.969V166.026H224.969ZM224.969 152.026V140.026H226.969V152.026H224.969ZM224.969 138.026V126.026H226.969V138.026H224.969ZM224.969 124.026V112.026H226.969V124.026H224.969ZM224.969 110.026V98.026H226.969V110.026H224.969ZM224.969 96.026V84.026H226.969V96.026H224.969ZM224.969 82.026V70.026H226.969V82.026H224.969ZM224.969 68.026V56.026H226.969V68.026H224.969ZM224.969 54.026V42.026H226.969V54.026H224.969ZM224.969 40.026V28.026H226.969V40.026H224.969ZM224.969 26.026V14.026H226.969V26.026H224.969ZM224.969 12.026V1H226.969V12.026H224.969Z" fill="#007BFF" fill-opacity="0.2"/>
<path d="M222.969 5L225.969 1L228.969 5" stroke="#007BFF" stroke-opacity="0.2" stroke-width="0.324285" stroke-linecap="round" stroke-linejoin="round"/>
<path d="M1306.32 0V12H1304.32V0H1306.32ZM1306.32 14V26H1304.32V14H1306.32ZM1306.32 28V40H1304.32V28H1306.32ZM1306.32 42V54H1304.32V42H1306.32ZM1306.32 56V68H1304.32V56H1306.32ZM1306.32 70V82H1304.32V70H1306.32ZM1306.32 84V96H1304.32V84H1306.32ZM1306.32 98V110H1304.32V98H1306.32ZM1306.32 112V124H1304.32V112H1306.32ZM1306.32 126V138H1304.32V126H1306.32ZM1306.32 140V152H1304.32V140H1306.32ZM1306.32 154V166H1304.32V154H1306.32ZM1306.32 168V180H1304.32V168H1306.32ZM1306.32 182V194H1304.32V182H1306.32ZM1306.32 196V208H1304.32V196H1306.32ZM1306.32 210V222H1304.32V210H1306.32ZM1306.32 224V236H1304.32V224H1306.32ZM1306.32 238V250H1304.32V238H1306.32ZM1306.32 252V264H1304.32V252H1306.32ZM1306.32 266V278H1304.32V266H1306.32ZM1306.32 280V292H1304.32V280H1306.32ZM1306.32 294V306H1304.32V294H1306.32ZM1306.32 308V320H1304.32V308H1306.32ZM1306.32 322V334H1304.32V322H1306.32ZM1306.32 336V348H1304.32V336H1306.32ZM1306.32 350V362H1304.32V350H1306.32ZM1306.32 364V376H1304.32V364H1306.32ZM1306.32 378V390H1304.32V378H1306.32ZM1306.32 392V404H1304.32V392H1306.32ZM1306.32 406V418H1304.32V406H1306.32ZM1306.32 420V432H1304.32V420H1306.32ZM1306.32 434V446H1304.32V434H1306.32ZM1306.32 448V460H1304.32V448H1306.32ZM1306.32 462V474H1304.32V462H1306.32ZM1306.32 476V488H1304.32V476H1306.32ZM1306.32 490V502H1304.32V490H1306.32ZM1306.32 504V516H1304.32V504H1306.32ZM1306.32 518V530H1304.32V518H1306.32ZM1306.32 532V544H1304.32V532H1306.32ZM1306.32 546V558H1304.32V546H1306.32ZM1306.32 560V572H1304.32V560H1306.32ZM1306.32 574V586H1304.32V574H1306.32ZM1306.32 588V600H1304.32V588H1306.32ZM1306.32 602V614H1304.32V602H1306.32ZM1306.32 616V628H1304.32V616H1306.32ZM1306.32 630V642H1304.32V630H1306.32ZM1306.32 644V644.313C1306.32 649.042 1304.25 652.547 1300.1 654.833L1299.14 653.078C1302.59 651.177 1304.32 648.255 1304.32 644.313V644H1306.32ZM1298.1 655.703C1296.88 656.109 1295.62 656.313 1294.32 656.313H1285.81V654.313H1294.32C1295.41 654.313 1296.46 654.141 1297.47 653.807L1298.1 655.703ZM1283.81 656.313H1271.81V654.313H1283.81V656.313ZM1269.81 656.313H1257.81V654.313H1269.81V656.313ZM1255.81 656.313H1243.81V654.313H1255.81V656.313ZM1241.81 656.313H1229.81V654.313H1241.81V656.313ZM1227.81 656.313H1215.81V654.313H1227.81V656.313ZM1213.81 656.313H1201.81V654.313H1213.81V656.313ZM1199.81 656.313H1187.81V654.313H1199.81V656.313ZM1185.81 656.313H1173.81V654.313H1185.81V656.313ZM1171.81 656.313H1159.81V654.313H1171.81V656.313ZM1157.81 656.313H1145.81V654.313H1157.81V656.313ZM1143.81 656.313H1131.81V654.313H1143.81V656.313ZM1129.81 656.313H1117.81V654.313H1129.81V656.313ZM1115.81 656.313H1103.81V654.313H1115.81V656.313ZM1101.81 656.313H1089.81V654.313H1101.81V656.313ZM1087.81 656.313H1075.81V654.313H1087.81V656.313ZM1073.81 656.313H1061.81V654.313H1073.81V656.313ZM1059.81 656.313H1047.81V654.313H1059.81V656.313ZM1045.81 656.313H1033.81V654.313H1045.81V656.313ZM1031.81 656.313H1019.81V654.313H1031.81V656.313ZM1017.81 656.313H1005.81V654.313H1017.81V656.313ZM1003.81 656.313H991.808V654.313H1003.81V656.313ZM989.808 656.313H977.808V654.313H989.808V656.313ZM975.808 656.313H963.808V654.313H975.808V656.313ZM961.808 656.313H949.808V654.313H961.808V656.313ZM947.808 656.313H935.808V654.313H947.808V656.313ZM933.808 656.313H921.808V654.313H933.808V656.313ZM919.824 656.318C915.756 656.432 912.844 658.328 911.089 662.005L909.282 661.141C911.391 656.734 914.886 654.458 919.766 654.318L919.824 656.318ZM910.459 663.698C910.23 664.547 910.115 665.422 910.115 666.313V675.448H908.115V666.313C908.115 665.245 908.256 664.198 908.532 663.177L910.459 663.698ZM910.115 677.448V689.448H908.115V677.448H910.115ZM910.115 691.448V703.448H908.115V691.448H910.115ZM910.115 705.448V717.448H908.115V705.448H910.115ZM910.115 719.448V731.448H908.115V719.448H910.115ZM910.115 733.448V745.448H908.115V733.448H910.115ZM910.115 747.448V759.448H908.115V747.448H910.115ZM910.115 761.448V773.448H908.115V761.448H910.115ZM910.115 775.448V785C910.115 785.766 910.199 786.516 910.37 787.255L908.423 787.703C908.219 786.818 908.115 785.917 908.115 785V775.448H910.115ZM910.933 788.964C912.548 792.703 915.381 794.708 919.438 794.979L919.303 796.974C914.438 796.646 911.032 794.24 909.094 789.755L910.933 788.964ZM921.396 795H933.396V797H921.396V795ZM935.396 795H947.396V797H935.396V795ZM949.396 795H961.396V797H949.396V795ZM963.396 795H975.396V797H963.396V795ZM977.396 795H989.396V797H977.396V795ZM991.396 795H1003.4V797H991.396V795ZM1005.4 795H1017.4V797H1005.4V795ZM1019.4 795H1031.4V797H1019.4V795ZM1033.4 795H1045.4V797H1033.4V795ZM1047.4 795H1059.4V797H1047.4V795ZM1061.4 795H1073.4V797H1061.4V795ZM1075.4 795H1087.4V797H1075.4V795ZM1089.4 795H1101.4V797H1089.4V795ZM1103.4 795H1115.4V797H1103.4V795ZM1117.4 795H1129.4V797H1117.4V795ZM1131.4 795H1143.4V797H1131.4V795ZM1145.4 795H1157.4V797H1145.4V795ZM1159.4 795H1171.4V797H1159.4V795ZM1173.4 795H1185.4V797H1173.4V795ZM1187.4 795H1199.4V797H1187.4V795ZM1201.4 795H1213.4V797H1201.4V795ZM1215.4 795H1227.4V797H1215.4V795ZM1229.4 795H1241.4V797H1229.4V795ZM1243.4 795H1255.4V797H1243.4V795ZM1257.4 795H1269.4V797H1257.4V795ZM1271.4 795H1283.4V797H1271.4V795ZM1285.4 795H1297.4V797H1285.4V795ZM1299.4 795H1311.4V797H1299.4V795ZM1313.4 795H1325.4V797H1313.4V795ZM1327.4 795H1339.4V797H1327.4V795ZM1341.4 795H1353.4V797H1341.4V795ZM1355.4 795H1367.4V797H1355.4V795ZM1369.4 795H1381.4V797H1369.4V795ZM1383.4 795H1395.4V797H1383.4V795ZM1397.4 795H1409.4V797H1397.4V795ZM1411.4 795H1423.4V797H1411.4V795ZM1425.4 795H1437.4V797H1425.4V795ZM1439.4 795H1440V797H1439.4V795Z" fill="#007BFF" fill-opacity="0.2"/>
<path d="M225.969 205.188H237.969V207.188H225.969V205.188ZM239.969 205.188H251.969V207.188H239.969V205.188ZM253.969 205.188H265.969V207.188H253.969V205.188ZM267.969 205.188H279.969V207.188H267.969V205.188ZM281.969 205.188H293.969V207.188H281.969V205.188ZM295.969 205.188H307.969V207.188H295.969V205.188ZM309.969 205.188H321.969V207.188H309.969V205.188ZM323.969 205.188H335.969V207.188H323.969V205.188ZM337.969 205.188H349.969V207.188H337.969V205.188ZM351.969 205.188H363.969V207.188H351.969V205.188ZM365.969 205.188H377.969V207.188H365.969V205.188ZM379.969 205.188H391.969V207.188H379.969V205.188ZM393.969 205.188H405.969V207.188H393.969V205.188ZM407.969 205.188H419.969V207.188H407.969V205.188ZM421.969 205.188H433.969V207.188H421.969V205.188ZM435.865 205.089C439.88 204.505 442.547 202.297 443.875 198.458L445.766 199.115C444.172 203.719 440.969 206.37 436.151 207.068L435.865 205.089ZM444.313 196.698C444.385 196.203 444.422 195.698 444.422 195.188V184.813H446.422V195.188C446.422 195.797 446.38 196.401 446.286 197L444.313 196.698ZM444.422 182.813V170.813H446.422V182.813H444.422ZM444.422 168.813V156.813H446.422V168.813H444.422ZM444.422 154.813V142.813H446.422V154.813H444.422ZM444.422 140.813V128.813H446.422V140.813H444.422ZM444.422 126.813V114.813H446.422V126.813H444.422ZM444.422 112.813V100.813H446.422V112.813H444.422ZM444.422 98.8125V86.8125H446.422V98.8125H444.422ZM444.422 84.8125V72.8125H446.422V84.8125H444.422ZM444.422 70.8125V58.8125H446.422V70.8125H444.422ZM444.422 56.8125V44.8125H446.422V56.8125H444.422ZM444.422 42.8125V30.8125H446.422V42.8125H444.422ZM444.422 28.8125V16.8125H446.422V28.8125H444.422ZM444.422 14.8125V2.8125H446.422V14.8125H444.422ZM444.422 0.8125V0H446.422V0.8125H444.422Z" fill="#007BFF" fill-opacity="0.2"/>
<mask id="mask26_1966_3062" style="mask-type:luminance" maskUnits="userSpaceOnUse" x="132" y="345" width="25" height="14">
<path d="M132.713 345.948H156.713V358.667H132.713V345.948Z" fill="white"/>
</mask>
<g mask="url(#mask26_1966_3062)">
<path d="M151.526 351.838L148.62 347.109C148.62 347.109 147.818 345.953 146.823 345.953H138.839C138.839 345.953 137.375 345.958 136.797 347.135L133.865 351.713C133.37 352.067 132.781 352.614 132.781 353.234V355.817C132.781 356.864 133.51 357.734 134.49 357.958C134.521 356.328 135.849 355.01 137.484 355.01C139.141 355.01 140.484 356.354 140.484 358.01H147.385C147.385 356.354 148.729 355.01 150.385 355.01C152.042 355.01 153.385 356.354 153.385 358.01H154.208C155.427 358.01 156.406 357.031 156.406 355.817C156.406 355.817 156.146 351.838 151.526 351.838ZM141.141 351.338H135.943L138.38 347.39H141.141V351.338ZM144 351.338H142.385V347.39H147.021L149.479 351.338H144Z" fill="#007BFF" fill-opacity="0.2"/>
</g>
<mask id="mask27_1966_3062" style="mask-type:luminance" maskUnits="userSpaceOnUse" x="134" y="354" width="8" height="7">
<path d="M134.666 354.667H141.333V360.948H134.666V354.667Z" fill="white"/>
</mask>
<g mask="url(#mask27_1966_3062)">
<path d="M137.536 355.443C136.12 355.443 134.969 356.594 134.969 358.011C134.969 359.432 136.12 360.578 137.536 360.578C138.953 360.578 140.104 359.432 140.104 358.011C140.104 356.594 138.953 355.443 137.536 355.443ZM137.536 359.182C136.891 359.182 136.365 358.662 136.365 358.011C136.365 357.365 136.891 356.839 137.536 356.839C138.187 356.839 138.708 357.365 138.708 358.011C138.708 358.662 138.187 359.182 137.536 359.182Z" fill="#007BFF" fill-opacity="0.2"/>
</g>
<mask id="mask28_1966_3062" style="mask-type:luminance" maskUnits="userSpaceOnUse" x="146" y="354" width="8" height="7">
<path d="M146.667 354.667H153.334V360.948H146.667V354.667Z" fill="white"/>
</mask>
<g mask="url(#mask28_1966_3062)">
<path d="M150.407 355.443C148.99 355.443 147.839 356.594 147.839 358.01C147.839 359.432 148.99 360.578 150.407 360.578C151.823 360.578 152.974 359.432 152.974 358.01C152.974 356.594 151.823 355.443 150.407 355.443ZM150.407 359.182C149.761 359.182 149.235 358.661 149.235 358.01C149.235 357.365 149.761 356.838 150.407 356.838C151.058 356.838 151.578 357.365 151.578 358.01C151.578 358.661 151.058 359.182 150.407 359.182Z" fill="#007BFF" fill-opacity="0.2"/>
</g>
<mask id="mask29_1966_3062" style="mask-type:luminance" maskUnits="userSpaceOnUse" x="353" y="193" width="10" height="10">
<path d="M353.332 193.333H362.827V202.667H353.332V193.333Z" fill="white"/>
</mask>
<g mask="url(#mask29_1966_3062)">
<path d="M358.833 200.25C359.156 200.141 359.489 200.089 359.827 200.089C360.9 200.089 361.88 200.641 362.437 201.521C362.77 201.5 362.854 201.307 362.322 200.609C361.458 199.49 360.26 199.271 359.416 199.281C359.364 199.141 359.312 198.99 359.255 198.833C358.734 197.406 357.577 196.724 356.89 196.438L356.234 194.516C356.192 194.401 356.109 194.307 355.999 194.255C355.89 194.203 355.765 194.203 355.65 194.245L354.416 194.734C354.541 194.787 354.656 194.87 354.739 194.984C354.854 195.13 354.911 195.313 354.9 195.5L355.546 195.245L357.546 201.089C357.895 200.708 358.333 200.422 358.833 200.25Z" fill="#007BFF" fill-opacity="0.2"/>
</g>
<mask id="mask30_1966_3062" style="mask-type:luminance" maskUnits="userSpaceOnUse" x="340" y="190" width="9" height="9">
<path d="M340.829 190.667H348.001V198.667H340.829V190.667Z" fill="white"/>
</mask>
<g mask="url(#mask30_1966_3062)">
<path d="M346.923 191.427H341.303C341.043 191.427 340.829 191.635 340.829 191.901V197.437C340.829 197.703 341.043 197.911 341.303 197.911H346.923C347.183 197.911 347.397 197.703 347.397 197.437V191.901C347.397 191.635 347.183 191.427 346.923 191.427Z" fill="#007BFF" fill-opacity="0.2"/>
</g>
<mask id="mask31_1966_3062" style="mask-type:luminance" maskUnits="userSpaceOnUse" x="343" y="200" width="7" height="6">
<path d="M343.998 200H349.331V205.964H343.998V200Z" fill="white"/>
</mask>
<g mask="url(#mask31_1966_3062)">
<path d="M349.165 202.333C348.692 200.943 347.192 200.203 345.806 200.672C344.415 201.141 343.676 202.646 344.145 204.031C344.613 205.417 346.119 206.161 347.504 205.693C348.889 205.219 349.634 203.719 349.165 202.333ZM346.988 204.172C346.442 204.359 345.848 204.062 345.665 203.516C345.478 202.969 345.77 202.375 346.317 202.193C346.863 202.005 347.462 202.297 347.645 202.844C347.832 203.391 347.54 203.989 346.988 204.172Z" fill="#007BFF" fill-opacity="0.2"/>
</g>
<path d="M357.099 194.932C357.099 195.677 357.703 196.287 358.453 196.287C359.203 196.287 359.203 193.573 358.453 193.573C357.703 193.573 357.099 194.182 357.099 194.932Z" fill="#007BFF" fill-opacity="0.2"/>
<mask id="mask32_1966_3062" style="mask-type:luminance" maskUnits="userSpaceOnUse" x="356" y="200" width="7" height="6">
<path d="M356.001 200H362.668V205.964H356.001V200Z" fill="white"/>
</mask>
<g mask="url(#mask32_1966_3062)">
<path d="M357.318 204.031C357.792 205.417 359.292 206.161 360.683 205.693C362.068 205.219 362.808 203.719 362.339 202.328C361.87 200.943 360.365 200.203 358.979 200.672C357.594 201.141 356.849 202.646 357.318 204.031ZM360.167 204.172C359.62 204.359 359.021 204.062 358.839 203.516C358.651 202.969 358.943 202.375 359.495 202.193C360.042 202.005 360.636 202.297 360.823 202.844C361.005 203.391 360.714 203.99 360.167 204.172Z" fill="#007BFF" fill-opacity="0.2"/>
</g>
<path d="M350.636 199.724V198.745C350.636 198.547 350.474 198.385 350.282 198.385H343.032C342.834 198.385 342.677 198.547 342.677 198.745V199.724C342.677 199.917 342.834 200.078 343.032 200.078H343.068C342.683 201.026 342.089 202.667 342.089 203.781C342.089 203.781 342.693 203.781 343.62 203.781C343.49 203.12 343.573 202.432 343.881 201.813C344.245 201.073 344.881 200.516 345.662 200.25C345.985 200.141 346.318 200.089 346.657 200.089C347.985 200.089 349.162 200.932 349.589 202.188C349.766 202.719 349.792 203.271 349.688 203.781C349.901 203.781 350.11 203.781 350.313 203.781C350.849 203.781 351.349 203.781 351.782 203.781H356.792C356.724 203.427 356.714 203.068 356.771 202.719H351.099C350.61 201.729 350.438 200.719 350.386 200.063C350.526 200.016 350.636 199.88 350.636 199.724Z" fill="#007BFF" fill-opacity="0.2"/>
<path d="M354.005 196.255C353.448 196.182 352.958 196.057 352.516 195.896H350.563C350.563 195.531 350.594 195.161 350.641 194.797C349.464 193.755 349.12 192.547 349.099 192.469C348.984 192.042 349.234 191.604 349.656 191.49C349.724 191.474 349.797 191.464 349.865 191.464C350.219 191.464 350.537 191.703 350.63 192.047C350.641 192.078 350.734 192.396 351 192.802C351.005 192.766 351.011 192.734 351.021 192.698C351.24 191.932 350.948 191.01 350.292 190.849C349.63 190.682 348.677 191.042 348.287 192.172C347.761 193.729 347.651 194.745 347.849 196.458C348.068 197.594 348.802 197.797 349.464 197.818C349.5 197.823 349.542 197.823 349.578 197.823H352.167L351.344 201.177C351.219 201.698 351.531 202.219 352.052 202.344C352.125 202.365 352.203 202.375 352.281 202.375C352.714 202.375 353.109 202.078 353.219 201.641L354.339 197.089C354.406 196.802 354.344 196.5 354.162 196.266C354.156 196.26 354.156 196.26 354.151 196.26C354.141 196.26 354.125 196.26 354.109 196.26C354.073 196.26 354.037 196.26 354.005 196.255Z" fill="#007BFF" fill-opacity="0.2"/>
<path d="M354.718 195.547C354.765 195.208 354.526 194.896 354.187 194.854C351.171 194.453 350.489 192.198 350.458 192.094C350.369 191.766 350.031 191.573 349.703 191.661C349.375 191.75 349.177 192.094 349.27 192.422C349.302 192.547 350.161 195.568 354.026 196.078C354.052 196.083 354.083 196.083 354.109 196.083C354.411 196.083 354.677 195.859 354.718 195.547Z" fill="#007BFF" fill-opacity="0.2"/>
<path d="M352.808 189.667L353.422 190.042C353.485 189.917 353.537 189.786 353.568 189.646C353.636 189.365 353.625 189.083 353.558 188.818H352.808V189.667Z" fill="#007BFF" fill-opacity="0.2"/>
<path d="M351.484 190.943C351.724 191 351.968 191 352.198 190.958L350.239 189.812C350.427 190.359 350.88 190.802 351.484 190.943Z" fill="#007BFF" fill-opacity="0.2"/>
<mask id="mask33_1966_3062" style="mask-type:luminance" maskUnits="userSpaceOnUse" x="349" y="186" width="6" height="6">
<path d="M349.333 186.964H354.666V192H349.333V186.964Z" fill="white"/>
</mask>
<g mask="url(#mask33_1966_3062)">
<path d="M351.843 186.979C350.192 186.979 349.874 187.641 349.874 189.406L353.426 191.479L353.713 190.417L352.634 189.76V188.651H354.525C354.525 188.651 353.494 186.979 351.843 186.979Z" fill="#007BFF" fill-opacity="0.2"/>
</g>
<path d="M224.969 880V868H226.969V880H224.969ZM224.969 866V854H226.969V866H224.969ZM224.969 852V840H226.969V852H224.969ZM224.969 838V835.531C224.969 832.427 223.782 829.875 221.407 827.875L222.693 826.349C225.547 828.745 226.969 831.807 226.969 835.531V838H224.969ZM219.912 826.833C218.386 825.963 216.74 825.531 214.969 825.531H208.61V823.531H214.969C217.089 823.531 219.068 824.052 220.901 825.094L219.912 826.833ZM206.61 825.531H194.61V823.531H206.61V825.531ZM192.61 825.531H180.61V823.531H192.61V825.531ZM178.61 825.531H166.61V823.531H178.61V825.531ZM164.61 825.531H152.61V823.531H164.61V825.531ZM150.61 825.531H138.61V823.531H150.61V825.531ZM136.61 825.531H124.61V823.531H136.61V825.531ZM122.61 825.531H117.261C114.74 825.531 112.453 824.812 110.391 823.375L111.537 821.734C113.256 822.932 115.162 823.531 117.261 823.531H122.61V825.531ZM108.724 821.963C106.417 819.63 105.261 816.818 105.261 813.531V810.052H107.261V813.531C107.261 816.271 108.224 818.615 110.146 820.557L108.724 821.963ZM105.261 808.052V796.052H107.261V808.052H105.261ZM105.261 794.052V782.052H107.261V794.052H105.261ZM105.261 780.052V768.052H107.261V780.052H105.261ZM105.261 766.052V754.052H107.261V766.052H105.261ZM105.261 752.052V740.052H107.261V752.052H105.261ZM105.261 738.052V726.052H107.261V738.052H105.261ZM105.261 724.052V712.052H107.261V724.052H105.261ZM105.261 710.052V698.052H107.261V710.052H105.261ZM105.266 696.005C105.412 691.13 107.693 687.635 112.11 685.536L112.969 687.344C109.292 689.094 107.391 692 107.266 696.068L105.266 696.005ZM114.141 684.786C115.162 684.516 116.198 684.38 117.261 684.38H126.417V686.38H117.261C116.375 686.38 115.511 686.49 114.662 686.719L114.141 684.786ZM128.417 684.38H140.417V686.38H128.417V684.38ZM142.417 684.38H154.417V686.38H142.417V684.38ZM156.417 684.38H168.417V686.38H156.417V684.38ZM170.417 684.38H182.417V686.38H170.417V684.38ZM184.417 684.38H196.417V686.38H184.417V684.38ZM198.417 684.38H210.417V686.38H198.417V684.38ZM212.417 684.38H224.417V686.38H212.417V684.38ZM226.417 684.38H230.479C233.016 684.38 235.229 683.536 237.12 681.854L238.448 683.349C236.177 685.37 233.521 686.38 230.479 686.38H226.417V684.38ZM238.365 680.526C239.776 678.719 240.479 676.672 240.479 674.38V669.609H242.479V674.38C242.479 677.13 241.631 679.588 239.943 681.755L238.365 680.526ZM240.479 667.609V655.609H242.479V667.609H240.479ZM240.479 653.609V641.609H242.479V653.609H240.479ZM240.479 639.609V627.609H242.479V639.609H240.479ZM240.479 625.609V613.609H242.479V625.609H240.479ZM240.479 611.609V599.609H242.479V611.609H240.479ZM240.479 597.609V585.609H242.479V597.609H240.479ZM240.479 583.609V573.974H242.479V583.609H240.479Z" fill="#007BFF" fill-opacity="0.2"/>
<mask id="mask34_1966_3062" style="mask-type:luminance" maskUnits="userSpaceOnUse" x="156" y="796" width="20" height="26">
<path d="M156.495 796H175.495V822H156.495V796Z" fill="white"/>
</mask>
<g mask="url(#mask34_1966_3062)">
<path d="M164.354 817.016C163.99 815.948 163.318 815.011 162.427 814.318L160.235 812.615C157.979 810.865 156.615 808.214 156.495 805.365C156.495 800.198 160.683 796.006 165.854 796.006C171.021 796.006 175.214 800.198 175.214 805.365C175.094 808.214 173.724 810.865 171.474 812.615L169.282 814.318C168.386 815.011 167.719 815.948 167.349 817.016L167.094 817.771C166.912 818.302 166.412 818.657 165.854 818.657C165.292 818.657 164.797 818.302 164.615 817.771L164.354 817.016ZM165.854 821.839C163.787 821.839 162.11 821.589 162.11 821.276C162.11 820.964 163.787 820.714 165.854 820.714C167.922 820.714 169.599 820.964 169.599 821.276C169.599 821.589 167.922 821.839 165.854 821.839ZM165.854 812.667C169.99 812.667 173.339 809.313 173.339 805.177C173.339 801.042 169.99 797.693 165.854 797.693C161.719 797.693 158.365 801.042 158.365 805.177C158.365 809.313 161.719 812.667 165.854 812.667ZM160.985 807.98L161 802.933L165.396 805.469V810.516L160.985 807.98ZM166.344 805.469L170.703 802.933L170.719 807.98L166.344 810.526V805.469ZM161.474 802.099L165.839 799.563L170.235 802.099L165.87 804.636L161.474 802.099Z" fill="#007BFF" fill-opacity="0.2"/>
</g>
<path d="M1204.47 643.797L1202.27 641.594C1201.96 641.286 1201.54 641.115 1201.1 641.115H1197V650.458H1198.27C1198.27 648.937 1199.51 647.713 1201.02 647.713C1202.54 647.713 1203.76 648.943 1203.76 650.458H1204.26C1204.69 650.458 1205.04 650.109 1205.04 649.682V645.187C1205.05 644.667 1204.83 644.167 1204.47 643.797ZM1197.79 644.354V641.901H1201.11C1201.33 641.901 1201.55 641.99 1201.71 642.151L1203.91 644.354H1197.79Z" fill="#007BFF" fill-opacity="0.2"/>
<mask id="mask35_1966_3062" style="mask-type:luminance" maskUnits="userSpaceOnUse" x="1198" y="648" width="6" height="5">
<path d="M1198.67 648H1204V653H1198.67V648Z" fill="white"/>
</mask>
<g mask="url(#mask35_1966_3062)">
<path d="M1201.02 648.276C1199.82 648.276 1198.84 649.25 1198.84 650.458C1198.84 651.667 1199.82 652.641 1201.02 652.641C1202.23 652.641 1203.2 651.667 1203.2 650.458C1203.2 649.25 1202.23 648.276 1201.02 648.276ZM1201.02 651.583C1200.4 651.583 1199.9 651.078 1199.9 650.458C1199.9 649.833 1200.41 649.333 1201.02 649.333C1201.65 649.333 1202.15 649.839 1202.15 650.458C1202.15 651.083 1201.65 651.583 1201.02 651.583Z" fill="#007BFF" fill-opacity="0.2"/>
</g>
<mask id="mask36_1966_3062" style="mask-type:luminance" maskUnits="userSpaceOnUse" x="1182" y="648" width="7" height="5">
<path d="M1182.67 648H1188V653H1182.67V648Z" fill="white"/>
</mask>
<g mask="url(#mask36_1966_3062)">
<path d="M1185.41 648.276C1184.2 648.276 1183.23 649.25 1183.23 650.458C1183.23 651.667 1184.2 652.641 1185.41 652.641C1186.61 652.641 1187.59 651.667 1187.59 650.458C1187.59 649.25 1186.61 648.276 1185.41 648.276ZM1185.41 651.583C1184.79 651.583 1184.29 651.078 1184.29 650.458C1184.29 649.833 1184.79 649.333 1185.41 649.333C1186.03 649.333 1186.54 649.839 1186.54 650.458C1186.54 651.083 1186.04 651.583 1185.41 651.583Z" fill="#007BFF" fill-opacity="0.2"/>
</g>
<mask id="mask37_1966_3062" style="mask-type:luminance" maskUnits="userSpaceOnUse" x="1179" y="638" width="19" height="13">
<path d="M1179.47 638H1197.33V650.667H1179.47V638Z" fill="white"/>
</mask>
<g mask="url(#mask37_1966_3062)">
<path d="M1195.66 638H1180.26C1179.84 638 1179.49 638.349 1179.49 638.776V649.677C1179.49 650.104 1179.84 650.453 1180.26 650.453H1182.67C1182.67 648.932 1183.9 647.708 1185.41 647.708C1186.92 647.708 1188.16 648.938 1188.16 650.453H1196.43V638.776C1196.44 638.349 1196.09 638 1195.66 638Z" fill="#007BFF" fill-opacity="0.2"/>
</g>
</g>
<defs>
<clipPath id="clip0_1966_3062">
<rect width="1440" height="880" fill="white"/>
</clipPath>
</defs>
</svg>
