<svg width="1440" height="157" viewBox="0 0 1440 157" fill="none" xmlns="http://www.w3.org/2000/svg">
<g clip-path="url(#clip0_1570_416)">
<rect width="1440" height="157" fill="#007BFF"/>
<g style="mix-blend-mode:soft-light" opacity="0.25">
<path d="M315.401 -428.416H1401.78C1470.72 -428.416 1526.6 -372.533 1526.6 -303.599V767.42H315.401C246.467 767.42 190.585 711.538 190.585 642.604V-303.599C190.585 -372.534 246.467 -428.416 315.401 -428.416Z" stroke="white" stroke-width="13.2014"/>
<path d="M161.783 -438.785L1236.6 -596.862C1304.8 -606.892 1368.22 -559.736 1378.25 -491.535L1515.93 444.598C1525.96 512.798 1478.81 576.217 1410.61 586.247L212.298 762.485L56.4567 -297.136C46.4263 -365.336 93.5825 -428.755 161.783 -438.785Z" stroke="white" stroke-width="13.2014"/>
<path d="M30.9686 -427.576L1082.16 -703.31C1148.84 -720.8 1217.07 -680.925 1234.56 -614.247L1474.64 301.01C1492.13 367.682 1452.26 435.91 1385.59 453.407L210.723 761.736L-58.185 -275.521C-75.4492 -342.114 -35.575 -410.121 30.9686 -427.576Z" stroke="white" stroke-width="13.2014"/>
</g>
</g>
<defs>
<clipPath id="clip0_1570_416">
<rect width="1440" height="157" fill="white"/>
</clipPath>
</defs>
</svg>
