<svg width="120" height="36" viewBox="0 0 120 36" fill="none" xmlns="http://www.w3.org/2000/svg">
<g filter="url(#filter0_b_1132_427)">
<rect width="119.714" height="35.8571" rx="17.9286" fill="url(#paint0_radial_1132_427)"/>
<rect x="0.370536" y="0.370536" width="118.973" height="35.1161" rx="17.558" stroke="url(#paint1_radial_1132_427)" stroke-width="0.741071"/>
<rect x="0.370536" y="0.370536" width="118.973" height="35.1161" rx="17.558" stroke="url(#paint2_radial_1132_427)" stroke-width="0.741071"/>
<rect x="0.370536" y="0.370536" width="118.973" height="35.1161" rx="17.558" stroke="url(#paint3_linear_1132_427)" stroke-width="0.741071"/>
<path d="M13.1911 24.9287V11.7006H19.2494C20.4104 11.7006 21.3676 11.9908 22.121 12.5713C22.8868 13.1518 23.2697 14.0103 23.2697 15.1466C23.2697 16.0112 23.0474 16.746 22.6027 17.3513C22.1581 17.9565 21.522 18.3455 20.6945 18.5184V18.5555C21.5096 18.6667 22.084 18.9754 22.4174 19.4818C22.7633 19.9759 22.9609 20.6614 23.0103 21.5383C23.0103 21.5754 23.0165 21.7792 23.0288 22.1497C23.0535 22.5202 23.0721 22.792 23.0844 22.9649C23.1091 23.1378 23.14 23.3786 23.177 23.6874C23.2141 23.9962 23.2697 24.2494 23.3438 24.447C23.4179 24.6446 23.5105 24.8052 23.6217 24.9287H22.2322C22.1581 24.8176 22.0963 24.6632 22.0469 24.4655C22.0099 24.2679 21.979 24.095 21.9543 23.9468C21.9419 23.7862 21.9296 23.5886 21.9172 23.3539C21.9049 23.1069 21.8925 22.9463 21.8802 22.8722C21.8555 22.4029 21.8246 22.0262 21.7875 21.7421C21.7628 21.4457 21.6949 21.106 21.5837 20.7231C21.4849 20.3279 21.3429 20.0253 21.1576 19.8153C20.9847 19.593 20.7315 19.4077 20.398 19.2595C20.0769 19.1113 19.6878 19.0434 19.2308 19.0557H14.4509V24.9287H13.1911ZM14.4509 12.7751V17.9812H19.1567C19.9596 17.9812 20.6327 17.7465 21.1762 17.2771C21.732 16.8078 22.0099 16.1841 22.0099 15.4059C22.0099 14.5784 21.769 13.9362 21.2873 13.4792C20.8056 13.0098 20.0954 12.7751 19.1567 12.7751H14.4509ZM33.3666 20.4638H26.0115C26.0115 21.4395 26.277 22.3103 26.8081 23.076C27.3516 23.8418 28.1359 24.2247 29.1611 24.2247C30.7544 24.2247 31.7548 23.4095 32.1624 21.7792H33.3296C32.7985 24.0641 31.409 25.2066 29.1611 25.2066C27.7283 25.2066 26.6476 24.7311 25.9189 23.7801C25.2025 22.829 24.8443 21.6186 24.8443 20.1488C24.8443 19.2595 24.9863 18.4505 25.2704 17.7218C25.5545 16.9807 26.03 16.357 26.697 15.8506C27.3763 15.3442 28.1977 15.091 29.1611 15.091C30.1368 15.091 30.952 15.3565 31.6066 15.8876C32.2736 16.4187 32.7429 17.0795 33.0146 17.87C33.2863 18.6605 33.4037 19.5251 33.3666 20.4638ZM26.0115 19.4818H32.1994C32.1747 18.5555 31.8845 17.7588 31.3287 17.0919C30.7729 16.4126 30.0503 16.0729 29.1611 16.0729C28.2594 16.0729 27.5369 16.4064 26.9934 17.0734C26.45 17.728 26.1227 18.5308 26.0115 19.4818ZM41.8251 18.1664H40.6579C40.6332 17.4748 40.3862 16.956 39.9169 16.6102C39.4475 16.252 38.8608 16.0729 38.1568 16.0729C37.5516 16.0729 37.0205 16.2088 36.5635 16.4805C36.1189 16.7399 35.8966 17.1536 35.8966 17.7218C35.8966 18.4629 36.5573 19.0001 37.8789 19.3336L39.4352 19.6856C40.2009 19.7968 40.8432 20.0747 41.362 20.5193C41.8931 20.964 42.1586 21.5692 42.1586 22.335C42.1586 23.286 41.7695 24.0024 40.9914 24.4841C40.2256 24.9658 39.3364 25.2066 38.3236 25.2066C35.9027 25.2066 34.5935 24.0827 34.3959 21.8347H35.5631C35.6125 22.6005 35.8904 23.1934 36.3968 23.6133C36.9155 24.0209 37.5763 24.2247 38.3791 24.2247C39.0461 24.2247 39.6451 24.0765 40.1762 23.7801C40.7197 23.4713 40.9914 23.0143 40.9914 22.4091C40.9914 21.9027 40.8062 21.526 40.4356 21.2789C40.0651 21.0319 39.5525 20.8281 38.8979 20.6675L37.3972 20.3341C36.5203 20.1117 35.8533 19.8153 35.3963 19.4448C34.9517 19.0742 34.7294 18.5184 34.7294 17.7774C34.7294 16.8757 35.0875 16.2026 35.8039 15.758C36.5203 15.3133 37.3602 15.091 38.3236 15.091C39.324 15.091 40.1454 15.3565 40.7876 15.8876C41.4299 16.4064 41.7757 17.166 41.8251 18.1664ZM45.7055 12.4972V15.3689H47.6508V16.3508H45.7055V22.7981C45.7055 23.2181 45.7672 23.5269 45.8907 23.7245C46.0143 23.9221 46.2675 24.0332 46.6503 24.058C46.9838 24.058 47.3173 24.0394 47.6508 24.0024V25.0028C47.5396 25.0028 47.3667 25.009 47.132 25.0213C46.8974 25.0337 46.7244 25.0399 46.6133 25.0399C45.8352 25.0399 45.2917 24.8855 44.9829 24.5767C44.6741 24.2679 44.5259 23.7059 44.5383 22.8908V16.3508H42.8709V15.3689H44.5383V12.4972H45.7055ZM50.3909 18.2961H49.2237C49.2854 17.2092 49.656 16.4064 50.3353 15.8876C51.027 15.3565 51.9471 15.091 53.0958 15.091C55.4425 15.091 56.6159 16.1161 56.6159 18.1664V23.2428C56.6159 23.7121 56.8444 23.9468 57.3014 23.9468C57.4372 23.9468 57.5607 23.9221 57.6719 23.8727V24.8546C57.4249 24.904 57.1717 24.9287 56.9123 24.9287C56.3688 24.9287 56.0045 24.7928 55.8192 24.5211C55.6339 24.237 55.5413 23.8171 55.5413 23.2613H55.5043C55.0473 23.9406 54.5656 24.4347 54.0592 24.7434C53.5651 25.0522 52.8858 25.2066 52.0212 25.2066C51.0825 25.2066 50.3106 24.9719 49.7054 24.5026C49.1125 24.0332 48.8161 23.3354 48.8161 22.4091C48.8161 22.0632 48.8655 21.7545 48.9643 21.4827C49.0631 21.1987 49.1743 20.964 49.2978 20.7787C49.4336 20.5811 49.6374 20.4082 49.9092 20.26C50.1932 20.0994 50.4341 19.9821 50.6317 19.908C50.8293 19.8215 51.1258 19.7412 51.521 19.6671C51.9286 19.593 52.2374 19.5436 52.4473 19.5189C52.6573 19.4818 52.997 19.4386 53.4663 19.3892C53.6763 19.3645 53.8368 19.346 53.948 19.3336C54.4915 19.2842 54.8743 19.1792 55.0967 19.0187C55.3313 18.8457 55.4487 18.5184 55.4487 18.0367C55.4487 17.308 55.2264 16.8016 54.7817 16.5175C54.3371 16.2211 53.7257 16.0729 52.9476 16.0729C52.1818 16.0729 51.5704 16.2582 51.1134 16.6287C50.6564 16.9869 50.4156 17.5427 50.3909 18.2961ZM55.4487 21.2234V19.7042H55.4116C55.3128 19.8894 54.9855 20.0315 54.4297 20.1303C54.2197 20.1673 53.8863 20.2229 53.4293 20.297C52.9723 20.3588 52.6203 20.4144 52.3732 20.4638C52.1262 20.5008 51.8236 20.5749 51.4654 20.6861C51.1196 20.7849 50.854 20.896 50.6688 21.0196C50.4959 21.1431 50.3353 21.3222 50.1871 21.5568C50.0512 21.7792 49.9833 22.0385 49.9833 22.335C49.9833 22.9031 50.1932 23.3601 50.6132 23.7059C51.0331 24.0518 51.5334 24.2247 52.1139 24.2247C53.0525 24.2247 53.843 23.953 54.4853 23.4095C55.1275 22.8537 55.4487 22.125 55.4487 21.2234ZM66.6862 15.3689V24.9287H65.6116V23.2057H65.5746C65.2782 23.8356 64.8335 24.3297 64.2407 24.6879C63.6478 25.0337 62.9932 25.2066 62.2768 25.2066C60.0412 25.2066 58.9235 23.9962 58.9235 21.5754V15.3689H60.0907V21.5939C60.1154 22.4832 60.3191 23.144 60.702 23.5763C61.0973 24.0085 61.7457 24.2247 62.6473 24.2247C63.586 24.2247 64.2962 23.8542 64.7779 23.1131C65.272 22.3597 65.519 21.4519 65.519 20.3896V15.3689H66.6862ZM68.8929 24.9287V15.3689H69.9675V17.6106H70.0045C70.3009 16.8202 70.7641 16.2211 71.394 15.8135C72.0239 15.3936 72.765 15.2021 73.6172 15.2392V16.4064C72.5797 16.357 71.7275 16.6658 71.0605 17.3327C70.3936 17.9873 70.0601 18.821 70.0601 19.8338V24.9287H68.8929ZM75.7928 18.2961H74.6256C74.6874 17.2092 75.0579 16.4064 75.7372 15.8876C76.4289 15.3565 77.3491 15.091 78.4977 15.091C80.8445 15.091 82.0178 16.1161 82.0178 18.1664V23.2428C82.0178 23.7121 82.2463 23.9468 82.7033 23.9468C82.8392 23.9468 82.9627 23.9221 83.0739 23.8727V24.8546C82.8268 24.904 82.5736 24.9287 82.3143 24.9287C81.7708 24.9287 81.4064 24.7928 81.2212 24.5211C81.0359 24.237 80.9433 23.8171 80.9433 23.2613H80.9062C80.4492 23.9406 79.9675 24.4347 79.4611 24.7434C78.9671 25.0522 78.2878 25.2066 77.4232 25.2066C76.4845 25.2066 75.7125 24.9719 75.1073 24.5026C74.5145 24.0332 74.2181 23.3354 74.2181 22.4091C74.2181 22.0632 74.2675 21.7545 74.3663 21.4827C74.4651 21.1987 74.5762 20.964 74.6997 20.7787C74.8356 20.5811 75.0394 20.4082 75.3111 20.26C75.5952 20.0994 75.8361 19.9821 76.0337 19.908C76.2313 19.8215 76.5277 19.7412 76.923 19.6671C77.3306 19.593 77.6393 19.5436 77.8493 19.5189C78.0593 19.4818 78.3989 19.4386 78.8683 19.3892C79.0782 19.3645 79.2388 19.346 79.35 19.3336C79.8934 19.2842 80.2763 19.1792 80.4986 19.0187C80.7333 18.8457 80.8506 18.5184 80.8506 18.0367C80.8506 17.308 80.6283 16.8016 80.1837 16.5175C79.739 16.2211 79.1277 16.0729 78.3495 16.0729C77.5838 16.0729 76.9724 16.2582 76.5154 16.6287C76.0584 16.9869 75.8175 17.5427 75.7928 18.2961ZM80.8506 21.2234V19.7042H80.8136C80.7148 19.8894 80.3875 20.0315 79.8317 20.1303C79.6217 20.1673 79.2882 20.2229 78.8312 20.297C78.3742 20.3588 78.0222 20.4144 77.7752 20.4638C77.5282 20.5008 77.2256 20.5749 76.8674 20.6861C76.5215 20.7849 76.256 20.896 76.0707 21.0196C75.8978 21.1431 75.7372 21.3222 75.589 21.5568C75.4532 21.7792 75.3852 22.0385 75.3852 22.335C75.3852 22.9031 75.5952 23.3601 76.0152 23.7059C76.4351 24.0518 76.9353 24.2247 77.5158 24.2247C78.4545 24.2247 79.245 23.953 79.8872 23.4095C80.5295 22.8537 80.8506 22.125 80.8506 21.2234ZM84.3254 24.9287V15.3689H85.4926V17.0178H85.5297C85.752 16.4496 86.1472 15.9864 86.7154 15.6283C87.2835 15.2701 87.9073 15.091 88.5866 15.091C89.8711 15.091 90.7727 15.4059 91.2915 16.0359C91.8226 16.6534 92.0881 17.5674 92.0881 18.7778V24.9287H90.921V18.9631C90.921 17.0363 90.112 16.0729 88.494 16.0729C87.58 16.0729 86.8574 16.3817 86.3263 16.9992C85.7952 17.6045 85.5173 18.3888 85.4926 19.3521V24.9287H84.3254ZM96.1475 12.4972V15.3689H98.0929V16.3508H96.1475V22.7981C96.1475 23.2181 96.2093 23.5269 96.3328 23.7245C96.4563 23.9221 96.7095 24.0332 97.0924 24.058C97.4259 24.058 97.7594 24.0394 98.0929 24.0024V25.0028C97.9817 25.0028 97.8088 25.009 97.5741 25.0213C97.3394 25.0337 97.1665 25.0399 97.0554 25.0399C96.2772 25.0399 95.7338 24.8855 95.425 24.5767C95.1162 24.2679 94.968 23.7059 94.9804 22.8908V16.3508H93.3129V15.3689H94.9804V12.4972H96.1475ZM106.669 18.1664H105.502C105.477 17.4748 105.23 16.956 104.761 16.6102C104.291 16.252 103.705 16.0729 103.001 16.0729C102.395 16.0729 101.864 16.2088 101.407 16.4805C100.963 16.7399 100.74 17.1536 100.74 17.7218C100.74 18.4629 101.401 19.0001 102.723 19.3336L104.279 19.6856C105.045 19.7968 105.687 20.0747 106.206 20.5193C106.737 20.964 107.002 21.5692 107.002 22.335C107.002 23.286 106.613 24.0024 105.835 24.4841C105.069 24.9658 104.18 25.2066 103.167 25.2066C100.746 25.2066 99.4373 24.0827 99.2396 21.8347H100.407C100.456 22.6005 100.734 23.1934 101.241 23.6133C101.759 24.0209 102.42 24.2247 103.223 24.2247C103.89 24.2247 104.489 24.0765 105.02 23.7801C105.563 23.4713 105.835 23.0143 105.835 22.4091C105.835 21.9027 105.65 21.526 105.279 21.2789C104.909 21.0319 104.396 20.8281 103.742 20.6675L102.241 20.3341C101.364 20.1117 100.697 19.8153 100.24 19.4448C99.7954 19.0742 99.5731 18.5184 99.5731 17.7774C99.5731 16.8757 99.9313 16.2026 100.648 15.758C101.364 15.3133 102.204 15.091 103.167 15.091C104.168 15.091 104.989 15.3565 105.631 15.8876C106.274 16.4064 106.619 17.166 106.669 18.1664Z" fill="white"/>
</g>
<defs>
<filter id="filter0_b_1132_427" x="-55.5804" y="-55.5804" width="230.875" height="147.018" filterUnits="userSpaceOnUse" color-interpolation-filters="sRGB">
<feFlood flood-opacity="0" result="BackgroundImageFix"/>
<feGaussianBlur in="BackgroundImageFix" stdDeviation="27.7902"/>
<feComposite in2="SourceAlpha" operator="in" result="effect1_backgroundBlur_1132_427"/>
<feBlend mode="normal" in="SourceGraphic" in2="effect1_backgroundBlur_1132_427" result="shape"/>
</filter>
<radialGradient id="paint0_radial_1132_427" cx="0" cy="0" r="1" gradientUnits="userSpaceOnUse" gradientTransform="translate(1.0768 1.06682) rotate(16.1719) scale(121.613 104.113)">
<stop stop-color="white" stop-opacity="0.4"/>
<stop offset="1" stop-color="white" stop-opacity="0"/>
</radialGradient>
<radialGradient id="paint1_radial_1132_427" cx="0" cy="0" r="1" gradientUnits="userSpaceOnUse" gradientTransform="translate(1.0768 1.06682) rotate(16.1719) scale(121.613 104.113)">
<stop stop-color="#D8D8D8" stop-opacity="0"/>
<stop offset="1" stop-color="#D8D8D8"/>
</radialGradient>
<radialGradient id="paint2_radial_1132_427" cx="0" cy="0" r="1" gradientUnits="userSpaceOnUse" gradientTransform="translate(1.64686 34.7607) rotate(-16.1662) scale(121.016 103.462)">
<stop stop-color="#D8D8D8" stop-opacity="0"/>
<stop offset="1" stop-color="#D8D8D8"/>
</radialGradient>
<linearGradient id="paint3_linear_1132_427" x1="2.21693" y1="0.977922" x2="52.5528" y2="77.7582" gradientUnits="userSpaceOnUse">
<stop stop-color="white" stop-opacity="0.9"/>
<stop offset="1" stop-color="white" stop-opacity="0"/>
</linearGradient>
</defs>
</svg>
