<svg width="180" height="36" viewBox="0 0 180 36" fill="none" xmlns="http://www.w3.org/2000/svg">
<g filter="url(#filter0_b_1132_430)">
<rect x="0.714355" width="178.714" height="35.8571" rx="17.9286" fill="url(#paint0_radial_1132_430)"/>
<rect x="1.08489" y="0.370536" width="177.973" height="35.1161" rx="17.558" stroke="url(#paint1_radial_1132_430)" stroke-width="0.741071"/>
<rect x="1.08489" y="0.370536" width="177.973" height="35.1161" rx="17.558" stroke="url(#paint2_radial_1132_430)" stroke-width="0.741071"/>
<rect x="1.08489" y="0.370536" width="177.973" height="35.1161" rx="17.558" stroke="url(#paint3_linear_1132_430)" stroke-width="0.741071"/>
<path d="M13.9055 24.9287V11.7006H15.1653V23.8542H22.576V24.9287H13.9055ZM24.3566 16.5546C25.1594 15.5789 26.2649 15.091 27.6729 15.091C29.0809 15.091 30.1864 15.5789 30.9892 16.5546C31.792 17.518 32.1934 18.7161 32.1934 20.1488C32.1934 21.5815 31.792 22.7858 30.9892 23.7615C30.1864 24.7249 29.0809 25.2066 27.6729 25.2066C26.2649 25.2066 25.1594 24.7249 24.3566 23.7615C23.5538 22.7858 23.1524 21.5815 23.1524 20.1488C23.1524 18.7161 23.5538 17.518 24.3566 16.5546ZM30.137 17.2957C29.5441 16.4805 28.7227 16.0729 27.6729 16.0729C26.623 16.0729 25.8017 16.4805 25.2088 17.2957C24.616 18.0985 24.3195 19.0495 24.3195 20.1488C24.3195 21.2481 24.616 22.2053 25.2088 23.0205C25.8017 23.8233 26.623 24.2247 27.6729 24.2247C28.7227 24.2247 29.5441 23.8233 30.137 23.0205C30.7298 22.2053 31.0262 21.2481 31.0262 20.1488C31.0262 19.0495 30.7298 18.0985 30.137 17.2957ZM42.0064 15.3689V24.1506C42.0064 25.6451 41.6729 26.7814 41.006 27.5595C40.339 28.35 39.2583 28.7452 37.7638 28.7452C36.7139 28.7452 35.8061 28.4982 35.0403 28.0042C34.2869 27.5225 33.8731 26.8061 33.799 25.8551H34.9662C35.0774 26.5097 35.3923 26.9914 35.9111 27.3001C36.4298 27.6089 37.0474 27.7633 37.7638 27.7633C38.826 27.7633 39.6041 27.4607 40.0981 26.8555C40.5922 26.2503 40.8392 25.3487 40.8392 24.1506V22.8537H40.8022C40.5304 23.4589 40.1228 23.9406 39.5794 24.2988C39.0483 24.6446 38.4431 24.8176 37.7638 24.8176C36.3063 24.8176 35.2194 24.3667 34.503 23.4651C33.799 22.5635 33.447 21.3777 33.447 19.908C33.447 18.537 33.8299 17.3945 34.5957 16.4805C35.3738 15.5542 36.4298 15.091 37.7638 15.091C38.4431 15.091 39.0545 15.2763 39.5979 15.6468C40.1537 16.005 40.5551 16.462 40.8022 17.0178H40.8392V15.3689H42.0064ZM37.7638 23.8356C38.7272 23.8356 39.4806 23.4651 40.024 22.724C40.5675 21.9706 40.8392 21.0751 40.8392 20.0376C40.8392 18.9754 40.5798 18.0491 40.0611 17.2586C39.5547 16.4681 38.7889 16.0729 37.7638 16.0729C36.7263 16.0729 35.942 16.462 35.4109 17.2401C34.8798 18.0059 34.6142 18.9384 34.6142 20.0376C34.6142 21.0875 34.8798 21.983 35.4109 22.724C35.9543 23.4651 36.7386 23.8356 37.7638 23.8356ZM44.2419 13.5718V11.7006H45.4091V13.5718H44.2419ZM44.2419 24.9287V15.3689H45.4091V24.9287H44.2419ZM54.5348 18.1664H53.3677C53.343 17.4748 53.0959 16.956 52.6266 16.6102C52.1572 16.252 51.5706 16.0729 50.8665 16.0729C50.2613 16.0729 49.7302 16.2088 49.2732 16.4805C48.8286 16.7399 48.6063 17.1536 48.6063 17.7218C48.6063 18.4629 49.2671 19.0001 50.5886 19.3336L52.1449 19.6856C52.9107 19.7968 53.5529 20.0747 54.0717 20.5193C54.6028 20.964 54.8683 21.5692 54.8683 22.335C54.8683 23.286 54.4793 24.0024 53.7011 24.4841C52.9354 24.9658 52.0461 25.2066 51.0333 25.2066C48.6125 25.2066 47.3032 24.0827 47.1056 21.8347H48.2728C48.3222 22.6005 48.6001 23.1934 49.1065 23.6133C49.6253 24.0209 50.286 24.2247 51.0889 24.2247C51.7558 24.2247 52.3549 24.0765 52.886 23.7801C53.4294 23.4713 53.7011 23.0143 53.7011 22.4091C53.7011 21.9027 53.5159 21.526 53.1453 21.2789C52.7748 21.0319 52.2622 20.8281 51.6076 20.6675L50.1069 20.3341C49.23 20.1117 48.563 19.8153 48.1061 19.4448C47.6614 19.0742 47.4391 18.5184 47.4391 17.7774C47.4391 16.8757 47.7973 16.2026 48.5136 15.758C49.23 15.3133 50.0699 15.091 51.0333 15.091C52.0337 15.091 52.8551 15.3565 53.4973 15.8876C54.1396 16.4064 54.4854 17.166 54.5348 18.1664ZM58.4152 12.4972V15.3689H60.3605V16.3508H58.4152V22.7981C58.4152 23.2181 58.477 23.5269 58.6005 23.7245C58.724 23.9221 58.9772 24.0332 59.3601 24.058C59.6935 24.058 60.027 24.0394 60.3605 24.0024V25.0028C60.2494 25.0028 60.0764 25.009 59.8418 25.0213C59.6071 25.0337 59.4342 25.0399 59.323 25.0399C58.5449 25.0399 58.0014 24.8855 57.6927 24.5767C57.3839 24.2679 57.2357 23.7059 57.248 22.8908V16.3508H55.5806V15.3689H57.248V12.4972H58.4152ZM62.0631 13.5718V11.7006H63.2303V13.5718H62.0631ZM62.0631 24.9287V15.3689H63.2303V24.9287H62.0631ZM73.375 18.3702H72.2078C71.8743 16.8387 70.9727 16.0729 69.5029 16.0729C68.4531 16.0729 67.6317 16.4805 67.0388 17.2957C66.446 18.0985 66.1496 19.0495 66.1496 20.1488C66.1496 21.2481 66.446 22.2053 67.0388 23.0205C67.6317 23.8233 68.4531 24.2247 69.5029 24.2247C70.2193 24.2247 70.843 23.9653 71.3741 23.4466C71.9052 22.9278 72.2078 22.2794 72.2819 21.5013H73.4491C73.2885 22.6623 72.8563 23.5701 72.1522 24.2247C71.4606 24.8793 70.5775 25.2066 69.5029 25.2066C68.0949 25.2066 66.9894 24.7249 66.1866 23.7615C65.3838 22.7858 64.9824 21.5815 64.9824 20.1488C64.9824 18.7161 65.3838 17.518 66.1866 16.5546C66.9894 15.5789 68.0949 15.091 69.5029 15.091C70.5651 15.091 71.442 15.3689 72.1337 15.9247C72.8254 16.4805 73.2391 17.2957 73.375 18.3702ZM88.1385 18.3702H86.9713C86.6379 16.8387 85.7362 16.0729 84.2664 16.0729C83.2166 16.0729 82.3952 16.4805 81.8024 17.2957C81.2095 18.0985 80.9131 19.0495 80.9131 20.1488C80.9131 21.2481 81.2095 22.2053 81.8024 23.0205C82.3952 23.8233 83.2166 24.2247 84.2664 24.2247C84.9828 24.2247 85.6065 23.9653 86.1376 23.4466C86.6687 22.9278 86.9713 22.2794 87.0455 21.5013H88.2126C88.0521 22.6623 87.6198 23.5701 86.9158 24.2247C86.2241 24.8793 85.341 25.2066 84.2664 25.2066C82.8584 25.2066 81.753 24.7249 80.9501 23.7615C80.1473 22.7858 79.7459 21.5815 79.7459 20.1488C79.7459 18.7161 80.1473 17.518 80.9501 16.5546C81.753 15.5789 82.8584 15.091 84.2664 15.091C85.3286 15.091 86.2056 15.3689 86.8972 15.9247C87.5889 16.4805 88.0027 17.2957 88.1385 18.3702ZM90.5573 16.5546C91.3601 15.5789 92.4655 15.091 93.8736 15.091C95.2816 15.091 96.3871 15.5789 97.1899 16.5546C97.9927 17.518 98.3941 18.7161 98.3941 20.1488C98.3941 21.5815 97.9927 22.7858 97.1899 23.7615C96.3871 24.7249 95.2816 25.2066 93.8736 25.2066C92.4655 25.2066 91.3601 24.7249 90.5573 23.7615C89.7545 22.7858 89.353 21.5815 89.353 20.1488C89.353 18.7161 89.7545 17.518 90.5573 16.5546ZM96.3376 17.2957C95.7448 16.4805 94.9234 16.0729 93.8736 16.0729C92.8237 16.0729 92.0024 16.4805 91.4095 17.2957C90.8167 18.0985 90.5202 19.0495 90.5202 20.1488C90.5202 21.2481 90.8167 22.2053 91.4095 23.0205C92.0024 23.8233 92.8237 24.2247 93.8736 24.2247C94.9234 24.2247 95.7448 23.8233 96.3376 23.0205C96.9305 22.2053 97.2269 21.2481 97.2269 20.1488C97.2269 19.0495 96.9305 18.0985 96.3376 17.2957ZM100.129 24.9287V15.3689H101.204V16.9807H101.26C101.914 15.7209 102.958 15.091 104.391 15.091C105.045 15.091 105.62 15.2516 106.114 15.5727C106.62 15.8938 106.96 16.357 107.133 16.9622C107.404 16.357 107.812 15.8938 108.355 15.5727C108.911 15.2516 109.516 15.091 110.171 15.091C112.283 15.091 113.339 16.2088 113.339 18.4443V24.9287H112.172V18.4999C112.172 17.6847 111.999 17.0795 111.653 16.6843C111.307 16.2767 110.727 16.0729 109.912 16.0729C108.182 16.0729 107.318 17.2216 107.318 19.5189V24.9287H106.151V18.4443C106.151 16.8634 105.484 16.0729 104.15 16.0729C103.199 16.0729 102.482 16.394 102.001 17.0363C101.531 17.6786 101.297 18.5308 101.297 19.593V24.9287H100.129ZM115.562 28.4673V15.3689H116.637V17.1845H116.674C116.946 16.5299 117.384 16.0173 117.989 15.6468C118.607 15.2763 119.305 15.091 120.083 15.091C121.466 15.091 122.528 15.5727 123.27 16.5361C124.011 17.4995 124.381 18.7037 124.381 20.1488C124.381 21.5939 124.011 22.7981 123.27 23.7615C122.528 24.7249 121.466 25.2066 120.083 25.2066C119.342 25.2066 118.663 25.0275 118.045 24.6693C117.427 24.2988 117.001 23.7801 116.767 23.1131H116.73V28.4673H115.562ZM122.899 22.0941C123.109 21.5013 123.214 20.8528 123.214 20.1488C123.214 19.4448 123.109 18.7963 122.899 18.2035C122.701 17.6106 122.356 17.1104 121.861 16.7028C121.38 16.2829 120.787 16.0729 120.083 16.0729C117.847 16.0729 116.73 17.4315 116.73 20.1488C116.73 21.2728 117.001 22.2362 117.545 23.039C118.101 23.8295 118.947 24.2247 120.083 24.2247C120.787 24.2247 121.38 24.0209 121.861 23.6133C122.356 23.1934 122.701 22.687 122.899 22.0941ZM127.257 18.2961H126.09C126.151 17.2092 126.522 16.4064 127.201 15.8876C127.893 15.3565 128.813 15.091 129.962 15.091C132.308 15.091 133.482 16.1161 133.482 18.1664V23.2428C133.482 23.7121 133.71 23.9468 134.167 23.9468C134.303 23.9468 134.427 23.9221 134.538 23.8727V24.8546C134.291 24.904 134.038 24.9287 133.778 24.9287C133.235 24.9287 132.87 24.7928 132.685 24.5211C132.5 24.237 132.407 23.8171 132.407 23.2613H132.37C131.913 23.9406 131.432 24.4347 130.925 24.7434C130.431 25.0522 129.752 25.2066 128.887 25.2066C127.948 25.2066 127.177 24.9719 126.571 24.5026C125.978 24.0332 125.682 23.3354 125.682 22.4091C125.682 22.0632 125.731 21.7545 125.83 21.4827C125.929 21.1987 126.04 20.964 126.164 20.7787C126.3 20.5811 126.503 20.4082 126.775 20.26C127.059 20.0994 127.3 19.9821 127.498 19.908C127.695 19.8215 127.992 19.7412 128.387 19.6671C128.795 19.593 129.103 19.5436 129.313 19.5189C129.523 19.4818 129.863 19.4386 130.332 19.3892C130.542 19.3645 130.703 19.346 130.814 19.3336C131.357 19.2842 131.74 19.1792 131.963 19.0187C132.197 18.8457 132.315 18.5184 132.315 18.0367C132.315 17.308 132.092 16.8016 131.648 16.5175C131.203 16.2211 130.592 16.0729 129.814 16.0729C129.048 16.0729 128.436 16.2582 127.979 16.6287C127.522 16.9869 127.282 17.5427 127.257 18.2961ZM132.315 21.2234V19.7042H132.278C132.179 19.8894 131.851 20.0315 131.296 20.1303C131.086 20.1673 130.752 20.2229 130.295 20.297C129.838 20.3588 129.486 20.4144 129.239 20.4638C128.992 20.5008 128.69 20.5749 128.331 20.6861C127.986 20.7849 127.72 20.896 127.535 21.0196C127.362 21.1431 127.201 21.3222 127.053 21.5568C126.917 21.7792 126.849 22.0385 126.849 22.335C126.849 22.9031 127.059 23.3601 127.479 23.7059C127.899 24.0518 128.399 24.2247 128.98 24.2247C129.919 24.2247 130.709 23.953 131.351 23.4095C131.994 22.8537 132.315 22.125 132.315 21.2234ZM135.789 24.9287V15.3689H136.957V17.0178H136.994C137.216 16.4496 137.611 15.9864 138.179 15.6283C138.748 15.2701 139.371 15.091 140.051 15.091C141.335 15.091 142.237 15.4059 142.756 16.0359C143.287 16.6534 143.552 17.5674 143.552 18.7778V24.9287H142.385V18.9631C142.385 17.0363 141.576 16.0729 139.958 16.0729C139.044 16.0729 138.321 16.3817 137.79 16.9992C137.259 17.6045 136.981 18.3888 136.957 19.3521V24.9287H135.789ZM145.777 13.5718V11.7006H146.945V13.5718H145.777ZM145.777 24.9287V15.3689H146.945V24.9287H145.777ZM157.219 20.4638H149.864C149.864 21.4395 150.129 22.3103 150.661 23.076C151.204 23.8418 151.988 24.2247 153.013 24.2247C154.607 24.2247 155.607 23.4095 156.015 21.7792H157.182C156.651 24.0641 155.261 25.2066 153.013 25.2066C151.581 25.2066 150.5 24.7311 149.771 23.7801C149.055 22.829 148.697 21.6186 148.697 20.1488C148.697 19.2595 148.839 18.4505 149.123 17.7218C149.407 16.9807 149.882 16.357 150.549 15.8506C151.229 15.3442 152.05 15.091 153.013 15.091C153.989 15.091 154.804 15.3565 155.459 15.8876C156.126 16.4187 156.595 17.0795 156.867 17.87C157.139 18.6605 157.256 19.5251 157.219 20.4638ZM149.864 19.4818H156.052C156.027 18.5555 155.737 17.7588 155.181 17.0919C154.625 16.4126 153.903 16.0729 153.013 16.0729C152.112 16.0729 151.389 16.4064 150.846 17.0734C150.302 17.728 149.975 18.5308 149.864 19.4818ZM165.677 18.1664H164.51C164.486 17.4748 164.239 16.956 163.769 16.6102C163.3 16.252 162.713 16.0729 162.009 16.0729C161.404 16.0729 160.873 16.2088 160.416 16.4805C159.971 16.7399 159.749 17.1536 159.749 17.7218C159.749 18.4629 160.41 19.0001 161.731 19.3336L163.288 19.6856C164.053 19.7968 164.696 20.0747 165.214 20.5193C165.745 20.964 166.011 21.5692 166.011 22.335C166.011 23.286 165.622 24.0024 164.844 24.4841C164.078 24.9658 163.189 25.2066 162.176 25.2066C159.755 25.2066 158.446 24.0827 158.248 21.8347H159.415C159.465 22.6005 159.743 23.1934 160.249 23.6133C160.768 24.0209 161.429 24.2247 162.231 24.2247C162.898 24.2247 163.497 24.0765 164.029 23.7801C164.572 23.4713 164.844 23.0143 164.844 22.4091C164.844 21.9027 164.659 21.526 164.288 21.2789C163.917 21.0319 163.405 20.8281 162.75 20.6675L161.25 20.3341C160.373 20.1117 159.706 19.8153 159.249 19.4448C158.804 19.0742 158.582 18.5184 158.582 17.7774C158.582 16.8757 158.94 16.2026 159.656 15.758C160.373 15.3133 161.213 15.091 162.176 15.091C163.176 15.091 163.998 15.3565 164.64 15.8876C165.282 16.4064 165.628 17.166 165.677 18.1664Z" fill="white"/>
</g>
<defs>
<filter id="filter0_b_1132_430" x="-54.866" y="-55.5804" width="289.875" height="147.018" filterUnits="userSpaceOnUse" color-interpolation-filters="sRGB">
<feFlood flood-opacity="0" result="BackgroundImageFix"/>
<feGaussianBlur in="BackgroundImageFix" stdDeviation="27.7902"/>
<feComposite in2="SourceAlpha" operator="in" result="effect1_backgroundBlur_1132_430"/>
<feBlend mode="normal" in="SourceGraphic" in2="effect1_backgroundBlur_1132_430" result="shape"/>
</filter>
<radialGradient id="paint0_radial_1132_430" cx="0" cy="0" r="1" gradientUnits="userSpaceOnUse" gradientTransform="translate(2.32185 1.06682) rotate(10.9932) scale(177.624 106.413)">
<stop stop-color="white" stop-opacity="0.4"/>
<stop offset="1" stop-color="white" stop-opacity="0"/>
</radialGradient>
<radialGradient id="paint1_radial_1132_430" cx="0" cy="0" r="1" gradientUnits="userSpaceOnUse" gradientTransform="translate(2.32185 1.06682) rotate(10.9932) scale(177.624 106.413)">
<stop stop-color="#D8D8D8" stop-opacity="0"/>
<stop offset="1" stop-color="#D8D8D8"/>
</radialGradient>
<radialGradient id="paint2_radial_1132_430" cx="0" cy="0" r="1" gradientUnits="userSpaceOnUse" gradientTransform="translate(3.17286 34.7607) rotate(-10.9893) scale(176.755 105.746)">
<stop stop-color="#D8D8D8" stop-opacity="0"/>
<stop offset="1" stop-color="#D8D8D8"/>
</radialGradient>
<linearGradient id="paint3_linear_1132_430" x1="4.02388" y1="0.977922" x2="44.4394" y2="93.0089" gradientUnits="userSpaceOnUse">
<stop stop-color="white" stop-opacity="0.9"/>
<stop offset="1" stop-color="white" stop-opacity="0"/>
</linearGradient>
</defs>
</svg>
