<svg width="97" height="36" viewBox="0 0 97 36" fill="none" xmlns="http://www.w3.org/2000/svg">
<g filter="url(#filter0_b_1132_434)">
<rect x="0.428711" width="95.7143" height="35.8571" rx="17.9286" fill="url(#paint0_radial_1132_434)"/>
<rect x="0.799247" y="0.370536" width="94.9732" height="35.1161" rx="17.558" stroke="url(#paint1_radial_1132_434)" stroke-width="0.741071"/>
<rect x="0.799247" y="0.370536" width="94.9732" height="35.1161" rx="17.558" stroke="url(#paint2_radial_1132_434)" stroke-width="0.741071"/>
<rect x="0.799247" y="0.370536" width="94.9732" height="35.1161" rx="17.558" stroke="url(#paint3_linear_1132_434)" stroke-width="0.741071"/>
<path d="M12.9529 20.5749H14.2127C14.1633 22.9463 15.6022 24.1321 18.5294 24.1321C19.0358 24.1321 19.5422 24.0518 20.0486 23.8912C20.5674 23.7183 21.0244 23.4157 21.4196 22.9834C21.8272 22.5511 22.031 22.0385 22.031 21.4457C22.031 20.2847 21.1232 19.488 19.3075 19.0557L16.3618 18.3332C15.4478 18.0985 14.7191 17.7465 14.1756 17.2771C13.6445 16.8078 13.379 16.0976 13.379 15.1466C13.379 14.776 13.4469 14.3993 13.5828 14.0164C13.7186 13.6212 13.9409 13.2198 14.2497 12.8122C14.5585 12.4046 15.0279 12.0711 15.6578 11.8117C16.3 11.5524 17.0596 11.4227 17.9366 11.4227C19.3322 11.4227 20.4933 11.7809 21.4196 12.4972C22.3583 13.2136 22.8276 14.2264 22.8276 15.5356H21.5678C21.5184 14.5722 21.1479 13.825 20.4562 13.2939C19.7769 12.7628 18.9432 12.4972 17.9551 12.4972C16.9917 12.4972 16.195 12.7072 15.5651 13.1271C14.9476 13.5471 14.6388 14.2141 14.6388 15.128C14.6388 16.1779 15.3058 16.851 16.6397 17.1475L19.8633 17.9441C20.9379 18.2282 21.7778 18.6358 22.383 19.1669C22.9882 19.6856 23.2908 20.4391 23.2908 21.4271C23.2908 21.6742 23.2661 21.9274 23.2167 22.1867C23.1796 22.4338 23.0561 22.7549 22.8462 23.1501C22.6485 23.533 22.383 23.8665 22.0495 24.1506C21.716 24.4347 21.2158 24.6817 20.5488 24.8917C19.8942 25.1016 19.1223 25.2066 18.233 25.2066C16.5779 25.2066 15.2625 24.8237 14.2868 24.058C13.3234 23.2798 12.8787 22.1188 12.9529 20.5749ZM26.9199 12.4972V15.3689H28.8652V16.3508H26.9199V22.7981C26.9199 23.2181 26.9816 23.5269 27.1051 23.7245C27.2287 23.9221 27.4819 24.0332 27.8647 24.058C28.1982 24.058 28.5317 24.0394 28.8652 24.0024V25.0028C28.754 25.0028 28.5811 25.009 28.3464 25.0213C28.1118 25.0337 27.9389 25.0399 27.8277 25.0399C27.0496 25.0399 26.5061 24.8855 26.1973 24.5767C25.8886 24.2679 25.7403 23.7059 25.7527 22.8908V16.3508H24.0853V15.3689H25.7527V12.4972H26.9199ZM38.2934 15.3689V24.9287H37.2189V23.2057H37.1818C36.8854 23.8356 36.4408 24.3297 35.8479 24.6879C35.2551 25.0337 34.6004 25.2066 33.8841 25.2066C31.6485 25.2066 30.5307 23.9962 30.5307 21.5754V15.3689H31.6979V21.5939C31.7226 22.4832 31.9264 23.144 32.3093 23.5763C32.7045 24.0085 33.353 24.2247 34.2546 24.2247C35.1933 24.2247 35.9035 23.8542 36.3852 23.1131C36.8792 22.3597 37.1263 21.4519 37.1263 20.3896V15.3689H38.2934ZM48.9113 11.7006V24.9287H47.8368V23.1131H47.7997C47.5527 23.7306 47.1019 24.237 46.4473 24.6323C45.7926 25.0152 45.1072 25.2066 44.3908 25.2066C43.0074 25.2066 41.9452 24.7249 41.2042 23.7615C40.4631 22.7981 40.0926 21.5939 40.0926 20.1488C40.0926 18.7037 40.4631 17.4995 41.2042 16.5361C41.9452 15.5727 43.0074 15.091 44.3908 15.091C45.1319 15.091 45.8112 15.2763 46.4287 15.6468C47.0463 16.0173 47.4724 16.5299 47.7071 17.1845H47.7441V11.7006H48.9113ZM41.5562 18.2035C41.3586 18.7963 41.2598 19.4448 41.2598 20.1488C41.2598 20.8528 41.3586 21.5013 41.5562 22.0941C41.7662 22.687 42.112 23.1934 42.5937 23.6133C43.0877 24.0209 43.6868 24.2247 44.3908 24.2247C45.5271 24.2247 46.367 23.8295 46.9104 23.039C47.4662 22.2362 47.7441 21.2728 47.7441 20.1488C47.7441 19.0248 47.4662 18.0676 46.9104 17.2771C46.367 16.4743 45.5271 16.0729 44.3908 16.0729C43.6868 16.0729 43.0877 16.2829 42.5937 16.7028C42.112 17.1104 41.7662 17.6106 41.5562 18.2035ZM59.1792 20.4638H51.8241C51.8241 21.4395 52.0896 22.3103 52.6207 23.076C53.1642 23.8418 53.9485 24.2247 54.9736 24.2247C56.5669 24.2247 57.5674 23.4095 57.975 21.7792H59.1422C58.6111 24.0641 57.2215 25.2066 54.9736 25.2066C53.5409 25.2066 52.4602 24.7311 51.7314 23.7801C51.0151 22.829 50.6569 21.6186 50.6569 20.1488C50.6569 19.2595 50.7989 18.4505 51.083 17.7218C51.3671 16.9807 51.8426 16.357 52.5096 15.8506C53.1889 15.3442 54.0102 15.091 54.9736 15.091C55.9494 15.091 56.7646 15.3565 57.4192 15.8876C58.0861 16.4187 58.5555 17.0795 58.8272 17.87C59.0989 18.6605 59.2163 19.5251 59.1792 20.4638ZM51.8241 19.4818H58.012C57.9873 18.5555 57.6971 17.7588 57.1413 17.0919C56.5855 16.4126 55.8629 16.0729 54.9736 16.0729C54.072 16.0729 53.3494 16.4064 52.806 17.0734C52.2625 17.728 51.9352 18.5308 51.8241 19.4818ZM60.7272 24.9287V15.3689H61.8944V17.0178H61.9315C62.1538 16.4496 62.549 15.9864 63.1172 15.6283C63.6853 15.2701 64.3091 15.091 64.9884 15.091C66.2729 15.091 67.1745 15.4059 67.6933 16.0359C68.2244 16.6534 68.4899 17.5674 68.4899 18.7778V24.9287H67.3227V18.9631C67.3227 17.0363 66.5137 16.0729 64.8957 16.0729C63.9818 16.0729 63.2592 16.3817 62.7281 16.9992C62.197 17.6045 61.9191 18.3888 61.8944 19.3521V24.9287H60.7272ZM72.5493 12.4972V15.3689H74.4946V16.3508H72.5493V22.7981C72.5493 23.2181 72.6111 23.5269 72.7346 23.7245C72.8581 23.9221 73.1113 24.0332 73.4942 24.058C73.8277 24.058 74.1612 24.0394 74.4946 24.0024V25.0028C74.3835 25.0028 74.2106 25.009 73.9759 25.0213C73.7412 25.0337 73.5683 25.0399 73.4571 25.0399C72.679 25.0399 72.1356 24.8855 71.8268 24.5767C71.518 24.2679 71.3698 23.7059 71.3821 22.8908V16.3508H69.7147V15.3689H71.3821V12.4972H72.5493ZM83.0707 18.1664H81.9035C81.8788 17.4748 81.6317 16.956 81.1624 16.6102C80.6931 16.252 80.1064 16.0729 79.4024 16.0729C78.7971 16.0729 78.266 16.2088 77.8091 16.4805C77.3644 16.7399 77.1421 17.1536 77.1421 17.7218C77.1421 18.4629 77.8029 19.0001 79.1245 19.3336L80.6807 19.6856C81.4465 19.7968 82.0887 20.0747 82.6075 20.5193C83.1386 20.964 83.4041 21.5692 83.4041 22.335C83.4041 23.286 83.0151 24.0024 82.237 24.4841C81.4712 24.9658 80.5819 25.2066 79.5691 25.2066C77.1483 25.2066 75.839 24.0827 75.6414 21.8347H76.8086C76.858 22.6005 77.1359 23.1934 77.6423 23.6133C78.1611 24.0209 78.8219 24.2247 79.6247 24.2247C80.2916 24.2247 80.8907 24.0765 81.4218 23.7801C81.9652 23.4713 82.237 23.0143 82.237 22.4091C82.237 21.9027 82.0517 21.526 81.6812 21.2789C81.3106 21.0319 80.798 20.8281 80.1434 20.6675L78.6428 20.3341C77.7658 20.1117 77.0989 19.8153 76.6419 19.4448C76.1972 19.0742 75.9749 18.5184 75.9749 17.7774C75.9749 16.8757 76.3331 16.2026 77.0495 15.758C77.7658 15.3133 78.6057 15.091 79.5691 15.091C80.5695 15.091 81.3909 15.3565 82.0332 15.8876C82.6754 16.4064 83.0213 17.166 83.0707 18.1664Z" fill="white"/>
</g>
<defs>
<filter id="filter0_b_1132_434" x="-55.1516" y="-55.5804" width="206.875" height="147.018" filterUnits="userSpaceOnUse" color-interpolation-filters="sRGB">
<feFlood flood-opacity="0" result="BackgroundImageFix"/>
<feGaussianBlur in="BackgroundImageFix" stdDeviation="27.7902"/>
<feComposite in2="SourceAlpha" operator="in" result="effect1_backgroundBlur_1132_434"/>
<feBlend mode="normal" in="SourceGraphic" in2="effect1_backgroundBlur_1132_434" result="shape"/>
</filter>
<radialGradient id="paint0_radial_1132_434" cx="0" cy="0" r="1" gradientUnits="userSpaceOnUse" gradientTransform="translate(1.28964 1.06682) rotate(19.9363) scale(99.3378 101.906)">
<stop stop-color="white" stop-opacity="0.4"/>
<stop offset="1" stop-color="white" stop-opacity="0"/>
</radialGradient>
<radialGradient id="paint1_radial_1132_434" cx="0" cy="0" r="1" gradientUnits="userSpaceOnUse" gradientTransform="translate(1.28964 1.06682) rotate(19.9363) scale(99.3378 101.906)">
<stop stop-color="#D8D8D8" stop-opacity="0"/>
<stop offset="1" stop-color="#D8D8D8"/>
</radialGradient>
<radialGradient id="paint2_radial_1132_434" cx="0" cy="0" r="1" gradientUnits="userSpaceOnUse" gradientTransform="translate(1.74541 34.7607) rotate(-19.9295) scale(98.8487 101.27)">
<stop stop-color="#D8D8D8" stop-opacity="0"/>
<stop offset="1" stop-color="#D8D8D8"/>
</radialGradient>
<linearGradient id="paint3_linear_1132_434" x1="2.2012" y1="0.977922" x2="56.0272" y2="66.6219" gradientUnits="userSpaceOnUse">
<stop stop-color="white" stop-opacity="0.9"/>
<stop offset="1" stop-color="white" stop-opacity="0"/>
</linearGradient>
</defs>
</svg>
