<svg width="107" height="36" viewBox="0 0 107 36" fill="none" xmlns="http://www.w3.org/2000/svg">
<g filter="url(#filter0_b_1132_436)">
<rect x="0.142822" width="106.714" height="35.8571" rx="17.9286" fill="url(#paint0_radial_1132_436)"/>
<rect x="0.513358" y="0.370536" width="105.973" height="35.1161" rx="17.558" stroke="url(#paint1_radial_1132_436)" stroke-width="0.741071"/>
<rect x="0.513358" y="0.370536" width="105.973" height="35.1161" rx="17.558" stroke="url(#paint2_radial_1132_436)" stroke-width="0.741071"/>
<rect x="0.513358" y="0.370536" width="105.973" height="35.1161" rx="17.558" stroke="url(#paint3_linear_1132_436)" stroke-width="0.741071"/>
<path d="M13.4266 24.9287V11.7006H14.6864V24.9287H13.4266ZM17.2001 24.9287V15.3689H18.3673V17.0178H18.4043C18.6267 16.4496 19.0219 15.9864 19.59 15.6283C20.1582 15.2701 20.7819 15.091 21.4613 15.091C22.7458 15.091 23.6474 15.4059 24.1662 16.0359C24.6973 16.6534 24.9628 17.5674 24.9628 18.7778V24.9287H23.7956V18.9631C23.7956 17.0363 22.9866 16.0729 21.3686 16.0729C20.4546 16.0729 19.7321 16.3817 19.201 16.9992C18.6699 17.6045 18.392 18.3888 18.3673 19.3521V24.9287H17.2001ZM35.5807 11.7006V24.9287H34.5061V23.1131H34.4691C34.2221 23.7306 33.7712 24.237 33.1166 24.6323C32.462 25.0152 31.7765 25.2066 31.0602 25.2066C29.6768 25.2066 28.6146 24.7249 27.8735 23.7615C27.1325 22.7981 26.7619 21.5939 26.7619 20.1488C26.7619 18.7037 27.1325 17.4995 27.8735 16.5361C28.6146 15.5727 29.6768 15.091 31.0602 15.091C31.8012 15.091 32.4805 15.2763 33.0981 15.6468C33.7157 16.0173 34.1418 16.5299 34.3765 17.1845H34.4135V11.7006H35.5807ZM28.2256 18.2035C28.0279 18.7963 27.9291 19.4448 27.9291 20.1488C27.9291 20.8528 28.0279 21.5013 28.2256 22.0941C28.4355 22.687 28.7814 23.1934 29.2631 23.6133C29.7571 24.0209 30.3561 24.2247 31.0602 24.2247C32.1965 24.2247 33.0363 23.8295 33.5798 23.039C34.1356 22.2362 34.4135 21.2728 34.4135 20.1488C34.4135 19.0248 34.1356 18.0676 33.5798 17.2771C33.0363 16.4743 32.1965 16.0729 31.0602 16.0729C30.3561 16.0729 29.7571 16.2829 29.2631 16.7028C28.7814 17.1104 28.4355 17.6106 28.2256 18.2035ZM37.8265 13.5718V11.7006H38.9937V13.5718H37.8265ZM37.8265 24.9287V15.3689H38.9937V24.9287H37.8265ZM43.8397 24.9287L40.1529 15.3689H41.4498L44.4511 23.7615H44.4882L47.4525 15.3689H48.6567L45.081 24.9287H43.8397ZM49.8219 13.5718V11.7006H50.989V13.5718H49.8219ZM49.8219 24.9287V15.3689H50.989V24.9287H49.8219ZM61.634 11.7006V24.9287H60.5594V23.1131H60.5224C60.2754 23.7306 59.8245 24.237 59.1699 24.6323C58.5153 25.0152 57.8298 25.2066 57.1135 25.2066C55.7301 25.2066 54.6679 24.7249 53.9268 23.7615C53.1858 22.7981 52.8152 21.5939 52.8152 20.1488C52.8152 18.7037 53.1858 17.4995 53.9268 16.5361C54.6679 15.5727 55.7301 15.091 57.1135 15.091C57.8545 15.091 58.5338 15.2763 59.1514 15.6468C59.769 16.0173 60.1951 16.5299 60.4297 17.1845H60.4668V11.7006H61.634ZM54.2789 18.2035C54.0812 18.7963 53.9824 19.4448 53.9824 20.1488C53.9824 20.8528 54.0812 21.5013 54.2789 22.0941C54.4888 22.687 54.8347 23.1934 55.3164 23.6133C55.8104 24.0209 56.4094 24.2247 57.1135 24.2247C58.2498 24.2247 59.0896 23.8295 59.6331 23.039C60.1889 22.2362 60.4668 21.2728 60.4668 20.1488C60.4668 19.0248 60.1889 18.0676 59.6331 17.2771C59.0896 16.4743 58.2498 16.0729 57.1135 16.0729C56.4094 16.0729 55.8104 16.2829 55.3164 16.7028C54.8347 17.1104 54.4888 17.6106 54.2789 18.2035ZM71.6054 15.3689V24.9287H70.5309V23.2057H70.4938C70.1974 23.8356 69.7528 24.3297 69.1599 24.6879C68.5671 25.0337 67.9124 25.2066 67.1961 25.2066C64.9605 25.2066 63.8427 23.9962 63.8427 21.5754V15.3689H65.0099V21.5939C65.0346 22.4832 65.2384 23.144 65.6213 23.5763C66.0165 24.0085 66.665 24.2247 67.5666 24.2247C68.5053 24.2247 69.2155 23.8542 69.6972 23.1131C70.1912 22.3597 70.4383 21.4519 70.4383 20.3896V15.3689H71.6054ZM74.8682 18.2961H73.701C73.7628 17.2092 74.1333 16.4064 74.8126 15.8876C75.5043 15.3565 76.4244 15.091 77.5731 15.091C79.9198 15.091 81.0932 16.1161 81.0932 18.1664V23.2428C81.0932 23.7121 81.3217 23.9468 81.7787 23.9468C81.9145 23.9468 82.0381 23.9221 82.1492 23.8727V24.8546C81.9022 24.904 81.649 24.9287 81.3896 24.9287C80.8462 24.9287 80.4818 24.7928 80.2965 24.5211C80.1113 24.237 80.0186 23.8171 80.0186 23.2613H79.9816C79.5246 23.9406 79.0429 24.4347 78.5365 24.7434C78.0424 25.0522 77.3631 25.2066 76.4985 25.2066C75.5599 25.2066 74.7879 24.9719 74.1827 24.5026C73.5898 24.0332 73.2934 23.3354 73.2934 22.4091C73.2934 22.0632 73.3428 21.7545 73.4416 21.4827C73.5404 21.1987 73.6516 20.964 73.7751 20.7787C73.911 20.5811 74.1148 20.4082 74.3865 20.26C74.6706 20.0994 74.9114 19.9821 75.109 19.908C75.3067 19.8215 75.6031 19.7412 75.9983 19.6671C76.4059 19.593 76.7147 19.5436 76.9247 19.5189C77.1346 19.4818 77.4743 19.4386 77.9436 19.3892C78.1536 19.3645 78.3142 19.346 78.4253 19.3336C78.9688 19.2842 79.3517 19.1792 79.574 19.0187C79.8087 18.8457 79.926 18.5184 79.926 18.0367C79.926 17.308 79.7037 16.8016 79.259 16.5175C78.8144 16.2211 78.203 16.0729 77.4249 16.0729C76.6591 16.0729 76.0477 16.2582 75.5907 16.6287C75.1337 16.9869 74.8929 17.5427 74.8682 18.2961ZM79.926 21.2234V19.7042H79.889C79.7901 19.8894 79.4628 20.0315 78.907 20.1303C78.6971 20.1673 78.3636 20.2229 77.9066 20.297C77.4496 20.3588 77.0976 20.4144 76.8506 20.4638C76.6035 20.5008 76.3009 20.5749 75.9427 20.6861C75.5969 20.7849 75.3314 20.896 75.1461 21.0196C74.9732 21.1431 74.8126 21.3222 74.6644 21.5568C74.5285 21.7792 74.4606 22.0385 74.4606 22.335C74.4606 22.9031 74.6706 23.3601 75.0905 23.7059C75.5105 24.0518 76.0107 24.2247 76.5912 24.2247C77.5299 24.2247 78.3204 23.953 78.9626 23.4095C79.6049 22.8537 79.926 22.125 79.926 21.2234ZM83.4378 24.9287V11.7006H84.605V24.9287H83.4378ZM93.7308 18.1664H92.5636C92.5389 17.4748 92.2919 16.956 91.8225 16.6102C91.3532 16.252 90.7665 16.0729 90.0625 16.0729C89.4573 16.0729 88.9262 16.2088 88.4692 16.4805C88.0245 16.7399 87.8022 17.1536 87.8022 17.7218C87.8022 18.4629 88.463 19.0001 89.7846 19.3336L91.3408 19.6856C92.1066 19.7968 92.7489 20.0747 93.2676 20.5193C93.7987 20.964 94.0643 21.5692 94.0643 22.335C94.0643 23.286 93.6752 24.0024 92.8971 24.4841C92.1313 24.9658 91.242 25.2066 90.2292 25.2066C87.8084 25.2066 86.4992 24.0827 86.3015 21.8347H87.4687C87.5181 22.6005 87.796 23.1934 88.3024 23.6133C88.8212 24.0209 89.482 24.2247 90.2848 24.2247C90.9518 24.2247 91.5508 24.0765 92.0819 23.7801C92.6253 23.4713 92.8971 23.0143 92.8971 22.4091C92.8971 21.9027 92.7118 21.526 92.3413 21.2789C91.9707 21.0319 91.4582 20.8281 90.8035 20.6675L89.3029 20.3341C88.4259 20.1117 87.759 19.8153 87.302 19.4448C86.8573 19.0742 86.635 18.5184 86.635 17.7774C86.635 16.8757 86.9932 16.2026 87.7096 15.758C88.4259 15.3133 89.2658 15.091 90.2292 15.091C91.2297 15.091 92.051 15.3565 92.6933 15.8876C93.3355 16.4064 93.6814 17.166 93.7308 18.1664Z" fill="white"/>
</g>
<defs>
<filter id="filter0_b_1132_436" x="-55.4375" y="-55.5804" width="217.875" height="147.018" filterUnits="userSpaceOnUse" color-interpolation-filters="sRGB">
<feFlood flood-opacity="0" result="BackgroundImageFix"/>
<feGaussianBlur in="BackgroundImageFix" stdDeviation="27.7902"/>
<feComposite in2="SourceAlpha" operator="in" result="effect1_backgroundBlur_1132_436"/>
<feBlend mode="normal" in="SourceGraphic" in2="effect1_backgroundBlur_1132_436" result="shape"/>
</filter>
<radialGradient id="paint0_radial_1132_436" cx="0" cy="0" r="1" gradientUnits="userSpaceOnUse" gradientTransform="translate(1.10269 1.06682) rotate(18.0209) scale(109.488 103.085)">
<stop stop-color="white" stop-opacity="0.4"/>
<stop offset="1" stop-color="white" stop-opacity="0"/>
</radialGradient>
<radialGradient id="paint1_radial_1132_436" cx="0" cy="0" r="1" gradientUnits="userSpaceOnUse" gradientTransform="translate(1.10269 1.06682) rotate(18.0209) scale(109.488 103.085)">
<stop stop-color="#D8D8D8" stop-opacity="0"/>
<stop offset="1" stop-color="#D8D8D8"/>
</radialGradient>
<radialGradient id="paint2_radial_1132_436" cx="0" cy="0" r="1" gradientUnits="userSpaceOnUse" gradientTransform="translate(1.61085 34.7607) rotate(-18.0147) scale(108.95 102.44)">
<stop stop-color="#D8D8D8" stop-opacity="0"/>
<stop offset="1" stop-color="#D8D8D8"/>
</radialGradient>
<linearGradient id="paint3_linear_1132_436" x1="2.11901" y1="0.977922" x2="54.5156" y2="72.2226" gradientUnits="userSpaceOnUse">
<stop stop-color="white" stop-opacity="0.9"/>
<stop offset="1" stop-color="white" stop-opacity="0"/>
</linearGradient>
</defs>
</svg>
