<svg width="72" height="37" viewBox="0 0 72 37" fill="none" xmlns="http://www.w3.org/2000/svg">
<g filter="url(#filter0_b_1132_438)">
<rect y="0.856934" width="71.7143" height="35.8571" rx="17.9286" fill="url(#paint0_radial_1132_438)"/>
<rect x="0.370536" y="1.22747" width="70.9732" height="35.1161" rx="17.558" stroke="url(#paint1_radial_1132_438)" stroke-width="0.741071"/>
<rect x="0.370536" y="1.22747" width="70.9732" height="35.1161" rx="17.558" stroke="url(#paint2_radial_1132_438)" stroke-width="0.741071"/>
<rect x="0.370536" y="1.22747" width="70.9732" height="35.1161" rx="17.558" stroke="url(#paint3_linear_1132_438)" stroke-width="0.741071"/>
<path d="M12.5241 21.4318H13.784C13.7346 23.8033 15.1735 24.989 18.1007 24.989C18.6071 24.989 19.1135 24.9087 19.6199 24.7481C20.1387 24.5752 20.5956 24.2726 20.9909 23.8403C21.3985 23.408 21.6023 22.8955 21.6023 22.3026C21.6023 21.1416 20.6945 20.3449 18.8788 19.9127L15.9331 19.1901C15.0191 18.9554 14.2904 18.6034 13.7469 18.1341C13.2158 17.6647 12.9503 16.9545 12.9503 16.0035C12.9503 15.633 13.0182 15.2563 13.1541 14.8734C13.2899 14.4781 13.5122 14.0767 13.821 13.6691C14.1298 13.2615 14.5991 12.9281 15.2291 12.6687C15.8713 12.4093 16.6309 12.2796 17.5078 12.2796C18.9035 12.2796 20.0645 12.6378 20.9909 13.3542C21.9296 14.0705 22.3989 15.0833 22.3989 16.3926H21.1391C21.0897 15.4292 20.7192 14.6819 20.0275 14.1508C19.3482 13.6197 18.5145 13.3542 17.5264 13.3542C16.563 13.3542 15.7663 13.5641 15.1364 13.9841C14.5189 14.404 14.2101 15.071 14.2101 15.985C14.2101 17.0348 14.877 17.708 16.211 18.0044L19.4346 18.801C20.5092 19.0851 21.3491 19.4927 21.9543 20.0238C22.5595 20.5426 22.8621 21.296 22.8621 22.2841C22.8621 22.5311 22.8374 22.7843 22.788 23.0437C22.7509 23.2907 22.6274 23.6118 22.4174 24.0071C22.2198 24.39 21.9543 24.7234 21.6208 25.0075C21.2873 25.2916 20.7871 25.5386 20.1201 25.7486C19.4655 25.9586 18.6936 26.0635 17.8043 26.0635C16.1492 26.0635 14.8338 25.6807 13.8581 24.9149C12.8947 24.1368 12.45 22.9757 12.5241 21.4318ZM24.8238 25.7856V12.5575H26.6764L31.2526 24.1553L35.8101 12.5575H37.6628V25.7856H36.403V14.3546H36.3659L31.8454 25.7856H30.6597L26.1206 14.3546H26.0836V25.7856H24.8238ZM40.2938 25.7856V12.5575H49.4275V13.6321H41.5536V18.412H48.9273V19.4865H41.5536V24.7111H49.5201V25.7856H40.2938ZM57.9456 19.0234H56.7784C56.7537 18.3317 56.5067 17.813 56.0373 17.4671C55.568 17.1089 54.9813 16.9298 54.2773 16.9298C53.6721 16.9298 53.141 17.0657 52.684 17.3374C52.2393 17.5968 52.017 18.0106 52.017 18.5787C52.017 19.3198 52.6778 19.8571 53.9994 20.1906L55.5556 20.5426C56.3214 20.6537 56.9637 20.9316 57.4824 21.3763C58.0135 21.8209 58.2791 22.4261 58.2791 23.1919C58.2791 24.1429 57.89 24.8593 57.1119 25.341C56.3461 25.8227 55.4568 26.0635 54.444 26.0635C52.0232 26.0635 50.714 24.9396 50.5164 22.6917H51.6835C51.733 23.4574 52.0109 24.0503 52.5173 24.4702C53.036 24.8778 53.6968 25.0816 54.4996 25.0816C55.1666 25.0816 55.7656 24.9334 56.2967 24.637C56.8402 24.3282 57.1119 23.8712 57.1119 23.266C57.1119 22.7596 56.9266 22.3829 56.5561 22.1359C56.1856 21.8888 55.673 21.685 55.0184 21.5245L53.5177 21.191C52.6408 20.9687 51.9738 20.6723 51.5168 20.3017C51.0722 19.9312 50.8498 19.3754 50.8498 18.6343C50.8498 17.7327 51.208 17.0595 51.9244 16.6149C52.6408 16.1702 53.4806 15.9479 54.444 15.9479C55.4445 15.9479 56.2658 16.2135 56.9081 16.7446C57.5504 17.2633 57.8962 18.0229 57.9456 19.0234Z" fill="white"/>
</g>
<defs>
<filter id="filter0_b_1132_438" x="-55.5804" y="-54.7234" width="182.875" height="147.018" filterUnits="userSpaceOnUse" color-interpolation-filters="sRGB">
<feFlood flood-opacity="0" result="BackgroundImageFix"/>
<feGaussianBlur in="BackgroundImageFix" stdDeviation="27.7902"/>
<feComposite in2="SourceAlpha" operator="in" result="effect1_backgroundBlur_1132_438"/>
<feBlend mode="normal" in="SourceGraphic" in2="effect1_backgroundBlur_1132_438" result="shape"/>
</filter>
<radialGradient id="paint0_radial_1132_438" cx="0" cy="0" r="1" gradientUnits="userSpaceOnUse" gradientTransform="translate(0.645052 1.92376) rotate(25.8315) scale(77.7363 97.5708)">
<stop stop-color="white" stop-opacity="0.4"/>
<stop offset="1" stop-color="white" stop-opacity="0"/>
</radialGradient>
<radialGradient id="paint1_radial_1132_438" cx="0" cy="0" r="1" gradientUnits="userSpaceOnUse" gradientTransform="translate(0.645052 1.92376) rotate(25.8315) scale(77.7363 97.5708)">
<stop stop-color="#D8D8D8" stop-opacity="0"/>
<stop offset="1" stop-color="#D8D8D8"/>
</radialGradient>
<radialGradient id="paint2_radial_1132_438" cx="0" cy="0" r="1" gradientUnits="userSpaceOnUse" gradientTransform="translate(0.986544 35.6176) rotate(-25.8231) scale(77.3514 96.9644)">
<stop stop-color="#D8D8D8" stop-opacity="0"/>
<stop offset="1" stop-color="#D8D8D8"/>
</radialGradient>
<linearGradient id="paint3_linear_1132_438" x1="1.32804" y1="1.83486" x2="55.9953" y2="51.7876" gradientUnits="userSpaceOnUse">
<stop stop-color="white" stop-opacity="0.9"/>
<stop offset="1" stop-color="white" stop-opacity="0"/>
</linearGradient>
</defs>
</svg>
