<svg width="335" height="37" viewBox="0 0 335 37" fill="none" xmlns="http://www.w3.org/2000/svg">
<g filter="url(#filter0_b_1132_442)">
<rect x="0.714355" y="0.856934" width="333.714" height="35.8571" rx="17.9286" fill="url(#paint0_radial_1132_442)"/>
<rect x="1.08489" y="1.22747" width="332.973" height="35.1161" rx="17.558" stroke="url(#paint1_radial_1132_442)" stroke-width="0.741071"/>
<rect x="1.08489" y="1.22747" width="332.973" height="35.1161" rx="17.558" stroke="url(#paint2_radial_1132_442)" stroke-width="0.741071"/>
<rect x="1.08489" y="1.22747" width="332.973" height="35.1161" rx="17.558" stroke="url(#paint3_linear_1132_442)" stroke-width="0.741071"/>
<path d="M13.9055 25.7856V12.5575H23.0392V13.6321H15.1653V18.412H22.5389V19.4865H15.1653V24.7111H23.1318V25.7856H13.9055ZM24.6653 21.2281V20.1535H29.297V21.2281H24.6653ZM39.4333 19.2272H38.2662C37.9327 17.6956 37.031 16.9298 35.5613 16.9298C34.5114 16.9298 33.69 17.3374 33.0972 18.1526C32.5043 18.9554 32.2079 19.9065 32.2079 21.0057C32.2079 22.105 32.5043 23.0622 33.0972 23.8774C33.69 24.6802 34.5114 25.0816 35.5613 25.0816C36.2776 25.0816 36.9014 24.8223 37.4325 24.3035C37.9636 23.7848 38.2662 23.1363 38.3403 22.3582H39.5075C39.3469 23.5192 38.9146 24.427 38.2106 25.0816C37.5189 25.7362 36.6358 26.0635 35.5613 26.0635C34.1532 26.0635 33.0478 25.5818 32.245 24.6185C31.4421 23.6427 31.0407 22.4385 31.0407 21.0057C31.0407 19.573 31.4421 18.3749 32.245 17.4115C33.0478 16.4358 34.1532 15.9479 35.5613 15.9479C36.6235 15.9479 37.5004 16.2258 38.1921 16.7816C38.8837 17.3374 39.2975 18.1526 39.4333 19.2272ZM41.8521 17.4115C42.6549 16.4358 43.7604 15.9479 45.1684 15.9479C46.5764 15.9479 47.6819 16.4358 48.4847 17.4115C49.2875 18.3749 49.6889 19.573 49.6889 21.0057C49.6889 22.4385 49.2875 23.6427 48.4847 24.6185C47.6819 25.5818 46.5764 26.0635 45.1684 26.0635C43.7604 26.0635 42.6549 25.5818 41.8521 24.6185C41.0493 23.6427 40.6479 22.4385 40.6479 21.0057C40.6479 19.573 41.0493 18.3749 41.8521 17.4115ZM47.6325 18.1526C47.0396 17.3374 46.2183 16.9298 45.1684 16.9298C44.1186 16.9298 43.2972 17.3374 42.7043 18.1526C42.1115 18.9554 41.8151 19.9065 41.8151 21.0057C41.8151 22.105 42.1115 23.0622 42.7043 23.8774C43.2972 24.6802 44.1186 25.0816 45.1684 25.0816C46.2183 25.0816 47.0396 24.6802 47.6325 23.8774C48.2253 23.0622 48.5218 22.105 48.5218 21.0057C48.5218 19.9065 48.2253 18.9554 47.6325 18.1526ZM51.4242 25.7856V16.2258H52.4988V17.8377H52.5544C53.209 16.5778 54.2527 15.9479 55.6854 15.9479C56.34 15.9479 56.9143 16.1085 57.4084 16.4296C57.9148 16.7507 58.2544 17.2139 58.4274 17.8191C58.6991 17.2139 59.1067 16.7507 59.6501 16.4296C60.2059 16.1085 60.8111 15.9479 61.4657 15.9479C63.5778 15.9479 64.6338 17.0657 64.6338 19.3013V25.7856H63.4666V19.3568C63.4666 18.5417 63.2937 17.9365 62.9479 17.5412C62.6021 17.1336 62.0216 16.9298 61.2064 16.9298C59.4772 16.9298 58.6126 18.0785 58.6126 20.3758V25.7856H57.4454V19.3013C57.4454 17.7203 56.7785 16.9298 55.4445 16.9298C54.4935 16.9298 53.7771 17.251 53.2954 17.8932C52.8261 18.5355 52.5914 19.3877 52.5914 20.4499V25.7856H51.4242ZM66.8572 25.7856V16.2258H67.9317V17.8377H67.9873C68.6419 16.5778 69.6856 15.9479 71.1184 15.9479C71.773 15.9479 72.3473 16.1085 72.8413 16.4296C73.3477 16.7507 73.6874 17.2139 73.8603 17.8191C74.132 17.2139 74.5396 16.7507 75.0831 16.4296C75.6389 16.1085 76.2441 15.9479 76.8987 15.9479C79.0108 15.9479 80.0668 17.0657 80.0668 19.3013V25.7856H78.8996V19.3568C78.8996 18.5417 78.7267 17.9365 78.3809 17.5412C78.035 17.1336 77.4545 16.9298 76.6393 16.9298C74.9102 16.9298 74.0456 18.0785 74.0456 20.3758V25.7856H72.8784V19.3013C72.8784 17.7203 72.2114 16.9298 70.8775 16.9298C69.9265 16.9298 69.2101 17.251 68.7284 17.8932C68.2591 18.5355 68.0244 19.3877 68.0244 20.4499V25.7856H66.8572ZM90.3308 21.3207H82.9756C82.9756 22.2964 83.2412 23.1672 83.7723 23.933C84.3157 24.6987 85.1 25.0816 86.1252 25.0816C87.7185 25.0816 88.7189 24.2664 89.1265 22.6361H90.2937C89.7626 24.9211 88.3731 26.0635 86.1252 26.0635C84.6925 26.0635 83.6117 25.588 82.883 24.637C82.1666 23.6859 81.8085 22.4755 81.8085 21.0057C81.8085 20.1164 81.9505 19.3074 82.2346 18.5787C82.5186 17.8377 82.9942 17.2139 83.6611 16.7075C84.3404 16.2011 85.1618 15.9479 86.1252 15.9479C87.1009 15.9479 87.9161 16.2135 88.5707 16.7446C89.2377 17.2757 89.707 17.9365 89.9788 18.7269C90.2505 19.5174 90.3678 20.382 90.3308 21.3207ZM82.9756 20.3388H89.1636C89.1389 19.4124 88.8486 18.6158 88.2928 17.9488C87.737 17.2695 87.0145 16.9298 86.1252 16.9298C85.2236 16.9298 84.501 17.2633 83.9576 17.9303C83.4141 18.5849 83.0868 19.3877 82.9756 20.3388ZM91.8973 25.7856V16.2258H92.9719V18.4676H93.0089C93.3053 17.6771 93.7685 17.0781 94.3984 16.6705C95.0283 16.2505 95.7694 16.0591 96.6216 16.0961V17.2633C95.5841 17.2139 94.7319 17.5227 94.0649 18.1897C93.398 18.8443 93.0645 19.678 93.0645 20.6908V25.7856H91.8973ZM105.326 19.2272H104.159C103.826 17.6956 102.924 16.9298 101.454 16.9298C100.405 16.9298 99.5832 17.3374 98.9903 18.1526C98.3975 18.9554 98.101 19.9065 98.101 21.0057C98.101 22.105 98.3975 23.0622 98.9903 23.8774C99.5832 24.6802 100.405 25.0816 101.454 25.0816C102.171 25.0816 102.794 24.8223 103.326 24.3035C103.857 23.7848 104.159 23.1363 104.233 22.3582H105.401C105.24 23.5192 104.808 24.427 104.104 25.0816C103.412 25.7362 102.529 26.0635 101.454 26.0635C100.046 26.0635 98.9409 25.5818 98.1381 24.6185C97.3352 23.6427 96.9338 22.4385 96.9338 21.0057C96.9338 19.573 97.3352 18.3749 98.1381 17.4115C98.9409 16.4358 100.046 15.9479 101.454 15.9479C102.517 15.9479 103.394 16.2258 104.085 16.7816C104.777 17.3374 105.191 18.1526 105.326 19.2272ZM115.063 21.3207H107.708C107.708 22.2964 107.974 23.1672 108.505 23.933C109.048 24.6987 109.833 25.0816 110.858 25.0816C112.451 25.0816 113.451 24.2664 113.859 22.6361H115.026C114.495 24.9211 113.106 26.0635 110.858 26.0635C109.425 26.0635 108.344 25.588 107.616 24.637C106.899 23.6859 106.541 22.4755 106.541 21.0057C106.541 20.1164 106.683 19.3074 106.967 18.5787C107.251 17.8377 107.727 17.2139 108.394 16.7075C109.073 16.2011 109.894 15.9479 110.858 15.9479C111.833 15.9479 112.649 16.2135 113.303 16.7446C113.97 17.2757 114.44 17.9365 114.711 18.7269C114.983 19.5174 115.1 20.382 115.063 21.3207ZM107.708 20.3388H113.896C113.871 19.4124 113.581 18.6158 113.025 17.9488C112.47 17.2695 111.747 16.9298 110.858 16.9298C109.956 16.9298 109.234 17.2633 108.69 17.9303C108.147 18.5849 107.819 19.3877 107.708 20.3388ZM115.277 26.0635L120.984 12.2796H121.928L116.278 26.0635H115.277ZM122.985 25.7856V12.5575H124.837L129.413 24.1553L133.971 12.5575H135.824V25.7856H134.564V14.3546H134.527L130.006 25.7856H128.821L124.282 14.3546H124.244V25.7856H122.985ZM139.288 19.1531H138.121C138.183 18.0661 138.553 17.2633 139.233 16.7446C139.924 16.2135 140.845 15.9479 141.993 15.9479C144.34 15.9479 145.513 16.9731 145.513 19.0234V24.0997C145.513 24.5691 145.742 24.8037 146.199 24.8037C146.335 24.8037 146.458 24.779 146.569 24.7296V25.7115C146.322 25.7609 146.069 25.7856 145.81 25.7856C145.266 25.7856 144.902 25.6498 144.717 25.3781C144.531 25.094 144.439 24.674 144.439 24.1182H144.402C143.945 24.7975 143.463 25.2916 142.957 25.6004C142.463 25.9092 141.783 26.0635 140.919 26.0635C139.98 26.0635 139.208 25.8289 138.603 25.3595C138.01 24.8902 137.714 24.1923 137.714 23.266C137.714 22.9202 137.763 22.6114 137.862 22.3397C137.961 22.0556 138.072 21.8209 138.195 21.6356C138.331 21.438 138.535 21.2651 138.807 21.1169C139.091 20.9563 139.332 20.839 139.529 20.7649C139.727 20.6784 140.023 20.5981 140.419 20.524C140.826 20.4499 141.135 20.4005 141.345 20.3758C141.555 20.3388 141.894 20.2955 142.364 20.2461C142.574 20.2214 142.734 20.2029 142.846 20.1906C143.389 20.1411 143.772 20.0362 143.994 19.8756C144.229 19.7027 144.346 19.3754 144.346 18.8937C144.346 18.165 144.124 17.6586 143.679 17.3745C143.235 17.0781 142.623 16.9298 141.845 16.9298C141.079 16.9298 140.468 17.1151 140.011 17.4856C139.554 17.8438 139.313 18.3996 139.288 19.1531ZM144.346 22.0803V20.5611H144.309C144.21 20.7464 143.883 20.8884 143.327 20.9872C143.117 21.0243 142.784 21.0798 142.327 21.1539C141.87 21.2157 141.518 21.2713 141.271 21.3207C141.024 21.3577 140.721 21.4318 140.363 21.543C140.017 21.6418 139.752 21.753 139.566 21.8765C139.393 22 139.233 22.1791 139.085 22.4138C138.949 22.6361 138.881 22.8955 138.881 23.1919C138.881 23.76 139.091 24.217 139.511 24.5629C139.931 24.9087 140.431 25.0816 141.011 25.0816C141.95 25.0816 142.741 24.8099 143.383 24.2664C144.025 23.7106 144.346 22.9819 144.346 22.0803ZM147.84 25.7856V16.2258H148.914V18.4676H148.951C149.248 17.6771 149.711 17.0781 150.341 16.6705C150.971 16.2505 151.712 16.0591 152.564 16.0961V17.2633C151.526 17.2139 150.674 17.5227 150.007 18.1897C149.34 18.8443 149.007 19.678 149.007 20.6908V25.7856H147.84ZM153.683 25.7856V12.5575H154.851V20.8575L160.149 16.2258H161.706L157.63 19.7644L161.983 25.7856H160.52L156.74 20.5796L154.851 22.1544V25.7856H153.683ZM170.987 21.3207H163.632C163.632 22.2964 163.898 23.1672 164.429 23.933C164.972 24.6987 165.757 25.0816 166.782 25.0816C168.375 25.0816 169.376 24.2664 169.783 22.6361H170.95C170.419 24.9211 169.03 26.0635 166.782 26.0635C165.349 26.0635 164.268 25.588 163.54 24.637C162.823 23.6859 162.465 22.4755 162.465 21.0057C162.465 20.1164 162.607 19.3074 162.891 18.5787C163.175 17.8377 163.651 17.2139 164.318 16.7075C164.997 16.2011 165.818 15.9479 166.782 15.9479C167.758 15.9479 168.573 16.2135 169.227 16.7446C169.894 17.2757 170.364 17.9365 170.635 18.7269C170.907 19.5174 171.024 20.382 170.987 21.3207ZM163.632 20.3388H169.82C169.796 19.4124 169.505 18.6158 168.949 17.9488C168.394 17.2695 167.671 16.9298 166.782 16.9298C165.88 16.9298 165.158 17.2633 164.614 17.9303C164.071 18.5849 163.743 19.3877 163.632 20.3388ZM174.407 13.3542V16.2258H176.352V17.2077H174.407V23.6551C174.407 24.075 174.468 24.3838 174.592 24.5814C174.715 24.779 174.969 24.8902 175.352 24.9149C175.685 24.9149 176.018 24.8964 176.352 24.8593V25.8598C176.241 25.8598 176.068 25.8659 175.833 25.8783C175.599 25.8906 175.426 25.8968 175.314 25.8968C174.536 25.8968 173.993 25.7424 173.684 25.4336C173.375 25.1249 173.227 24.5629 173.239 23.7477V17.2077H171.572V16.2258H173.239V13.3542H174.407ZM178.036 29.3243V16.2258H179.111V18.0414H179.148C179.419 17.3868 179.858 16.8743 180.463 16.5037C181.081 16.1332 181.778 15.9479 182.557 15.9479C183.94 15.9479 185.002 16.4296 185.743 17.393C186.484 18.3564 186.855 19.5606 186.855 21.0057C186.855 22.4508 186.484 23.6551 185.743 24.6185C185.002 25.5818 183.94 26.0635 182.557 26.0635C181.815 26.0635 181.136 25.8845 180.519 25.5263C179.901 25.1557 179.475 24.637 179.24 23.97H179.203V29.3243H178.036ZM185.373 22.951C185.583 22.3582 185.688 21.7098 185.688 21.0057C185.688 20.3017 185.583 19.6533 185.373 19.0604C185.175 18.4676 184.829 17.9673 184.335 17.5598C183.853 17.1398 183.261 16.9298 182.557 16.9298C180.321 16.9298 179.203 18.2885 179.203 21.0057C179.203 22.1297 179.475 23.0931 180.018 23.8959C180.574 24.6864 181.42 25.0816 182.557 25.0816C183.261 25.0816 183.853 24.8778 184.335 24.4702C184.829 24.0503 185.175 23.5439 185.373 22.951ZM188.693 25.7856V12.5575H189.86V25.7856H188.693ZM193.15 19.1531H191.983C192.045 18.0661 192.415 17.2633 193.094 16.7446C193.786 16.2135 194.706 15.9479 195.855 15.9479C198.202 15.9479 199.375 16.9731 199.375 19.0234V24.0997C199.375 24.5691 199.603 24.8037 200.06 24.8037C200.196 24.8037 200.32 24.779 200.431 24.7296V25.7115C200.184 25.7609 199.931 25.7856 199.671 25.7856C199.128 25.7856 198.764 25.6498 198.578 25.3781C198.393 25.094 198.3 24.674 198.3 24.1182H198.263C197.806 24.7975 197.325 25.2916 196.818 25.6004C196.324 25.9092 195.645 26.0635 194.78 26.0635C193.842 26.0635 193.07 25.8289 192.464 25.3595C191.872 24.8902 191.575 24.1923 191.575 23.266C191.575 22.9202 191.625 22.6114 191.723 22.3397C191.822 22.0556 191.933 21.8209 192.057 21.6356C192.193 21.438 192.397 21.2651 192.668 21.1169C192.952 20.9563 193.193 20.839 193.391 20.7649C193.588 20.6784 193.885 20.5981 194.28 20.524C194.688 20.4499 194.996 20.4005 195.206 20.3758C195.416 20.3388 195.756 20.2955 196.225 20.2461C196.435 20.2214 196.596 20.2029 196.707 20.1906C197.251 20.1411 197.633 20.0362 197.856 19.8756C198.09 19.7027 198.208 19.3754 198.208 18.8937C198.208 18.165 197.985 17.6586 197.541 17.3745C197.096 17.0781 196.485 16.9298 195.707 16.9298C194.941 16.9298 194.329 17.1151 193.872 17.4856C193.415 17.8438 193.175 18.3996 193.15 19.1531ZM198.208 22.0803V20.5611H198.171C198.072 20.7464 197.745 20.8884 197.189 20.9872C196.979 21.0243 196.645 21.0798 196.188 21.1539C195.731 21.2157 195.379 21.2713 195.132 21.3207C194.885 21.3577 194.583 21.4318 194.225 21.543C193.879 21.6418 193.613 21.753 193.428 21.8765C193.255 22 193.094 22.1791 192.946 22.4138C192.81 22.6361 192.742 22.8955 192.742 23.1919C192.742 23.76 192.952 24.217 193.372 24.5629C193.792 24.9087 194.292 25.0816 194.873 25.0816C195.812 25.0816 196.602 24.8099 197.244 24.2664C197.887 23.7106 198.208 22.9819 198.208 22.0803ZM209.612 19.2272H208.445C208.111 17.6956 207.21 16.9298 205.74 16.9298C204.69 16.9298 203.869 17.3374 203.276 18.1526C202.683 18.9554 202.387 19.9065 202.387 21.0057C202.387 22.105 202.683 23.0622 203.276 23.8774C203.869 24.6802 204.69 25.0816 205.74 25.0816C206.456 25.0816 207.08 24.8223 207.611 24.3035C208.142 23.7848 208.445 23.1363 208.519 22.3582H209.686C209.526 23.5192 209.093 24.427 208.389 25.0816C207.698 25.7362 206.814 26.0635 205.74 26.0635C204.332 26.0635 203.226 25.5818 202.424 24.6185C201.621 23.6427 201.219 22.4385 201.219 21.0057C201.219 19.573 201.621 18.3749 202.424 17.4115C203.226 16.4358 204.332 15.9479 205.74 15.9479C206.802 15.9479 207.679 16.2258 208.371 16.7816C209.062 17.3374 209.476 18.1526 209.612 19.2272ZM219.349 21.3207H211.994C211.994 22.2964 212.259 23.1672 212.79 23.933C213.334 24.6987 214.118 25.0816 215.143 25.0816C216.737 25.0816 217.737 24.2664 218.145 22.6361H219.312C218.781 24.9211 217.391 26.0635 215.143 26.0635C213.711 26.0635 212.63 25.588 211.901 24.637C211.185 23.6859 210.827 22.4755 210.827 21.0057C210.827 20.1164 210.969 19.3074 211.253 18.5787C211.537 17.8377 212.012 17.2139 212.679 16.7075C213.359 16.2011 214.18 15.9479 215.143 15.9479C216.119 15.9479 216.934 16.2135 217.589 16.7446C218.256 17.2757 218.725 17.9365 218.997 18.7269C219.269 19.5174 219.386 20.382 219.349 21.3207ZM211.994 20.3388H218.182C218.157 19.4124 217.867 18.6158 217.311 17.9488C216.755 17.2695 216.033 16.9298 215.143 16.9298C214.242 16.9298 213.519 17.2633 212.976 17.9303C212.432 18.5849 212.105 19.3877 211.994 20.3388ZM233.983 19.2272H232.816C232.482 17.6956 231.58 16.9298 230.111 16.9298C229.061 16.9298 228.239 17.3374 227.647 18.1526C227.054 18.9554 226.757 19.9065 226.757 21.0057C226.757 22.105 227.054 23.0622 227.647 23.8774C228.239 24.6802 229.061 25.0816 230.111 25.0816C230.827 25.0816 231.451 24.8223 231.982 24.3035C232.513 23.7848 232.816 23.1363 232.89 22.3582H234.057C233.896 23.5192 233.464 24.427 232.76 25.0816C232.068 25.7362 231.185 26.0635 230.111 26.0635C228.703 26.0635 227.597 25.5818 226.794 24.6185C225.991 23.6427 225.59 22.4385 225.59 21.0057C225.59 19.573 225.991 18.3749 226.794 17.4115C227.597 16.4358 228.703 15.9479 230.111 15.9479C231.173 15.9479 232.05 16.2258 232.741 16.7816C233.433 17.3374 233.847 18.1526 233.983 19.2272ZM243.59 19.2272H242.423C242.089 17.6956 241.188 16.9298 239.718 16.9298C238.668 16.9298 237.847 17.3374 237.254 18.1526C236.661 18.9554 236.364 19.9065 236.364 21.0057C236.364 22.105 236.661 23.0622 237.254 23.8774C237.847 24.6802 238.668 25.0816 239.718 25.0816C240.434 25.0816 241.058 24.8223 241.589 24.3035C242.12 23.7848 242.423 23.1363 242.497 22.3582H243.664C243.503 23.5192 243.071 24.427 242.367 25.0816C241.675 25.7362 240.792 26.0635 239.718 26.0635C238.31 26.0635 237.204 25.5818 236.401 24.6185C235.599 23.6427 235.197 22.4385 235.197 21.0057C235.197 19.573 235.599 18.3749 236.401 17.4115C237.204 16.4358 238.31 15.9479 239.718 15.9479C240.78 15.9479 241.657 16.2258 242.349 16.7816C243.04 17.3374 243.454 18.1526 243.59 19.2272ZM246.009 17.4115C246.811 16.4358 247.917 15.9479 249.325 15.9479C250.733 15.9479 251.838 16.4358 252.641 17.4115C253.444 18.3749 253.845 19.573 253.845 21.0057C253.845 22.4385 253.444 23.6427 252.641 24.6185C251.838 25.5818 250.733 26.0635 249.325 26.0635C247.917 26.0635 246.811 25.5818 246.009 24.6185C245.206 23.6427 244.804 22.4385 244.804 21.0057C244.804 19.573 245.206 18.3749 246.009 17.4115ZM251.789 18.1526C251.196 17.3374 250.375 16.9298 249.325 16.9298C248.275 16.9298 247.454 17.3374 246.861 18.1526C246.268 18.9554 245.972 19.9065 245.972 21.0057C245.972 22.105 246.268 23.0622 246.861 23.8774C247.454 24.6802 248.275 25.0816 249.325 25.0816C250.375 25.0816 251.196 24.6802 251.789 23.8774C252.382 23.0622 252.678 22.105 252.678 21.0057C252.678 19.9065 252.382 18.9554 251.789 18.1526ZM255.581 25.7856V16.2258H256.655V17.8377H256.711C257.365 16.5778 258.409 15.9479 259.842 15.9479C260.497 15.9479 261.071 16.1085 261.565 16.4296C262.071 16.7507 262.411 17.2139 262.584 17.8191C262.856 17.2139 263.263 16.7507 263.807 16.4296C264.362 16.1085 264.968 15.9479 265.622 15.9479C267.734 15.9479 268.79 17.0657 268.79 19.3013V25.7856H267.623V19.3568C267.623 18.5417 267.45 17.9365 267.104 17.5412C266.759 17.1336 266.178 16.9298 265.363 16.9298C263.634 16.9298 262.769 18.0785 262.769 20.3758V25.7856H261.602V19.3013C261.602 17.7203 260.935 16.9298 259.601 16.9298C258.65 16.9298 257.934 17.251 257.452 17.8932C256.983 18.5355 256.748 19.3877 256.748 20.4499V25.7856H255.581ZM271.014 29.3243V16.2258H272.088V18.0414H272.125C272.397 17.3868 272.836 16.8743 273.441 16.5037C274.058 16.1332 274.756 15.9479 275.534 15.9479C276.918 15.9479 277.98 16.4296 278.721 17.393C279.462 18.3564 279.832 19.5606 279.832 21.0057C279.832 22.4508 279.462 23.6551 278.721 24.6185C277.98 25.5818 276.918 26.0635 275.534 26.0635C274.793 26.0635 274.114 25.8845 273.496 25.5263C272.879 25.1557 272.453 24.637 272.218 23.97H272.181V29.3243H271.014ZM278.35 22.951C278.56 22.3582 278.665 21.7098 278.665 21.0057C278.665 20.3017 278.56 19.6533 278.35 19.0604C278.153 18.4676 277.807 17.9673 277.313 17.5598C276.831 17.1398 276.238 16.9298 275.534 16.9298C273.299 16.9298 272.181 18.2885 272.181 21.0057C272.181 22.1297 272.453 23.0931 272.996 23.8959C273.552 24.6864 274.398 25.0816 275.534 25.0816C276.238 25.0816 276.831 24.8778 277.313 24.4702C277.807 24.0503 278.153 23.5439 278.35 22.951ZM282.708 19.1531H281.541C281.603 18.0661 281.973 17.2633 282.653 16.7446C283.344 16.2135 284.264 15.9479 285.413 15.9479C287.76 15.9479 288.933 16.9731 288.933 19.0234V24.0997C288.933 24.5691 289.162 24.8037 289.619 24.8037C289.755 24.8037 289.878 24.779 289.989 24.7296V25.7115C289.742 25.7609 289.489 25.7856 289.23 25.7856C288.686 25.7856 288.322 25.6498 288.137 25.3781C287.951 25.094 287.859 24.674 287.859 24.1182H287.822C287.365 24.7975 286.883 25.2916 286.376 25.6004C285.882 25.9092 285.203 26.0635 284.339 26.0635C283.4 26.0635 282.628 25.8289 282.023 25.3595C281.43 24.8902 281.133 24.1923 281.133 23.266C281.133 22.9202 281.183 22.6114 281.282 22.3397C281.38 22.0556 281.492 21.8209 281.615 21.6356C281.751 21.438 281.955 21.2651 282.226 21.1169C282.511 20.9563 282.751 20.839 282.949 20.7649C283.147 20.6784 283.443 20.5981 283.838 20.524C284.246 20.4499 284.555 20.4005 284.765 20.3758C284.975 20.3388 285.314 20.2955 285.784 20.2461C285.994 20.2214 286.154 20.2029 286.265 20.1906C286.809 20.1411 287.192 20.0362 287.414 19.8756C287.649 19.7027 287.766 19.3754 287.766 18.8937C287.766 18.165 287.544 17.6586 287.099 17.3745C286.654 17.0781 286.043 16.9298 285.265 16.9298C284.499 16.9298 283.888 17.1151 283.431 17.4856C282.974 17.8438 282.733 18.3996 282.708 19.1531ZM287.766 22.0803V20.5611H287.729C287.63 20.7464 287.303 20.8884 286.747 20.9872C286.537 21.0243 286.204 21.0798 285.747 21.1539C285.29 21.2157 284.938 21.2713 284.691 21.3207C284.444 21.3577 284.141 21.4318 283.783 21.543C283.437 21.6418 283.171 21.753 282.986 21.8765C282.813 22 282.653 22.1791 282.504 22.4138C282.369 22.6361 282.301 22.8955 282.301 23.1919C282.301 23.76 282.511 24.217 282.93 24.5629C283.35 24.9087 283.851 25.0816 284.431 25.0816C285.37 25.0816 286.16 24.8099 286.803 24.2664C287.445 23.7106 287.766 22.9819 287.766 22.0803ZM291.241 25.7856V16.2258H292.408V17.8747H292.445C292.667 17.3066 293.063 16.8434 293.631 16.4852C294.199 16.127 294.823 15.9479 295.502 15.9479C296.786 15.9479 297.688 16.2629 298.207 16.8928C298.738 17.5103 299.003 18.4243 299.003 19.6348V25.7856H297.836V19.82C297.836 17.8932 297.027 16.9298 295.409 16.9298C294.495 16.9298 293.773 17.2386 293.242 17.8562C292.711 18.4614 292.433 19.2457 292.408 20.2091V25.7856H291.241ZM301.229 14.4287V12.5575H302.396V14.4287H301.229ZM301.229 25.7856V16.2258H302.396V25.7856H301.229ZM312.67 21.3207H305.315C305.315 22.2964 305.581 23.1672 306.112 23.933C306.655 24.6987 307.44 25.0816 308.465 25.0816C310.058 25.0816 311.058 24.2664 311.466 22.6361H312.633C312.102 24.9211 310.713 26.0635 308.465 26.0635C307.032 26.0635 305.951 25.588 305.223 24.637C304.506 23.6859 304.148 22.4755 304.148 21.0057C304.148 20.1164 304.29 19.3074 304.574 18.5787C304.858 17.8377 305.334 17.2139 306.001 16.7075C306.68 16.2011 307.501 15.9479 308.465 15.9479C309.44 15.9479 310.256 16.2135 310.91 16.7446C311.577 17.2757 312.047 17.9365 312.318 18.7269C312.59 19.5174 312.707 20.382 312.67 21.3207ZM305.315 20.3388H311.503C311.478 19.4124 311.188 18.6158 310.632 17.9488C310.077 17.2695 309.354 16.9298 308.465 16.9298C307.563 16.9298 306.841 17.2633 306.297 17.9303C305.754 18.5849 305.426 19.3877 305.315 20.3388ZM321.129 19.0234H319.962C319.937 18.3317 319.69 17.813 319.221 17.4671C318.751 17.1089 318.164 16.9298 317.46 16.9298C316.855 16.9298 316.324 17.0657 315.867 17.3374C315.423 17.5968 315.2 18.0106 315.2 18.5787C315.2 19.3198 315.861 19.8571 317.183 20.1906L318.739 20.5426C319.505 20.6537 320.147 20.9316 320.666 21.3763C321.197 21.8209 321.462 22.4261 321.462 23.1919C321.462 24.1429 321.073 24.8593 320.295 25.341C319.529 25.8227 318.64 26.0635 317.627 26.0635C315.206 26.0635 313.897 24.9396 313.7 22.6917H314.867C314.916 23.4574 315.194 24.0503 315.7 24.4702C316.219 24.8778 316.88 25.0816 317.683 25.0816C318.35 25.0816 318.949 24.9334 319.48 24.637C320.023 24.3282 320.295 23.8712 320.295 23.266C320.295 22.7596 320.11 22.3829 319.739 22.1359C319.369 21.8888 318.856 21.685 318.202 21.5245L316.701 21.191C315.824 20.9687 315.157 20.6723 314.7 20.3017C314.255 19.9312 314.033 19.3754 314.033 18.6343C314.033 17.7327 314.391 17.0595 315.108 16.6149C315.824 16.1702 316.664 15.9479 317.627 15.9479C318.628 15.9479 319.449 16.2135 320.091 16.7446C320.734 17.2633 321.079 18.0229 321.129 19.0234Z" fill="white"/>
</g>
<defs>
<filter id="filter0_b_1132_442" x="-54.866" y="-54.7234" width="444.875" height="147.018" filterUnits="userSpaceOnUse" color-interpolation-filters="sRGB">
<feFlood flood-opacity="0" result="BackgroundImageFix"/>
<feGaussianBlur in="BackgroundImageFix" stdDeviation="27.7902"/>
<feComposite in2="SourceAlpha" operator="in" result="effect1_backgroundBlur_1132_442"/>
<feBlend mode="normal" in="SourceGraphic" in2="effect1_backgroundBlur_1132_442" result="shape"/>
</filter>
<radialGradient id="paint0_radial_1132_442" cx="0" cy="0" r="1" gradientUnits="userSpaceOnUse" gradientTransform="translate(3.71603 1.92376) rotate(5.93917) scale(327.349 107.82)">
<stop stop-color="white" stop-opacity="0.4"/>
<stop offset="1" stop-color="white" stop-opacity="0"/>
</radialGradient>
<radialGradient id="paint1_radial_1132_442" cx="0" cy="0" r="1" gradientUnits="userSpaceOnUse" gradientTransform="translate(3.71603 1.92376) rotate(5.93917) scale(327.349 107.82)">
<stop stop-color="#D8D8D8" stop-opacity="0"/>
<stop offset="1" stop-color="#D8D8D8"/>
</radialGradient>
<radialGradient id="paint2_radial_1132_442" cx="0" cy="0" r="1" gradientUnits="userSpaceOnUse" gradientTransform="translate(5.30513 35.6176) rotate(-5.93699) scale(325.75 107.143)">
<stop stop-color="#D8D8D8" stop-opacity="0"/>
<stop offset="1" stop-color="#D8D8D8"/>
</radialGradient>
<linearGradient id="paint3_linear_1132_442" x1="6.89425" y1="1.83486" x2="31.359" y2="105.861" gradientUnits="userSpaceOnUse">
<stop stop-color="white" stop-opacity="0.9"/>
<stop offset="1" stop-color="white" stop-opacity="0"/>
</linearGradient>
</defs>
</svg>
