<svg width="137" height="37" viewBox="0 0 137 37" fill="none" xmlns="http://www.w3.org/2000/svg">
<g filter="url(#filter0_b_1132_444)">
<rect x="0.428711" y="0.856934" width="135.714" height="35.8571" rx="17.9286" fill="url(#paint0_radial_1132_444)"/>
<rect x="0.799247" y="1.22747" width="134.973" height="35.1161" rx="17.558" stroke="url(#paint1_radial_1132_444)" stroke-width="0.741071"/>
<rect x="0.799247" y="1.22747" width="134.973" height="35.1161" rx="17.558" stroke="url(#paint2_radial_1132_444)" stroke-width="0.741071"/>
<rect x="0.799247" y="1.22747" width="134.973" height="35.1161" rx="17.558" stroke="url(#paint3_linear_1132_444)" stroke-width="0.741071"/>
<path d="M12.1562 25.7856L17.4919 12.5575H18.9L24.0875 25.7856H22.735L21.1232 21.6727H15.102L13.5087 25.7856H12.1562ZM15.491 20.5981H20.6971L18.1404 13.8173L15.491 20.5981ZM25.0487 25.7856V16.2258H26.2159V17.8747H26.2529C26.4752 17.3066 26.8705 16.8434 27.4386 16.4852C28.0068 16.127 28.6305 15.9479 29.3098 15.9479C30.5944 15.9479 31.496 16.2629 32.0147 16.8928C32.5458 17.5103 32.8114 18.4243 32.8114 19.6348V25.7856H31.6442V19.82C31.6442 17.8932 30.8352 16.9298 29.2172 16.9298C28.3032 16.9298 27.5807 17.2386 27.0496 17.8562C26.5185 18.4614 26.2406 19.2457 26.2159 20.2091V25.7856H25.0487ZM43.4293 12.5575V25.7856H42.3547V23.97H42.3177C42.0706 24.5876 41.6198 25.094 40.9652 25.4892C40.3106 25.8721 39.6251 26.0635 38.9087 26.0635C37.5254 26.0635 36.4632 25.5818 35.7221 24.6185C34.9811 23.6551 34.6105 22.4508 34.6105 21.0057C34.6105 19.5606 34.9811 18.3564 35.7221 17.393C36.4632 16.4296 37.5254 15.9479 38.9087 15.9479C39.6498 15.9479 40.3291 16.1332 40.9467 16.5037C41.5642 16.8743 41.9904 17.3868 42.225 18.0414H42.2621V12.5575H43.4293ZM36.0741 19.0604C35.8765 19.6533 35.7777 20.3017 35.7777 21.0057C35.7777 21.7098 35.8765 22.3582 36.0741 22.951C36.2841 23.5439 36.6299 24.0503 37.1116 24.4702C37.6057 24.8778 38.2047 25.0816 38.9087 25.0816C40.045 25.0816 40.8849 24.6864 41.4284 23.8959C41.9842 23.0931 42.2621 22.1297 42.2621 21.0057C42.2621 19.8818 41.9842 18.9246 41.4284 18.1341C40.8849 17.3313 40.045 16.9298 38.9087 16.9298C38.2047 16.9298 37.6057 17.1398 37.1116 17.5598C36.6299 17.9673 36.2841 18.4676 36.0741 19.0604ZM50.8314 25.7856V12.5575H51.9986V25.7856H50.8314ZM54.955 17.4115C55.7578 16.4358 56.8632 15.9479 58.2713 15.9479C59.6793 15.9479 60.7847 16.4358 61.5875 17.4115C62.3904 18.3749 62.7918 19.573 62.7918 21.0057C62.7918 22.4385 62.3904 23.6427 61.5875 24.6185C60.7847 25.5818 59.6793 26.0635 58.2713 26.0635C56.8632 26.0635 55.7578 25.5818 54.955 24.6185C54.1521 23.6427 53.7507 22.4385 53.7507 21.0057C53.7507 19.573 54.1521 18.3749 54.955 17.4115ZM60.7353 18.1526C60.1425 17.3374 59.3211 16.9298 58.2713 16.9298C57.2214 16.9298 56.4 17.3374 55.8072 18.1526C55.2143 18.9554 54.9179 19.9065 54.9179 21.0057C54.9179 22.105 55.2143 23.0622 55.8072 23.8774C56.4 24.6802 57.2214 25.0816 58.2713 25.0816C59.3211 25.0816 60.1425 24.6802 60.7353 23.8774C61.3282 23.0622 61.6246 22.105 61.6246 21.0057C61.6246 19.9065 61.3282 18.9554 60.7353 18.1526ZM66.3798 13.3542V16.2258H68.3251V17.2077H66.3798V23.6551C66.3798 24.075 66.4415 24.3838 66.565 24.5814C66.6885 24.779 66.9417 24.8902 67.3246 24.9149C67.6581 24.9149 67.9916 24.8964 68.3251 24.8593V25.8598C68.2139 25.8598 68.041 25.8659 67.8063 25.8783C67.5717 25.8906 67.3987 25.8968 67.2876 25.8968C66.5095 25.8968 65.966 25.7424 65.6572 25.4336C65.3484 25.1249 65.2002 24.5629 65.2126 23.7477V17.2077H63.5452V16.2258H65.2126V13.3542H66.3798ZM76.9011 19.0234H75.7339C75.7092 18.3317 75.4622 17.813 74.9928 17.4671C74.5235 17.1089 73.9368 16.9298 73.2328 16.9298C72.6276 16.9298 72.0965 17.0657 71.6395 17.3374C71.1948 17.5968 70.9725 18.0106 70.9725 18.5787C70.9725 19.3198 71.6333 19.8571 72.9549 20.1906L74.5111 20.5426C75.2769 20.6537 75.9192 20.9316 76.4379 21.3763C76.969 21.8209 77.2346 22.4261 77.2346 23.1919C77.2346 24.1429 76.8455 24.8593 76.0674 25.341C75.3016 25.8227 74.4123 26.0635 73.3995 26.0635C70.9787 26.0635 69.6695 24.9396 69.4719 22.6917H70.639C70.6884 23.4574 70.9664 24.0503 71.4727 24.4702C71.9915 24.8778 72.6523 25.0816 73.4551 25.0816C74.1221 25.0816 74.7211 24.9334 75.2522 24.637C75.7957 24.3282 76.0674 23.8712 76.0674 23.266C76.0674 22.7596 75.8821 22.3829 75.5116 22.1359C75.1411 21.8888 74.6285 21.685 73.9739 21.5245L72.4732 21.191C71.5963 20.9687 70.9293 20.6723 70.4723 20.3017C70.0277 19.9312 69.8053 19.3754 69.8053 18.6343C69.8053 17.7327 70.1635 17.0595 70.8799 16.6149C71.5963 16.1702 72.4361 15.9479 73.3995 15.9479C74.4 15.9479 75.2213 16.2135 75.8636 16.7446C76.5059 17.2633 76.8517 18.0229 76.9011 19.0234ZM84.0851 25.7856V16.2258H85.1597V17.8377H85.2153C85.8699 16.5778 86.9136 15.9479 88.3463 15.9479C89.0009 15.9479 89.5753 16.1085 90.0693 16.4296C90.5757 16.7507 90.9154 17.2139 91.0883 17.8191C91.36 17.2139 91.7676 16.7507 92.311 16.4296C92.8668 16.1085 93.4721 15.9479 94.1267 15.9479C96.2387 15.9479 97.2947 17.0657 97.2947 19.3013V25.7856H96.1276V19.3568C96.1276 18.5417 95.9546 17.9365 95.6088 17.5412C95.263 17.1336 94.6825 16.9298 93.8673 16.9298C92.1381 16.9298 91.2735 18.0785 91.2735 20.3758V25.7856H90.1064V19.3013C90.1064 17.7203 89.4394 16.9298 88.1055 16.9298C87.1544 16.9298 86.4381 17.251 85.9564 17.8932C85.487 18.5355 85.2523 19.3877 85.2523 20.4499V25.7856H84.0851ZM100.241 17.4115C101.043 16.4358 102.149 15.9479 103.557 15.9479C104.965 15.9479 106.07 16.4358 106.873 17.4115C107.676 18.3749 108.077 19.573 108.077 21.0057C108.077 22.4385 107.676 23.6427 106.873 24.6185C106.07 25.5818 104.965 26.0635 103.557 26.0635C102.149 26.0635 101.043 25.5818 100.241 24.6185C99.4378 23.6427 99.0364 22.4385 99.0364 21.0057C99.0364 19.573 99.4378 18.3749 100.241 17.4115ZM106.021 18.1526C105.428 17.3374 104.607 16.9298 103.557 16.9298C102.507 16.9298 101.686 17.3374 101.093 18.1526C100.5 18.9554 100.204 19.9065 100.204 21.0057C100.204 22.105 100.5 23.0622 101.093 23.8774C101.686 24.6802 102.507 25.0816 103.557 25.0816C104.607 25.0816 105.428 24.6802 106.021 23.8774C106.614 23.0622 106.91 22.105 106.91 21.0057C106.91 19.9065 106.614 18.9554 106.021 18.1526ZM109.813 25.7856V16.2258H110.887V18.4676H110.924C111.221 17.6771 111.684 17.0781 112.314 16.6705C112.944 16.2505 113.685 16.0591 114.537 16.0961V17.2633C113.5 17.2139 112.647 17.5227 111.98 18.1897C111.313 18.8443 110.98 19.678 110.98 20.6908V25.7856H109.813ZM123.372 21.3207H116.016C116.016 22.2964 116.282 23.1672 116.813 23.933C117.357 24.6987 118.141 25.0816 119.166 25.0816C120.759 25.0816 121.76 24.2664 122.167 22.6361H123.335C122.803 24.9211 121.414 26.0635 119.166 26.0635C117.733 26.0635 116.653 25.588 115.924 24.637C115.207 23.6859 114.849 22.4755 114.849 21.0057C114.849 20.1164 114.991 19.3074 115.275 18.5787C115.56 17.8377 116.035 17.2139 116.702 16.7075C117.381 16.2011 118.203 15.9479 119.166 15.9479C120.142 15.9479 120.957 16.2135 121.612 16.7446C122.279 17.2757 122.748 17.9365 123.02 18.7269C123.291 19.5174 123.409 20.382 123.372 21.3207ZM116.016 20.3388H122.204C122.18 19.4124 121.889 18.6158 121.334 17.9488C120.778 17.2695 120.055 16.9298 119.166 16.9298C118.264 16.9298 117.542 17.2633 116.998 17.9303C116.455 18.5849 116.128 19.3877 116.016 20.3388Z" fill="white"/>
</g>
<defs>
<filter id="filter0_b_1132_444" x="-55.1516" y="-54.7234" width="246.875" height="147.018" filterUnits="userSpaceOnUse" color-interpolation-filters="sRGB">
<feFlood flood-opacity="0" result="BackgroundImageFix"/>
<feGaussianBlur in="BackgroundImageFix" stdDeviation="27.7902"/>
<feComposite in2="SourceAlpha" operator="in" result="effect1_backgroundBlur_1132_444"/>
<feBlend mode="normal" in="SourceGraphic" in2="effect1_backgroundBlur_1132_444" result="shape"/>
</filter>
<radialGradient id="paint0_radial_1132_444" cx="0" cy="0" r="1" gradientUnits="userSpaceOnUse" gradientTransform="translate(1.64943 1.92376) rotate(14.3489) scale(136.675 105.021)">
<stop stop-color="white" stop-opacity="0.4"/>
<stop offset="1" stop-color="white" stop-opacity="0"/>
</radialGradient>
<radialGradient id="paint1_radial_1132_444" cx="0" cy="0" r="1" gradientUnits="userSpaceOnUse" gradientTransform="translate(1.64943 1.92376) rotate(14.3489) scale(136.675 105.021)">
<stop stop-color="#D8D8D8" stop-opacity="0"/>
<stop offset="1" stop-color="#D8D8D8"/>
</radialGradient>
<radialGradient id="paint2_radial_1132_444" cx="0" cy="0" r="1" gradientUnits="userSpaceOnUse" gradientTransform="translate(2.29568 35.6176) rotate(-14.3438) scale(136.005 104.363)">
<stop stop-color="#D8D8D8" stop-opacity="0"/>
<stop offset="1" stop-color="#D8D8D8"/>
</radialGradient>
<linearGradient id="paint3_linear_1132_444" x1="2.94194" y1="1.83486" x2="50.5166" y2="84.1023" gradientUnits="userSpaceOnUse">
<stop stop-color="white" stop-opacity="0.9"/>
<stop offset="1" stop-color="white" stop-opacity="0"/>
</linearGradient>
</defs>
</svg>
