<svg width="599" height="24" viewBox="0 0 599 24" fill="none" xmlns="http://www.w3.org/2000/svg">
<path d="M3 3C9.55078 3.10614 378.163 4.12868 384.665 4.27408C388.4 4.3576 405.872 4.44908 409.591 4.5619C414.479 4.71019 487.537 4.93845 492.415 5.39742C496.436 5.7757 497.642 9.07868 493.119 9.67444C490.189 10.0604 421.85 10.3209 418.627 10.5714C409.727 11.2632 373.951 10.9667 364.882 11.494C361.23 11.7063 357.534 11.8851 353.927 12.1311C352.522 12.2268 102.316 11.0001 102.558 14.5167C102.798 18 353.718 19.6968 355.667 19.7319C364.22 19.8857 386.763 19.9873 393.32 20.0365C410.593 20.1659 579.033 20.1665 596 21" stroke="#007BFF" stroke-width="5" stroke-linecap="round"/>
</svg>
