<svg width="24" height="25" viewBox="0 0 24 25" fill="none" xmlns="http://www.w3.org/2000/svg">
<path d="M9.5 22.9336C12.8137 22.9336 15.5 20.2473 15.5 16.9336V9.17896C16.5006 9.98108 17.6981 10.5477 19.0085 10.7948C19.3589 10.8609 19.5341 10.8939 19.7502 10.8381C20.007 10.7717 20.2923 10.5352 20.4051 10.2952C20.5 10.0931 20.5 9.87327 20.5 9.43359C20.5 8.97496 20.5 8.74564 20.4499 8.59342C20.3671 8.34149 20.2952 8.24408 20.079 8.09053C19.9483 7.99775 19.6395 7.90235 19.022 7.71155C17.4492 7.22558 16.208 5.98438 15.722 4.41157C15.5312 3.79404 15.4358 3.48528 15.3431 3.35463C15.1895 3.13838 15.0921 3.06653 14.8402 2.98366C14.6879 2.93359 14.4586 2.93359 14 2.93359C13.5341 2.93359 13.3011 2.93359 13.1173 3.00971C12.8723 3.1112 12.6776 3.30588 12.5761 3.55091C12.5 3.73468 12.5 3.96765 12.5 4.43359V16.9336C12.5 18.5905 11.1569 19.9336 9.5 19.9336C7.84315 19.9336 6.5 18.5905 6.5 16.9336C6.5 15.798 7.13101 14.8097 8.06154 14.3003C8.75264 13.922 9.0982 13.7328 9.19494 13.6393C9.38565 13.455 9.39434 13.4404 9.46444 13.1846C9.5 13.0548 9.5 12.8477 9.5 12.4336C9.5 12.0083 9.5 11.7957 9.39825 11.5877C9.28169 11.3495 8.96391 11.1025 8.70429 11.0483C8.47765 11.001 8.32349 11.0403 8.01518 11.1187C5.41964 11.7795 3.5 14.1324 3.5 16.9336C3.5 20.2473 6.18629 22.9336 9.5 22.9336Z" stroke="white" stroke-width="1.5" stroke-linecap="round" stroke-linejoin="round"/>
</svg>
