<svg width="24" height="25" viewBox="0 0 24 25" fill="none" xmlns="http://www.w3.org/2000/svg">
<path d="M16.82 21.268L3.753 4.468C3.68413 4.37931 3.64152 4.27307 3.63004 4.16137C3.61855 4.04967 3.63864 3.93698 3.68803 3.83613C3.73741 3.73528 3.8141 3.65032 3.90938 3.59089C4.00466 3.53147 4.11471 3.49998 4.227 3.5H6.707C6.79829 3.50014 6.88836 3.5211 6.97032 3.56131C7.05229 3.60151 7.124 3.65989 7.18 3.732L20.247 20.532C20.3159 20.6207 20.3585 20.7269 20.37 20.8386C20.3814 20.9503 20.3614 21.063 20.312 21.1639C20.2626 21.2647 20.1859 21.3497 20.0906 21.4091C19.9953 21.4685 19.8853 21.5 19.773 21.5H17.293C17.2017 21.4999 17.1116 21.4789 17.0297 21.4387C16.9477 21.3985 16.876 21.3401 16.82 21.268Z" stroke="#007BFF" stroke-width="1.5"/>
<path d="M20 3.5L4 21.5" stroke="#007BFF" stroke-width="1.5" stroke-linecap="round"/>
</svg>
